<?xml version="1.0" encoding="utf-8"?>
<!-- Generator: Adobe Illustrator 25.2.3, SVG Export Plug-In . SVG Version: 6.00 Build 0)  -->
<svg version="1.1" id="Layer_1" xmlns="http://www.w3.org/2000/svg" xmlns:xlink="http://www.w3.org/1999/xlink" x="0px" y="0px"
	 viewBox="0 0 24 24" style="enable-background:new 0 0 24 24;" xml:space="preserve">
<style type="text/css">
	.st0{fill:#434343;}
</style>
<g>
	<path class="st0" d="M13.2,10.6L13.2,10.6C13.2,10.6,13.2,10.6,13.2,10.6L13.2,10.6z"/>
	<path class="st0" d="M12,0C5.4,0,0,5.4,0,12s5.4,12,12,12s12-5.4,12-12C24,5.4,18.6,0,12,0z M9,17.4c0,0.1-0.1,0.2-0.2,0.2H6.5
		c-0.1,0-0.2-0.1-0.2-0.2V9.6c0-0.1,0.1-0.2,0.2-0.2h2.3C8.9,9.4,9,9.5,9,9.6V17.4z M7.6,8.4c-0.8,0-1.5-0.7-1.5-1.5
		s0.7-1.5,1.5-1.5C8.4,5.5,9,6.1,9,6.9S8.4,8.4,7.6,8.4z M18.8,17.4c0,0.1-0.1,0.2-0.2,0.2h-2.3c-0.1,0-0.2-0.1-0.2-0.2v-4.2
		c0-1.1-0.4-1.8-1.4-1.8c-0.8,0-1.2,0.5-1.4,1c-0.1,0.2-0.1,0.4-0.1,0.7v4.4c0,0.1-0.1,0.2-0.2,0.2h-2.3c-0.1,0-0.2-0.1-0.2-0.2
		c0-1.1,0-6.5,0-7.8c0-0.1,0.1-0.2,0.2-0.2H13c0.1,0,0.2,0.1,0.2,0.2v1c0.4-0.6,1-1.3,2.4-1.3c1.8,0,3.1,1.2,3.1,3.7V17.4z"/>
</g>
</svg>
