<svg width="95" height="95" viewBox="0 0 95 95" fill="none" xmlns="http://www.w3.org/2000/svg">
<g filter="url(#filter0_d)">
<path d="M58.0956 0C32.3316 0 17.2289 29.0951 31.9225 50.1838L26.3122 55.7857L25.0265 54.4166C24.6743 54.0648 24.1969 53.8672 23.6991 53.8672C23.2013 53.8672 22.7239 54.0648 22.3717 54.4166L2.41836 74.3281C0.773069 76.1507 -0.0923345 78.5455 0.00781723 80.9989C0.107969 83.4522 1.1657 85.7685 2.95407 87.4509C4.74245 89.1333 7.11901 90.0478 9.57386 89.9981C12.0287 89.9484 14.3663 88.9385 16.0851 87.1851L35.5959 67.716C35.9477 67.3638 36.1453 66.8863 36.1453 66.3885C36.1453 65.8908 35.9477 65.4133 35.5959 65.0611L34.2685 63.7253L39.8705 58.1234C60.9258 72.7753 90.0125 57.6976 90.0125 31.9169C90.0037 23.4547 86.6382 15.3417 80.6545 9.35802C74.6708 3.37435 66.5578 0.0088401 58.0956 0ZM13.3384 84.6387C12.3121 85.7281 10.8951 86.3652 9.39912 86.4098C7.90311 86.4544 6.45065 85.9029 5.36127 84.8767C4.27188 83.8504 3.6348 82.4334 3.59018 80.9374C3.54556 79.4414 4.09705 77.9889 5.12333 76.8995L23.6574 58.3655L31.6136 66.3218L13.3384 84.6387ZM31.6387 61.0371L29.0005 58.3989L34.2769 53.1225C35.1054 54.0513 35.9863 54.9321 36.915 55.7607L31.6387 61.0371ZM58.0956 60.1104C52.524 60.112 47.0772 58.4614 42.4438 55.3672C37.8104 52.273 34.1987 47.8743 32.0654 42.7273C29.9322 37.5804 29.3731 31.9164 30.4591 26.4517C31.545 20.987 34.2271 15.9671 38.1662 12.0269C42.1053 8.08662 47.1244 5.40301 52.5888 4.31545C58.0531 3.22789 63.7173 3.78523 68.8649 5.91699C74.0125 8.04874 78.4123 11.6591 81.5078 16.2916C84.6034 20.924 86.2556 26.3704 86.2556 31.942C86.2402 39.4042 83.2678 46.5561 77.9896 51.8312C72.7115 57.1062 65.5578 60.0743 58.0956 60.0853V60.1104Z" fill="#F6C900"/>
<path d="M58.096 7.51379C35.9637 7.51379 25.2023 34.839 41.6408 49.8999C41.7482 50.0213 41.8686 50.1304 41.9998 50.2255C46.4383 54.157 52.1625 56.3276 58.0918 56.3276C64.0211 56.3276 69.7453 54.157 74.1838 50.2255C74.3193 50.1325 74.4403 50.02 74.5428 49.8916C90.9813 34.8139 80.1281 7.51379 58.096 7.51379ZM52.4606 26.2899C52.459 25.175 52.7881 24.0847 53.4063 23.1568C54.0245 22.229 54.9041 21.5054 55.9336 21.0776C56.9632 20.6498 58.0965 20.537 59.1902 20.7535C60.2839 20.97 61.2889 21.5061 62.0778 22.2938C62.8668 23.0816 63.4043 24.0857 63.6224 25.1791C63.8405 26.2725 63.7294 27.406 63.3031 28.4362C62.8769 29.4664 62.1546 30.347 61.2277 30.9666C60.3008 31.5862 59.2109 31.9169 58.096 31.9169C56.6035 31.9147 55.1727 31.3214 54.1166 30.2669C53.0604 29.2123 52.465 27.7824 52.4606 26.2899ZM71.2368 47.8378C69.3325 49.4034 67.164 50.6163 64.8333 51.4194C65.9521 48.0799 66.1858 50.9268 62.3287 35.6738H65.6014C67.0953 35.676 68.5274 36.2705 69.5838 37.3268C70.6401 38.3832 71.2346 39.8153 71.2368 41.3092V47.8378ZM53.8131 35.6738C50.0479 50.7014 50.2315 48.0549 51.3085 51.4194C48.9787 50.6143 46.8105 49.4016 44.9051 47.8378V41.3092C44.9073 39.8153 45.5017 38.3832 46.5581 37.3268C47.6144 36.2705 49.0465 35.676 50.5404 35.6738H53.8131ZM55.6415 52.4129L54.4142 48.7395L57.6785 35.6738H58.5134L61.761 48.7395L60.5421 52.4129C58.9152 52.6209 57.2684 52.6209 55.6415 52.4129ZM74.9937 43.7553V41.3092C74.9892 38.8195 73.9983 36.4332 72.2379 34.6727C70.4774 32.9123 68.091 31.9213 65.6014 31.9169C65.2007 31.9169 67.4799 30.2472 67.4799 26.2899C67.5173 25.0335 67.3022 23.7824 66.8473 22.6106C66.3924 21.4388 65.7068 20.3703 64.8314 19.4684C63.9559 18.5664 62.9083 17.8493 61.7506 17.3597C60.593 16.87 59.3488 16.6177 58.0918 16.6177C56.8348 16.6177 55.5906 16.87 54.433 17.3597C53.2753 17.8493 52.2277 18.5664 51.3522 19.4684C50.4767 20.3703 49.7912 21.4388 49.3363 22.6106C48.8814 23.7824 48.6663 25.0335 48.7037 26.2899C48.7037 30.2722 50.9495 31.9169 50.5822 31.9169C48.0933 31.9213 45.7078 32.9126 43.9487 34.6732C42.1896 36.4339 41.2005 38.8203 41.1983 41.3092V43.7553C31.7059 30.1971 41.3486 11.2707 58.096 11.2707C74.8434 11.2707 84.5362 30.147 74.9937 43.7553Z" fill="#F6C900"/>
</g>
<defs>
<filter id="filter0_d" x="0" y="0" width="94.5125" height="94.5" filterUnits="userSpaceOnUse" color-interpolation-filters="sRGB">
<feFlood flood-opacity="0" result="BackgroundImageFix"/>
<feColorMatrix in="SourceAlpha" type="matrix" values="0 0 0 0 0 0 0 0 0 0 0 0 0 0 0 0 0 0 127 0" result="hardAlpha"/>
<feOffset dx="4" dy="4"/>
<feGaussianBlur stdDeviation="0.25"/>
<feColorMatrix type="matrix" values="0 0 0 0 0 0 0 0 0 0 0 0 0 0 0 0 0 0 0.1 0"/>
<feBlend mode="normal" in2="BackgroundImageFix" result="effect1_dropShadow"/>
<feBlend mode="normal" in="SourceGraphic" in2="effect1_dropShadow" result="shape"/>
</filter>
</defs>
</svg>
