<svg width="72" height="95" viewBox="0 0 72 95" fill="none" xmlns="http://www.w3.org/2000/svg">
<g filter="url(#filter0_d)">
<path d="M67.4454 14.9375C67.3954 13.9957 67.7705 14.6958 55.7781 0.694992C54.9447 -0.255061 58.5033 0.0449558 1.8751 0.0449558C1.3778 0.0449558 0.900856 0.242511 0.549206 0.594161C0.197555 0.945811 0 1.42275 0 1.92006V88.1249C0 88.6222 0.197555 89.0991 0.549206 89.4508C0.900856 89.8024 1.3778 90 1.8751 90H65.587C65.8336 90.0011 66.0779 89.9533 66.3059 89.8595C66.5339 89.7656 66.741 89.6276 66.9154 89.4532C67.0897 89.2789 67.2278 89.0717 67.3216 88.8438C67.4155 88.6158 67.4632 88.3714 67.4621 88.1249C67.4621 3.49514 67.5204 16.2292 67.4454 14.9375ZM56.2198 6.98701L61.5118 13.1624H56.2198V6.98701ZM3.71688 86.2581V3.79517H52.4696V15.0375C52.4696 15.5348 52.6672 16.0117 53.0188 16.3634C53.3705 16.715 53.8474 16.9126 54.3447 16.9126H63.7119V86.2581H3.71688Z" fill="#F6C900"/>
<path d="M16.8597 20.6628H31.8606C32.3579 20.6628 32.8348 20.4653 33.1865 20.1136C33.5381 19.762 33.7357 19.285 33.7357 18.7877C33.7357 18.2904 33.5381 17.8135 33.1865 17.4618C32.8348 17.1102 32.3579 16.9126 31.8606 16.9126H16.8597C16.3624 16.9126 15.8855 17.1102 15.5338 17.4618C15.1822 17.8135 14.9846 18.2904 14.9846 18.7877C14.9846 19.285 15.1822 19.762 15.5338 20.1136C15.8855 20.4653 16.3624 20.6628 16.8597 20.6628Z" fill="#F6C900"/>
<path d="M16.8597 28.1549H24.3601C24.8575 28.1549 25.3344 27.9573 25.686 27.6057C26.0377 27.254 26.2352 26.7771 26.2352 26.2798C26.2352 25.7825 26.0377 25.3055 25.686 24.9539C25.3344 24.6022 24.8575 24.4047 24.3601 24.4047H16.8597C16.3624 24.4047 15.8855 24.6022 15.5338 24.9539C15.1822 25.3055 14.9846 25.7825 14.9846 26.2798C14.9846 26.7771 15.1822 27.254 15.5338 27.6057C15.8855 27.9573 16.3624 28.1549 16.8597 28.1549Z" fill="#F6C900"/>
<path d="M16.859 50.6477H46.8607C47.358 50.6477 47.8349 50.4502 48.1866 50.0985C48.5382 49.7469 48.7358 49.2699 48.7358 48.7726C48.7358 48.2753 48.5382 47.7984 48.1866 47.4467C47.8349 47.0951 47.358 46.8975 46.8607 46.8975H44.9772V30.805L48.7191 27.0547V30.0299C48.7191 30.5272 48.9167 31.0042 49.2683 31.3558C49.62 31.7075 50.0969 31.905 50.5942 31.905C51.0915 31.905 51.5685 31.7075 51.9201 31.3558C52.2718 31.0042 52.4693 30.5272 52.4693 30.0299C52.4693 18.896 54.1361 20.6627 43.1021 20.6627C42.6275 20.6944 42.1827 20.9053 41.8577 21.2527C41.5328 21.6001 41.352 22.058 41.352 22.5337C41.352 23.0093 41.5328 23.4672 41.8577 23.8146C42.1827 24.162 42.6275 24.3729 43.1021 24.4046H46.069L35.235 35.2385C28.568 31.905 28.7263 31.905 28.043 31.905C27.2096 31.905 27.4929 31.905 19.4842 37.897C18.4174 38.7304 18.7341 39.3138 18.7341 46.8892H16.859C16.3606 46.8892 15.8826 47.0872 15.5302 47.4396C15.1777 47.792 14.9797 48.27 14.9797 48.7685C14.9797 49.2669 15.1777 49.7449 15.5302 50.0973C15.8826 50.4497 16.3606 50.6477 16.859 50.6477ZM29.9847 36.7803L33.7266 38.6554V46.8642H29.9847V36.7803ZM41.227 46.8642H37.4768V38.3054L41.227 34.5552V46.8642ZM22.4843 40.3388L26.2345 37.5303V46.8975H22.4843V40.3388Z" fill="#F6C900"/>
<path d="M28.1101 60.0149H9.36741C8.87011 60.0149 8.39316 60.2124 8.04151 60.5641C7.68986 60.9158 7.49231 61.3927 7.49231 61.89C7.49231 62.3873 7.68986 62.8643 8.04151 63.2159C8.39316 63.5676 8.87011 63.7651 9.36741 63.7651H28.1101C28.6074 63.7651 29.0844 63.5676 29.436 63.2159C29.7877 62.8643 29.9852 62.3873 29.9852 61.89C29.9852 61.3927 29.7877 60.9158 29.436 60.5641C29.0844 60.2124 28.6074 60.0149 28.1101 60.0149Z" fill="#F6C900"/>
<path d="M28.1101 67.5154H9.36741C8.87011 67.5154 8.39316 67.7129 8.04151 68.0646C7.68986 68.4162 7.49231 68.8932 7.49231 69.3905C7.49231 69.8878 7.68986 70.3647 8.04151 70.7164C8.39316 71.068 8.87011 71.2656 9.36741 71.2656H28.1101C28.6074 71.2656 29.0844 71.068 29.436 70.7164C29.7877 70.3647 29.9852 69.8878 29.9852 69.3905C29.9852 68.8932 29.7877 68.4162 29.436 68.0646C29.0844 67.7129 28.6074 67.5154 28.1101 67.5154Z" fill="#F6C900"/>
<path d="M28.1101 75.0074H9.36741C8.87011 75.0074 8.39316 75.205 8.04151 75.5566C7.68986 75.9083 7.49231 76.3852 7.49231 76.8826C7.49231 77.3799 7.68986 77.8568 8.04151 78.2084C8.39316 78.5601 8.87011 78.7577 9.36741 78.7577H28.1101C28.6074 78.7577 29.0844 78.5601 29.436 78.2084C29.7877 77.8568 29.9852 77.3799 29.9852 76.8826C29.9852 76.3852 29.7877 75.9083 29.436 75.5566C29.0844 75.205 28.6074 75.0074 28.1101 75.0074Z" fill="#F6C900"/>
<path d="M46.8442 56.2648C44.2482 56.2648 41.7105 57.0346 39.552 58.4769C37.3935 59.9191 35.7111 61.9691 34.7176 64.3675C33.7242 66.7659 33.4643 69.4051 33.9707 71.9512C34.4772 74.4974 35.7273 76.8361 37.563 78.6718C39.3986 80.5075 41.7374 81.7576 44.2835 82.264C46.8297 82.7705 49.4688 82.5106 51.8672 81.5171C54.2657 80.5236 56.3156 78.8413 57.7579 76.6828C59.2002 74.5243 59.97 71.9865 59.97 69.3905C59.9656 65.9107 58.5813 62.5747 56.1207 60.1141C53.6601 57.6535 50.3241 56.2692 46.8442 56.2648ZM56.0114 67.5154H48.7193V60.2067C50.5189 60.5766 52.1705 61.4661 53.4695 62.7652C54.7686 64.0643 55.6582 65.7158 56.0281 67.5154H56.0114ZM44.9775 60.2067V68.6155L39.0355 74.5491C38.1906 73.2706 37.6723 71.8043 37.526 70.2788C37.3797 68.7533 37.6099 67.2152 38.1965 65.7994C38.783 64.3836 39.708 63.1334 40.8902 62.1583C42.0725 61.1832 43.4759 60.5131 44.9775 60.2067ZM41.6856 77.1993L47.6276 71.2656H56.0281C55.7188 72.7653 55.0468 74.1664 54.0709 75.3465C53.095 76.5265 51.845 77.4496 50.43 78.035C49.0151 78.6204 47.4782 78.8503 45.9539 78.7046C44.4296 78.5589 42.9641 78.0421 41.6856 77.1993Z" fill="#F6C900"/>
</g>
<defs>
<filter id="filter0_d" x="0" y="0" width="71.9837" height="94.5" filterUnits="userSpaceOnUse" color-interpolation-filters="sRGB">
<feFlood flood-opacity="0" result="BackgroundImageFix"/>
<feColorMatrix in="SourceAlpha" type="matrix" values="0 0 0 0 0 0 0 0 0 0 0 0 0 0 0 0 0 0 127 0" result="hardAlpha"/>
<feOffset dx="4" dy="4"/>
<feGaussianBlur stdDeviation="0.25"/>
<feColorMatrix type="matrix" values="0 0 0 0 0 0 0 0 0 0 0 0 0 0 0 0 0 0 0.1 0"/>
<feBlend mode="normal" in2="BackgroundImageFix" result="effect1_dropShadow"/>
<feBlend mode="normal" in="SourceGraphic" in2="effect1_dropShadow" result="shape"/>
</filter>
</defs>
</svg>
