<svg width="95" height="95" viewBox="0 0 95 95" fill="none" xmlns="http://www.w3.org/2000/svg">
<g filter="url(#filter0_d)">
<path d="M88.0634 18.7374C88.5606 18.7374 89.0374 18.5399 89.3889 18.1884C89.7405 17.8368 89.938 17.36 89.938 16.8628V9.36455C89.938 8.86738 89.7405 8.39057 89.3889 8.03902C89.0374 7.68747 88.5606 7.48997 88.0634 7.48997H52.4631V1.87458C52.4631 1.37741 52.2656 0.900601 51.9141 0.54905C51.5625 0.197499 51.0857 0 50.5885 0H39.3494C38.8523 0 38.3755 0.197499 38.0239 0.54905C37.6723 0.900601 37.4748 1.37741 37.4748 1.87458V7.4983H1.87458C1.37741 7.4983 0.900602 7.6958 0.549051 8.04735C0.1975 8.3989 0 8.87571 0 9.37288V16.8712C0 17.3683 0.1975 17.8452 0.549051 18.1967C0.900602 18.5483 1.37741 18.7458 1.87458 18.7458H3.74915V59.9614H1.87458C1.37741 59.9614 0.900602 60.1589 0.549051 60.5105C0.1975 60.862 0 61.3388 0 61.836V69.3343C0 69.8315 0.1975 70.3083 0.549051 70.6598C0.900602 71.0114 1.37741 71.2089 1.87458 71.2089H27.2105C20.2204 88.7049 20.1538 87.9717 20.9286 89.1215C21.7034 90.2712 21.4951 89.9546 33.7257 89.9546C35.4836 89.9546 35.0921 89.713 42.4904 71.2172H47.4892L54.5127 88.7799C55.1458 90.3545 55.5541 89.9546 67.493 89.9546C67.7989 89.9545 68.1 89.8794 68.3702 89.7362C68.6404 89.5929 68.8714 89.3857 69.0431 89.1326C69.2148 88.8796 69.322 88.5883 69.3554 88.2843C69.3887 87.9803 69.3471 87.6728 69.2343 87.3885L62.7275 71.2005H88.0634C88.5606 71.2005 89.0374 71.003 89.3889 70.6515C89.7405 70.2999 89.938 69.8231 89.938 69.326V61.8277C89.938 61.3305 89.7405 60.8537 89.3889 60.5021C89.0374 60.1506 88.5606 59.9531 88.0634 59.9531H86.1888V18.7374H88.0634ZM41.224 3.74082H48.7223V7.48997H41.224V3.74082ZM3.73249 11.2391H86.2138V14.9883H3.74915L3.73249 11.2391ZM32.4427 86.2221H25.2526L31.2513 71.2255H38.4163L32.4427 86.2221ZM64.6687 86.2221H57.4786L51.48 71.2255H58.6867L64.6687 86.2221ZM86.1721 67.4847H3.74915V63.7106H86.2305L86.1721 67.4847ZM82.423 59.9864H7.4983V18.7374H82.4813L82.423 59.9864Z" fill="#F6C900"/>
<path d="M13.1135 56.2122H43.1067C43.6038 56.2122 44.0806 56.0147 44.4322 55.6632C44.7837 55.3116 44.9813 54.8348 44.9813 54.3376C44.9813 53.8405 44.7837 53.3637 44.4322 53.0121C44.0806 52.6605 43.6038 52.4631 43.1067 52.4631H41.2238V36.375L44.9646 32.6092V35.5752C44.9646 36.0724 45.1621 36.5492 45.5136 36.9007C45.8652 37.2523 46.342 37.4498 46.8392 37.4498C47.3363 37.4498 47.8131 37.2523 48.1647 36.9007C48.5162 36.5492 48.7137 36.0724 48.7137 35.5752C48.7137 24.4444 50.38 26.2107 39.3492 26.2107C38.852 26.2107 38.3752 26.4082 38.0237 26.7597C37.6721 27.1113 37.4746 27.5881 37.4746 28.0852C37.4746 28.5824 37.6721 29.0592 38.0237 29.4108C38.3752 29.7623 38.852 29.9598 39.3492 29.9598H42.3152L31.4843 40.7907C25.3274 37.7164 25.0108 37.4581 24.2943 37.4581C23.5778 37.4581 23.7111 37.4581 15.7379 43.4401C14.6714 44.2732 14.988 44.8564 14.988 52.4297H13.1135C12.6119 52.4297 12.1308 52.629 11.7762 52.9837C11.4215 53.3383 11.2222 53.8194 11.2222 54.321C11.2222 54.8225 11.4215 55.3036 11.7762 55.6583C12.1308 56.0129 12.6119 56.2122 13.1135 56.2122ZM26.2355 42.382L29.9763 44.2732V52.4797H26.2355V42.382ZM37.4746 52.4631H33.7255V43.8733L37.4746 40.1242V52.4631ZM18.7372 45.9395L22.4863 43.1318V52.4631H18.7372V45.9395Z" fill="#F6C900"/>
<path d="M13.1139 26.2357H28.1105C28.6077 26.2357 29.0845 26.0382 29.436 25.6867C29.7876 25.3351 29.9851 24.8583 29.9851 24.3611C29.9851 23.864 29.7876 23.3872 29.436 23.0356C29.0845 22.6841 28.6077 22.4866 28.1105 22.4866H13.1139C12.6167 22.4866 12.1399 22.6841 11.7884 23.0356C11.4368 23.3872 11.2393 23.864 11.2393 24.3611C11.2393 24.8583 11.4368 25.3351 11.7884 25.6867C12.1399 26.0382 12.6167 26.2357 13.1139 26.2357Z" fill="#F6C900"/>
<path d="M13.1134 33.7257H20.6117C21.0862 33.694 21.5309 33.4832 21.8558 33.1359C22.1807 32.7886 22.3614 32.3308 22.3614 31.8553C22.3614 31.3797 22.1807 30.922 21.8558 30.5747C21.5309 30.2274 21.0862 30.0165 20.6117 29.9849H13.1134C12.639 30.0165 12.1942 30.2274 11.8694 30.5747C11.5445 30.922 11.3638 31.3797 11.3638 31.8553C11.3638 32.3308 11.5445 32.7886 11.8694 33.1359C12.1942 33.4832 12.639 33.694 13.1134 33.7257Z" fill="#F6C900"/>
<path d="M65.5766 52.4631C68.1702 52.4631 70.7056 51.694 72.8622 50.2531C75.0187 48.8121 76.6995 46.764 77.6921 44.3678C78.6846 41.9716 78.9443 39.3349 78.4383 36.7911C77.9323 34.2473 76.6834 31.9106 74.8494 30.0766C73.0154 28.2427 70.6788 26.9937 68.1349 26.4877C65.5911 25.9817 62.9544 26.2414 60.5582 27.2339C58.162 28.2265 56.1139 29.9073 54.6729 32.0638C53.232 34.2204 52.4629 36.7558 52.4629 39.3494C52.4673 42.826 53.8503 46.159 56.3087 48.6173C58.767 51.0757 62.1 52.4587 65.5766 52.4631ZM60.4194 47.156L66.3514 41.224H74.7578C74.4504 42.7244 73.7797 44.1265 72.8044 45.3074C71.8291 46.4883 70.5791 47.412 69.1639 47.9975C67.7486 48.583 66.2114 48.8125 64.6868 48.6657C63.1623 48.519 61.697 48.0006 60.4194 47.156ZM74.7578 37.4748H67.4512V30.1682C69.2493 30.54 70.8993 31.4299 72.1977 32.7283C73.4961 34.0267 74.386 35.6767 74.7578 37.4748ZM63.702 30.1682V38.5746L57.77 44.5066C56.9254 43.229 56.407 41.7637 56.2603 40.2392C56.1135 38.7146 56.343 37.1774 56.9285 35.7622C57.514 34.3469 58.4377 33.0969 59.6186 32.1216C60.7995 31.1463 62.2016 30.4756 63.702 30.1682Z" fill="#F6C900"/>
</g>
<defs>
<filter id="filter0_d" x="0" y="0" width="94.438" height="94.5" filterUnits="userSpaceOnUse" color-interpolation-filters="sRGB">
<feFlood flood-opacity="0" result="BackgroundImageFix"/>
<feColorMatrix in="SourceAlpha" type="matrix" values="0 0 0 0 0 0 0 0 0 0 0 0 0 0 0 0 0 0 127 0" result="hardAlpha"/>
<feOffset dx="4" dy="4"/>
<feGaussianBlur stdDeviation="0.25"/>
<feColorMatrix type="matrix" values="0 0 0 0 0 0 0 0 0 0 0 0 0 0 0 0 0 0 0.1 0"/>
<feBlend mode="normal" in2="BackgroundImageFix" result="effect1_dropShadow"/>
<feBlend mode="normal" in="SourceGraphic" in2="effect1_dropShadow" result="shape"/>
</filter>
</defs>
</svg>
