<svg width="100" height="100" viewBox="0 0 100 100" fill="none" xmlns="http://www.w3.org/2000/svg">
<g filter="url(#filter0_d)">
<path d="M93.2019 25.5826H87.5642V19.9449C87.5642 19.4465 87.3662 18.9685 87.0138 18.6161C86.6614 18.2637 86.1834 18.0657 85.685 18.0657H57.5133C56.0495 18.0718 54.6074 18.4202 53.3022 19.0829C51.9971 19.7456 50.865 20.7044 49.9963 21.8826C49.1291 20.7029 47.9973 19.7431 46.6918 19.0802C45.3863 18.4173 43.9436 18.0698 42.4794 18.0657H14.3161C13.8177 18.0657 13.3397 18.2637 12.9872 18.6161C12.6348 18.9685 12.4368 19.4465 12.4368 19.9449V25.5826H6.79915C6.30075 25.5826 5.82276 25.7806 5.47034 26.133C5.11791 26.4854 4.91992 26.9634 4.91992 27.4618V80.0802C4.92651 80.5743 5.1274 81.0458 5.47912 81.3929C5.83083 81.7399 6.30506 81.9344 6.79915 81.9344H93.2019C93.7003 81.9344 94.1783 81.7364 94.5307 81.384C94.8831 81.0315 95.0811 80.5536 95.0811 80.0552V27.4368C95.0745 26.9427 94.8736 26.4711 94.5219 26.1241C94.1702 25.7771 93.696 25.5825 93.2019 25.5826ZM57.5133 21.8241H83.8057V70.659C55.4085 70.659 55.2665 70.0243 51.8756 72.5884V27.4869C51.8734 26.7447 52.0175 26.0094 52.2997 25.323C52.582 24.6366 52.9968 24.0126 53.5204 23.4867C54.044 22.9607 54.6662 22.5432 55.3513 22.2579C56.0364 21.9726 56.7711 21.8252 57.5133 21.8241ZM16.1953 21.8241H42.4878C43.9823 21.8263 45.415 22.421 46.4718 23.4778C47.5286 24.5346 48.1233 25.9673 48.1255 27.4618V72.5633C44.7178 69.9825 44.6844 70.634 16.1953 70.634V21.8241ZM8.67838 78.1759V29.341H12.4368V72.5382C12.4368 73.0366 12.6348 73.5146 12.9872 73.8671C13.3397 74.2195 13.8177 74.4175 14.3161 74.4175H42.4878C43.6528 74.4194 44.7886 74.7816 45.7397 75.4545C46.6907 76.1274 47.4103 77.078 47.7997 78.1759H8.67838ZM91.3644 78.1759H52.2013C52.5908 77.078 53.3104 76.1274 54.2614 75.4545C55.2124 74.7816 56.3483 74.4194 57.5133 74.4175H85.685C86.1834 74.4175 86.6614 74.2195 87.0138 73.8671C87.3662 73.5146 87.5642 73.0366 87.5642 72.5382V29.341H91.3226L91.3644 78.1759Z" fill="#F6C900"/>
<path d="M23.2365 46.7051C30.2773 53.7459 42.4464 48.7681 42.4464 38.7288C42.4442 35.7485 41.2622 32.8903 39.1587 30.779C37.0552 28.6677 34.2014 27.475 31.2211 27.4618C21.1485 27.4618 16.2207 39.6893 23.2365 46.7051ZM27.4126 45.1767L31.9812 40.608H38.4457C38.1612 41.7306 37.6187 42.7712 36.8613 43.6472C36.1039 44.5232 35.1525 45.2103 34.0828 45.654C33.0131 46.0976 31.8546 46.2854 30.6995 46.2026C29.5445 46.1197 28.4247 45.7684 27.4293 45.1767H27.4126ZM31.2044 31.2202C32.8635 31.2279 34.4733 31.7842 35.7832 32.8025C37.093 33.8207 38.0291 35.2437 38.4457 36.8496H31.2211C30.1855 36.8496 30.2606 37.025 24.7733 42.5207C24.1099 41.3819 23.7576 40.0886 23.7517 38.7707C23.7458 37.4528 24.0865 36.1565 24.7396 35.0117C25.3928 33.867 26.3354 32.9142 27.473 32.2487C28.6106 31.5832 29.9032 31.2286 31.2211 31.2202H31.2044Z" fill="#F6C900"/>
<path d="M21.8245 57.5127H40.6085C41.1069 57.5127 41.5849 57.3147 41.9373 56.9623C42.2897 56.6099 42.4877 56.1319 42.4877 55.6335C42.4877 55.1351 42.2897 54.6571 41.9373 54.3047C41.5849 53.9523 41.1069 53.7543 40.6085 53.7543H21.8245C21.3261 53.7543 20.8481 53.9523 20.4957 54.3047C20.1433 54.6571 19.9453 55.1351 19.9453 55.6335C19.9453 56.1319 20.1433 56.6099 20.4957 56.9623C20.8481 57.3147 21.3261 57.5127 21.8245 57.5127Z" fill="#F6C900"/>
<path d="M21.8245 65.0297H33.0916C33.59 65.0297 34.0679 64.8317 34.4204 64.4793C34.7728 64.1269 34.9708 63.6489 34.9708 63.1505C34.9708 62.6521 34.7728 62.1741 34.4204 61.8217C34.0679 61.4692 33.59 61.2712 33.0916 61.2712H21.8245C21.3261 61.2712 20.8481 61.4692 20.4957 61.8217C20.1433 62.1741 19.9453 62.6521 19.9453 63.1505C19.9453 63.6489 20.1433 64.1269 20.4957 64.4793C20.8481 64.8317 21.3261 65.0297 21.8245 65.0297Z" fill="#F6C900"/>
<path d="M59.3929 57.5127H78.1768C78.6752 57.5127 79.1532 57.3147 79.5056 56.9623C79.8581 56.6099 80.0561 56.1319 80.0561 55.6335C80.0561 55.1351 79.8581 54.6571 79.5056 54.3047C79.1532 53.9523 78.6752 53.7543 78.1768 53.7543H59.3929C58.8945 53.7543 58.4165 53.9523 58.0641 54.3047C57.7117 54.6571 57.5137 55.1351 57.5137 55.6335C57.5137 56.1319 57.7117 56.6099 58.0641 56.9623C58.4165 57.3147 58.8945 57.5127 59.3929 57.5127Z" fill="#F6C900"/>
<path d="M59.3929 65.0297H70.6599C71.1583 65.0297 71.6363 64.8317 71.9887 64.4793C72.3412 64.1269 72.5391 63.6489 72.5391 63.1505C72.5391 62.6521 72.3412 62.1741 71.9887 61.8217C71.6363 61.4692 71.1583 61.2712 70.6599 61.2712H59.3929C58.8945 61.2712 58.4165 61.4692 58.0641 61.8217C57.7117 62.1741 57.5137 62.6521 57.5137 63.1505C57.5137 63.6489 57.7117 64.1269 58.0641 64.4793C58.4165 64.8317 58.8945 65.0297 59.3929 65.0297Z" fill="#F6C900"/>
<path d="M61.2718 48.1249H76.3057C76.8041 48.1249 77.282 47.9269 77.6345 47.5745C77.9869 47.2221 78.1849 46.7441 78.1849 46.2457V31.2119C78.1849 30.7135 77.9869 30.2355 77.6345 29.8831C77.282 29.5306 76.8041 29.3326 76.3057 29.3326H68.7887C68.2903 29.3326 67.8123 29.5306 67.4599 29.8831C67.1075 30.2355 66.9095 30.7135 66.9095 31.2119V36.8412H61.2718C60.7734 36.8412 60.2954 37.0392 59.943 37.3916C59.5906 37.744 59.3926 38.222 59.3926 38.7204V46.2373C59.3915 46.4848 59.4393 46.7301 59.5332 46.9591C59.6272 47.188 59.7654 47.3962 59.94 47.5716C60.1147 47.747 60.3222 47.8861 60.5507 47.9811C60.7793 48.076 61.0243 48.1249 61.2718 48.1249ZM70.6596 33.0911H74.4181V44.3665H70.6596V33.0911ZM63.1427 40.608H66.9012V44.3665H63.1511L63.1427 40.608Z" fill="#F6C900"/>
</g>
<defs>
<filter id="filter0_d" x="0" y="0" width="104.5" height="104.5" filterUnits="userSpaceOnUse" color-interpolation-filters="sRGB">
<feFlood flood-opacity="0" result="BackgroundImageFix"/>
<feColorMatrix in="SourceAlpha" type="matrix" values="0 0 0 0 0 0 0 0 0 0 0 0 0 0 0 0 0 0 127 0" result="hardAlpha"/>
<feOffset dx="4" dy="4"/>
<feGaussianBlur stdDeviation="0.25"/>
<feColorMatrix type="matrix" values="0 0 0 0 0 0 0 0 0 0 0 0 0 0 0 0 0 0 0.1 0"/>
<feBlend mode="normal" in2="BackgroundImageFix" result="effect1_dropShadow"/>
<feBlend mode="normal" in="SourceGraphic" in2="effect1_dropShadow" result="shape"/>
</filter>
</defs>
</svg>
