<svg width="100" height="100" viewBox="0 0 100 100" fill="none" xmlns="http://www.w3.org/2000/svg">
<g filter="url(#filter0_d)">
<path d="M93.2019 61.2712H87.5642V16.1697H93.2019C93.7003 16.1697 94.1783 15.9718 94.5307 15.6193C94.8831 15.2669 95.0811 14.7889 95.0811 14.2905C95.0811 13.7921 94.8831 13.3141 94.5307 12.9617C94.1783 12.6093 93.7003 12.4113 93.2019 12.4113H61.2717V6.79866C61.2717 6.30026 61.0737 5.82227 60.7213 5.46985C60.3689 5.11742 59.8909 4.91943 59.3925 4.91943H40.6086C40.1101 4.91943 39.6322 5.11742 39.2797 5.46985C38.9273 5.82227 38.7293 6.30026 38.7293 6.79866V12.4363H6.79915C6.30075 12.4363 5.82276 12.6343 5.47034 12.9868C5.11791 13.3392 4.91992 13.8172 4.91992 14.3156C4.91992 14.814 5.11791 15.292 5.47034 15.6444C5.82276 15.9968 6.30075 16.1948 6.79915 16.1948H12.4368V61.2963H6.79915C6.30075 61.2963 5.82276 61.4943 5.47034 61.8467C5.11791 62.1991 4.91992 62.6771 4.91992 63.1755C4.91992 63.6739 5.11791 64.1519 5.47034 64.5043C5.82276 64.8568 6.30075 65.0547 6.79915 65.0547H37.8941L27.5625 92.5416C27.4626 92.8243 27.4317 93.1268 27.4725 93.4238C27.5134 93.7209 27.6247 94.0039 27.7972 94.2491C27.9697 94.4944 28.1983 94.6948 28.4641 94.8336C28.7299 94.9725 29.025 95.0457 29.3248 95.0472C30.9953 95.0472 31.0454 93.9113 33.4424 87.5303H48.1255V93.168C48.1572 93.6437 48.3686 94.0895 48.7167 94.4152C49.0649 94.7408 49.5238 94.922 50.0005 94.922C50.4772 94.922 50.9362 94.7408 51.2843 94.4152C51.6324 94.0895 51.8438 93.6437 51.8756 93.168V87.5303H66.5419C68.9807 94.045 68.9724 95.0472 70.6595 95.0472C70.9593 95.0457 71.2545 94.9725 71.5202 94.8336C71.786 94.6948 72.0147 94.4944 72.1872 94.2491C72.3597 94.0039 72.471 93.7209 72.5118 93.4238C72.5526 93.1268 72.5217 92.8243 72.4218 92.5416L62.0986 65.0297H93.2019C93.7003 65.0297 94.1783 64.8317 94.5307 64.4793C94.8831 64.1268 95.0811 63.6489 95.0811 63.1505C95.0811 62.6521 94.8831 62.1741 94.5307 61.8216C94.1783 61.4692 93.7003 61.2712 93.2019 61.2712ZM42.4878 8.65283H57.5216V12.4113H42.4878V8.65283ZM34.8706 83.822L41.9115 65.0464H48.1255V83.822H34.8706ZM65.1304 83.822H51.8756V65.0297H58.0896L65.1304 83.822ZM16.1869 61.2712V16.1697H83.8391V61.2712H16.1869Z" fill="#F6C900"/>
<path d="M23.1525 30.6691L25.583 28.2386L28.0135 30.6691C28.3697 31.001 28.8409 31.1817 29.3277 31.1731C29.8146 31.1646 30.2791 30.9673 30.6234 30.623C30.9677 30.2787 31.1649 29.8142 31.1735 29.3274C31.1821 28.8405 31.0014 28.3693 30.6694 28.0131L28.239 25.5826L30.6694 23.1522C31.0014 22.7959 31.1821 22.3247 31.1735 21.8379C31.1649 21.351 30.9677 20.8865 30.6234 20.5422C30.2791 20.1979 29.8146 20.0007 29.3277 19.9921C28.8409 19.9835 28.3697 20.1642 28.0135 20.4962L25.583 22.9267L23.1525 20.4962C22.7963 20.1642 22.3251 19.9835 21.8383 19.9921C21.3514 20.0007 20.8869 20.1979 20.5426 20.5422C20.1983 20.8865 20.0011 21.351 19.9925 21.8379C19.9839 22.3247 20.1646 22.7959 20.4966 23.1522L22.927 25.5826L20.4966 28.0131C20.1646 28.3693 19.9839 28.8405 19.9925 29.3274C20.0011 29.8142 20.1983 30.2787 20.5426 30.623C20.8869 30.9673 21.3514 31.1646 21.8383 31.1731C22.3251 31.1817 22.7963 31.001 23.1525 30.6691Z" fill="#F6C900"/>
<path d="M76.8403 46.7719L74.4098 49.194L71.9877 46.7719C71.6321 46.4186 71.1508 46.221 70.6496 46.2225C70.1484 46.2241 69.6683 46.4247 69.315 46.7802C68.9617 47.1358 68.7641 47.6171 68.7656 48.1183C68.7672 48.6195 68.9678 49.0996 69.3233 49.4529L71.7538 51.875L69.3233 54.2888C68.9914 54.645 68.8107 55.1162 68.8193 55.6031C68.8279 56.0899 69.0251 56.5544 69.3694 56.8987C69.7137 57.243 70.1782 57.4403 70.665 57.4489C71.1519 57.4574 71.6231 57.2767 71.9793 56.9448L74.4098 54.5143L76.8403 56.9615C77.1947 57.3148 77.6749 57.5128 78.1754 57.5121C78.6758 57.5113 79.1554 57.3117 79.5088 56.9573C79.8621 56.6029 80.0601 56.1226 80.0593 55.6222C80.0586 55.1218 79.859 54.6421 79.5046 54.2888L77.0741 51.8583L79.5046 49.4362C79.8579 49.0829 80.0564 48.6037 80.0564 48.1041C80.0564 47.6044 79.8579 47.1252 79.5046 46.7719C79.1513 46.4186 78.6721 46.2201 78.1724 46.2201C77.6728 46.2201 77.1936 46.4186 76.8403 46.7719Z" fill="#F6C900"/>
<path d="M27.4622 42.4873C25.9755 42.4873 24.5222 42.9282 23.2861 43.7541C22.0499 44.5801 21.0864 45.7541 20.5175 47.1276C19.9486 48.5012 19.7997 50.0126 20.0898 51.4707C20.3798 52.9288 21.0957 54.2682 22.147 55.3195C23.1982 56.3707 24.5376 57.0866 25.9958 57.3767C27.4539 57.6667 28.9653 57.5179 30.3388 56.9489C31.7124 56.38 32.8863 55.4165 33.7123 54.1804C34.5383 52.9442 34.9791 51.4909 34.9791 50.0042C34.9791 48.0106 34.1872 46.0987 32.7775 44.689C31.3678 43.2793 29.4558 42.4873 27.4622 42.4873ZM27.4622 53.7543C26.7189 53.7543 25.9922 53.5339 25.3741 53.1209C24.7561 52.7079 24.2743 52.1209 23.9899 51.4342C23.7054 50.7474 23.631 49.9917 23.776 49.2626C23.921 48.5336 24.279 47.8639 24.8046 47.3382C25.3302 46.8126 25.9999 46.4546 26.729 46.3096C27.4581 46.1646 28.2138 46.239 28.9005 46.5235C29.5873 46.808 30.1743 47.2897 30.5873 47.9078C31.0003 48.5259 31.2207 49.2525 31.2207 49.9959C31.2185 50.992 30.8218 51.9467 30.1174 52.6511C29.4131 53.3554 28.4584 53.7521 27.4622 53.7543Z" fill="#F6C900"/>
<path d="M72.5384 19.9449C71.0517 19.9449 69.5984 20.3858 68.3622 21.2118C67.1261 22.0377 66.1626 23.2117 65.5937 24.5853C65.0247 25.9588 64.8759 27.4702 65.1659 28.9283C65.456 30.3865 66.1719 31.7259 67.2231 32.7771C68.2744 33.8284 69.6138 34.5443 71.0719 34.8343C72.5301 35.1244 74.0415 34.9755 75.415 34.4066C76.7885 33.8376 77.9625 32.8742 78.7885 31.638C79.6145 30.4019 80.0553 28.9486 80.0553 27.4619C80.0553 25.4683 79.2634 23.5563 77.8537 22.1466C76.444 20.7369 74.532 19.9449 72.5384 19.9449ZM72.5384 31.2203C71.795 31.2203 71.0684 30.9999 70.4503 30.5869C69.8322 30.1739 69.3505 29.5869 69.066 28.9002C68.7816 28.2134 68.7071 27.4577 68.8522 26.7286C68.9972 25.9996 69.3551 25.3299 69.8808 24.8042C70.4064 24.2786 71.0761 23.9206 71.8052 23.7756C72.5342 23.6306 73.2899 23.705 73.9767 23.9895C74.6635 24.274 75.2505 24.7557 75.6634 25.3738C76.0764 25.9918 76.2969 26.7185 76.2969 27.4619C76.2947 28.458 75.898 29.4127 75.1936 30.1171C74.4892 30.8214 73.5345 31.2181 72.5384 31.2203Z" fill="#F6C900"/>
<path d="M56.9621 22.3754C56.6065 22.021 56.1248 21.8223 55.6228 21.8231C55.1208 21.8239 54.6396 22.0241 54.2852 22.3796C53.9308 22.7351 53.7321 23.2169 53.7329 23.7189C53.7337 24.2209 53.9339 24.702 54.2894 25.0565L54.9158 25.6745C52.5603 25.8491 50.3574 26.9059 48.7472 28.6338C47.1369 30.3617 46.2379 32.6336 46.2296 34.9955V42.5124C46.2274 44.0069 45.6327 45.4396 44.5759 46.4964C43.5191 47.5532 42.0864 48.1479 40.5919 48.1501C40.1162 48.1819 39.6704 48.3932 39.3447 48.7414C39.0191 49.0895 38.8379 49.5484 38.8379 50.0251C38.8379 50.5019 39.0191 50.9608 39.3447 51.3089C39.6704 51.6571 40.1162 51.8684 40.5919 51.9002C41.8279 51.9013 43.052 51.6585 44.1941 51.1858C45.3361 50.713 46.3737 50.0196 47.2473 49.1452C48.1209 48.2708 48.8134 47.2326 49.2852 46.0902C49.7569 44.9477 49.9986 43.7234 49.9964 42.4873V34.9704C50.0009 33.6283 50.4847 32.3319 51.3607 31.315C52.2367 30.2982 53.4471 29.6277 54.7738 29.4246L54.3061 29.8923C54.0465 30.1556 53.8702 30.4895 53.7995 30.8524C53.7288 31.2153 53.7666 31.5911 53.9084 31.9325C54.0502 32.274 54.2895 32.5661 54.5965 32.7722C54.9034 32.9783 55.2644 33.0893 55.6341 33.0912C56.653 33.0912 56.6948 32.8156 60.7205 28.7899C61.0724 28.4375 61.2701 27.9599 61.2701 27.4619C61.2701 26.9639 61.0724 26.4862 60.7205 26.1339L56.9621 22.3754Z" fill="#F6C900"/>
</g>
<defs>
<filter id="filter0_d" x="0" y="0" width="104.5" height="104.5" filterUnits="userSpaceOnUse" color-interpolation-filters="sRGB">
<feFlood flood-opacity="0" result="BackgroundImageFix"/>
<feColorMatrix in="SourceAlpha" type="matrix" values="0 0 0 0 0 0 0 0 0 0 0 0 0 0 0 0 0 0 127 0" result="hardAlpha"/>
<feOffset dx="4" dy="4"/>
<feGaussianBlur stdDeviation="0.25"/>
<feColorMatrix type="matrix" values="0 0 0 0 0 0 0 0 0 0 0 0 0 0 0 0 0 0 0.1 0"/>
<feBlend mode="normal" in2="BackgroundImageFix" result="effect1_dropShadow"/>
<feBlend mode="normal" in="SourceGraphic" in2="effect1_dropShadow" result="shape"/>
</filter>
</defs>
</svg>
