<svg width="100" height="100" viewBox="0 0 100 100" fill="none" xmlns="http://www.w3.org/2000/svg">
<g filter="url(#filter0_d)">
<path d="M55.6332 95.0806H44.3662C42.8717 95.0784 41.439 94.4837 40.3822 93.4269C39.3254 92.3701 38.7307 90.9374 38.7285 89.4429V78.1759C38.7307 76.6814 39.3254 75.2487 40.3822 74.1919C41.439 73.1351 42.8717 72.5404 44.3662 72.5382H55.6332C57.1277 72.5404 58.5604 73.1351 59.6172 74.1919C60.674 75.2487 61.2687 76.6814 61.2709 78.1759V89.4429C61.2687 90.9374 60.674 92.3701 59.6172 93.4269C58.5604 94.4837 57.1277 95.0784 55.6332 95.0806ZM44.3662 76.2967C43.8678 76.2967 43.3898 76.4947 43.0374 76.8471C42.685 77.1995 42.487 77.6775 42.487 78.1759V89.4429C42.487 89.9413 42.685 90.4193 43.0374 90.7717C43.3898 91.1241 43.8678 91.3221 44.3662 91.3221H55.6332C56.1316 91.3221 56.6096 91.1241 56.962 90.7717C57.3145 90.4193 57.5124 89.9413 57.5124 89.4429V78.1759C57.5124 77.6775 57.3145 77.1995 56.962 76.8471C56.6096 76.4947 56.1316 76.2967 55.6332 76.2967H44.3662Z" fill="#F6C900"/>
<path d="M89.443 63.1505H74.4092C72.9146 63.1483 71.482 62.5536 70.4252 61.4968C69.3684 60.44 68.7737 59.0073 68.7715 57.5128V42.479C68.7737 40.9845 69.3684 39.5518 70.4252 38.495C71.482 37.4382 72.9146 36.8435 74.4092 36.8413H89.443C90.9375 36.8435 92.3702 37.4382 93.427 38.495C94.4838 39.5518 95.0785 40.9845 95.0807 42.479V57.5128C95.0785 59.0073 94.4838 60.44 93.427 61.4968C92.3702 62.5536 90.9375 63.1483 89.443 63.1505ZM74.4092 40.5998C73.9108 40.5998 73.4328 40.7978 73.0804 41.1502C72.7279 41.5026 72.5299 41.9806 72.5299 42.479V57.5128C72.5299 58.0112 72.7279 58.4892 73.0804 58.8416C73.4328 59.1941 73.9108 59.392 74.4092 59.392H89.443C89.9414 59.392 90.4194 59.1941 90.7718 58.8416C91.1242 58.4892 91.3222 58.0112 91.3222 57.5128V42.479C91.3222 41.9806 91.1242 41.5026 90.7718 41.1502C90.4194 40.7978 89.9414 40.5998 89.443 40.5998H74.4092Z" fill="#F6C900"/>
<path d="M49.9948 87.5638C49.2514 87.5638 48.5248 87.3434 47.9067 86.9304C47.2886 86.5174 46.8069 85.9304 46.5224 85.2436C46.238 84.5569 46.1635 83.8012 46.3085 83.0721C46.4536 82.343 46.8115 81.6733 47.3372 81.1477C47.8628 80.6221 48.5325 80.2641 49.2616 80.1191C49.9906 79.9741 50.7463 80.0485 51.4331 80.333C52.1199 80.6174 52.7068 81.0992 53.1198 81.7172C53.5328 82.3353 53.7533 83.062 53.7533 83.8053C53.7533 84.8021 53.3573 85.7581 52.6524 86.463C51.9476 87.1678 50.9916 87.5638 49.9948 87.5638Z" fill="#F6C900"/>
<path d="M48.1241 68.7798C47.8838 68.7815 47.6454 68.7361 47.4225 68.6461L28.6386 61.1292C28.2911 60.9882 27.9935 60.7468 27.7838 60.4359C27.574 60.125 27.4616 59.7587 27.461 59.3836V44.3498C27.4588 43.9731 27.57 43.6044 27.78 43.2917C27.99 42.9789 28.2891 42.7365 28.6386 42.5959L47.4225 35.0789C47.7075 34.9659 48.0158 34.9242 48.3206 34.9576C48.6253 34.991 48.9173 35.0985 49.171 35.2706C49.4247 35.4428 49.6324 35.6744 49.776 35.9452C49.9196 36.2161 49.9948 36.518 49.995 36.8245V66.8922C49.9934 67.2008 49.9165 67.5045 49.771 67.7766C49.6254 68.0488 49.4156 68.2814 49.1598 68.454C48.8531 68.6599 48.4935 68.773 48.1241 68.7798ZM31.2194 58.1225L46.2533 64.1276V39.6225L31.2194 45.636V58.1225Z" fill="#F6C900"/>
<path d="M29.3408 61.2712H14.307C13.8086 61.2712 13.3306 61.0732 12.9782 60.7208C12.6257 60.3683 12.4278 59.8904 12.4278 59.392V44.3581C12.4266 44.111 12.4745 43.8662 12.5685 43.6377C12.6626 43.4092 12.801 43.2016 12.9757 43.0268C13.1504 42.8521 13.358 42.7137 13.5865 42.6197C13.815 42.5256 14.0599 42.4778 14.307 42.4789H29.3408C29.8392 42.4789 30.3172 42.6769 30.6696 43.0293C31.022 43.3817 31.22 43.8597 31.22 44.3581V59.392C31.22 59.8904 31.022 60.3683 30.6696 60.7208C30.3172 61.0732 29.8392 61.2712 29.3408 61.2712ZM16.1946 57.5127H27.4616V46.2457H16.1946V57.5127Z" fill="#F6C900"/>
<path d="M14.3149 61.2713C13.058 61.3087 11.8063 61.0935 10.6341 60.6384C9.46182 60.1833 8.39286 59.4975 7.49052 58.6217C6.58818 57.7458 5.87082 56.6978 5.38095 55.5396C4.89108 54.3815 4.63867 53.1368 4.63867 51.8793C4.63867 50.6218 4.89108 49.3771 5.38095 48.2189C5.87082 47.0608 6.58818 46.0127 7.49052 45.1369C8.39286 44.2611 9.46182 43.5753 10.6341 43.1202C11.8063 42.665 13.058 42.4498 14.3149 42.4873C14.5617 42.4873 14.8061 42.5359 15.0341 42.6304C15.2621 42.7248 15.4692 42.8632 15.6437 43.0377C15.8182 43.2122 15.9567 43.4194 16.0511 43.6474C16.1455 43.8754 16.1941 44.1198 16.1941 44.3666V59.4004C16.1919 59.8973 15.993 60.3732 15.6408 60.7238C15.2886 61.0744 14.8119 61.2713 14.3149 61.2713ZM12.4357 46.5632C11.3359 46.9514 10.3836 47.6712 9.71007 48.6233C9.03649 49.5754 8.67478 50.713 8.67478 51.8793C8.67478 53.0456 9.03649 54.1832 9.71007 55.1353C10.3836 56.0874 11.3359 56.8072 12.4357 57.1954V46.5632Z" fill="#F6C900"/>
<path d="M23.7035 78.176H16.1866C15.7243 78.1749 15.2784 78.0043 14.9336 77.6964C14.5887 77.3885 14.3689 76.9648 14.3157 76.5055L12.4365 61.4717C12.4058 61.2266 12.4236 60.9778 12.4891 60.7395C12.5545 60.5013 12.6662 60.2783 12.8178 60.0833C12.9695 59.8882 13.158 59.7249 13.3728 59.6027C13.5875 59.4805 13.8242 59.4019 14.0693 59.3711C14.3144 59.3404 14.5632 59.3583 14.8015 59.4237C15.0397 59.4892 15.2627 59.6009 15.4578 59.7525C15.6528 59.9041 15.8161 60.0927 15.9383 60.3074C16.0605 60.5222 16.1392 60.7588 16.1699 61.004L17.8403 74.3674H21.5653L19.9617 61.5051C19.9182 61.2546 19.926 60.9979 19.9846 60.7506C20.0432 60.5032 20.1513 60.2702 20.3025 60.0659C20.4537 59.8615 20.6448 59.6899 20.8643 59.5615C21.0837 59.4332 21.3269 59.3506 21.5791 59.319C21.8314 59.2873 22.0874 59.3071 22.3318 59.3773C22.5761 59.4474 22.8037 59.5664 23.0008 59.7271C23.1978 59.8877 23.3602 60.0867 23.4781 60.3119C23.596 60.5371 23.667 60.7839 23.6868 61.0374L25.566 76.0712C25.6005 76.3357 25.5781 76.6046 25.5002 76.8597C25.4223 77.1149 25.2908 77.3504 25.1144 77.5505C24.938 77.7506 24.7208 77.9107 24.4775 78.02C24.2342 78.1294 23.9702 78.1854 23.7035 78.1843V78.176Z" fill="#F6C900"/>
<path d="M61.2705 27.4618H38.7197C37.2252 27.4596 35.7925 26.8649 34.7357 25.8081C33.6789 24.7513 33.0842 23.3187 33.082 21.8241V10.5571C33.0842 9.06259 33.6789 7.62991 34.7357 6.57311C35.7925 5.51632 37.2252 4.92164 38.7197 4.91943H61.2705C62.7642 4.92165 64.196 5.51659 65.2515 6.57362C66.307 7.63065 66.8998 9.06336 66.8998 10.5571V21.8241C66.8998 23.3179 66.307 24.7506 65.2515 25.8076C64.196 26.8647 62.7642 27.4596 61.2705 27.4618ZM38.7197 8.67789C38.2213 8.67789 37.7433 8.87588 37.3909 9.2283C37.0385 9.58073 36.8405 10.0587 36.8405 10.5571V21.8241C36.8405 22.3225 37.0385 22.8005 37.3909 23.153C37.7433 23.5054 38.2213 23.7034 38.7197 23.7034H61.2705C61.7689 23.7034 62.2468 23.5054 62.5993 23.153C62.9517 22.8005 63.1497 22.3225 63.1497 21.8241V10.5571C63.1497 10.0587 62.9517 9.58073 62.5993 9.2283C62.2468 8.87588 61.7689 8.67789 61.2705 8.67789H38.7197Z" fill="#F6C900"/>
<path d="M48.1234 19.9449C47.876 19.9472 47.6307 19.9001 47.4017 19.8064C47.1727 19.7128 46.9646 19.5744 46.7897 19.3995C46.6147 19.2246 46.4764 19.0165 46.3827 18.7875C46.2891 18.5585 46.242 18.3131 46.2442 18.0657V14.3156C46.2441 13.996 46.3259 13.6817 46.4818 13.4027C46.6376 13.1237 46.8624 12.8892 47.1346 12.7217C47.4068 12.5542 47.7173 12.4593 48.0366 12.4459C48.356 12.4325 48.6734 12.5011 48.9587 12.6452L52.7171 14.5244C53.0214 14.6846 53.2762 14.9248 53.454 15.2192C53.6317 15.5136 53.7257 15.8509 53.7257 16.1948C53.7257 16.5387 53.6317 16.8761 53.454 17.1705C53.2762 17.4649 53.0214 17.7051 52.7171 17.8653L48.9587 19.7445C48.6984 19.8719 48.4132 19.9403 48.1234 19.9449Z" fill="#F6C900"/>
<path d="M80.055 57.5127C79.5566 57.5127 79.0786 57.3147 78.7262 56.9623C78.3738 56.6099 78.1758 56.1319 78.1758 55.6335V49.9958C78.1758 49.4974 78.3738 49.0194 78.7262 48.667C79.0786 48.3146 79.5566 48.1166 80.055 48.1166C80.5534 48.1166 81.0314 48.3146 81.3838 48.667C81.7363 49.0194 81.9342 49.4974 81.9342 49.9958V55.6335C81.9342 56.1319 81.7363 56.6099 81.3838 56.9623C81.0314 57.3147 80.5534 57.5127 80.055 57.5127Z" fill="#F6C900"/>
<path d="M83.8037 51.8751H78.1744C77.9176 51.8923 77.6601 51.8565 77.4177 51.77C77.1753 51.6836 76.9533 51.5482 76.7654 51.3725C76.5774 51.1967 76.4276 50.9841 76.3252 50.7481C76.2228 50.512 76.1699 50.2574 76.1699 50.0001C76.1699 49.7427 76.2228 49.4882 76.3252 49.2521C76.4276 49.016 76.5774 48.8035 76.7654 48.6277C76.9533 48.4519 77.1753 48.3166 77.4177 48.2301C77.6601 48.1436 77.9176 48.1079 78.1744 48.125H83.8037C84.0605 48.1079 84.318 48.1436 84.5604 48.2301C84.8027 48.3166 85.0248 48.4519 85.2127 48.6277C85.4006 48.8035 85.5504 49.016 85.6529 49.2521C85.7553 49.4882 85.8081 49.7427 85.8081 50.0001C85.8081 50.2574 85.7553 50.512 85.6529 50.7481C85.5504 50.9841 85.4006 51.1967 85.2127 51.3725C85.0248 51.5482 84.8027 51.6836 84.5604 51.77C84.318 51.8565 84.0605 51.8923 83.8037 51.8751Z" fill="#F6C900"/>
<path d="M80.055 51.8751C79.8079 51.8762 79.5631 51.8283 79.3346 51.7343C79.1061 51.6403 78.8985 51.5019 78.7237 51.3271C78.549 51.1524 78.4106 50.9448 78.3166 50.7163C78.2226 50.4878 78.1747 50.243 78.1758 49.9959V48.125C78.1758 46.6312 78.7686 45.1985 79.8241 44.1415C80.8796 43.0845 82.3114 42.4895 83.8051 42.4873C84.3035 42.4873 84.7815 42.6853 85.134 43.0377C85.4864 43.3901 85.6844 43.8681 85.6844 44.3665C85.6844 44.8649 85.4864 45.3429 85.134 45.6953C84.7815 46.0478 84.3035 46.2458 83.8051 46.2458C83.5587 46.2458 83.3148 46.2944 83.0873 46.389C82.8597 46.4835 82.6531 46.6221 82.4793 46.7967C82.3054 46.9713 82.1678 47.1785 82.0743 47.4065C81.9807 47.6344 81.9332 47.8786 81.9343 48.125V49.9959C81.9343 50.4943 81.7363 50.9723 81.3838 51.3247C81.0314 51.6771 80.5534 51.8751 80.055 51.8751Z" fill="#F6C900"/>
<path d="M66.909 85.4255C66.4869 85.4234 66.0777 85.2793 65.7475 85.0163C65.4173 84.7533 65.1853 84.3867 65.0888 83.9758C64.9923 83.5648 65.037 83.1333 65.2157 82.7508C65.3944 82.3684 65.6967 82.0572 66.0738 81.8675C72.2841 78.7455 77.4416 73.8696 80.9072 67.8443C81.1697 67.4408 81.577 67.1533 82.0452 67.0413C82.5134 66.9293 83.0067 67.0012 83.4234 67.2423C83.8401 67.4833 84.1484 67.875 84.2847 68.3367C84.4211 68.7984 84.3751 69.2948 84.1562 69.7235C80.3163 76.3739 74.6101 81.7519 67.7442 85.1916C67.4878 85.3334 67.2018 85.4134 66.909 85.4255Z" fill="#F6C900"/>
<path d="M82.5099 33.0911C82.1733 33.0983 81.841 33.0154 81.5473 32.8509C81.2536 32.6864 81.0092 32.4464 80.8394 32.1557C78.4577 27.9891 75.2487 24.3538 71.4099 21.4733C71.0112 21.1743 70.7476 20.7291 70.6771 20.2357C70.6066 19.7423 70.735 19.2411 71.0341 18.8424C71.3331 18.4437 71.7783 18.1801 72.2717 18.1096C72.7651 18.0391 73.2663 18.1675 73.665 18.4666C77.9208 21.6524 81.4842 25.6704 84.1385 30.2765C84.387 30.7075 84.4545 31.2194 84.3261 31.7001C84.1977 32.1807 83.884 32.5909 83.4537 32.8406C83.1674 33.0077 82.8413 33.0943 82.5099 33.0911Z" fill="#F6C900"/>
<path d="M14.8 38.7288C14.5748 38.7306 14.3511 38.691 14.1402 38.6119C13.6738 38.4356 13.2961 38.082 13.0895 37.6282C12.883 37.1744 12.8643 36.6573 13.0377 36.1898C15.6842 29.1208 20.2979 22.9565 26.3343 18.4248C26.733 18.1258 27.2342 17.9974 27.7276 18.0678C28.221 18.1383 28.6662 18.4019 28.9652 18.8006C29.2643 19.1994 29.3927 19.7006 29.3222 20.1939C29.2517 20.6873 28.9881 21.1325 28.5894 21.4316C23.1254 25.5304 18.9513 31.1103 16.5623 37.5094C16.4269 37.8674 16.1858 38.1757 15.871 38.3935C15.5563 38.6112 15.1828 38.7282 14.8 38.7288Z" fill="#F6C900"/>
<path d="M33.0897 85.4088C32.7995 85.408 32.5135 85.3393 32.2545 85.2084C31.1603 84.6655 30.1664 84.1142 29.231 83.5379C29.021 83.408 28.8386 83.2379 28.6943 83.0374C28.55 82.837 28.4465 82.6101 28.3899 82.3696C28.3333 82.1292 28.3246 81.88 28.3643 81.6362C28.404 81.3924 28.4913 81.1588 28.6213 80.9488C28.7513 80.7387 28.9213 80.5564 29.1218 80.412C29.3223 80.2677 29.5492 80.1643 29.7896 80.1077C30.03 80.0511 30.2793 80.0424 30.523 80.0821C30.7668 80.1218 31.0004 80.2091 31.2105 80.3391C32.0457 80.8653 32.9394 81.358 33.9333 81.8592C34.3104 82.0489 34.6127 82.36 34.7913 82.7425C34.97 83.125 35.0148 83.5564 34.9183 83.9674C34.8218 84.3784 34.5898 84.7449 34.2596 85.0079C33.9293 85.2709 33.5202 85.4151 33.098 85.4172L33.0897 85.4088Z" fill="#F6C900"/>
</g>
<defs>
<filter id="filter0_d" x="0" y="0" width="104.5" height="104.5" filterUnits="userSpaceOnUse" color-interpolation-filters="sRGB">
<feFlood flood-opacity="0" result="BackgroundImageFix"/>
<feColorMatrix in="SourceAlpha" type="matrix" values="0 0 0 0 0 0 0 0 0 0 0 0 0 0 0 0 0 0 127 0" result="hardAlpha"/>
<feOffset dx="4" dy="4"/>
<feGaussianBlur stdDeviation="0.25"/>
<feColorMatrix type="matrix" values="0 0 0 0 0 0 0 0 0 0 0 0 0 0 0 0 0 0 0.1 0"/>
<feBlend mode="normal" in2="BackgroundImageFix" result="effect1_dropShadow"/>
<feBlend mode="normal" in="SourceGraphic" in2="effect1_dropShadow" result="shape"/>
</filter>
</defs>
</svg>
