<svg width="95" height="95" viewBox="0 0 95 95" fill="none" xmlns="http://www.w3.org/2000/svg">
<g filter="url(#filter0_d)">
<path d="M26.2538 84.3723H29.9972C30.4947 84.3723 30.9718 84.1747 31.3236 83.8229C31.6754 83.4711 31.8731 82.994 31.8731 82.4965C31.8731 81.999 31.6754 81.5218 31.3236 81.17C30.9718 80.8182 30.4947 80.6206 29.9972 80.6206H26.2538C25.7563 80.6206 25.2792 80.8182 24.9274 81.17C24.5756 81.5218 24.3779 81.999 24.3779 82.4965C24.3779 82.994 24.5756 83.4711 24.9274 83.8229C25.2792 84.1747 25.7563 84.3723 26.2538 84.3723Z" fill="#F6C900"/>
<path d="M35.6251 18.7504H9.37962C8.88211 18.7504 8.40497 18.948 8.05318 19.2998C7.70138 19.6516 7.50375 20.1287 7.50375 20.6262C7.50375 44.2789 7.21195 43.9704 8.33747 44.6874C9.02112 45.1376 7.50375 44.9959 35.6251 44.9959C35.871 44.997 36.1148 44.9495 36.3423 44.8561C36.5699 44.7627 36.7767 44.6253 36.951 44.4518C37.1253 44.2783 37.2636 44.072 37.358 43.8449C37.4524 43.6178 37.501 43.3743 37.501 43.1283V20.6179C37.4988 20.1218 37.3002 19.6468 36.9486 19.2968C36.597 18.9469 36.1212 18.7504 35.6251 18.7504ZM33.7492 22.5021V32.1566L29.5806 26.9542C29.4034 26.729 29.1764 26.5478 28.9176 26.4249C28.6587 26.3019 28.3749 26.2404 28.0884 26.2453C27.8018 26.2501 27.5203 26.3211 27.2657 26.4528C27.0112 26.5844 26.7905 26.7731 26.6209 27.0042L22.0605 33.082L17.8919 30.3141C17.687 30.1766 17.4569 30.0811 17.2148 30.0331C16.9728 29.985 16.7236 29.9855 16.4818 30.0343C16.2399 30.0831 16.0101 30.1794 15.8057 30.3176C15.6012 30.4558 15.4262 30.6331 15.2907 30.8393L11.2305 36.9338V22.5021H33.7492ZM12.9063 41.2525L17.425 34.4743L21.4852 37.1839C21.8797 37.4439 22.3574 37.5461 22.8238 37.4705C23.2901 37.3948 23.711 37.1467 24.0031 36.7754L28.1717 31.2145L33.7492 38.1844V41.2775L12.9063 41.2525Z" fill="#F6C900"/>
<path d="M35.6253 48.7476H9.37977C8.88226 48.7476 8.40513 48.9452 8.05333 49.297C7.70154 49.6488 7.50391 50.1259 7.50391 50.6234C7.50391 51.1209 7.70154 51.5981 8.05333 51.9499C8.40513 52.3017 8.88226 52.4993 9.37977 52.4993H35.6253C36.1228 52.4993 36.5999 52.3017 36.9517 51.9499C37.3035 51.5981 37.5011 51.1209 37.5011 50.6234C37.5011 50.1259 37.3035 49.6488 36.9517 49.297C36.5999 48.9452 36.1228 48.7476 35.6253 48.7476Z" fill="#F6C900"/>
<path d="M35.6253 56.251H9.37977C8.88226 56.251 8.40513 56.4486 8.05333 56.8004C7.70154 57.1522 7.50391 57.6293 7.50391 58.1268C7.50391 58.6244 7.70154 59.1015 8.05333 59.4533C8.40513 59.8051 8.88226 60.0027 9.37977 60.0027H35.6253C36.1228 60.0027 36.5999 59.8051 36.9517 59.4533C37.3035 59.1015 37.5011 58.6244 37.5011 58.1268C37.5011 57.6293 37.3035 57.1522 36.9517 56.8004C36.5999 56.4486 36.1228 56.251 35.6253 56.251Z" fill="#F6C900"/>
<path d="M35.6253 63.7461H9.37977C8.88226 63.7461 8.40513 63.9437 8.05333 64.2955C7.70154 64.6473 7.50391 65.1245 7.50391 65.622C7.50391 66.1195 7.70154 66.5966 8.05333 66.9484C8.40513 67.3002 8.88226 67.4978 9.37977 67.4978H35.6253C36.1228 67.4978 36.5999 67.3002 36.9517 66.9484C37.3035 66.5966 37.5011 66.1195 37.5011 65.622C37.5011 65.1245 37.3035 64.6473 36.9517 64.2955C36.5999 63.9437 36.1228 63.7461 35.6253 63.7461Z" fill="#F6C900"/>
<path d="M84.3724 18.7503H56.251V9.37934C56.2466 6.89314 55.257 4.51003 53.499 2.75201C51.741 0.994001 49.3579 0.00440817 46.8717 0H9.35433C6.87247 0.0110072 4.49577 1.00351 2.74315 2.76081C0.990536 4.51811 0.00438001 6.89746 0 9.37934V80.6207C0.00440817 83.1069 0.994001 85.49 2.75201 87.248C4.51003 89.006 6.89314 89.9956 9.37934 90H46.8967C49.3829 89.9956 51.766 89.006 53.524 87.248C55.2821 85.49 56.2716 83.1069 56.2761 80.6207V59.6526C57.635 60.1362 55.7758 60.0028 84.3974 60.0028C85.8893 60.0006 87.3194 59.407 88.3743 58.3521C89.4292 57.2972 90.0228 55.867 90.025 54.3752V24.3613C90.0184 22.868 89.4194 21.4383 88.3596 20.3863C87.2997 19.3343 85.8657 18.7459 84.3724 18.7503ZM52.1742 18.7503C51.0618 18.7513 49.9748 19.0819 49.0502 19.7003C48.1257 20.3188 47.4051 21.1973 46.9796 22.225C46.5541 23.2527 46.4426 24.3835 46.6594 25.4745C46.8761 26.5655 47.4113 27.5678 48.1973 28.3548C52.2492 32.3983 52.4993 32.415 52.4993 33.4238V75.0014H3.75174V14.9736H52.4993C52.4993 19.3173 52.616 18.7503 52.1742 18.7503ZM3.75174 9.37934C3.75394 7.88749 4.34756 6.45736 5.40246 5.40246C6.45736 4.34756 7.88749 3.75394 9.37934 3.75174H46.8967C48.3886 3.75394 49.8187 4.34756 50.8736 5.40246C51.9285 6.45736 52.5221 7.88749 52.5243 9.37934V11.2552H3.75174V9.37934ZM52.4993 80.6207C52.4971 82.1125 51.9035 83.5426 50.8486 84.5975C49.7937 85.6524 48.3636 86.2461 46.8717 86.2483H9.35433C7.86247 86.2461 6.43235 85.6524 5.37745 84.5975C4.32255 83.5426 3.72893 82.1125 3.72673 80.6207V78.7448H52.4993V80.6207ZM86.2483 54.3752C86.2483 54.8727 86.0506 55.3498 85.6988 55.7016C85.347 56.0534 84.8699 56.251 84.3724 56.251H58.1269C57.6294 56.251 57.1523 56.0534 56.8005 55.7016C56.4487 55.3498 56.251 54.8727 56.251 54.3752C56.251 31.031 56.6846 31.5313 54.5836 29.447C51.0236 25.8953 49.7897 25.2117 50.415 23.661C51.0403 22.1102 49.7397 22.5021 84.3391 22.5021C84.8366 22.5021 85.3137 22.6997 85.6655 23.0515C86.0173 23.4033 86.2149 23.8804 86.2149 24.378L86.2483 54.3752Z" fill="#F6C900"/>
<path d="M73.5256 26.5206C72.1413 26.1733 70.6961 26.1462 69.2998 26.4413C67.9034 26.7365 66.5928 27.3461 65.4675 28.2239C64.3421 29.1016 63.4318 30.2244 62.8055 31.5069C62.1793 32.7893 61.8537 34.1976 61.8535 35.6248C61.8535 41.2357 65.6053 41.7026 65.6053 44.9958C65.6053 45.4933 65.8029 45.9705 66.1547 46.3222C66.5065 46.674 66.9836 46.8717 67.4811 46.8717H74.9846C75.4821 46.8717 75.9592 46.674 76.311 46.3222C76.6628 45.9705 76.8605 45.4933 76.8605 44.9958C76.8447 43.9307 77.2456 42.9016 77.9776 42.1278C82.9216 37.0338 80.6122 28.2047 73.5256 26.5206ZM75.3014 39.5183C74.3326 40.5214 73.6553 41.7694 73.3422 43.1283H69.1736C68.2648 39.3849 65.6469 39.2598 65.6469 35.6248C65.645 34.7032 65.8694 33.7953 66.3004 32.9807C66.7315 32.1661 67.356 31.4699 68.1191 30.9531C68.8822 30.4364 69.7605 30.115 70.6769 30.0171C71.5932 29.9192 72.5196 30.0479 73.3746 30.3918C74.2297 30.7357 74.9871 31.2844 75.5805 31.9895C76.1739 32.6947 76.585 33.5348 76.7777 34.436C76.9704 35.3372 76.9389 36.2719 76.6858 37.1581C76.4328 38.0443 75.966 38.8547 75.3264 39.5183H75.3014Z" fill="#F6C900"/>
<path d="M73.1257 48.7476H69.3739C68.8764 48.7476 68.3993 48.9452 68.0475 49.297C67.6957 49.6488 67.498 50.1259 67.498 50.6234C67.498 51.1209 67.6957 51.5981 68.0475 51.9499C68.3993 52.3017 68.8764 52.4993 69.3739 52.4993H73.1257C73.6232 52.4993 74.1003 52.3017 74.4521 51.9499C74.8039 51.5981 75.0015 51.1209 75.0015 50.6234C75.0015 50.1259 74.8039 49.6488 74.4521 49.297C74.1003 48.9452 73.6232 48.7476 73.1257 48.7476Z" fill="#F6C900"/>
<path d="M43.1279 33.7489V60.0028C43.1596 60.4776 43.3706 60.9226 43.7181 61.2477C44.0657 61.5728 44.5238 61.7536 44.9996 61.7536C45.4755 61.7536 45.9336 61.5728 46.2811 61.2477C46.6286 60.9226 46.8396 60.4776 46.8713 60.0028V33.7489C46.8396 33.2741 46.6286 32.8291 46.2811 32.504C45.9336 32.1789 45.4755 31.998 44.9996 31.998C44.5238 31.998 44.0657 32.1789 43.7181 32.504C43.3706 32.8291 43.1596 33.2741 43.1279 33.7489Z" fill="#F6C900"/>
</g>
<defs>
<filter id="filter0_d" x="0" y="0" width="94.525" height="94.5" filterUnits="userSpaceOnUse" color-interpolation-filters="sRGB">
<feFlood flood-opacity="0" result="BackgroundImageFix"/>
<feColorMatrix in="SourceAlpha" type="matrix" values="0 0 0 0 0 0 0 0 0 0 0 0 0 0 0 0 0 0 127 0" result="hardAlpha"/>
<feOffset dx="4" dy="4"/>
<feGaussianBlur stdDeviation="0.25"/>
<feColorMatrix type="matrix" values="0 0 0 0 0 0 0 0 0 0 0 0 0 0 0 0 0 0 0.1 0"/>
<feBlend mode="normal" in2="BackgroundImageFix" result="effect1_dropShadow"/>
<feBlend mode="normal" in="SourceGraphic" in2="effect1_dropShadow" result="shape"/>
</filter>
</defs>
</svg>
