<svg width="95" height="95" viewBox="0 0 95 95" fill="none" xmlns="http://www.w3.org/2000/svg">
<g filter="url(#filter0_d)">
<path d="M88.116 11.2542C88.3623 11.2542 88.6062 11.2057 88.8338 11.1114C89.0613 11.0171 89.2681 10.879 89.4423 10.7048C89.6165 10.5306 89.7546 10.3238 89.8489 10.0963C89.9432 9.8687 89.9917 9.62479 89.9917 9.37847V1.8757C89.9917 1.37823 89.7941 0.901139 89.4423 0.549378C89.0905 0.197617 88.6134 0 88.116 0H80.6132C80.1157 0 79.6386 0.197617 79.2869 0.549378C78.9351 0.901139 78.7375 1.37823 78.7375 1.8757V3.75139H50.6188V1.8757C50.6188 1.37823 50.4211 0.901139 50.0694 0.549378C49.7176 0.197617 49.2405 0 48.7431 0H41.2403C40.7428 0 40.2657 0.197617 39.914 0.549378C39.5622 0.901139 39.3646 1.37823 39.3646 1.8757V3.75139H11.2542V1.8757C11.2542 1.62938 11.2057 1.38547 11.1114 1.1579C11.0171 0.930328 10.879 0.723553 10.7048 0.549378C10.5306 0.375204 10.3238 0.237041 10.0963 0.142779C9.8687 0.0485165 9.62479 0 9.37847 0H1.8757C1.37823 0 0.901139 0.197617 0.549378 0.549378C0.197617 0.901139 0 1.37823 0 1.8757V9.37847C0 9.62479 0.0485165 9.8687 0.142779 10.0963C0.237041 10.3238 0.375204 10.5306 0.549378 10.7048C0.723553 10.879 0.930328 11.0171 1.1579 11.1114C1.38547 11.2057 1.62938 11.2542 1.8757 11.2542H3.75139V18.7569H1.8757C1.37823 18.7569 0.901139 18.9546 0.549378 19.3063C0.197617 19.6581 0 20.1352 0 20.6326C0 21.1301 0.197617 21.6072 0.549378 21.959C0.901139 22.3107 1.37823 22.5083 1.8757 22.5083H3.75139V39.3729H1.8757C1.37823 39.3729 0.901139 39.5705 0.549378 39.9223C0.197617 40.2741 0 40.7511 0 41.2486V48.7514C0 49.2489 0.197617 49.7259 0.549378 50.0777C0.901139 50.4295 1.37823 50.6271 1.8757 50.6271H3.75139V67.4917H1.8757C1.37823 67.4917 0.901139 67.6893 0.549378 68.041C0.197617 68.3928 0 68.8699 0 69.3674C0 69.8648 0.197617 70.3419 0.549378 70.6937C0.901139 71.0454 1.37823 71.2431 1.8757 71.2431H3.75139V78.7458H1.8757C1.37823 78.7458 0.901139 78.9435 0.549378 79.2952C0.197617 79.647 0 80.1241 0 80.6215V88.1243C0 88.6218 0.197617 89.0989 0.549378 89.4506C0.901139 89.8024 1.37823 90 1.8757 90H9.37847C9.62479 90 9.8687 89.9515 10.0963 89.8572C10.3238 89.763 10.5306 89.6248 10.7048 89.4506C10.879 89.2765 11.0171 89.0697 11.1114 88.8421C11.2057 88.6145 11.2542 88.3706 11.2542 88.1243V86.2486H39.3729V88.1243C39.3729 88.6218 39.5705 89.0989 39.9223 89.4506C40.2741 89.8024 40.7511 90 41.2486 90H48.7514C49.2489 90 49.7259 89.8024 50.0777 89.4506C50.4295 89.0989 50.6271 88.6218 50.6271 88.1243V86.2486H78.7458V88.1243C78.7458 88.6218 78.9435 89.0989 79.2952 89.4506C79.647 89.8024 80.1241 90 80.6215 90H88.1243C88.6218 90 89.0989 89.8024 89.4506 89.4506C89.8024 89.0989 90 88.6218 90 88.1243V80.6215C90 80.1241 89.8024 79.647 89.4506 79.2952C89.0989 78.9435 88.6218 78.7458 88.1243 78.7458H86.2486V71.2431H88.1243C88.6218 71.2431 89.0989 71.0454 89.4506 70.6937C89.8024 70.3419 90 69.8648 90 69.3674C90 68.8699 89.8024 68.3928 89.4506 68.041C89.0989 67.6893 88.6218 67.4917 88.1243 67.4917H86.2486V50.6188H88.1243C88.6218 50.6188 89.0989 50.4211 89.4506 50.0694C89.8024 49.7176 90 49.2405 90 48.7431V41.2403C90 40.7428 89.8024 40.2657 89.4506 39.914C89.0989 39.5622 88.6218 39.3646 88.1243 39.3646H86.2486V22.5H88.1243C88.6218 22.5 89.0989 22.3024 89.4506 21.9506C89.8024 21.5989 90 21.1218 90 20.6243C90 20.1268 89.8024 19.6497 89.4506 19.298C89.0989 18.9462 88.6218 18.7486 88.1243 18.7486H86.2486V11.2458L88.116 11.2542ZM82.4889 3.75139H86.2403V7.50278H82.4889V3.75139ZM43.1243 3.75139H46.8674V7.50278H43.1243V3.75139ZM3.75139 3.75139H7.50278V7.50278H3.75139V3.75139ZM3.75139 43.1243H7.50278V46.8674H3.75139V43.1243ZM7.50278 86.2403H3.75139V82.4889H7.50278V86.2403ZM46.8674 86.2403H43.1243V82.4889H46.8674V86.2403ZM86.2403 86.2403H82.4889V82.4889H86.2403V86.2403ZM86.2403 46.8674H82.4889V43.1243H86.2403V46.8674ZM82.4889 39.3646H80.6132C80.1157 39.3646 79.6386 39.5622 79.2869 39.914C78.9351 40.2657 78.7375 40.7428 78.7375 41.2403V48.7431C78.7375 49.2405 78.9351 49.7176 79.2869 50.0694C79.6386 50.4211 80.1157 50.6188 80.6132 50.6188H82.4889V78.7375H80.6132C80.1157 78.7375 79.6386 78.9351 79.2869 79.2869C78.9351 79.6386 78.7375 80.1157 78.7375 80.6132V82.4889H50.6188V80.6132C50.6188 80.1157 50.4211 79.6386 50.0694 79.2869C49.7176 78.9351 49.2405 78.7375 48.7431 78.7375H41.2403C40.7428 78.7375 40.2657 78.9351 39.914 79.2869C39.5622 79.6386 39.3646 80.1157 39.3646 80.6132V82.4889H11.2542V80.6132C11.2542 80.3669 11.2057 80.123 11.1114 79.8954C11.0171 79.6678 10.879 79.4611 10.7048 79.2869C10.5306 79.1127 10.3238 78.9745 10.0963 78.8803C9.8687 78.786 9.62479 78.7375 9.37847 78.7375H7.50278V50.6188H9.37847C9.62479 50.6188 9.8687 50.5702 10.0963 50.476C10.3238 50.3817 10.5306 50.2435 10.7048 50.0694C10.879 49.8952 11.0171 49.6884 11.1114 49.4609C11.2057 49.2333 11.2542 48.9894 11.2542 48.7431V41.2403C11.2542 40.994 11.2057 40.75 11.1114 40.5225C11.0171 40.2949 10.879 40.0881 10.7048 39.914C10.5306 39.7398 10.3238 39.6016 10.0963 39.5074C9.8687 39.4131 9.62479 39.3646 9.37847 39.3646H7.50278V11.2542H9.37847C9.62479 11.2542 9.8687 11.2057 10.0963 11.1114C10.3238 11.0171 10.5306 10.879 10.7048 10.7048C10.879 10.5306 11.0171 10.3238 11.1114 10.0963C11.2057 9.8687 11.2542 9.62479 11.2542 9.37847V7.50278H39.3729V9.37847C39.3729 9.62479 39.4214 9.8687 39.5157 10.0963C39.61 10.3238 39.7481 10.5306 39.9223 10.7048C40.0965 10.879 40.3032 11.0171 40.5308 11.1114C40.7584 11.2057 41.0023 11.2542 41.2486 11.2542H48.7514C48.9977 11.2542 49.2416 11.2057 49.4692 11.1114C49.6968 11.0171 49.9035 10.879 50.0777 10.7048C50.2519 10.5306 50.39 10.3238 50.4843 10.0963C50.5786 9.8687 50.6271 9.62479 50.6271 9.37847V7.50278H78.7458V9.37847C78.7458 9.62479 78.7943 9.8687 78.8886 10.0963C78.9829 10.3238 79.121 10.5306 79.2952 10.7048C79.4694 10.879 79.6762 11.0171 79.9037 11.1114C80.1313 11.2057 80.3752 11.2542 80.6215 11.2542H82.4972L82.4889 39.3646Z" fill="#F6C900"/>
<path d="M56.696 61.9229L50.6187 60.4057V29.9944H56.6543L58.1715 36.08C58.2739 36.4861 58.5093 36.8463 58.8402 37.1032C59.1711 37.36 59.5784 37.4987 59.9972 37.4972H65.616C66.1134 37.4972 66.5905 37.2996 66.9423 36.9478C67.294 36.596 67.4917 36.119 67.4917 35.6215V20.6159C67.4917 20.1185 67.294 19.6414 66.9423 19.2896C66.5905 18.9379 66.1134 18.7402 65.616 18.7402H24.3757C23.8782 18.7402 23.4011 18.9379 23.0494 19.2896C22.6976 19.6414 22.5 20.1185 22.5 20.6159V35.6215C22.5 36.119 22.6976 36.596 23.0494 36.9478C23.4011 37.2996 23.8782 37.4972 24.3757 37.4972C30.1028 37.4972 31.37 37.864 31.8118 36.08L33.3373 29.9944H39.3729V60.4057L33.2957 61.9229C32.8901 62.0247 32.5298 62.2585 32.2717 62.5875C32.0137 62.9165 31.8724 63.3221 31.8701 63.7402V69.3673C31.8701 69.8648 32.0678 70.3419 32.4195 70.6936C32.7713 71.0454 33.2484 71.243 33.7458 71.243H56.2542C56.7516 71.243 57.2287 71.0454 57.5805 70.6936C57.9322 70.3419 58.1299 69.8648 58.1299 69.3673C58.1215 63.6819 58.4967 62.3731 56.696 61.9229ZM54.3701 67.4916H35.6215V65.2074L41.6988 63.6902C42.1058 63.5881 42.467 63.3531 42.7252 63.0223C42.9835 62.6916 43.1239 62.2841 43.1243 61.8645V28.1187C43.1243 27.8728 43.0757 27.6293 42.9814 27.4022C42.887 27.1751 42.7487 26.9688 42.5744 26.7953C42.4001 26.6218 42.1933 26.4844 41.9658 26.3911C41.7383 26.2977 41.4945 26.2503 41.2486 26.2513H31.8701C31.4527 26.2517 31.0473 26.3912 30.7181 26.6479C30.389 26.9046 30.1548 27.2638 30.0528 27.6685L28.5356 33.7458H26.2514V22.5H63.7653V33.7458H61.4561L59.9389 27.6685C59.8368 27.2638 59.6027 26.9046 59.2735 26.6479C58.9443 26.3912 58.539 26.2517 58.1215 26.2513H48.7431C48.4971 26.2503 48.2534 26.2977 48.0259 26.3911C47.7984 26.4844 47.5915 26.6218 47.4172 26.7953C47.243 26.9688 47.1047 27.1751 47.0103 27.4022C46.9159 27.6293 46.8674 27.8728 46.8674 28.1187V61.8645C46.8677 62.2841 47.0082 62.6916 47.2664 63.0223C47.5247 63.3531 47.8859 63.5881 48.2929 63.6902L54.3701 65.2074V67.4916Z" fill="#F6C900"/>
<path d="M13.1218 22.5H16.8732C17.3706 22.5 17.8477 22.3024 18.1995 21.9507C18.5513 21.5989 18.7489 21.1218 18.7489 20.6244C18.7489 20.1269 18.5513 19.6498 18.1995 19.298C17.8477 18.9463 17.3706 18.7487 16.8732 18.7487H13.1218C12.6243 18.7487 12.1472 18.9463 11.7955 19.298C11.4437 19.6498 11.2461 20.1269 11.2461 20.6244C11.2461 21.1218 11.4437 21.5989 11.7955 21.9507C12.1472 22.3024 12.6243 22.5 13.1218 22.5Z" fill="#F6C900"/>
<path d="M20.6242 43.1243H16.8728C16.398 43.156 15.953 43.3669 15.628 43.7144C15.3029 44.0619 15.1221 44.52 15.1221 44.9958C15.1221 45.4716 15.3029 45.9297 15.628 46.2772C15.953 46.6247 16.398 46.8356 16.8728 46.8673H20.6242C21.099 46.8356 21.5439 46.6247 21.869 46.2772C22.1941 45.9297 22.3749 45.4716 22.3749 44.9958C22.3749 44.52 22.1941 44.0619 21.869 43.7144C21.5439 43.3669 21.099 43.156 20.6242 43.1243Z" fill="#F6C900"/>
<path d="M31.8703 46.8673C32.345 46.8356 32.79 46.6247 33.1151 46.2772C33.4401 45.9297 33.621 45.4716 33.621 44.9958C33.621 44.52 33.4401 44.0619 33.1151 43.7144C32.79 43.3669 32.345 43.156 31.8703 43.1243H28.1189C27.6441 43.156 27.1991 43.3669 26.8741 43.7144C26.549 44.0619 26.3682 44.52 26.3682 44.9958C26.3682 45.4716 26.549 45.9297 26.8741 46.2772C27.1991 46.6247 27.6441 46.8356 28.1189 46.8673H31.8703Z" fill="#F6C900"/>
<path d="M28.1187 67.4916H24.3757C23.8782 67.4916 23.4011 67.6892 23.0494 68.041C22.6976 68.3927 22.5 68.8698 22.5 69.3673C22.5 69.8647 22.6976 70.3418 23.0494 70.6936C23.4011 71.0453 23.8782 71.243 24.3757 71.243H28.1187C28.3651 71.243 28.609 71.1944 28.8365 71.1002C29.0641 71.0059 29.2709 70.8678 29.4451 70.6936C29.6192 70.5194 29.7574 70.3126 29.8517 70.0851C29.9459 69.8575 29.9944 69.6136 29.9944 69.3673C29.9944 69.121 29.9459 68.877 29.8517 68.6495C29.7574 68.4219 29.6192 68.2151 29.4451 68.041C29.2709 67.8668 29.0641 67.7286 28.8365 67.6344C28.609 67.5401 28.3651 67.4916 28.1187 67.4916Z" fill="#F6C900"/>
<path d="M65.6163 67.4916H61.865C61.3675 67.4916 60.8904 67.6892 60.5386 68.041C60.1869 68.3927 59.9893 68.8698 59.9893 69.3673C59.9893 69.8647 60.1869 70.3418 60.5386 70.6936C60.8904 71.0453 61.3675 71.243 61.865 71.243H65.6163C66.1138 71.243 66.5909 71.0453 66.9427 70.6936C67.2944 70.3418 67.492 69.8647 67.492 69.3673C67.492 68.8698 67.2944 68.3927 66.9427 68.041C66.5909 67.6892 66.1138 67.4916 65.6163 67.4916Z" fill="#F6C900"/>
<path d="M61.8649 43.1243H58.1218C57.647 43.156 57.2021 43.3669 56.877 43.7144C56.5519 44.0619 56.3711 44.52 56.3711 44.9958C56.3711 45.4716 56.5519 45.9297 56.877 46.2772C57.2021 46.6247 57.647 46.8356 58.1218 46.8673H61.8649C62.3396 46.8356 62.7846 46.6247 63.1097 46.2772C63.4347 45.9297 63.6156 45.4716 63.6156 44.9958C63.6156 44.52 63.4347 44.0619 63.1097 43.7144C62.7846 43.3669 62.3396 43.156 61.8649 43.1243Z" fill="#F6C900"/>
<path d="M73.1183 43.1243H69.3669C68.8922 43.156 68.4472 43.3669 68.1221 43.7144C67.7971 44.0619 67.6162 44.52 67.6162 44.9958C67.6162 45.4716 67.7971 45.9297 68.1221 46.2772C68.4472 46.6247 68.8922 46.8356 69.3669 46.8673H73.1183C73.5931 46.8356 74.0381 46.6247 74.3631 46.2772C74.6882 45.9297 74.869 45.4716 74.869 44.9958C74.869 44.52 74.6882 44.0619 74.3631 43.7144C74.0381 43.3669 73.5931 43.156 73.1183 43.1243Z" fill="#F6C900"/>
<path d="M76.8702 18.7487H73.1189C72.6214 18.7487 72.1443 18.9463 71.7925 19.298C71.4408 19.6498 71.2432 20.1269 71.2432 20.6244C71.2432 21.1218 71.4408 21.5989 71.7925 21.9507C72.1443 22.3024 72.6214 22.5 73.1189 22.5H76.8702C77.3677 22.5 77.8448 22.3024 78.1966 21.9507C78.5483 21.5989 78.7459 21.1218 78.7459 20.6244C78.7459 20.1269 78.5483 19.6498 78.1966 19.298C77.8448 18.9463 77.3677 18.7487 76.8702 18.7487Z" fill="#F6C900"/>
<path d="M16.8732 67.4916H13.1218C12.6243 67.4916 12.1472 67.6892 11.7955 68.041C11.4437 68.3927 11.2461 68.8698 11.2461 69.3673C11.2461 69.8647 11.4437 70.3418 11.7955 70.6936C12.1472 71.0453 12.6243 71.243 13.1218 71.243H16.8732C17.3706 71.243 17.8477 71.0453 18.1995 70.6936C18.5513 70.3418 18.7489 69.8647 18.7489 69.3673C18.7489 68.8698 18.5513 68.3927 18.1995 68.041C17.8477 67.6892 17.3706 67.4916 16.8732 67.4916Z" fill="#F6C900"/>
<path d="M76.8702 67.4916H73.1189C72.6214 67.4916 72.1443 67.6892 71.7925 68.041C71.4408 68.3927 71.2432 68.8698 71.2432 69.3673C71.2432 69.8647 71.4408 70.3418 71.7925 70.6936C72.1443 71.0453 72.6214 71.243 73.1189 71.243H76.8702C77.3677 71.243 77.8448 71.0453 78.1966 70.6936C78.5483 70.3418 78.7459 69.8647 78.7459 69.3673C78.7459 68.8698 78.5483 68.3927 78.1966 68.041C77.8448 67.6892 77.3677 67.4916 76.8702 67.4916Z" fill="#F6C900"/>
</g>
<defs>
<filter id="filter0_d" x="0" y="0" width="94.5" height="94.5" filterUnits="userSpaceOnUse" color-interpolation-filters="sRGB">
<feFlood flood-opacity="0" result="BackgroundImageFix"/>
<feColorMatrix in="SourceAlpha" type="matrix" values="0 0 0 0 0 0 0 0 0 0 0 0 0 0 0 0 0 0 127 0" result="hardAlpha"/>
<feOffset dx="4" dy="4"/>
<feGaussianBlur stdDeviation="0.25"/>
<feColorMatrix type="matrix" values="0 0 0 0 0 0 0 0 0 0 0 0 0 0 0 0 0 0 0.1 0"/>
<feBlend mode="normal" in2="BackgroundImageFix" result="effect1_dropShadow"/>
<feBlend mode="normal" in="SourceGraphic" in2="effect1_dropShadow" result="shape"/>
</filter>
</defs>
</svg>
