<svg width="95" height="95" viewBox="0 0 95 95" fill="none" xmlns="http://www.w3.org/2000/svg">
<g filter="url(#filter0_d)">
<path d="M77.6943 60.0445C79.1525 58.4313 80.1114 56.4298 80.4547 54.2825C80.798 52.1352 80.511 49.9345 79.6285 47.9471C78.7459 45.9597 77.3058 44.271 75.4826 43.0857C73.6595 41.9005 71.5317 41.2697 69.3571 41.2697C67.1826 41.2697 65.0547 41.9005 63.2316 43.0857C61.4084 44.271 59.9683 45.9597 59.0857 47.9471C58.2032 49.9345 57.9162 52.1352 58.2595 54.2825C58.6028 56.4298 59.5617 58.4313 61.0199 60.0445C58.6535 60.1919 56.3715 60.9786 54.4169 62.3205C55.5095 60.623 56.1247 58.6624 56.1978 56.6449C56.2709 54.6275 55.7993 52.6275 54.8324 50.8553C53.8655 49.0831 52.4391 47.6041 50.703 46.5736C48.967 45.5432 46.9855 44.9994 44.9667 44.9994C42.9478 44.9994 40.9663 45.5432 39.2303 46.5736C37.4942 47.6041 36.0678 49.0831 35.1009 50.8553C34.134 52.6275 33.6624 54.6275 33.7355 56.6449C33.8086 58.6624 34.4238 60.623 35.5164 62.3205C33.5618 60.9786 31.2798 60.1919 28.9134 60.0445C30.3716 58.4313 31.3305 56.4298 31.6738 54.2825C32.0171 52.1352 31.7301 49.9345 30.8476 47.9471C29.965 45.9597 28.5249 44.271 26.7017 43.0857C24.8786 41.9005 22.7507 41.2697 20.5762 41.2697C18.4016 41.2697 16.2738 41.9005 14.4507 43.0857C12.6275 44.271 11.1874 45.9597 10.3048 47.9471C9.4223 49.9345 9.13529 52.1352 9.4786 54.2825C9.82191 56.4298 10.7808 58.4313 12.239 60.0445C8.92192 60.2704 5.81402 61.7461 3.5425 64.1739C1.27098 66.6017 0.00498463 69.8008 0 73.1255V84.3724C0 84.8699 0.197636 85.3471 0.549429 85.6989C0.72362 85.8731 0.930414 86.0112 1.158 86.1055C1.3856 86.1998 1.62953 86.2483 1.87587 86.2483H24.3863V88.1242C24.3863 88.6217 24.5839 89.0988 24.9357 89.4506C25.2875 89.8024 25.7646 90 26.2622 90H63.7795C64.277 90 64.7542 89.8024 65.106 89.4506C65.4578 89.0988 65.6554 88.6217 65.6554 88.1242V86.2483H88.1658C88.6633 86.2483 89.1405 86.0507 89.4923 85.6989C89.844 85.3471 90.0417 84.8699 90.0417 84.3724V73.1255C90.0349 69.7832 88.7539 66.5693 86.4596 64.1387C84.1654 61.7082 81.0307 60.244 77.6943 60.0445ZM69.3571 45.0375C70.8412 45.0375 72.2919 45.4776 73.5258 46.3021C74.7598 47.1266 75.7215 48.2985 76.2894 49.6696C76.8573 51.0406 77.0059 52.5493 76.7164 54.0049C76.4269 55.4604 75.7122 56.7974 74.6629 57.8468C73.6135 58.8962 72.2765 59.6108 70.821 59.9003C69.3654 60.1898 67.8567 60.0412 66.4857 59.4733C65.1146 58.9054 63.9427 57.9437 63.1182 56.7097C62.2937 55.4758 61.8536 54.0251 61.8536 52.541C61.8481 51.5507 62.0387 50.5692 62.4144 49.6529C62.79 48.7366 63.3434 47.9038 64.0424 47.2024C64.7415 46.501 65.5725 45.9449 66.4875 45.5662C67.4026 45.1875 68.3835 44.9936 69.3738 44.9959L69.3571 45.0375ZM44.9792 48.7893C46.4632 48.7893 47.9139 49.2294 49.1479 50.0538C50.3818 50.8783 51.3435 52.0502 51.9115 53.4213C52.4794 54.7924 52.628 56.3011 52.3385 57.7566C52.0489 59.2121 51.3343 60.5491 50.2849 61.5985C49.2355 62.6479 47.8985 63.3625 46.443 63.6521C44.9875 63.9416 43.4788 63.793 42.1077 63.2251C40.7366 62.6571 39.5647 61.6954 38.7402 60.4615C37.9158 59.2275 37.4757 57.7768 37.4757 56.2928C37.4702 55.3025 37.6608 54.3209 38.0364 53.4046C38.4121 52.4884 38.9654 51.6555 39.6645 50.9541C40.3636 50.2527 41.1946 49.6966 42.1096 49.3179C43.0246 48.9392 44.0055 48.7454 44.9958 48.7476L44.9792 48.7893ZM20.6095 45.0375C22.0936 45.0375 23.5443 45.4776 24.7782 46.3021C26.0122 47.1266 26.9739 48.2985 27.5418 49.6696C28.1098 51.0406 28.2584 52.5493 27.9688 54.0049C27.6793 55.4604 26.9647 56.7974 25.9153 57.8468C24.8659 58.8962 23.5289 59.6108 22.0734 59.9003C20.6179 60.1898 19.1092 60.0412 17.7381 59.4733C16.367 58.9054 15.1951 57.9437 14.3706 56.7097C13.5461 55.4758 13.1061 54.0251 13.1061 52.541C13.1006 51.5507 13.2911 50.5692 13.6668 49.6529C14.0425 48.7366 14.5958 47.9038 15.2949 47.2024C15.9939 46.501 16.825 45.9449 17.74 45.5662C18.655 45.1875 19.6359 44.9936 20.6262 44.9959L20.6095 45.0375ZM3.73506 82.5549V73.1255C3.73727 70.6372 4.7273 68.2516 6.4876 66.4928C8.24789 64.7341 10.6344 63.7462 13.1227 63.7462C29.3136 63.7462 29.7304 63.4294 32.3817 64.7884C30.0087 65.796 27.9847 67.4794 26.5615 69.629C25.1384 71.7786 24.379 74.2993 24.378 76.8773V82.4966L3.73506 82.5549ZM61.8536 86.3067H28.1214V76.8773C28.1258 74.3911 29.1154 72.008 30.8734 70.25C32.6314 68.4919 35.0145 67.5024 37.5007 67.4979H52.5076C54.9916 67.5046 57.3717 68.4954 59.1266 70.2534C60.8815 72.0114 61.8681 74.3933 61.8703 76.8773L61.8536 86.3067ZM86.2316 82.5549H65.622V76.8773C65.621 74.2993 64.8616 71.7786 63.4385 69.629C62.0153 67.4794 59.9913 65.796 57.6183 64.7884C60.3613 63.3794 60.8198 63.7462 76.8773 63.7462C79.3627 63.7506 81.7449 64.7405 83.5016 66.4987C85.2583 68.257 86.2461 70.6401 86.2483 73.1255L86.2316 82.5549Z" fill="#F6C900"/>
<path d="M10.2635 40.944C11.4473 41.6776 11.6808 41.2274 19.1926 37.4757H48.7479C49.2455 37.4757 49.7226 37.278 50.0744 36.9263C50.4262 36.5745 50.6238 36.0973 50.6238 35.5998V29.9972H70.8082C78.4784 33.8407 78.5784 34.1658 79.7373 33.4738C80.8962 32.7818 80.621 34.1908 80.621 1.87587C80.621 1.37836 80.4234 0.901223 80.0716 0.549429C79.7198 0.197636 79.2427 0 78.7452 0H41.2278C40.7303 0 40.2532 0.197636 39.9014 0.549429C39.5496 0.901223 39.3519 1.37836 39.3519 1.87587V7.50347H11.2556C11.0089 7.50237 10.7645 7.55014 10.5364 7.64402C10.3083 7.7379 10.1011 7.87603 9.92669 8.05044C9.75228 8.22485 9.61414 8.43209 9.52026 8.66018C9.42638 8.88826 9.37861 9.13269 9.37972 9.37934C9.37972 41.686 8.99621 40.1853 10.2635 40.944ZM43.1287 3.75174H76.8776V28.8384C71.6502 26.2288 71.8753 26.2538 71.25 26.2538H43.1287V3.75174ZM13.1148 11.2552H39.3769V14.9986H18.7507C18.2532 14.9986 17.7761 15.1962 17.4243 15.548C17.0725 15.8998 16.8749 16.377 16.8749 16.8745C16.8749 17.372 17.0725 17.8491 17.4243 18.2009C17.7761 18.5527 18.2532 18.7503 18.7507 18.7503H39.3769V28.1214C39.3758 28.368 39.4236 28.6124 39.5175 28.8405C39.6114 29.0686 39.7495 29.2758 39.9239 29.4503C40.0983 29.6247 40.3056 29.7628 40.5336 29.8567C40.7617 29.9506 41.0062 29.9983 41.2528 29.9972H46.8721V33.749C16.2996 33.749 18.5256 33.6656 17.9087 33.9491L13.1231 36.3418L13.1148 11.2552Z" fill="#F6C900"/>
<path d="M48.7479 11.2552H71.2584C71.7559 11.2552 72.233 11.0575 72.5848 10.7057C72.9366 10.3539 73.1342 9.8768 73.1342 9.37929C73.1342 8.88177 72.9366 8.40464 72.5848 8.05285C72.233 7.70105 71.7559 7.50342 71.2584 7.50342H48.7479C48.2504 7.50342 47.7733 7.70105 47.4215 8.05285C47.0697 8.40464 46.8721 8.88177 46.8721 9.37929C46.8721 9.8768 47.0697 10.3539 47.4215 10.7057C47.7733 11.0575 48.2504 11.2552 48.7479 11.2552Z" fill="#F6C900"/>
<path d="M48.7479 20.6262H63.7549C64.2524 20.6262 64.7295 20.4286 65.0813 20.0768C65.4331 19.725 65.6308 19.2479 65.6308 18.7504C65.6308 18.2529 65.4331 17.7757 65.0813 17.4239C64.7295 17.0721 64.2524 16.8745 63.7549 16.8745H48.7479C48.2504 16.8745 47.7733 17.0721 47.4215 17.4239C47.0697 17.7757 46.8721 18.2529 46.8721 18.7504C46.8721 19.2479 47.0697 19.725 47.4215 20.0768C47.7733 20.4286 48.2504 20.6262 48.7479 20.6262Z" fill="#F6C900"/>
<path d="M33.749 28.1213C34.2239 28.0896 34.6689 27.8786 34.994 27.5311C35.3191 27.1836 35.4999 26.7255 35.4999 26.2496C35.4999 25.7738 35.3191 25.3157 34.994 24.9681C34.6689 24.6206 34.2239 24.4096 33.749 24.3779H18.7421C18.2673 24.4096 17.8223 24.6206 17.4972 24.9681C17.1721 25.3157 16.9912 25.7738 16.9912 26.2496C16.9912 26.7255 17.1721 27.1836 17.4972 27.5311C17.8223 27.8786 18.2673 28.0896 18.7421 28.1213H33.749Z" fill="#F6C900"/>
</g>
<defs>
<filter id="filter0_d" x="0" y="0" width="94.5417" height="94.5" filterUnits="userSpaceOnUse" color-interpolation-filters="sRGB">
<feFlood flood-opacity="0" result="BackgroundImageFix"/>
<feColorMatrix in="SourceAlpha" type="matrix" values="0 0 0 0 0 0 0 0 0 0 0 0 0 0 0 0 0 0 127 0" result="hardAlpha"/>
<feOffset dx="4" dy="4"/>
<feGaussianBlur stdDeviation="0.25"/>
<feColorMatrix type="matrix" values="0 0 0 0 0 0 0 0 0 0 0 0 0 0 0 0 0 0 0.1 0"/>
<feBlend mode="normal" in2="BackgroundImageFix" result="effect1_dropShadow"/>
<feBlend mode="normal" in="SourceGraphic" in2="effect1_dropShadow" result="shape"/>
</filter>
</defs>
</svg>
