<svg width="95" height="95" viewBox="0 0 95 95" fill="none" xmlns="http://www.w3.org/2000/svg">
<g filter="url(#filter0_d)">
<path d="M89.0236 46.9053C84.5345 44.3235 86.675 46.4056 86.0337 41.0087L89.0236 39.2931C89.4541 39.0455 89.7688 38.6371 89.8984 38.1577C90.028 37.6783 89.962 37.167 89.7149 36.7362L84.0931 27.0002C83.9713 26.7862 83.8084 26.5984 83.6137 26.4477C83.419 26.297 83.1963 26.1863 82.9586 26.1221C82.721 26.0578 82.4729 26.0412 82.2288 26.0733C81.9847 26.1054 81.7493 26.1854 81.5363 26.3089L78.538 28.0329C77.4098 27.2181 76.1981 26.5257 74.9234 25.9674V22.4944C74.9234 21.9974 74.726 21.5208 74.3746 21.1694C74.0231 20.8179 73.5465 20.6205 73.0495 20.6205H63.6882C63.6882 16.6645 63.8298 16.2397 63.1302 15.5484C46.723 -0.867079 48.0389 0.365542 47.5476 0.149C47.0562 -0.0675414 50.1044 0.015744 1.87392 0.015744C1.37692 0.015744 0.900286 0.213174 0.548858 0.564602C0.19743 0.916029 0 1.39267 0 1.88966V73.0652C0 73.5622 0.19743 74.0389 0.548858 74.3903C0.900286 74.7417 1.37692 74.9392 1.87392 74.9392H61.8393C62.3363 74.9392 62.8129 74.7417 63.1644 74.3903C63.5158 74.0389 63.7132 73.5622 63.7132 73.0652V65.5696H73.0495C73.5465 65.5696 74.0231 65.3721 74.3746 65.0207C74.726 64.6693 74.9234 64.1926 74.9234 63.6956V60.2476C80.0288 58.0073 77.0305 57.2993 81.5363 59.8895C81.966 60.1373 82.4766 60.2046 82.9559 60.0766C83.4352 59.9485 83.8441 59.6357 84.0931 59.2066C90.148 48.7043 90.1729 49.0708 89.9231 48.038C89.8565 47.7987 89.7426 47.5751 89.5881 47.3805C89.4336 47.186 89.2417 47.0244 89.0236 46.9053ZM48.7052 6.41205L57.2919 14.9988H48.7052V6.41205ZM63.6966 38.9599C64.4982 38.2287 65.4952 37.7463 66.566 37.5714C67.6369 37.3966 68.7355 37.5367 69.7281 37.9749C70.7208 38.413 71.5647 39.1303 72.1571 40.0393C72.7495 40.9483 73.0649 42.01 73.0649 43.095C73.0649 44.1801 72.7495 45.2417 72.1571 46.1508C71.5647 47.0598 70.7208 47.7771 69.7281 48.2152C68.7355 48.6534 67.6369 48.7935 66.566 48.6186C65.4952 48.4437 64.4982 47.9613 63.6966 47.2301V38.9599ZM59.9487 71.1913H3.74784V3.73027H44.9574V16.8727C44.9574 17.3697 45.1548 17.8463 45.5062 18.1977C45.8577 18.5492 46.3343 18.7466 46.8313 18.7466H59.9404L59.9487 71.1913ZM82.1526 40.3758C83.4851 47.3551 79.5624 45.7727 85.5423 49.2123L81.7945 55.7086L79.2959 54.2844C77.3387 53.1767 77.1555 55.5004 72.3999 57.216C70.9174 57.7574 71.1672 58.965 71.1672 61.8217H63.6716V51.6693C65.0963 52.2936 66.6542 52.553 68.2044 52.4241C69.7546 52.2952 71.2482 51.782 72.5503 50.931C73.8524 50.08 74.9219 48.9179 75.6621 47.5497C76.4023 46.1816 76.79 44.6506 76.79 43.095C76.79 41.5395 76.4023 40.0085 75.6621 38.6403C74.9219 37.2722 73.8524 36.1101 72.5503 35.2591C71.2482 34.408 69.7546 33.8949 68.2044 33.766C66.6542 33.6371 65.0963 33.8965 63.6716 34.5208V24.3684H71.1672C71.1672 26.6087 70.7675 28.3827 72.3999 28.974C77.1221 30.6397 77.397 33.0134 79.2959 31.9057L81.7945 30.4815L85.5423 36.9777L83.0437 38.4019C82.7094 38.5988 82.4437 38.8939 82.2827 39.247C82.1218 39.6001 82.0735 39.9942 82.1442 40.3758H82.1526Z" fill="#F6C900"/>
<path d="M62.6473 82.6014C55.3515 78.9535 55.0017 78.687 54.3771 78.6703C50.2877 78.5288 68.4356 78.6703 5.62186 78.6703C4.51511 78.6746 3.43421 79.0054 2.51467 79.6213C1.59512 80.2372 0.877839 81.1109 0.452728 82.1327C0.0276166 83.1546 -0.0864088 84.2792 0.124944 85.3656C0.336298 86.452 0.863625 87.4519 1.64083 88.2398C3.9395 90.5968 2.08224 89.9055 54.3188 89.9055C55.0017 89.9055 55.4015 89.5807 62.6473 85.9578C62.9597 85.8026 63.2225 85.5633 63.4063 85.2668C63.59 84.9703 63.6874 84.6284 63.6874 84.2796C63.6874 83.9308 63.59 83.5889 63.4063 83.2924C63.2225 82.9959 62.9597 82.7566 62.6473 82.6014ZM4.29763 85.5997C4.03988 85.3374 3.86539 85.0047 3.79611 84.6436C3.72683 84.2824 3.76583 83.9088 3.90822 83.5698C4.05061 83.2307 4.29003 82.9413 4.59641 82.7379C4.90278 82.5345 5.26244 82.4261 5.63019 82.4265H7.50411V86.1744C5.68016 86.1744 4.99723 86.3243 4.29763 85.5997ZM53.8857 86.1744H11.2436V82.4265H53.8773L57.6002 84.2671L53.8857 86.1744Z" fill="#F6C900"/>
<path d="M19.2889 19.3047L13.1258 25.4678L10.7022 23.0525C10.347 22.7215 9.87711 22.5413 9.39164 22.5499C8.90617 22.5585 8.44297 22.7551 8.09964 23.0985C7.75631 23.4418 7.55964 23.905 7.55107 24.3905C7.54251 24.8759 7.72271 25.3458 8.05372 25.701C14.2002 31.8475 11.8265 32.064 21.9374 21.9532C22.2684 21.5979 22.4486 21.1281 22.44 20.6426C22.4315 20.1571 22.2348 19.6939 21.8915 19.3506C21.5481 19.0073 21.0849 18.8106 20.5995 18.802C20.114 18.7935 19.6441 18.9737 19.2889 19.3047Z" fill="#F6C900"/>
<path d="M54.3188 24.3684H28.1006C27.6263 24.4001 27.1817 24.6108 26.857 24.958C26.5322 25.3052 26.3516 25.7628 26.3516 26.2382C26.3516 26.7135 26.5322 27.1712 26.857 27.5183C27.1817 27.8655 27.6263 28.0762 28.1006 28.1079H54.3188C54.7931 28.0762 55.2377 27.8655 55.5625 27.5183C55.8872 27.1712 56.0679 26.7135 56.0679 26.2382C56.0679 25.7628 55.8872 25.3052 55.5625 24.958C55.2377 24.6108 54.7931 24.4001 54.3188 24.3684Z" fill="#F6C900"/>
<path d="M19.2889 36.1532L13.1258 42.3163L10.7022 39.901C10.347 39.57 9.87711 39.3898 9.39164 39.3984C8.90617 39.407 8.44297 39.6036 8.09964 39.947C7.75631 40.2903 7.55964 40.7535 7.55107 41.239C7.54251 41.7244 7.72271 42.1943 8.05372 42.5495C14.2002 48.696 11.8265 48.9125 21.9374 38.8017C22.2684 38.4464 22.4486 37.9766 22.44 37.4911C22.4315 37.0057 22.2348 36.5425 21.8915 36.1991C21.5481 35.8558 21.0849 35.6591 20.5995 35.6506C20.114 35.642 19.6441 35.8222 19.2889 36.1532Z" fill="#F6C900"/>
<path d="M54.3188 41.2253H28.1006C27.6263 41.257 27.1817 41.4678 26.857 41.8149C26.5322 42.1621 26.3516 42.6197 26.3516 43.0951C26.3516 43.5705 26.5322 44.0281 26.857 44.3753C27.1817 44.7224 27.6263 44.9332 28.1006 44.9649H54.3188C54.7931 44.9332 55.2377 44.7224 55.5625 44.3753C55.8872 44.0281 56.0679 43.5705 56.0679 43.0951C56.0679 42.6197 55.8872 42.1621 55.5625 41.8149C55.2377 41.4678 54.7931 41.257 54.3188 41.2253Z" fill="#F6C900"/>
<path d="M19.2884 53.0101L13.1253 59.1732L10.6934 56.7829C10.3382 56.4519 9.86832 56.2717 9.38285 56.2803C8.89738 56.2888 8.43419 56.4855 8.09085 56.8288C7.74752 57.1722 7.55085 57.6354 7.54228 58.1208C7.53372 58.6063 7.71392 59.0762 8.04493 59.4314C14.1914 65.5778 11.8178 65.7944 21.9286 55.6835C22.2831 55.3334 22.484 54.8568 22.4872 54.3586C22.4903 53.8604 22.2953 53.3813 21.9452 53.0267C21.5951 52.6722 21.1185 52.4713 20.6203 52.4682C20.122 52.4651 19.643 52.66 19.2884 53.0101Z" fill="#F6C900"/>
<path d="M54.3188 58.0823H28.1006C27.6263 58.1139 27.1817 58.3247 26.857 58.6719C26.5322 59.019 26.3516 59.4767 26.3516 59.952C26.3516 60.4274 26.5322 60.885 26.857 61.2322C27.1817 61.5793 27.6263 61.7901 28.1006 61.8218H54.3188C54.7931 61.7901 55.2377 61.5793 55.5625 61.2322C55.8872 60.885 56.0679 60.4274 56.0679 59.952C56.0679 59.4767 55.8872 59.019 55.5625 58.6719C55.2377 58.3247 54.7931 58.1139 54.3188 58.0823Z" fill="#F6C900"/>
</g>
<defs>
<filter id="filter0_d" x="0" y="0" width="94.4985" height="94.5" filterUnits="userSpaceOnUse" color-interpolation-filters="sRGB">
<feFlood flood-opacity="0" result="BackgroundImageFix"/>
<feColorMatrix in="SourceAlpha" type="matrix" values="0 0 0 0 0 0 0 0 0 0 0 0 0 0 0 0 0 0 127 0" result="hardAlpha"/>
<feOffset dx="4" dy="4"/>
<feGaussianBlur stdDeviation="0.25"/>
<feColorMatrix type="matrix" values="0 0 0 0 0 0 0 0 0 0 0 0 0 0 0 0 0 0 0.1 0"/>
<feBlend mode="normal" in2="BackgroundImageFix" result="effect1_dropShadow"/>
<feBlend mode="normal" in="SourceGraphic" in2="effect1_dropShadow" result="shape"/>
</filter>
</defs>
</svg>
