<svg width="95" height="95" viewBox="0 0 95 95" fill="none" xmlns="http://www.w3.org/2000/svg">
<g filter="url(#filter0_d)">
<path d="M79.3912 43.2784H71.4052C71.9032 37.2285 70.2457 31.1973 66.7258 26.2517L73.3557 19.6134C74.9352 20.545 76.8003 20.8685 78.6014 20.5233C80.4024 20.1781 82.0157 19.1878 83.1388 17.7381C84.2619 16.2884 84.8177 14.4789 84.702 12.6487C84.5863 10.8186 83.8071 9.09344 82.5103 7.79673C81.2136 6.50003 79.4885 5.72079 77.6583 5.60509C75.8282 5.4894 74.0186 6.0452 72.569 7.1683C71.1193 8.2914 70.129 9.90468 69.7838 11.7057C69.4385 13.5067 69.7621 15.3719 70.6937 16.9514L64.3233 23.3302C59.8182 18.4925 53.6338 15.5606 47.037 15.1349V10.9494C53.0307 8.81473 51.4318 0 45.1535 0C38.8752 0 37.2847 8.78962 43.2784 10.9494V15.1349C36.6976 15.594 30.5328 18.521 26.0173 23.3302L19.6385 16.9514C20.5701 15.3719 20.8936 13.5067 20.5484 11.7057C20.2032 9.90468 19.2129 8.2914 17.7632 7.1683C16.3136 6.0452 14.504 5.4894 12.6739 5.60509C10.8437 5.72079 9.11855 6.50003 7.82185 7.79673C6.52514 9.09344 5.7459 10.8186 5.63021 12.6487C5.51452 14.4789 6.07031 16.2884 7.19341 17.7381C8.31651 19.1878 9.92979 20.1781 11.7308 20.5233C13.5319 20.8685 15.397 20.545 16.9765 19.6134L23.6315 26.2684C20.131 31.2182 18.4644 37.2329 18.9186 43.2784H10.9494C8.81473 37.2847 0 38.8836 0 45.1535C0 51.4235 8.78962 53.0307 10.9494 47.037H19.4292C20.9277 53.9515 24.2175 57.4255 27.0302 60.6233L16.9849 70.6685C15.4053 69.7369 13.5402 69.4134 11.7392 69.7587C9.93816 70.1039 8.32488 71.0942 7.20178 72.5438C6.07869 73.9935 5.52289 75.8031 5.63858 77.6332C5.75427 79.4634 6.53351 81.1885 7.83022 82.4852C9.12692 83.7819 10.8521 84.5612 12.6822 84.6769C14.5124 84.7926 16.3219 84.2368 17.7716 83.1137C19.2213 81.9906 20.2115 80.3773 20.5568 78.5763C20.902 76.7752 20.5785 74.9101 19.6469 73.3306L29.2736 63.6871C32.3374 68.8688 31.9775 72.8953 31.9775 77.1478C32.0641 80.5859 33.4908 83.854 35.9531 86.2551C38.4155 88.6561 41.7185 90 45.1577 90C48.5969 90 51.9 88.6561 54.3623 86.2551C56.8247 83.854 58.2513 80.5859 58.338 77.1478C58.338 72.6441 58.0199 68.6344 60.9832 63.6285L70.6937 73.3389C69.7621 74.9185 69.4385 76.7836 69.7838 78.5846C70.129 80.3857 71.1193 81.9989 72.569 83.122C74.0186 84.2451 75.8282 84.8009 77.6583 84.6852C79.4885 84.5695 81.2136 83.7903 82.5103 82.4936C83.8071 81.1969 84.5863 79.4718 84.702 77.6416C84.8177 75.8114 84.2619 74.0019 83.1388 72.5522C82.0157 71.1025 80.4024 70.1123 78.6014 69.767C76.8003 69.4218 74.9352 69.7453 73.3557 70.6769L63.2602 60.5982C66.8513 56.7726 69.5468 53.1479 70.8778 47.037H79.3912C81.5258 53.0307 90.3406 51.4318 90.3406 45.1535C90.3406 38.8752 81.5258 37.2847 79.3912 43.2784ZM77.1645 9.39234C77.7471 9.39212 78.3219 9.52736 78.8433 9.78737C79.3647 10.0474 79.8185 10.4251 80.1689 10.8906C80.5193 11.3561 80.7566 11.8966 80.8622 12.4696C80.9679 13.0426 80.9388 13.6323 80.7774 14.1921C80.616 14.752 80.3267 15.2666 79.9322 15.6955C79.5378 16.1243 79.0491 16.4555 78.5047 16.6631C77.9602 16.8706 77.375 16.9487 76.7952 16.8912C76.2154 16.8338 75.6569 16.6423 75.1638 16.332C75.0901 16.0461 74.9421 15.7848 74.7348 15.5745C74.5275 15.3643 74.2683 15.2126 73.9835 15.1349C73.6303 14.5665 73.4352 13.9142 73.4184 13.2453C73.4016 12.5763 73.5637 11.915 73.888 11.3297C74.2122 10.7443 74.6869 10.2561 75.2629 9.91556C75.8389 9.57498 76.4953 9.39436 77.1645 9.39234ZM5.62536 47.0621C5.14861 47.0303 4.70178 46.8185 4.37537 46.4695C4.04896 46.1206 3.86736 45.6606 3.86736 45.1828C3.86736 44.705 4.04896 44.2451 4.37537 43.8961C4.70178 43.5472 5.14861 43.3354 5.62536 43.3035C6.07743 43.3642 6.49213 43.5869 6.79244 43.9302C7.09275 44.2735 7.25827 44.7141 7.25827 45.1703C7.25827 45.6264 7.09275 46.067 6.79244 46.4104C6.49213 46.7537 6.07743 46.9763 5.62536 47.037V47.0621ZM13.1593 80.9482C12.5793 80.9461 12.0077 80.8097 11.4892 80.5499C10.9707 80.29 10.5194 79.9137 10.1706 79.4503C9.82174 78.987 9.58486 78.4492 9.47848 77.8791C9.37209 77.3089 9.39909 76.7219 9.55736 76.164C9.71563 75.606 10.0009 75.0922 10.3908 74.6629C10.7807 74.2335 11.2646 73.9002 11.8048 73.689C12.345 73.4779 12.9267 73.3946 13.5044 73.4456C14.0821 73.4967 14.6402 73.6808 15.1349 73.9835C15.2112 74.2663 15.3603 74.5241 15.5675 74.7312C15.7746 74.9384 16.0324 75.0875 16.3152 75.1638C16.672 75.7313 16.8706 76.3838 16.8903 77.0538C16.9101 77.7238 16.7503 78.3869 16.4275 78.9744C16.1047 79.5619 15.6307 80.0524 15.0546 80.395C14.4785 80.7376 13.8212 80.92 13.1509 80.9231L13.1593 80.9482ZM80.965 77.1896C80.9652 77.7723 80.8299 78.347 80.5699 78.8684C80.3099 79.3898 79.9323 79.8436 79.4668 80.194C79.0013 80.5444 78.4607 80.7817 77.8877 80.8874C77.3147 80.993 76.725 80.9639 76.1652 80.8025C75.6053 80.6411 75.0907 80.3518 74.6619 79.9574C74.233 79.5629 73.9018 79.0742 73.6943 78.5298C73.4867 77.9853 73.4086 77.4001 73.4661 76.8203C73.5235 76.2405 73.715 75.682 74.0254 75.1889C74.3082 75.1126 74.566 74.9635 74.7731 74.7564C74.9802 74.5492 75.1294 74.2914 75.2057 74.0086C75.7717 73.6629 76.4192 73.4731 77.0823 73.4585C77.7454 73.4439 78.4005 73.6051 78.9812 73.9256C79.5619 74.2461 80.0474 74.7146 80.3885 75.2835C80.7295 75.8523 80.914 76.5013 80.9231 77.1645L80.965 77.1896ZM67.6382 43.2784H61.9208C62.2165 41.5954 62.1212 39.867 61.6422 38.2268C61.1632 36.5865 60.3133 35.0784 59.1583 33.8191L64.0136 28.9639C66.8317 33.1767 68.1118 38.2321 67.6382 43.2784ZM53.7674 48.3011C52.3275 48.9205 52.6875 50.3771 52.6875 50.8124C52.6865 51.4731 52.5116 52.122 52.1806 52.6938C51.8495 53.2656 51.3739 53.7403 50.8014 54.0702C50.229 54.4001 49.5798 54.5737 48.919 54.5734C48.2583 54.5732 47.6092 54.3991 47.037 54.0687V28.7211C47.643 28.3728 48.334 28.2 49.0326 28.222C49.7312 28.244 50.4099 28.4599 50.9928 28.8456C51.5757 29.2313 52.0398 29.7716 52.3332 30.406C52.6266 31.0404 52.7377 31.7439 52.654 32.4379C52.5896 32.8511 52.6639 33.2741 52.8653 33.6406C53.0668 34.0071 53.384 34.2966 53.7674 34.4637C55.1264 35.0426 56.2853 36.0084 57.0998 37.2407C57.9144 38.4731 58.3486 39.9177 58.3486 41.3949C58.3486 42.8722 57.9144 44.3168 57.0998 45.5491C56.2853 46.7815 55.1264 47.7472 53.7674 48.3262V48.3011ZM36.5481 48.3011C35.189 47.7221 34.0302 46.7564 33.2156 45.524C32.4011 44.2917 31.9668 42.847 31.9668 41.3698C31.9668 39.8926 32.4011 38.448 33.2156 37.2156C34.0302 35.9832 35.189 35.0175 36.5481 34.4386C37.9963 33.8107 37.6279 32.3123 37.6279 31.9273C37.629 31.2665 37.8038 30.6177 38.1349 30.0458C38.4659 29.474 38.9415 28.9993 39.514 28.6694C40.0865 28.3395 40.7357 28.166 41.3964 28.1662C42.0572 28.1665 42.7062 28.3405 43.2784 28.6709V54.0604C42.6724 54.4086 41.9815 54.5815 41.2829 54.5595C40.5842 54.5375 39.9055 54.3216 39.3226 53.9359C38.7397 53.5502 38.2756 53.0099 37.9823 52.3755C37.6889 51.7411 37.5778 51.0375 37.6614 50.3436C37.7268 49.9314 37.6529 49.5091 37.4512 49.1437C37.2495 48.7783 36.9317 48.4906 36.5481 48.3262V48.3011ZM61.6613 26.0173L56.3959 31.2827C56.2945 30.2011 55.9588 29.1546 55.4122 28.2158C54.8656 27.277 54.1211 26.4684 53.2306 25.8463C52.34 25.2242 51.3247 24.8034 50.2552 24.6132C49.1856 24.423 48.0875 24.4679 47.037 24.7449V18.8851C52.6385 19.3269 57.8643 21.8755 61.6613 26.0173ZM45.1535 3.74187C45.6531 3.74187 46.1321 3.94031 46.4854 4.29353C46.8386 4.64675 47.037 5.12582 47.037 5.62536C47.037 6.12489 46.8386 6.60396 46.4854 6.95719C46.1321 7.31041 45.6531 7.50885 45.1535 7.50885C44.654 7.50885 44.1749 7.31041 43.8217 6.95719C43.4685 6.60396 43.2701 6.12489 43.2701 5.62536C43.2701 5.12582 43.4685 4.64675 43.8217 4.29353C44.1749 3.94031 44.654 3.74187 45.1535 3.74187ZM43.2784 18.8935V24.7532C42.2279 24.4748 41.1293 24.4288 40.0592 24.6184C38.9891 24.8079 37.9732 25.2286 37.0822 25.8509C36.1913 26.4733 35.4468 27.2824 34.9006 28.222C34.3544 29.1615 34.0196 30.2089 33.9196 31.291L28.6542 26.0173C32.454 21.8806 37.6788 19.3355 43.2784 18.8935ZM9.39234 13.1509C9.38953 12.5676 9.52254 11.9916 9.78084 11.4686C10.0391 10.9456 10.4156 10.4898 10.8805 10.1375C11.3454 9.7851 11.8859 9.54577 12.4593 9.43844C13.0327 9.3311 13.6232 9.3587 14.184 9.51904C14.7449 9.67939 15.2608 9.96808 15.6908 10.3623C16.1208 10.7565 16.4531 11.2453 16.6615 11.7902C16.8699 12.335 16.9486 12.9209 16.8914 13.5014C16.8342 14.0819 16.6427 14.6412 16.332 15.1349C16.044 15.21 15.7814 15.3606 15.571 15.571C15.3606 15.7814 15.21 16.044 15.1349 16.332C14.5665 16.6852 13.9142 16.8802 13.2453 16.897C12.5763 16.9138 11.915 16.7517 11.3297 16.4275C10.7443 16.1032 10.2561 15.6286 9.91556 15.0526C9.57498 14.4766 9.39436 13.8201 9.39234 13.1509ZM26.3186 28.9806L31.1571 33.8191C30.0032 35.0791 29.1541 36.5873 28.6751 38.2273C28.1962 39.8673 28.1002 41.5954 28.3947 43.2784H22.6689C22.2357 38.2371 23.5222 33.1976 26.3186 28.9806ZM23.305 47.037H29.7257C30.7268 48.7773 32.1709 50.2215 33.9112 51.2226C34.0702 54.345 35.9035 51.8336 29.7257 57.9948C27.1557 55.1235 24.6612 52.3527 23.305 47.037ZM37.6782 82.8066H43.2784C43.778 82.8066 44.257 82.6082 44.6103 82.2549C44.9635 81.9017 45.1619 81.4226 45.1619 80.9231C45.1619 80.4236 44.9635 79.9445 44.6103 79.5913C44.257 79.2381 43.778 79.0396 43.2784 79.0396H35.937C35.7333 77.7978 35.6687 76.5371 35.7445 75.281H54.571C54.6451 76.5371 54.5805 77.7976 54.3785 79.0396H50.804C50.3045 79.0396 49.8254 79.2381 49.4722 79.5913C49.119 79.9445 48.9205 80.4236 48.9205 80.9231C48.9205 81.4226 49.119 81.9017 49.4722 82.2549C49.8254 82.6082 50.3045 82.8066 50.804 82.8066H52.6373C51.7705 83.9736 50.6426 84.9217 49.3438 85.5748C48.0451 86.228 46.6115 86.5682 45.1577 86.5682C43.704 86.5682 42.2704 86.228 40.9716 85.5748C39.6729 84.9217 38.545 83.9736 37.6782 82.8066ZM54.6463 71.514H35.6691C35.337 67.7506 34.0804 64.1274 32.011 60.9665L36.4895 56.488C37.6612 57.5227 39.1298 58.1608 40.6858 58.3112C42.2417 58.4615 43.8054 58.1164 45.1535 57.3251C46.5037 58.1146 48.0683 58.4586 49.6251 58.3083C51.1819 58.1581 52.6517 57.5211 53.826 56.488L58.2459 60.9079C56.1842 64.0897 54.9472 67.7347 54.6463 71.514ZM60.5982 57.9362C54.4371 51.7751 56.2871 54.3617 56.4126 51.1807C58.1369 50.1758 59.5639 48.7315 60.5479 46.9952H67.0355C65.7799 51.8169 63.6034 54.7719 60.5982 57.9362ZM84.6901 47.0538C84.2133 47.0219 83.7665 46.8101 83.4401 46.4612C83.1137 46.1122 82.9321 45.6523 82.9321 45.1745C82.9321 44.6967 83.1137 44.2367 83.4401 43.8878C83.7665 43.5388 84.2133 43.327 84.6901 43.2952C85.1489 43.3484 85.5722 43.5684 85.8795 43.9134C86.1867 44.2583 86.3565 44.7042 86.3565 45.1661C86.3565 45.628 86.1867 46.0739 85.8795 46.4188C85.5722 46.7638 85.1489 46.9838 84.6901 47.037V47.0538Z" fill="#F6C900"/>
</g>
<defs>
<filter id="filter0_d" x="0" y="0" width="94.8406" height="94.5" filterUnits="userSpaceOnUse" color-interpolation-filters="sRGB">
<feFlood flood-opacity="0" result="BackgroundImageFix"/>
<feColorMatrix in="SourceAlpha" type="matrix" values="0 0 0 0 0 0 0 0 0 0 0 0 0 0 0 0 0 0 127 0" result="hardAlpha"/>
<feOffset dx="4" dy="4"/>
<feGaussianBlur stdDeviation="0.25"/>
<feColorMatrix type="matrix" values="0 0 0 0 0 0 0 0 0 0 0 0 0 0 0 0 0 0 0.1 0"/>
<feBlend mode="normal" in2="BackgroundImageFix" result="effect1_dropShadow"/>
<feBlend mode="normal" in="SourceGraphic" in2="effect1_dropShadow" result="shape"/>
</filter>
</defs>
</svg>
