<svg width="91" height="95" viewBox="0 0 91 95" fill="none" xmlns="http://www.w3.org/2000/svg">
<g filter="url(#filter0_d)">
<path d="M54.4453 22.583H56.3279V28.2225C56.3268 28.47 56.3747 28.7153 56.4689 28.9442C56.5631 29.1731 56.7018 29.3811 56.8768 29.5562C57.0519 29.7312 57.2598 29.8698 57.4887 29.964C57.7177 30.0583 57.963 30.1062 58.2105 30.1051H65.741C66.2403 30.1051 66.7191 29.9068 67.0722 29.5537C67.4252 29.2006 67.6236 28.7218 67.6236 28.2225V24.4656C67.6236 23.9663 67.8219 23.4875 68.175 23.1344C68.528 22.7814 69.0069 22.583 69.5062 22.583C70.0055 22.583 70.4843 22.7814 70.8374 23.1344C71.1904 23.4875 71.3888 23.9663 71.3888 24.4656V28.2225C71.3877 28.47 71.4356 28.7153 71.5298 28.9442C71.6241 29.1731 71.7627 29.3811 71.9377 29.5562C72.1128 29.7312 72.3207 29.8698 72.5497 29.964C72.7786 30.0583 73.0239 30.1062 73.2714 30.1051H82.5924C83.0653 30.1045 83.5206 29.926 83.8678 29.6051C84.2151 29.2842 84.4289 28.8444 84.4667 28.3731C84.7482 24.7537 84.2782 21.1153 83.0863 17.6863C81.8944 14.2572 80.0063 11.1117 77.5406 8.44724C75.075 5.78277 72.085 3.65694 68.7585 2.20326C65.4319 0.749579 61.8408 -0.000545834 58.2105 2.97996e-07C57.7112 2.97996e-07 57.2323 0.198347 56.8793 0.551405C56.5262 0.904464 56.3279 1.38331 56.3279 1.88262V11.2957H54.4453C53.6858 11.2664 52.9283 11.3908 52.2181 11.6612C51.5079 11.9317 50.8595 12.3427 50.3119 12.8696C49.7643 13.3965 49.3286 14.0286 49.031 14.7279C48.7335 15.4272 48.5801 16.1794 48.5801 16.9393C48.5801 17.6993 48.7335 18.4515 49.031 19.1508C49.3286 19.8501 49.7643 20.4821 50.3119 21.0091C50.8595 21.536 51.5079 21.947 52.2181 22.2175C52.9283 22.4879 53.6858 22.6123 54.4453 22.583ZM54.4453 15.0525H58.2105C58.4573 15.0526 58.7017 15.0038 58.9297 14.9091C59.1576 14.8144 59.3646 14.6756 59.5388 14.5006C59.7129 14.3257 59.8508 14.1181 59.9445 13.8897C60.0382 13.6614 60.0858 13.4168 60.0847 13.1699V3.83217C65.7298 4.30634 70.9907 6.88405 74.8248 11.0544C78.6588 15.2247 80.7861 20.6833 80.7851 26.3482H75.1457V24.4656C75.1431 23.353 74.8119 22.266 74.1938 21.3409C73.5756 20.4158 72.698 19.6939 71.671 19.2658C70.6441 18.8376 69.5136 18.7224 68.4214 18.9344C67.3292 19.1465 66.3239 19.6764 65.5318 20.4577C63.599 22.3404 63.8583 24.4071 63.8583 26.3148H60.0847V20.7004C60.0858 20.4536 60.0382 20.2089 59.9445 19.9806C59.8508 19.7522 59.7129 19.5446 59.5388 19.3697C59.3646 19.1948 59.1576 19.056 58.9297 18.9612C58.7017 18.8665 58.4573 18.8178 58.2105 18.8178H54.4453C53.946 18.8178 53.4671 18.6194 53.1141 18.2664C52.761 17.9133 52.5627 17.4345 52.5627 16.9352C52.5627 16.4359 52.761 15.957 53.1141 15.604C53.4671 15.2509 53.946 15.0525 54.4453 15.0525Z" fill="#F6C900"/>
<path d="M68.92 41.9948C68.1754 41.2 68.1754 41.4008 60.0843 41.4008V39.5182C60.1135 38.7587 59.9892 38.0012 59.7188 37.291C59.4483 36.5808 59.0373 35.9324 58.5104 35.3848C57.9834 34.8371 57.3514 34.4015 56.6521 34.1039C55.9528 33.8063 55.2006 33.653 54.4406 33.653C53.6807 33.653 52.9285 33.8063 52.2292 34.1039C51.5299 34.4015 50.8978 34.8371 50.3709 35.3848C49.8439 35.9324 49.4329 36.5808 49.1625 37.291C48.8921 38.0012 48.7677 38.7587 48.797 39.5182V41.4008H45.0317V35.7529C45.0317 32.2722 39.6684 34.9162 38.0452 33.293C37.7897 33.0275 37.6178 32.6928 37.5506 32.3306C37.4835 31.9683 37.5242 31.5943 37.6676 31.2549C37.811 30.9155 38.0509 30.6256 38.3575 30.4213C38.664 30.2169 39.0238 30.1069 39.3923 30.1051H43.1491C43.3967 30.1062 43.642 30.0582 43.8709 29.964C44.0998 29.8698 44.3078 29.7312 44.4828 29.5561C44.6578 29.3811 44.7965 29.1731 44.8907 28.9442C44.9849 28.7153 45.0329 28.47 45.0317 28.2225C45.0317 16.0482 45.2409 16.3662 44.4795 15.6048C44.306 15.4284 44.0988 15.2886 43.8703 15.1938C43.6418 15.0989 43.3965 15.0509 43.1491 15.0525C19.8382 15.086 8.12413 43.1997 24.2895 59.8002C30.1465 65.7492 29.9792 71.8322 29.9792 77.1537C30.0658 80.5902 31.4918 83.8569 33.953 86.2568C36.4142 88.6567 39.7157 90 43.1533 90C46.5909 90 49.8925 88.6567 52.3536 86.2568C54.8148 83.8569 56.2408 80.5902 56.3274 77.1537C56.3274 72.5936 55.884 65.858 61.6741 60.1265C66.1958 55.6701 68.946 49.7236 69.4137 43.3922C69.4293 43.138 69.3936 42.8834 69.3088 42.6434C69.224 42.4033 69.0918 42.1828 68.92 41.9948ZM41.3084 18.9014V26.3482H39.3923C38.2814 26.3524 37.1964 26.6841 36.273 27.3019C35.3497 27.9196 34.6291 28.7959 34.2013 29.8212C33.7735 30.8464 33.6576 31.9751 33.868 33.0659C34.0785 34.1567 34.6059 35.1612 35.3844 35.9537C37.267 37.8866 39.3421 37.6272 41.2414 37.6272V41.3924H35.627C35.1277 41.3924 34.6489 41.5907 34.2958 41.9438C33.9428 42.2969 33.7444 42.7757 33.7444 43.275V47.0319C33.7444 47.5312 33.5461 48.01 33.193 48.3631C32.84 48.7161 32.3611 48.9145 31.8618 48.9145C31.3625 48.9145 30.8837 48.7161 30.5306 48.3631C30.1775 48.01 29.9792 47.5312 29.9792 47.0319V43.2834C29.9803 43.0358 29.9324 42.7905 29.8381 42.5616C29.7439 42.3327 29.6053 42.1247 29.4303 41.9497C29.2552 41.7747 29.0472 41.636 28.8183 41.5418C28.5894 41.4476 28.3441 41.3997 28.0966 41.4008H20.5661C20.5695 35.7374 22.6999 30.2818 26.5352 26.1148C30.3706 21.9478 35.6312 19.3734 41.2749 18.9014H41.3084ZM20.8924 45.1576H26.214V47.0402C26.214 48.5381 26.809 49.9747 27.8682 51.0339C28.9274 52.093 30.3639 52.6881 31.8618 52.6881C33.3597 52.6881 34.7963 52.093 35.8554 51.0339C36.9146 49.9747 37.5097 48.5381 37.5097 47.0402V45.1576H41.2749V54.5707C41.2738 54.8175 41.3214 55.0622 41.4151 55.2905C41.5088 55.5189 41.6467 55.7265 41.8209 55.9014C41.995 56.0763 42.202 56.2151 42.4299 56.3098C42.6579 56.4046 42.9023 56.4533 43.1491 56.4533H46.9144C47.4137 56.4533 47.8925 56.6517 48.2456 57.0047C48.5986 57.3578 48.797 57.8366 48.797 58.3359C48.797 58.8352 48.5986 59.3141 48.2456 59.6671C47.8925 60.0202 47.4137 60.2185 46.9144 60.2185H43.1491C42.652 60.2185 42.1753 60.416 41.8238 60.7675C41.4723 61.119 41.2749 61.5957 41.2749 62.0928V71.5059H33.6691C32.5312 58.11 23.001 57.6498 20.8924 45.1576ZM35.6772 82.8099H41.2749C41.7742 82.8099 42.253 82.6116 42.6061 82.2585C42.9592 81.9055 43.1575 81.4266 43.1575 80.9273C43.1575 80.428 42.9592 79.9492 42.6061 79.5961C42.253 79.243 41.7742 79.0447 41.2749 79.0447H33.9369C33.7333 77.8034 33.6687 76.5434 33.7444 75.2878H52.5622C52.6363 76.5434 52.5717 77.8033 52.3698 79.0447H48.797C48.2977 79.0447 47.8188 79.243 47.4658 79.5961C47.1127 79.9492 46.9144 80.428 46.9144 80.9273C46.9144 81.4266 47.1127 81.9055 47.4658 82.2585C47.8188 82.6116 48.2977 82.8099 48.797 82.8099H50.6294C49.7617 83.9755 48.6332 84.9218 47.3344 85.5732C46.0355 86.2246 44.6022 86.563 43.1491 86.5614C41.696 86.5597 40.2635 86.2181 38.9661 85.5638C37.6687 84.9095 36.5424 83.9607 35.6772 82.7932V82.8099ZM52.6375 71.5059H45.0317V63.9754H46.9144C48.0263 63.9735 49.1129 63.6429 50.0375 63.0252C50.9621 62.4075 51.6834 61.5302 52.1108 60.5037C52.5382 59.4772 52.6527 58.3472 52.4397 57.2558C52.2267 56.1645 51.6959 55.1604 50.9139 54.3699C49.0396 52.4287 46.9646 52.6965 45.0568 52.6965V45.166H50.7047C50.9515 45.1671 51.1961 45.1194 51.4245 45.0257C51.6529 44.932 51.8605 44.7942 52.0354 44.62C52.2103 44.4459 52.3491 44.2389 52.4438 44.0109C52.5386 43.783 52.5873 43.5386 52.5873 43.2917V39.5265C52.5873 39.0272 52.7857 38.5484 53.1387 38.1953C53.4918 37.8423 53.9706 37.6439 54.4699 37.6439C54.9692 37.6439 55.4481 37.8423 55.8011 38.1953C56.1542 38.5484 56.3525 39.0272 56.3525 39.5265V43.2917C56.3525 43.5386 56.4013 43.783 56.496 44.0109C56.5907 44.2389 56.7295 44.4459 56.9044 44.62C57.0794 44.7942 57.287 44.932 57.5153 45.0257C57.7437 45.1194 57.9883 45.1671 58.2351 45.166H65.4477C63.3475 57.8255 53.7587 57.6582 52.6375 71.5059Z" fill="#F6C900"/>
<path d="M45.0323 9.413V1.88254C45.0004 1.40602 44.7887 0.959398 44.4399 0.633138C44.0911 0.306878 43.6314 0.125366 43.1538 0.125366C42.6762 0.125366 42.2165 0.306878 41.8677 0.633138C41.519 0.959398 41.3072 1.40602 41.2754 1.88254V9.413C41.3072 9.88953 41.519 10.3361 41.8677 10.6624C42.2165 10.9887 42.6762 11.1702 43.1538 11.1702C43.6314 11.1702 44.0911 10.9887 44.4399 10.6624C44.7887 10.3361 45.0004 9.88953 45.0323 9.413Z" fill="#F6C900"/>
<path d="M9.28763 41.4008H1.75718C1.28065 41.4326 0.834031 41.6443 0.507771 41.9931C0.181511 42.3419 0 42.8016 0 43.2792C0 43.7568 0.181511 44.2165 0.507771 44.5653C0.834031 44.9141 1.28065 45.1258 1.75718 45.1576H9.28763C9.76416 45.1258 10.2108 44.9141 10.537 44.5653C10.8633 44.2165 11.0448 43.7568 11.0448 43.2792C11.0448 42.8016 10.8633 42.3419 10.537 41.9931C10.2108 41.6443 9.76416 41.4326 9.28763 41.4008Z" fill="#F6C900"/>
<path d="M17.8727 65.8998L12.5512 71.213C12.2186 71.5699 12.0376 72.0419 12.0462 72.5296C12.0548 73.0173 12.2524 73.4827 12.5973 73.8276C12.9422 74.1725 13.4076 74.3701 13.8953 74.3787C14.383 74.3873 14.8551 74.2063 15.2119 73.8737L20.5335 68.5522C20.8476 68.1923 21.0132 67.7264 20.9966 67.249C20.98 66.7715 20.7826 66.3182 20.4442 65.981C20.1059 65.6437 19.652 65.4476 19.1745 65.4326C18.697 65.4175 18.2316 65.5845 17.8727 65.8998Z" fill="#F6C900"/>
<path d="M17.8727 20.6585C18.2296 20.991 18.7016 21.1721 19.1893 21.1635C19.6771 21.1549 20.1424 20.9573 20.4873 20.6123C20.8323 20.2674 21.0298 19.8021 21.0384 19.3143C21.047 18.8266 20.866 18.3546 20.5335 17.9977L15.2119 12.6427C14.8551 12.3102 14.383 12.1291 13.8953 12.1377C13.4076 12.1463 12.9422 12.3439 12.5973 12.6889C12.2524 13.0338 12.0548 13.4991 12.0462 13.9869C12.0376 14.4746 12.2186 14.9466 12.5512 15.3035L17.8727 20.6585Z" fill="#F6C900"/>
<path d="M84.5503 41.4008H77.0199C76.5433 41.4326 76.0967 41.6443 75.7705 41.9931C75.4442 42.3419 75.2627 42.8016 75.2627 43.2792C75.2627 43.7568 75.4442 44.2165 75.7705 44.5653C76.0967 44.9141 76.5433 45.1258 77.0199 45.1576H84.5503C85.0269 45.1258 85.4735 44.9141 85.7997 44.5653C86.126 44.2165 86.3075 43.7568 86.3075 43.2792C86.3075 42.8016 86.126 42.3419 85.7997 41.9931C85.4735 41.6443 85.0269 41.4326 84.5503 41.4008Z" fill="#F6C900"/>
<path d="M68.4356 65.8999C68.0787 65.5674 67.6067 65.3863 67.1189 65.3949C66.6312 65.4036 66.1659 65.6011 65.8209 65.9461C65.476 66.291 65.2784 66.7563 65.2698 67.2441C65.2612 67.7318 65.4423 68.2038 65.7748 68.5607C71.5482 74.334 71.3808 74.4177 72.4267 74.4177C72.7971 74.4158 73.1587 74.3046 73.4662 74.0981C73.7737 73.8916 74.0135 73.599 74.1555 73.2569C74.2975 72.9149 74.3355 72.5385 74.2646 72.1749C74.1937 71.8114 74.0172 71.4768 73.7571 71.2131L68.4356 65.8999Z" fill="#F6C900"/>
</g>
<defs>
<filter id="filter0_d" x="0" y="0" width="90.8075" height="94.5" filterUnits="userSpaceOnUse" color-interpolation-filters="sRGB">
<feFlood flood-opacity="0" result="BackgroundImageFix"/>
<feColorMatrix in="SourceAlpha" type="matrix" values="0 0 0 0 0 0 0 0 0 0 0 0 0 0 0 0 0 0 127 0" result="hardAlpha"/>
<feOffset dx="4" dy="4"/>
<feGaussianBlur stdDeviation="0.25"/>
<feColorMatrix type="matrix" values="0 0 0 0 0 0 0 0 0 0 0 0 0 0 0 0 0 0 0.1 0"/>
<feBlend mode="normal" in2="BackgroundImageFix" result="effect1_dropShadow"/>
<feBlend mode="normal" in="SourceGraphic" in2="effect1_dropShadow" result="shape"/>
</filter>
</defs>
</svg>
