<svg width="95" height="95" viewBox="0 0 95 95" fill="none" xmlns="http://www.w3.org/2000/svg">
<g filter="url(#filter0_d)">
<path d="M80.6132 14.9972H1.8757C1.37823 14.9972 0.901139 14.7996 0.549378 14.4478C0.197617 14.0961 0 13.619 0 13.1215V7.50278C0 5.51292 0.790469 3.60456 2.19751 2.19751C3.60456 0.790469 5.51292 0 7.50278 0H75.0278C77.0177 0 78.926 0.790469 80.3331 2.19751C81.7401 3.60456 82.5306 5.51292 82.5306 7.50278V13.1215C82.5318 13.3717 82.4827 13.6196 82.3862 13.8505C82.2898 14.0813 82.1479 14.2904 81.9691 14.4654C81.7902 14.6403 81.578 14.7776 81.3451 14.8689C81.1122 14.9603 80.8633 15.0039 80.6132 14.9972ZM3.75139 11.2542H78.7792V7.50278C78.7792 6.50929 78.3851 5.55637 77.6834 4.85309C76.9817 4.14981 76.0296 3.7536 75.0361 3.75139H7.51112C6.51686 3.75359 5.56396 4.14953 4.86092 4.85258C4.15787 5.55562 3.76193 6.50853 3.75973 7.50278L3.75139 11.2542Z" fill="#F6C900"/>
<path d="M9.37862 9.37846C10.4145 9.37846 11.2543 8.53869 11.2543 7.50277C11.2543 6.46685 10.4145 5.62708 9.37862 5.62708C8.34271 5.62708 7.50293 6.46685 7.50293 7.50277C7.50293 8.53869 8.34271 9.37846 9.37862 9.37846Z" fill="#F6C900"/>
<path d="M16.8728 9.37846C17.9087 9.37846 18.7485 8.53869 18.7485 7.50277C18.7485 6.46685 17.9087 5.62708 16.8728 5.62708C15.8368 5.62708 14.9971 6.46685 14.9971 7.50277C14.9971 8.53869 15.8368 9.37846 16.8728 9.37846Z" fill="#F6C900"/>
<path d="M24.3757 9.37846C25.4116 9.37846 26.2514 8.53869 26.2514 7.50277C26.2514 6.46685 25.4116 5.62708 24.3757 5.62708C23.3398 5.62708 22.5 6.46685 22.5 7.50277C22.5 8.53869 23.3398 9.37846 24.3757 9.37846Z" fill="#F6C900"/>
<path d="M33.7458 74.9944H1.8757C1.62938 74.9944 1.38547 74.9459 1.1579 74.8517C0.930328 74.7574 0.723553 74.6192 0.549378 74.445C0.197617 74.0933 0 73.6162 0 73.1187V13.0965C-2.45057e-06 12.8506 0.0485732 12.6071 0.142938 12.38C0.237302 12.1529 0.375597 11.9466 0.549881 11.7731C0.724165 11.5996 0.931006 11.4622 1.15853 11.3689C1.38605 11.2755 1.62977 11.228 1.8757 11.2291H80.6132C80.8591 11.228 81.1028 11.2755 81.3304 11.3689C81.5579 11.4622 81.7647 11.5996 81.939 11.7731C82.1133 11.9466 82.2516 12.1529 82.346 12.38C82.4403 12.6071 82.4889 12.8506 82.4889 13.0965V43.1076C82.4889 43.6051 82.2913 44.0822 81.9395 44.4339C81.5878 44.7857 81.1107 44.9833 80.6132 44.9833C80.1157 44.9833 79.6386 44.7857 79.2869 44.4339C78.9351 44.0822 78.7375 43.6051 78.7375 43.1076V14.9972H3.75139V71.243H33.7625C34.26 71.243 34.7371 71.4407 35.0888 71.7924C35.4406 72.1442 35.6382 72.6213 35.6382 73.1187C35.6382 73.6162 35.4406 74.0933 35.0888 74.445C34.7371 74.7968 34.26 74.9944 33.7625 74.9944H33.7458Z" fill="#F6C900"/>
<path d="M80.613 82.4888C80.3759 82.4897 80.1409 82.4444 79.9211 82.3554L61.1725 74.8527C60.8257 74.7119 60.5286 74.471 60.3193 74.1606C60.1099 73.8503 59.9977 73.4847 59.9971 73.1104V58.1048C59.9966 57.7302 60.1083 57.3641 60.3178 57.0535C60.5273 56.743 60.825 56.5023 61.1725 56.3625L79.9211 48.8597C80.2055 48.7468 80.5133 48.7052 80.8174 48.7386C81.1216 48.7719 81.413 48.8792 81.6662 49.051C81.9195 49.2228 82.1268 49.454 82.2702 49.7244C82.4135 49.9947 82.4886 50.296 82.4887 50.602V80.6131C82.4898 80.8598 82.4421 81.1042 82.3482 81.3322C82.2543 81.5603 82.1162 81.7675 81.9418 81.9419C81.7674 82.1163 81.5602 82.2544 81.3321 82.3483C81.1041 82.4422 80.8597 82.4899 80.613 82.4888ZM63.7401 71.8516L78.7457 77.8454V53.3864L63.7401 59.3886V71.8516Z" fill="#F6C900"/>
<path d="M61.8647 74.9944H46.8591C46.3616 74.9944 45.8845 74.7968 45.5328 74.445C45.181 74.0933 44.9834 73.6162 44.9834 73.1187V58.1131C44.9834 57.6157 45.181 57.1386 45.5328 56.7868C45.8845 56.4351 46.3616 56.2374 46.8591 56.2374H61.8647C62.1113 56.2363 62.3557 56.2841 62.5838 56.378C62.8118 56.4719 63.019 56.61 63.1934 56.7844C63.3678 56.9588 63.5059 57.166 63.5998 57.394C63.6937 57.6221 63.7414 57.8665 63.7403 58.1131V73.1187C63.7403 73.6162 63.5427 74.0933 63.191 74.445C62.8392 74.7968 62.3621 74.9944 61.8647 74.9944ZM48.7431 71.243H59.9973V59.9972H48.7431V71.243Z" fill="#F6C900"/>
<path d="M88.1166 67.4916H86.2409C85.7435 67.4916 85.2664 67.294 84.9146 66.9422C84.5629 66.5905 84.3652 66.1134 84.3652 65.6159C84.3652 65.1185 84.5629 64.6414 84.9146 64.2896C85.2664 63.9379 85.7435 63.7402 86.2409 63.7402H88.1166C88.6141 63.7402 89.0912 63.9379 89.4429 64.2896C89.7947 64.6414 89.9923 65.1185 89.9923 65.6159C89.9923 66.1134 89.7947 66.5905 89.4429 66.9422C89.0912 67.294 88.6141 67.4916 88.1166 67.4916Z" fill="#F6C900"/>
<path d="M86.2403 56.2458C85.8695 56.2455 85.5072 56.1353 85.199 55.9292C84.8909 55.7231 84.6507 55.4302 84.5089 55.0877C84.3671 54.7452 84.3299 54.3683 84.4022 54.0047C84.4744 53.641 84.6528 53.307 84.9148 53.0446L86.7905 51.1689C87.146 50.8376 87.6163 50.6572 88.1023 50.6658C88.5882 50.6744 89.0518 50.8712 89.3955 51.2149C89.7391 51.5586 89.936 52.0222 89.9446 52.5081C89.9531 52.9941 89.7728 53.4644 89.4414 53.8199L87.5658 55.6956C87.2143 56.0475 86.7376 56.2454 86.2403 56.2458Z" fill="#F6C900"/>
<path d="M88.1165 80.6133C87.8702 80.614 87.6261 80.5657 87.3986 80.4712C87.171 80.3768 86.9645 80.2381 86.791 80.0631L84.9154 78.1957C84.7311 78.024 84.5833 77.8169 84.4807 77.5868C84.3782 77.3568 84.3231 77.1084 84.3187 76.8565C84.3142 76.6047 84.3605 76.3545 84.4549 76.121C84.5492 75.8874 84.6896 75.6752 84.8677 75.4971C85.0459 75.319 85.258 75.1786 85.4916 75.0843C85.7251 74.9899 85.9753 74.9436 86.2271 74.948C86.479 74.9525 86.7274 75.0076 86.9575 75.1101C87.1875 75.2126 87.3946 75.3605 87.5663 75.5447L89.442 77.4121C89.704 77.6744 89.8824 78.0085 89.9546 78.3721C90.0269 78.7357 89.9897 79.1126 89.8479 79.4552C89.7061 79.7977 89.4659 80.0905 89.1578 80.2966C88.8496 80.5028 88.4873 80.613 88.1165 80.6133Z" fill="#F6C900"/>
<path d="M46.8674 74.9945C44.4296 74.9218 42.116 73.9023 40.4173 72.1522C38.7187 70.4021 37.7686 68.0591 37.7686 65.6202C37.7686 63.1813 38.7187 60.8383 40.4173 59.0882C42.116 57.3381 44.4296 56.3186 46.8674 56.2459C47.1141 56.2448 47.3585 56.2925 47.5865 56.3864C47.8146 56.4803 48.0218 56.6184 48.1962 56.7928C48.3706 56.9672 48.5087 57.1744 48.6026 57.4025C48.6965 57.6305 48.7442 57.8749 48.7431 58.1216V73.1271C48.7409 73.6231 48.5423 74.0981 48.1908 74.448C47.8393 74.798 47.3635 74.9945 46.8674 74.9945ZM44.9918 60.314C43.8969 60.7033 42.9494 61.4219 42.2794 62.3712C41.6094 63.3206 41.2497 64.454 41.2497 65.616C41.2497 66.778 41.6094 67.9114 42.2794 68.8608C42.9494 69.8101 43.8969 70.5287 44.9918 70.918V60.314Z" fill="#F6C900"/>
<path d="M56.2461 89.9917H48.7433C48.2828 89.9904 47.8389 89.8198 47.496 89.5123C47.1532 89.2049 46.9355 88.782 46.8843 88.3244L45.0086 73.3188C44.9711 72.8381 45.1202 72.3614 45.4249 71.9877C45.7296 71.614 46.1665 71.3719 46.6449 71.3119C47.1234 71.2518 47.6066 71.3783 47.9942 71.6651C48.3818 71.9518 48.6441 72.3769 48.7267 72.852L50.3939 86.1903H54.112L52.5114 73.3522C52.4739 72.8714 52.623 72.3947 52.9277 72.021C53.2324 71.6473 53.6693 71.4053 54.1477 71.3452C54.6262 71.2851 55.1094 71.4116 55.497 71.6984C55.8846 71.9852 56.1469 72.4103 56.2294 72.8853L58.1051 87.8909C58.1368 88.1544 58.1125 88.4217 58.0337 88.6752C57.955 88.9287 57.8235 89.1627 57.648 89.3618C57.4725 89.5609 57.2568 89.7207 57.0152 89.8307C56.7737 89.9407 56.5116 89.9984 56.2461 90V89.9917Z" fill="#F6C900"/>
<path d="M33.7461 56.2459C33.4223 56.2437 33.1042 56.1605 32.8207 56.0041C32.5275 55.8368 32.2845 55.5938 32.1173 55.3005C31.9502 55.0072 31.8649 54.6744 31.8704 54.3368V31.8285C31.8714 31.4978 31.9599 31.1733 32.1268 30.8878C32.2937 30.6023 32.5331 30.366 32.8207 30.2029C33.1084 30.0368 33.4347 29.9493 33.7669 29.9493C34.0991 29.9493 34.4254 30.0368 34.7131 30.2029L53.445 41.5154C53.7231 41.6809 53.9535 41.9158 54.1134 42.1971C54.2734 42.4785 54.3575 42.7965 54.3575 43.1202C54.3575 43.4438 54.2734 43.7619 54.1134 44.0432C53.9535 44.3245 53.7231 44.5594 53.445 44.7249L34.7131 55.9457C34.4235 56.1306 34.0895 56.2343 33.7461 56.2459ZM35.6218 35.1881V51.0273L48.8517 43.091L35.6218 35.1881Z" fill="#F6C900"/>
</g>
<defs>
<filter id="filter0_d" x="0" y="0" width="94.4923" height="94.5" filterUnits="userSpaceOnUse" color-interpolation-filters="sRGB">
<feFlood flood-opacity="0" result="BackgroundImageFix"/>
<feColorMatrix in="SourceAlpha" type="matrix" values="0 0 0 0 0 0 0 0 0 0 0 0 0 0 0 0 0 0 127 0" result="hardAlpha"/>
<feOffset dx="4" dy="4"/>
<feGaussianBlur stdDeviation="0.25"/>
<feColorMatrix type="matrix" values="0 0 0 0 0 0 0 0 0 0 0 0 0 0 0 0 0 0 0.1 0"/>
<feBlend mode="normal" in2="BackgroundImageFix" result="effect1_dropShadow"/>
<feBlend mode="normal" in="SourceGraphic" in2="effect1_dropShadow" result="shape"/>
</filter>
</defs>
</svg>
