<svg width="95" height="95" viewBox="0 0 95 95" fill="none" xmlns="http://www.w3.org/2000/svg">
<g filter="url(#filter0_d)">
<path d="M88.1078 35.6349C88.3537 35.6349 88.5972 35.5863 88.8243 35.492C89.0514 35.3976 89.2576 35.2593 89.4311 35.0851C89.6046 34.9108 89.7419 34.704 89.8353 34.4765C89.9286 34.249 89.9761 34.0053 89.975 33.7594V11.2531C89.9761 11.0072 89.9286 10.7635 89.8353 10.536C89.7419 10.3085 89.6046 10.1017 89.4311 9.92743C89.2576 9.75317 89.0514 9.61489 88.8243 9.52053C88.5972 9.42617 88.3537 9.3776 88.1078 9.37761H78.7302V5.62656C78.728 4.13498 78.1345 2.70513 77.0798 1.65042C76.0251 0.59571 74.5952 0.00220485 73.1036 0H9.36927C7.87846 0.00220861 6.44946 0.59598 5.39608 1.65093C4.34269 2.70587 3.75104 4.13575 3.75104 5.62656V9.37761H1.87552C1.40079 9.40931 0.955854 9.62025 0.630823 9.96771C0.305792 10.3152 0.124965 10.7732 0.124965 11.249C0.124965 11.7247 0.305792 12.1827 0.630823 12.5302C0.955854 12.8777 1.40079 13.0886 1.87552 13.1203H3.75104V20.6224H1.87552C1.3781 20.6224 0.901056 20.82 0.549327 21.1717C0.197599 21.5235 0 22.0005 0 22.4979C0 22.9953 0.197599 23.4724 0.549327 23.8241C0.901056 24.1758 1.3781 24.3734 1.87552 24.3734H3.75104V31.8755H1.87552C1.3781 31.8755 0.901056 32.0731 0.549327 32.4249C0.197599 32.7766 0 33.2536 0 33.751C0 34.2485 0.197599 34.7255 0.549327 35.0772C0.901056 35.429 1.3781 35.6266 1.87552 35.6266H3.75104V43.1287H1.87552C1.40079 43.1604 0.955854 43.3713 0.630823 43.7188C0.305792 44.0662 0.124965 44.5242 0.124965 45C0.124965 45.4758 0.305792 45.9338 0.630823 46.2813C0.955854 46.6287 1.40079 46.8397 1.87552 46.8714H3.75104V54.3734H1.87552C1.3781 54.3734 0.901056 54.571 0.549327 54.9228C0.197599 55.2745 0 55.7515 0 56.249C0 56.7464 0.197599 57.2234 0.549327 57.5751C0.901056 57.9269 1.3781 58.1245 1.87552 58.1245H3.75104V65.6266H1.87552C1.3781 65.6266 0.901056 65.8242 0.549327 66.1759C0.197599 66.5276 0 67.0047 0 67.5021C0 67.9995 0.197599 68.4765 0.549327 68.8283C0.901056 69.18 1.3781 69.3776 1.87552 69.3776H3.75104V76.8797H1.87552C1.40079 76.9114 0.955854 77.1223 0.630823 77.4698C0.305792 77.8173 0.124965 78.2753 0.124965 78.751C0.124965 79.2268 0.305792 79.6848 0.630823 80.0323C0.955854 80.3798 1.40079 80.5907 1.87552 80.6224H3.75104V84.3734C3.75104 85.8643 4.34269 87.2941 5.39608 88.3491C6.44946 89.404 7.87846 89.9978 9.36927 90H73.1036C74.5952 89.9978 76.0251 89.4043 77.0798 88.3496C78.1345 87.2949 78.728 85.865 78.7302 84.3734V80.6224H88.1078C88.3537 80.6224 88.5972 80.5738 88.8243 80.4795C89.0514 80.3851 89.2576 80.2468 89.4311 80.0726C89.6046 79.8983 89.7419 79.6915 89.8353 79.464C89.9286 79.2365 89.9761 78.9928 89.975 78.7469C89.975 42.5451 90.3334 44.0706 88.9581 43.362C88.3079 43.0286 87.9494 43.137 78.7302 43.137V35.6349H88.1078ZM86.2323 31.8839H56.224V13.137H86.2323V31.8839ZM52.4896 26.2656H33.7427V18.7635H52.4896V26.2656ZM7.47708 84.3734V80.6224H9.36927C9.844 80.5907 10.2889 80.3798 10.614 80.0323C10.939 79.6848 11.1198 79.2268 11.1198 78.751C11.1198 78.2753 10.939 77.8173 10.614 77.4698C10.2889 77.1223 9.844 76.9114 9.36927 76.8797H7.49375V69.3776H9.36927C9.86669 69.3776 10.3437 69.18 10.6955 68.8283C11.0472 68.4765 11.2448 67.9995 11.2448 67.5021C11.2448 67.0047 11.0472 66.5276 10.6955 66.1759C10.3437 65.8242 9.86669 65.6266 9.36927 65.6266H7.49375V58.1245H9.36927C9.86669 58.1245 10.3437 57.9269 10.6955 57.5751C11.0472 57.2234 11.2448 56.7464 11.2448 56.249C11.2448 55.7515 11.0472 55.2745 10.6955 54.9228C10.3437 54.571 9.86669 54.3734 9.36927 54.3734H7.49375V46.8714H9.36927C9.844 46.8397 10.2889 46.6287 10.614 46.2813C10.939 45.9338 11.1198 45.4758 11.1198 45C11.1198 44.5242 10.939 44.0662 10.614 43.7188C10.2889 43.3713 9.844 43.1604 9.36927 43.1287H7.49375V35.6266H9.36927C9.86669 35.6266 10.3437 35.429 10.6955 35.0772C11.0472 34.7255 11.2448 34.2485 11.2448 33.751C11.2448 33.2536 11.0472 32.7766 10.6955 32.4249C10.3437 32.0731 9.86669 31.8755 9.36927 31.8755H7.49375V24.3734H9.36927C9.86669 24.3734 10.3437 24.1758 10.6955 23.8241C11.0472 23.4724 11.2448 22.9953 11.2448 22.4979C11.2448 22.0005 11.0472 21.5235 10.6955 21.1717C10.3437 20.82 9.86669 20.6224 9.36927 20.6224H7.49375V13.1203H9.36927C9.844 13.0886 10.2889 12.8777 10.614 12.5302C10.939 12.1827 11.1198 11.7247 11.1198 11.249C11.1198 10.7732 10.939 10.3152 10.614 9.96771C10.2889 9.62025 9.844 9.40931 9.36927 9.37761H7.49375V5.62656C7.49375 5.38027 7.54226 5.13638 7.63651 4.90883C7.73077 4.68128 7.86892 4.47453 8.04308 4.30037C8.21723 4.12621 8.42399 3.98806 8.65154 3.89381C8.87909 3.79955 9.12297 3.75104 9.36927 3.75104H14.9958V86.274H9.36927C9.12085 86.274 8.87491 86.2247 8.64571 86.1289C8.41652 86.033 8.20864 85.8926 8.03415 85.7158C7.85967 85.539 7.72204 85.3293 7.62927 85.0989C7.5365 84.8684 7.49044 84.6218 7.49375 84.3734H7.47708ZM37.4854 76.8714V48.6469L60.7585 65.3181C61.0765 65.5474 61.4585 65.6707 61.8505 65.6707C62.2425 65.6707 62.6245 65.5474 62.9425 65.3181L86.224 48.6469V76.8797L37.4854 76.8714ZM82.2478 46.863L61.8589 61.4504L41.4615 46.8797L82.2478 46.863ZM74.9708 43.1203C34.9597 43.1203 34.0094 42.4451 33.7761 44.7874C33.7094 45.3543 33.7761 50.0972 33.7761 78.7219C33.7761 79.2193 33.9736 79.6963 34.3254 80.0481C34.6771 80.3998 35.1542 80.5974 35.6516 80.5974H74.9792V84.3484C74.9792 84.8458 74.7816 85.3229 74.4298 85.6746C74.0781 86.0264 73.6011 86.224 73.1036 86.224H18.7469V3.76771H73.1036C73.6011 3.76771 74.0781 3.96531 74.4298 4.31704C74.7816 4.66877 74.9792 5.14582 74.9792 5.64324V9.39428H54.3651C54.1185 9.39317 53.8741 9.44093 53.6461 9.53479C53.418 9.62866 53.2108 9.76677 53.0365 9.94114C52.8621 10.1155 52.724 10.3227 52.6301 10.5508C52.5362 10.7788 52.4885 11.0232 52.4896 11.2698V15.0125H31.8672C31.3698 15.0125 30.8927 15.2101 30.541 15.5618C30.1893 15.9136 29.9917 16.3906 29.9917 16.888V28.1328C29.9917 28.6302 30.1893 29.1073 30.541 29.459C30.8927 29.8107 31.3698 30.0083 31.8672 30.0083H52.4896V33.7594C52.4896 34.2568 52.6872 34.7338 53.0389 35.0856C53.3906 35.4373 53.8677 35.6349 54.3651 35.6349H74.9792L74.9708 43.1203Z" fill="#F6C900"/>
<path d="M63.7339 20.6391H80.6053C81.1027 20.6391 81.5797 20.4415 81.9315 20.0898C82.2832 19.738 82.4808 19.261 82.4808 18.7636C82.4808 18.2662 82.2832 17.7891 81.9315 17.4374C81.5797 17.0857 81.1027 16.8881 80.6053 16.8881H63.7339C63.2365 16.8881 62.7595 17.0857 62.4077 17.4374C62.056 17.7891 61.8584 18.2662 61.8584 18.7636C61.8584 19.261 62.056 19.738 62.4077 20.0898C62.7595 20.4415 63.2365 20.6391 63.7339 20.6391Z" fill="#F6C900"/>
<path d="M74.9787 24.3901H63.734C63.2592 24.4218 62.8143 24.6328 62.4893 24.9802C62.1642 25.3277 61.9834 25.7857 61.9834 26.2615C61.9834 26.7373 62.1642 27.1953 62.4893 27.5427C62.8143 27.8902 63.2592 28.1011 63.734 28.1328H74.9787C75.4535 28.1011 75.8984 27.8902 76.2234 27.5427C76.5485 27.1953 76.7293 26.7373 76.7293 26.2615C76.7293 25.7857 76.5485 25.3277 76.2234 24.9802C75.8984 24.6328 75.4535 24.4218 74.9787 24.3901Z" fill="#F6C900"/>
</g>
<defs>
<filter id="filter0_d" x="0" y="0" width="94.5171" height="94.5" filterUnits="userSpaceOnUse" color-interpolation-filters="sRGB">
<feFlood flood-opacity="0" result="BackgroundImageFix"/>
<feColorMatrix in="SourceAlpha" type="matrix" values="0 0 0 0 0 0 0 0 0 0 0 0 0 0 0 0 0 0 127 0" result="hardAlpha"/>
<feOffset dx="4" dy="4"/>
<feGaussianBlur stdDeviation="0.25"/>
<feColorMatrix type="matrix" values="0 0 0 0 0 0 0 0 0 0 0 0 0 0 0 0 0 0 0.1 0"/>
<feBlend mode="normal" in2="BackgroundImageFix" result="effect1_dropShadow"/>
<feBlend mode="normal" in="SourceGraphic" in2="effect1_dropShadow" result="shape"/>
</filter>
</defs>
</svg>
