<svg width="95" height="95" viewBox="0 0 95 95" fill="none" xmlns="http://www.w3.org/2000/svg">
<g filter="url(#filter0_d)">
<path d="M80.6176 9.34907C78.459 9.35343 76.368 10.1022 74.6974 11.4691C73.0267 12.836 71.8787 14.7373 71.447 16.8523H63.7437C63.7437 5.28068 64.2773 3.76337 62.0764 1.65414C61.2913 0.866763 60.2906 0.329591 59.2006 0.110418C58.1105 -0.108756 56.98 -0.000106141 55.9516 0.422654C54.9233 0.845413 54.0432 1.56333 53.4225 2.48581C52.8018 3.40828 52.4682 4.49396 52.464 5.60582V16.8439H9.37898C8.88149 16.8439 8.40438 17.0416 8.0526 17.3933C7.70082 17.7451 7.50319 18.2222 7.50319 18.7197V41.2293H1.8758C1.37831 41.2293 0.901189 41.4269 0.549408 41.7787C0.197628 42.1305 0 42.6076 0 43.1051V88.1242C0 88.6217 0.197628 89.0988 0.549408 89.4506C0.901189 89.8024 1.37831 90 1.8758 90H16.8822C17.3797 90 17.8568 89.8024 18.2086 89.4506C18.5603 89.0988 18.758 88.6217 18.758 88.1242V73.1178H80.6259C83.112 73.1134 85.495 72.1239 87.253 70.3659C89.0109 68.608 90.0005 66.225 90.0049 63.7388V18.7197C90.0005 16.2329 89.0095 13.8495 87.2495 12.0927C85.4895 10.3358 83.1044 9.34907 80.6176 9.34907ZM80.6176 13.0923C82.1094 13.0945 83.5395 13.6881 84.5943 14.743C85.6492 15.7979 86.2428 17.2279 86.245 18.7197V56.2357C84.6364 54.987 82.6581 54.3093 80.6218 54.3093C78.5855 54.3093 76.6071 54.987 74.9985 56.2357V18.7197C74.9985 17.2287 75.5903 15.7986 76.6438 14.7435C77.6973 13.6884 79.1265 13.0945 80.6176 13.0923ZM58.108 42.6466L56.2322 38.9033V11.2249H59.9838V38.9033L58.108 42.6466ZM59.9838 5.59748V7.47328H56.2322V5.59748C56.2322 5.09778 56.4307 4.61854 56.7841 4.2652C57.1374 3.91185 57.6167 3.71335 58.1164 3.71335C58.6161 3.71335 59.0953 3.91185 59.4486 4.2652C59.802 4.61854 60.0005 5.09778 60.0005 5.59748H59.9838ZM3.73492 86.2151V44.9642H14.998V48.7158H11.2548C10.7573 48.7158 10.2802 48.9134 9.92839 49.2652C9.57661 49.617 9.37898 50.0941 9.37898 50.5916C9.37898 51.0891 9.57661 51.5662 9.92839 51.918C10.2802 52.2698 10.7573 52.4674 11.2548 52.4674H14.998V56.219H13.1222C12.6247 56.219 12.1476 56.4166 11.7959 56.7684C11.4441 57.1202 11.2464 57.5973 11.2464 58.0948C11.2464 58.5923 11.4441 59.0694 11.7959 59.4212C12.1476 59.7729 12.6247 59.9706 13.1222 59.9706H14.998V63.7138H11.2548C10.7573 63.7138 10.2802 63.9115 9.92839 64.2632C9.57661 64.615 9.37898 65.0921 9.37898 65.5896C9.37898 66.0871 9.57661 66.5642 9.92839 66.916C10.2802 67.2678 10.7573 67.4654 11.2548 67.4654H14.998V71.217H13.1222C12.6247 71.217 12.1476 71.4146 11.7959 71.7664C11.4441 72.1182 11.2464 72.5953 11.2464 73.0928C11.2464 73.5903 11.4441 74.0674 11.7959 74.4192C12.1476 74.771 12.6247 74.9686 13.1222 74.9686H14.998V78.7119H11.2548C10.7573 78.7119 10.2802 78.9095 9.92839 79.2613C9.57661 79.6131 9.37898 80.0902 9.37898 80.5877C9.37898 81.0852 9.57661 81.5623 9.92839 81.9141C10.2802 82.2658 10.7573 82.4635 11.2548 82.4635H14.998V86.2151H3.73492ZM80.6009 69.3412H18.7496V43.0967C18.7496 42.5993 18.552 42.1221 18.2002 41.7704C17.8484 41.4186 17.3713 41.2209 16.8738 41.2209H11.2548V20.5955H52.4973C52.4973 40.2372 52.4223 39.5702 52.6807 40.1288C52.9392 40.6874 52.2555 39.2951 55.8404 46.4732C52.7891 49.5161 52.6724 49.9913 51.9471 49.266C51.0847 48.4425 49.9381 47.9829 48.7457 47.9829C47.5533 47.9829 46.4067 48.4425 45.5443 49.266C45.4854 49.3572 45.4045 49.4322 45.3091 49.4841C45.2137 49.536 45.1069 49.5632 44.9983 49.5632C44.8897 49.5632 44.7828 49.536 44.6874 49.4841C44.5921 49.4322 44.5112 49.3572 44.4522 49.266C43.5899 48.4425 42.4433 47.9829 41.2509 47.9829C40.0584 47.9829 38.9119 48.4425 38.0495 49.266C37.9909 49.359 37.9097 49.4357 37.8135 49.4888C37.7173 49.5419 37.6092 49.5698 37.4993 49.5698C37.3894 49.5698 37.2812 49.5419 37.185 49.4888C37.0888 49.4357 37.0076 49.359 36.949 49.266C33.9227 46.2397 35.5401 46.84 28.1203 46.84C27.6228 46.84 27.1457 47.0376 26.7939 47.3894C26.4421 47.7412 26.2445 48.2183 26.2445 48.7158C26.2445 49.2133 26.4421 49.6904 26.7939 50.0422C27.1457 50.394 27.6228 50.5916 28.1203 50.5916H32.9723L34.2729 51.9172C35.1353 52.7407 36.2818 53.2002 37.4743 53.2002C38.6667 53.2002 39.8133 52.7407 40.6756 51.9172C40.7346 51.826 40.8154 51.751 40.9108 51.6991C41.0062 51.6472 41.1131 51.62 41.2217 51.62C41.3303 51.62 41.4371 51.6472 41.5325 51.6991C41.6279 51.751 41.7088 51.826 41.7677 51.9172C42.6301 52.7407 43.7767 53.2002 44.9691 53.2002C46.1615 53.2002 47.3081 52.7407 48.1705 51.9172C49.2959 50.8 49.3293 53.2427 52.4723 53.2427C54.7649 53.2427 55.3402 52.2506 59.4252 48.1656C59.5711 48.0276 59.6899 47.8636 59.7754 47.682C63.6604 39.9121 63.6937 40.0204 63.7104 39.4035C63.7271 38.7866 63.7104 38.1196 63.7104 20.5955H71.2136V63.7138C71.2136 64.2113 71.4112 64.6884 71.763 65.0402C72.1148 65.392 72.5919 65.5896 73.0894 65.5896C73.5869 65.5896 74.064 65.392 74.4158 65.0402C74.7676 64.6884 74.9652 64.2113 74.9652 63.7138C74.9652 62.6005 75.2954 61.5122 75.9142 60.5866C76.5329 59.661 77.4122 58.9397 78.441 58.514C79.4698 58.0883 80.6017 57.9774 81.6935 58.1952C82.7853 58.413 83.788 58.9498 84.5747 59.7376C85.3614 60.5255 85.8967 61.529 86.1129 62.6211C86.329 63.7133 86.2164 64.845 85.7892 65.8731C85.362 66.9013 84.6394 67.7796 83.7129 68.3969C82.7864 69.0142 81.6976 69.3429 80.5842 69.3412H80.6009Z" fill="#F6C900"/>
<path d="M61.8675 61.838H46.8611C46.3637 61.838 45.8865 62.0356 45.5348 62.3874C45.183 62.7392 44.9854 63.2163 44.9854 63.7138C44.9854 64.2113 45.183 64.6884 45.5348 65.0402C45.8865 65.392 46.3637 65.5896 46.8611 65.5896H61.8675C62.365 65.5896 62.8421 65.392 63.1939 65.0402C63.5457 64.6884 63.7433 64.2113 63.7433 63.7138C63.7433 63.2163 63.5457 62.7392 63.1939 62.3874C62.8421 62.0356 62.365 61.838 61.8675 61.838Z" fill="#F6C900"/>
<path d="M37.4995 31.8419C37.4995 30.3579 37.0595 28.9073 36.235 27.6734C35.4106 26.4395 34.2387 25.4778 32.8677 24.9099C31.4967 24.342 29.988 24.1934 28.5326 24.4829C27.0771 24.7724 25.7401 25.487 24.6908 26.5364C23.6415 27.5857 22.9269 28.9227 22.6373 30.3781C22.3478 31.8336 22.4964 33.3423 23.0643 34.7133C23.6322 36.0843 24.5939 37.2561 25.8278 38.0806C27.0617 38.9051 28.5124 39.3451 29.9964 39.3451C31.9863 39.3451 33.8948 38.5546 35.3019 37.1475C36.709 35.7404 37.4995 33.8319 37.4995 31.8419ZM26.2531 31.8419C26.2531 31.0996 26.4733 30.3739 26.8859 29.7568C27.2985 29.1397 27.885 28.6588 28.571 28.3751C29.257 28.0914 30.0117 28.0176 30.7397 28.163C31.4676 28.3085 32.1361 28.6666 32.6604 29.1921C33.1848 29.7176 33.5414 30.3869 33.6852 31.1152C33.829 31.8434 33.7535 32.598 33.4683 33.2834C33.1831 33.9688 32.7009 34.5541 32.0829 34.9653C31.4649 35.3766 30.7387 35.5952 29.9964 35.5935C29.0028 35.5913 28.0507 35.1951 27.349 34.4918C26.6472 33.7885 26.2531 32.8355 26.2531 31.8419Z" fill="#F6C900"/>
</g>
<defs>
<filter id="filter0_d" x="0" y="0" width="94.5049" height="94.5" filterUnits="userSpaceOnUse" color-interpolation-filters="sRGB">
<feFlood flood-opacity="0" result="BackgroundImageFix"/>
<feColorMatrix in="SourceAlpha" type="matrix" values="0 0 0 0 0 0 0 0 0 0 0 0 0 0 0 0 0 0 127 0" result="hardAlpha"/>
<feOffset dx="4" dy="4"/>
<feGaussianBlur stdDeviation="0.25"/>
<feColorMatrix type="matrix" values="0 0 0 0 0 0 0 0 0 0 0 0 0 0 0 0 0 0 0.1 0"/>
<feBlend mode="normal" in2="BackgroundImageFix" result="effect1_dropShadow"/>
<feBlend mode="normal" in="SourceGraphic" in2="effect1_dropShadow" result="shape"/>
</filter>
</defs>
</svg>
