<svg width="91" height="95" viewBox="0 0 91 95" fill="none" xmlns="http://www.w3.org/2000/svg">
<g filter="url(#filter0_d)">
<path d="M61.85 3.75H58.1V1.875C58.0683 1.4004 57.8574 0.955589 57.5101 0.630648C57.1627 0.305708 56.7048 0.124931 56.2292 0.124931C55.7535 0.124931 55.2956 0.305708 54.9483 0.630648C54.6009 0.955589 54.39 1.4004 54.3583 1.875V3.75H46.8583V1.875C46.8583 1.37772 46.6608 0.900806 46.3092 0.549175C45.9575 0.197544 45.4806 0 44.9833 0C44.486 0 44.0091 0.197544 43.6575 0.549175C43.3059 0.900806 43.1083 1.37772 43.1083 1.875V3.75H35.6083V1.875C35.6083 1.37772 35.4108 0.900806 35.0592 0.549175C34.7075 0.197544 34.2306 0 33.7333 0C33.236 0 32.7591 0.197544 32.4075 0.549175C32.0559 0.900806 31.8583 1.37772 31.8583 1.875V3.75H24.3583V1.875C24.3266 1.4004 24.1158 0.955589 23.7684 0.630648C23.421 0.305708 22.9632 0.124931 22.4875 0.124931C22.0118 0.124931 21.554 0.305708 21.2066 0.630648C20.8592 0.955589 20.6484 1.4004 20.6167 1.875V3.75H13.1167V1.875C13.1167 1.37772 12.9191 0.900806 12.5675 0.549175C12.2159 0.197544 11.7389 0 11.2417 0C10.7444 0 10.2675 0.197544 9.91584 0.549175C9.56421 0.900806 9.36667 1.37772 9.36667 1.875V3.75H5.61667C4.12627 3.75221 2.69767 4.34582 1.64458 5.40047C0.591487 6.45512 -1.63555e-06 7.8846 0 9.375V84.375C-1.63555e-06 85.8654 0.591487 87.2949 1.64458 88.3495C2.69767 89.4042 4.12627 89.9978 5.61667 90H61.85C63.3412 89.9978 64.7706 89.4045 65.825 88.35C66.8794 87.2956 67.4728 85.8662 67.475 84.375V9.375C67.4728 7.88383 66.8794 6.45437 65.825 5.39996C64.7706 4.34554 63.3412 3.7522 61.85 3.75ZM3.75833 9.375C3.75833 8.87916 3.95473 8.4035 4.30456 8.05211C4.65439 7.70072 5.12916 7.5022 5.625 7.5H9.375V9.375C9.375 9.87228 9.57254 10.3492 9.92417 10.7008C10.2758 11.0525 10.7527 11.25 11.25 11.25C11.7473 11.25 12.2242 11.0525 12.5758 10.7008C12.9275 10.3492 13.125 9.87228 13.125 9.375V7.5H20.625V9.375C20.6567 9.8496 20.8676 10.2944 21.2149 10.6194C21.5623 10.9443 22.0202 11.1251 22.4958 11.1251C22.9715 11.1251 23.4294 10.9443 23.7767 10.6194C24.1241 10.2944 24.335 9.8496 24.3667 9.375V7.5H31.8667V9.375C31.8667 9.87228 32.0642 10.3492 32.4158 10.7008C32.7675 11.0525 33.2444 11.25 33.7417 11.25C34.2389 11.25 34.7159 11.0525 35.0675 10.7008C35.4191 10.3492 35.6167 9.87228 35.6167 9.375V7.5H43.1167V9.375C43.1167 9.87228 43.3142 10.3492 43.6658 10.7008C44.0175 11.0525 44.4944 11.25 44.9917 11.25C45.4889 11.25 45.9659 11.0525 46.3175 10.7008C46.6691 10.3492 46.8667 9.87228 46.8667 9.375V7.5H54.3667V9.375C54.3984 9.8496 54.6092 10.2944 54.9566 10.6194C55.304 10.9443 55.7618 11.1251 56.2375 11.1251C56.7132 11.1251 57.171 10.9443 57.5184 10.6194C57.8658 10.2944 58.0766 9.8496 58.1083 9.375V7.5H61.8583C62.3556 7.5 62.8325 7.69754 63.1842 8.04917C63.5358 8.40081 63.7333 8.87772 63.7333 9.375V14.9917H3.73333L3.75833 9.375ZM63.7583 84.375C63.7583 84.8723 63.5608 85.3492 63.2092 85.7008C62.8575 86.0525 62.3806 86.25 61.8833 86.25H5.625C5.12916 86.2478 4.65439 86.0493 4.30456 85.6979C3.95473 85.3465 3.75833 84.8708 3.75833 84.375V18.7417H63.7583V84.375Z" fill="#F6C900"/>
<path d="M22.4923 28.1084H56.2256C56.7002 28.0767 57.145 27.8658 57.4699 27.5184C57.7949 27.1711 57.9757 26.7132 57.9757 26.2375C57.9757 25.7619 57.7949 25.304 57.4699 24.9566C57.145 24.6093 56.7002 24.3984 56.2256 24.3667H22.4923C22.0177 24.3984 21.5728 24.6093 21.2479 24.9566C20.923 25.304 20.7422 25.7619 20.7422 26.2375C20.7422 26.7132 20.923 27.1711 21.2479 27.5184C21.5728 27.8658 22.0177 28.0767 22.4923 28.1084Z" fill="#F6C900"/>
<path d="M11.25 39.3583H56.25C56.7473 39.3583 57.2242 39.1607 57.5758 38.8091C57.9275 38.4575 58.125 37.9806 58.125 37.4833C58.125 36.986 57.9275 36.5091 57.5758 36.1575C57.2242 35.8058 56.7473 35.6083 56.25 35.6083H11.25C11.0038 35.6083 10.76 35.6568 10.5325 35.751C10.305 35.8452 10.0983 35.9833 9.92417 36.1575C9.75006 36.3316 9.61195 36.5383 9.51773 36.7657C9.4235 36.9932 9.375 37.237 9.375 37.4833C9.375 37.7295 9.4235 37.9733 9.51773 38.2008C9.61195 38.4283 9.75006 38.635 9.92417 38.8091C10.0983 38.9832 10.305 39.1213 10.5325 39.2156C10.76 39.3098 11.0038 39.3583 11.25 39.3583Z" fill="#F6C900"/>
<path d="M11.25 50.6H56.25C56.7473 50.6 57.2242 50.4024 57.5758 50.0508C57.9275 49.6992 58.125 49.2223 58.125 48.725C58.125 48.2277 57.9275 47.7508 57.5758 47.3991C57.2242 47.0475 56.7473 46.85 56.25 46.85H11.25C11.0038 46.85 10.76 46.8985 10.5325 46.9927C10.305 47.0869 10.0983 47.225 9.92417 47.3991C9.75006 47.5733 9.61195 47.78 9.51773 48.0074C9.4235 48.2349 9.375 48.4787 9.375 48.725C9.375 48.9712 9.4235 49.215 9.51773 49.4425C9.61195 49.67 9.75006 49.8767 9.92417 50.0508C10.0983 50.2249 10.305 50.363 10.5325 50.4572C10.76 50.5515 11.0038 50.6 11.25 50.6Z" fill="#F6C900"/>
<path d="M11.2501 61.8416H56.2501C56.7247 61.8099 57.1695 61.5991 57.4944 61.2517C57.8194 60.9043 58.0001 60.4465 58.0001 59.9708C58.0001 59.4952 57.8194 59.0373 57.4944 58.6899C57.1695 58.3425 56.7247 58.1317 56.2501 58.1H11.2501C10.7755 58.1317 10.3307 58.3425 10.0057 58.6899C9.68078 59.0373 9.5 59.4952 9.5 59.9708C9.5 60.4465 9.68078 60.9043 10.0057 61.2517C10.3307 61.5991 10.7755 61.8099 11.2501 61.8416Z" fill="#F6C900"/>
<path d="M11.25 73.0917H33.75C34.2473 73.0917 34.7242 72.8941 35.0758 72.5425C35.4275 72.1909 35.625 71.714 35.625 71.2167C35.625 70.7194 35.4275 70.2425 35.0758 69.8909C34.7242 69.5392 34.2473 69.3417 33.75 69.3417H11.25C11.0038 69.3417 10.76 69.3902 10.5325 69.4844C10.305 69.5786 10.0983 69.7167 9.92417 69.8909C9.75006 70.065 9.61195 70.2717 9.51773 70.4991C9.4235 70.7266 9.375 70.9704 9.375 71.2167C9.375 71.4629 9.4235 71.7067 9.51773 71.9342C9.61195 72.1617 9.75006 72.3684 9.92417 72.5425C10.0983 72.7166 10.305 72.8547 10.5325 72.9489C10.76 73.0432 11.0038 73.0917 11.25 73.0917Z" fill="#F6C900"/>
<path d="M78.7172 0C76.728 0 74.8204 0.790177 73.4139 2.1967C72.0073 3.60322 71.2172 5.51088 71.2172 7.5C71.2172 76.4417 71.1172 77.0667 71.4172 77.675C77.4755 89.8 77.1588 89.9583 78.7172 89.9583C80.2755 89.9583 79.9588 89.7833 86.0172 77.675C86.3255 77.05 86.2172 77.325 86.2172 7.5C86.2172 5.51088 85.427 3.60322 84.0205 2.1967C82.6139 0.790177 80.7063 0 78.7172 0ZM74.9672 22.5H82.4672V75H74.9672V22.5ZM74.9672 15H82.4672V18.75H74.9672V15ZM78.7172 3.75833C79.7111 3.76053 80.6636 4.15633 81.3664 4.85911C82.0692 5.5619 82.465 6.51445 82.4672 7.50833V11.2583H74.9672V7.50833C74.9672 6.513 75.362 5.55832 76.065 4.85373C76.768 4.14915 77.7218 3.75221 78.7172 3.75V3.75833ZM78.7172 83.9L76.1255 78.7167H81.3088L78.7172 83.9Z" fill="#F6C900"/>
</g>
<defs>
<filter id="filter0_d" x="0" y="0" width="90.7356" height="94.5" filterUnits="userSpaceOnUse" color-interpolation-filters="sRGB">
<feFlood flood-opacity="0" result="BackgroundImageFix"/>
<feColorMatrix in="SourceAlpha" type="matrix" values="0 0 0 0 0 0 0 0 0 0 0 0 0 0 0 0 0 0 127 0" result="hardAlpha"/>
<feOffset dx="4" dy="4"/>
<feGaussianBlur stdDeviation="0.25"/>
<feColorMatrix type="matrix" values="0 0 0 0 0 0 0 0 0 0 0 0 0 0 0 0 0 0 0.1 0"/>
<feBlend mode="normal" in2="BackgroundImageFix" result="effect1_dropShadow"/>
<feBlend mode="normal" in="SourceGraphic" in2="effect1_dropShadow" result="shape"/>
</filter>
</defs>
</svg>
