<svg width="80" height="95" viewBox="0 0 80 95" fill="none" xmlns="http://www.w3.org/2000/svg">
<g filter="url(#filter0_d)">
<path d="M74.7968 14.3369C74.5968 13.8371 63.4094 0.858638 63.1928 0.658713C62.3598 -0.240947 64.6923 0.0422792 13.1117 0.0422792C12.6146 0.0422792 12.1379 0.239749 11.7864 0.591247C11.4349 0.942745 11.2374 1.41948 11.2374 1.91657V11.2797H1.87429C1.3772 11.2797 0.900466 11.4772 0.548968 11.8287C0.19747 12.1802 0 12.6569 0 13.154V88.1257C0 88.6228 0.19747 89.0995 0.548968 89.451C0.900466 89.8025 1.3772 90 1.87429 90H61.8517C62.3488 90 62.8255 89.8025 63.177 89.451C63.5285 89.0995 63.726 88.6228 63.726 88.1257V78.7209H73.0891C73.5862 78.7209 74.0629 78.5235 74.4144 78.172C74.7659 77.8204 74.9634 77.3437 74.9634 76.8466C74.9301 10.7466 75.0134 14.8783 74.7968 14.3369ZM63.6926 6.98133L68.9823 13.154H63.6926V6.98133ZM59.944 86.2181H3.74858V15.0283H48.7316V26.2657C48.7316 26.7628 48.9291 27.2395 49.2806 27.591C49.6321 27.9425 50.1088 28.14 50.6059 28.14H59.944V86.2181ZM57.7449 24.3914H52.4552V18.2188L57.7449 24.3914ZM63.6926 74.9723C63.6926 28.09 63.9092 26.4573 63.551 25.566C63.3761 25.1328 64.2924 26.274 51.997 11.9378C51.164 10.9965 53.0466 11.2797 14.986 11.2797V3.78253H59.969V15.0283C59.969 15.5254 60.1665 16.0021 60.518 16.3536C60.8695 16.7051 61.3462 16.9026 61.8433 16.9026H71.2148V74.9723H63.6926Z" fill="#F6C900"/>
<path d="M43.0839 35.6372C40.491 35.6389 37.9568 36.4092 35.8017 37.851C33.6465 39.2927 31.9673 41.3411 30.9762 43.7371C29.985 46.1331 29.7266 48.7691 30.2334 51.312C30.7403 53.8549 31.9897 56.1904 33.8238 58.0233C35.6578 59.8561 37.9941 61.1041 40.5373 61.6093C43.0805 62.1146 45.7164 61.8544 48.1117 60.8618C50.5071 59.8691 52.5544 58.1886 53.9948 56.0325C55.4351 53.8765 56.2039 51.3418 56.2039 48.7489C56.1995 45.2714 54.8155 41.9377 52.3558 39.4795C49.896 37.0213 46.5614 35.6394 43.0839 35.6372ZM41.2096 39.5691V46.8746H33.9123C34.2825 45.0774 35.1708 43.4279 36.4675 42.1297C37.7643 40.8314 39.4128 39.9413 41.2096 39.5691ZM33.9123 50.6232H42.3092L48.2403 56.5543C46.9635 57.3991 45.499 57.9176 43.9751 58.0644C42.4513 58.2112 40.9147 57.9817 39.5002 57.3962C38.0857 56.8106 36.8365 55.8869 35.8623 54.706C34.888 53.5251 34.2184 52.1232 33.9123 50.6232ZM50.9142 53.9053L44.9831 47.9742V39.5691C46.4833 39.8764 47.8852 40.5471 49.0659 41.5222C50.2467 42.4973 51.1702 43.7472 51.7556 45.1622C52.3411 46.5772 52.5705 48.1142 52.4238 49.6385C52.2771 51.1628 51.7588 52.6279 50.9142 53.9053Z" fill="#F6C900"/>
<path d="M41.2093 67.4835V71.2237C41.2104 71.4695 41.1629 71.713 41.0696 71.9404C40.9763 72.1677 40.8391 72.3744 40.6657 72.5485C40.4923 72.7227 40.2862 72.8609 40.0593 72.9552C39.8324 73.0495 39.5891 73.098 39.3433 73.098H32.5875L34.6867 70.9988C35.0178 70.6435 35.1981 70.1736 35.1895 69.688C35.1809 69.2024 34.9842 68.7391 34.6408 68.3957C34.2974 68.0523 33.8341 67.8556 33.3485 67.8471C32.863 67.8385 32.393 68.0187 32.0377 68.3498L26.7564 73.6478C26.4054 73.9992 26.2083 74.4756 26.2083 74.9723C26.2083 75.469 26.4054 75.9454 26.7564 76.2968L32.0544 81.5948C32.4097 81.9259 32.8796 82.1061 33.3652 82.0976C33.8508 82.089 34.3141 81.8923 34.6575 81.5489C35.0009 81.2055 35.1976 80.7422 35.2061 80.2566C35.2147 79.7711 35.0345 79.3011 34.7034 78.9458L32.5875 76.8466H39.31C40.7998 76.8444 42.2279 76.251 43.2806 75.1968C44.3333 74.1425 44.9245 72.7136 44.9245 71.2237V67.4835C44.8642 67.0336 44.6426 66.6209 44.3009 66.3221C43.9593 66.0232 43.5208 65.8585 43.0669 65.8585C42.613 65.8585 42.1745 66.0232 41.8329 66.3221C41.4912 66.6209 41.2697 67.0336 41.2093 67.4835Z" fill="#F6C900"/>
<path d="M25.6738 47.4244L20.3758 42.1264C20.0205 41.7953 19.5506 41.6151 19.065 41.6237C18.5794 41.6322 18.1161 41.8289 17.7727 42.1723C17.4293 42.5157 17.2326 42.979 17.2241 43.4646C17.2155 43.9502 17.3957 44.4201 17.7268 44.7754L19.8344 46.8746H13.1119C12.6148 46.8746 12.1381 46.6771 11.7866 46.3256C11.4351 45.9741 11.2376 45.4974 11.2376 45.0003V41.2517C11.2376 40.7546 11.0401 40.2779 10.6886 39.9264C10.3371 39.5749 9.8604 39.3774 9.36331 39.3774C8.86621 39.3774 8.38948 39.5749 8.03798 39.9264C7.68648 40.2779 7.48901 40.7546 7.48901 41.2517V45.0003C7.49122 46.4909 8.08433 47.9198 9.13835 48.9739C10.1924 50.0279 11.6213 50.621 13.1119 50.6232H19.8344L17.7268 52.7224C17.3957 53.0777 17.2155 53.5476 17.2241 54.0332C17.2326 54.5188 17.4293 54.9821 17.7727 55.3255C18.1161 55.6689 18.5794 55.8656 19.065 55.8742C19.5506 55.8827 20.0205 55.7025 20.3758 55.3714L25.6738 50.0901C25.8501 49.9158 25.9901 49.7082 26.0856 49.4794C26.1811 49.2506 26.2303 49.0052 26.2303 48.7572C26.2303 48.5093 26.1811 48.2638 26.0856 48.0351C25.9901 47.8063 25.8501 47.5987 25.6738 47.4244Z" fill="#F6C900"/>
<path d="M20.6091 69.3578H9.36331C9.11756 69.3567 8.87403 69.4042 8.64667 69.4974C8.41932 69.5907 8.21264 69.728 8.03848 69.9014C7.86433 70.0748 7.72614 70.2808 7.63184 70.5078C7.53755 70.7347 7.48901 70.978 7.48901 71.2238V78.7209C7.48901 79.218 7.68648 79.6948 8.03798 80.0463C8.38948 80.3978 8.86621 80.5952 9.36331 80.5952H20.6091C21.1062 80.5952 21.5829 80.3978 21.9344 80.0463C22.2859 79.6948 22.4834 79.218 22.4834 78.7209V71.2238C22.4834 70.978 22.4348 70.7347 22.3405 70.5078C22.2462 70.2808 22.108 70.0748 21.9339 69.9014C21.7597 69.728 21.553 69.5907 21.3257 69.4974C21.0983 69.4042 20.8548 69.3567 20.6091 69.3578ZM18.7348 76.855H11.2376V73.1064H18.7348V76.855Z" fill="#F6C900"/>
<path d="M9.36331 28.1401H26.2236C26.7207 28.1401 27.1974 27.9426 27.5489 27.5911C27.9004 27.2396 28.0979 26.7629 28.0979 26.2658C28.0979 25.7687 27.9004 25.2919 27.5489 24.9404C27.1974 24.5889 26.7207 24.3915 26.2236 24.3915H9.36331C8.86621 24.3915 8.38948 24.5889 8.03798 24.9404C7.68648 25.2919 7.48901 25.7687 7.48901 26.2658C7.48901 26.7629 7.68648 27.2396 8.03798 27.5911C8.38948 27.9426 8.86621 28.1401 9.36331 28.1401Z" fill="#F6C900"/>
<path d="M9.36331 35.6371H18.7348C19.2319 35.6371 19.7086 35.4397 20.0601 35.0882C20.4116 34.7367 20.6091 34.2599 20.6091 33.7628C20.6091 33.2657 20.4116 32.789 20.0601 32.4375C19.7086 32.086 19.2319 31.8885 18.7348 31.8885H9.36331C8.86621 31.8885 8.38948 32.086 8.03798 32.4375C7.68648 32.789 7.48901 33.2657 7.48901 33.7628C7.48901 34.2599 7.68648 34.7367 8.03798 35.0882C8.38948 35.4397 8.86621 35.6371 9.36331 35.6371Z" fill="#F6C900"/>
</g>
<defs>
<filter id="filter0_d" x="0" y="0" width="79.4634" height="94.5" filterUnits="userSpaceOnUse" color-interpolation-filters="sRGB">
<feFlood flood-opacity="0" result="BackgroundImageFix"/>
<feColorMatrix in="SourceAlpha" type="matrix" values="0 0 0 0 0 0 0 0 0 0 0 0 0 0 0 0 0 0 127 0" result="hardAlpha"/>
<feOffset dx="4" dy="4"/>
<feGaussianBlur stdDeviation="0.25"/>
<feColorMatrix type="matrix" values="0 0 0 0 0 0 0 0 0 0 0 0 0 0 0 0 0 0 0.1 0"/>
<feBlend mode="normal" in2="BackgroundImageFix" result="effect1_dropShadow"/>
<feBlend mode="normal" in="SourceGraphic" in2="effect1_dropShadow" result="shape"/>
</filter>
</defs>
</svg>
