<svg width="65" height="95" viewBox="0 0 65 95" fill="none" xmlns="http://www.w3.org/2000/svg">
<g filter="url(#filter0_d)">
<path d="M60.0598 48.7476C60.0598 45.7795 60.585 48.139 56.3081 35.3247V28.1214C56.3081 27.8754 56.2595 27.6319 56.1651 27.4047C56.0707 27.1776 55.9324 26.9714 55.7581 26.7979C55.5838 26.6243 55.377 26.4869 55.1494 26.3936C54.9219 26.3002 54.6781 26.2527 54.4322 26.2538H31.9218V18.7503H37.541C52.648 18.7503 57.7504 0 52.548 0H45.0445C41.9415 0.000255635 38.8988 0.856521 36.2511 2.47457C33.6033 4.09262 31.4533 6.40973 30.0376 9.17091C28.6203 6.41093 26.47 4.09486 23.8226 2.47701C21.1752 0.859169 18.1332 0.00212753 15.0306 0H7.52714C2.35808 0 7.31037 18.7503 22.5341 18.7503H28.1617V26.2538H5.65127C5.40532 26.2527 5.16158 26.3002 4.93404 26.3936C4.7065 26.4869 4.49964 26.6243 4.32534 26.7979C4.15104 26.9714 4.01273 27.1776 3.91835 27.4047C3.82398 27.6319 3.7754 27.8754 3.7754 28.1214V35.3163C-0.534925 48.2557 0.023667 45.8546 0.023667 48.7476C0.0301182 50.0584 0.379884 51.3448 1.03813 52.4784C1.69637 53.612 2.64013 54.5535 3.7754 55.2089V86.2483H1.93288C1.43537 86.2483 0.958238 86.4459 0.606444 86.7977C0.254651 87.1495 0.0570149 87.6266 0.0570149 88.1241C0.0570149 88.6216 0.254651 89.0988 0.606444 89.4506C0.958238 89.8024 1.43537 90 1.93288 90H58.1839C58.6814 90 59.1586 89.8024 59.5104 89.4506C59.8622 89.0988 60.0598 88.6216 60.0598 88.1241C60.0598 87.6266 59.8622 87.1495 59.5104 86.7977C59.1586 86.4459 58.6814 86.2483 58.1839 86.2483H56.3081V55.2089C57.4433 54.5535 58.3871 53.612 59.0453 52.4784C59.7036 51.3448 60.0533 50.0584 60.0598 48.7476ZM45.0528 3.72673H50.5387C50.0917 6.85233 48.5334 9.7122 46.1493 11.7824C43.7653 13.8525 40.7151 14.9943 37.5577 14.9986H32.0718C32.5246 11.8761 34.0864 9.02108 36.4717 6.95581C38.8569 4.89053 41.9061 3.75314 45.0612 3.75174L45.0528 3.72673ZM22.5424 14.9736C19.3939 14.9691 16.3518 13.8334 13.9706 11.7735C11.5894 9.71369 10.0275 6.86681 9.56975 3.75174H15.064C18.2181 3.7566 21.2654 4.89521 23.6499 6.95986C26.0345 9.02451 27.5973 11.8776 28.0533 14.9986L22.5424 14.9736ZM52.5563 52.491C51.5627 52.4888 50.6106 52.0925 49.9088 51.3892C49.2071 50.6858 48.8129 49.7328 48.8129 48.7392H56.3164C56.3164 49.233 56.2191 49.722 56.0302 50.1782C55.8412 50.6343 55.5643 51.0489 55.2151 51.398C54.8659 51.7472 54.4514 52.0241 53.9952 52.2131C53.5391 52.402 53.0501 52.4993 52.5563 52.4993V52.491ZM3.80875 48.7392H11.3122C11.3122 49.7343 10.917 50.6885 10.2134 51.3921C9.50978 52.0957 8.55551 52.491 7.56049 52.491C6.56547 52.491 5.6112 52.0957 4.90761 51.3921C4.20402 50.6885 3.80875 49.7343 3.80875 48.7392ZM7.03525 37.4924H14.3303L11.8291 44.9958H4.53409L7.03525 37.4924ZM53.0816 37.4924L55.5827 44.9958H48.2877L45.7865 37.4924H53.0816ZM41.843 37.5007L44.3442 45.0042H37.2742L36.0237 37.5007H41.843ZM32.2302 37.5007L33.4808 45.0042H26.6443L27.8949 37.5007H32.2302ZM22.8592 45.0042H15.7893L18.2905 37.5007H24.1265L22.8592 45.0042ZM22.5674 48.7559C22.5674 49.7509 22.1722 50.7052 21.4686 51.4088C20.765 52.1124 19.8107 52.5076 18.8157 52.5076C17.8207 52.5076 16.8664 52.1124 16.1628 51.4088C15.4592 50.7052 15.064 49.7509 15.064 48.7559H22.5674ZM33.8143 48.7559C33.8143 49.7509 33.419 50.7052 32.7155 51.4088C32.0119 52.1124 31.0576 52.5076 30.0626 52.5076C29.0676 52.5076 28.1133 52.1124 27.4097 51.4088C26.7061 50.7052 26.3108 49.7509 26.3108 48.7559H33.8143ZM45.0695 48.7559C45.0695 49.7509 44.6743 50.7052 43.9707 51.4088C43.2671 52.1124 42.3128 52.5076 41.3178 52.5076C40.3228 52.5076 39.3685 52.1124 38.6649 51.4088C37.9613 50.7052 37.5661 49.7509 37.5661 48.7559H45.0695ZM7.55215 30.0056H52.573V33.7573H7.55215V30.0056ZM16.9232 86.2566V67.4979H28.1784V86.2483L16.9232 86.2566ZM31.9301 86.2566V67.4979H43.1853V86.2483L31.9301 86.2566ZM52.548 86.2566H46.9371V65.622C46.9371 65.1245 46.7394 64.6474 46.3876 64.2956C46.0358 63.9438 45.5587 63.7462 45.0612 63.7462H15.0473C14.5498 63.7462 14.0726 63.9438 13.7208 64.2956C13.3691 64.6474 13.1714 65.1245 13.1714 65.622V86.2483H7.56049V56.2344C8.6296 56.2311 9.68549 55.9978 10.6565 55.5504C11.6275 55.1031 12.4909 54.452 13.1881 53.6415C13.8823 54.4544 14.7446 55.1071 15.7154 55.5547C16.6862 56.0023 17.7425 56.2341 18.8115 56.2341C19.8806 56.2341 20.9369 56.0023 21.9077 55.5547C22.8785 55.1071 23.7407 54.4544 24.435 53.6415C25.1292 54.4544 25.9915 55.1071 26.9623 55.5547C27.9331 56.0023 28.9894 56.2341 30.0584 56.2341C31.1274 56.2341 32.1837 56.0023 33.1546 55.5547C34.1254 55.1071 34.9876 54.4544 35.6818 53.6415C36.3769 54.4546 37.2398 55.1074 38.2113 55.555C39.1828 56.0026 40.2398 56.2344 41.3095 56.2344C42.3791 56.2344 43.4361 56.0026 44.4076 55.555C45.3791 55.1074 46.242 54.4546 46.9371 53.6415C47.6326 54.4518 48.4945 55.1028 49.4642 55.5502C50.4338 55.9976 51.4884 56.231 52.5563 56.2344L52.548 86.2566Z" fill="#F6C900"/>
<path d="M25.7691 75.5433C25.4134 75.2048 24.9395 75.0186 24.4484 75.0243C23.9574 75.03 23.4879 75.2272 23.1401 75.574C22.7923 75.9207 22.5937 76.3895 22.5864 76.8805C22.5791 77.3715 22.7639 77.846 23.1012 78.2029C23.457 78.5414 23.9309 78.7276 24.422 78.7218C24.913 78.7161 25.3825 78.5189 25.7303 78.1722C26.078 77.8255 26.2767 77.3567 26.284 76.8656C26.2913 76.3746 26.1065 75.9001 25.7691 75.5433Z" fill="#F6C900"/>
<path d="M36.3993 75.1264C36.115 75.0065 35.8054 74.959 35.4983 74.988C35.1912 75.017 34.896 75.1217 34.6392 75.2926C34.3823 75.4636 34.1719 75.6955 34.0265 75.9676C33.8812 76.2397 33.8056 76.5436 33.8064 76.8522C33.8073 77.1896 33.8996 77.5206 34.0735 77.8098C34.2475 78.099 34.4966 78.3357 34.7943 78.4947C35.092 78.6536 35.4272 78.7289 35.7643 78.7126C36.1014 78.6963 36.4277 78.5889 36.7087 78.4019C36.9896 78.2149 37.2147 77.9553 37.3598 77.6506C37.505 77.3459 37.5649 77.0076 37.5332 76.6716C37.5014 76.3356 37.3792 76.0145 37.1796 75.7424C36.9799 75.4703 36.7103 75.2574 36.3993 75.1264Z" fill="#F6C900"/>
</g>
<defs>
<filter id="filter0_d" x="0" y="0" width="64.5802" height="94.5" filterUnits="userSpaceOnUse" color-interpolation-filters="sRGB">
<feFlood flood-opacity="0" result="BackgroundImageFix"/>
<feColorMatrix in="SourceAlpha" type="matrix" values="0 0 0 0 0 0 0 0 0 0 0 0 0 0 0 0 0 0 127 0" result="hardAlpha"/>
<feOffset dx="4" dy="4"/>
<feGaussianBlur stdDeviation="0.25"/>
<feColorMatrix type="matrix" values="0 0 0 0 0 0 0 0 0 0 0 0 0 0 0 0 0 0 0.1 0"/>
<feBlend mode="normal" in2="BackgroundImageFix" result="effect1_dropShadow"/>
<feBlend mode="normal" in="SourceGraphic" in2="effect1_dropShadow" result="shape"/>
</filter>
</defs>
</svg>
