<svg width="101" height="95" viewBox="0 0 101 95" fill="none" xmlns="http://www.w3.org/2000/svg">
<g filter="url(#filter0_d)">
<path d="M12.3973 59.195C12.5811 59.4459 12.8221 59.6494 13.1003 59.7885C13.3785 59.9276 13.6859 59.9983 13.997 59.9948C15.3833 59.9948 14.7434 60.3236 27.5849 43.2076C27.8077 42.9105 27.9433 42.5573 27.9767 42.1875C28.01 41.8176 27.9397 41.4458 27.7737 41.1137C27.6076 40.7815 27.3523 40.5022 27.0365 40.307C26.7206 40.1118 26.3566 40.0084 25.9852 40.0084H22.0839C23.9679 15.4364 56.2092 6.98502 69.735 27.8423C69.8033 27.9358 69.884 28.0195 69.9749 28.0912C70.2942 28.4261 70.7178 28.6428 71.1762 28.7058C71.6347 28.7687 72.101 28.6742 72.4987 28.4378C73.032 28.0912 80.4969 17.9869 80.5946 17.7736C82.7541 14.37 67.1844 8.49919e-07 47.9712 8.49919e-07C37.1868 -0.00216965 26.8166 4.15297 19.0175 11.6012C11.2183 19.0495 6.59053 29.2175 6.09659 39.9906H1.99977C1.62844 39.9906 1.26444 40.094 0.94856 40.2892C0.632682 40.4844 0.377408 40.7638 0.211341 41.0959C0.0452744 41.428 -0.0250235 41.7999 0.00832455 42.1697C0.0416726 42.5395 0.177349 42.8928 0.400151 43.1898C1.05777 44.0696 11.7397 58.3329 12.3973 59.195ZM28.2603 19.471L22.6083 13.8279C28.0916 8.87456 34.908 5.63939 42.2125 4.52338L43.0123 12.5215C37.5443 13.4208 32.4355 15.8274 28.2603 19.471ZM76.3645 16.8049L71.4323 23.3812C68.5393 19.7005 64.8157 16.7573 60.5664 14.7925C56.3171 12.8277 51.6628 11.8972 46.9847 12.0772L46.1849 4.12347C51.847 3.82332 57.5036 4.80912 62.7304 7.00694C67.9571 9.20477 72.6184 12.5576 76.3645 16.8138V16.8049ZM19.7823 16.6894L25.4343 22.3325C20.6451 27.7691 17.998 34.7627 17.9871 42.0079C17.9871 42.5382 18.1978 43.0468 18.5728 43.4218C18.9478 43.7968 19.4563 44.0074 19.9867 44.0074H21.9862L13.9881 54.6716C11.2065 50.9658 11.9974 52.0055 5.98995 44.0074H7.98948C8.51979 44.0074 9.02837 43.7968 9.40336 43.4218C9.77834 43.0468 9.98901 42.5382 9.98901 42.0079C10.0028 32.6464 13.4929 23.6236 19.7823 16.6894Z" fill="#F6C900"/>
<path d="M95.1334 74.3826L82.9051 65.2114C87.1225 58.9128 89.5351 51.5798 89.8812 44.0075C94.1291 44.0075 95.0534 44.2919 95.7465 42.9055C96.5108 41.3681 96.4664 42.0168 83.5627 24.8209C83.379 24.5699 83.1379 24.3665 82.8597 24.2274C82.5815 24.0883 82.2741 24.0175 81.9631 24.0211C80.5768 24.0211 81.2166 23.6923 68.3752 40.8082C68.1524 41.1053 68.0167 41.4586 67.9834 41.8284C67.95 42.1982 68.0203 42.57 68.1864 42.9022C68.3525 43.2343 68.6077 43.5136 68.9236 43.7089C69.2395 43.9041 69.6035 44.0075 69.9748 44.0075H73.885C71.9566 68.6861 39.6708 76.942 26.1985 56.1646C25.907 55.737 25.4635 55.4365 24.9584 55.3243C24.4532 55.212 23.9242 55.2964 23.4791 55.5603C22.9103 55.9158 15.3655 66.0823 15.1699 66.5888C15 67.0384 15 67.5345 15.1699 67.9841H1.99971C1.73487 67.984 1.47266 68.0366 1.22831 68.1388C0.983964 68.2409 0.762342 68.3906 0.576316 68.5791C0.39029 68.7676 0.243565 68.9912 0.144662 69.2369C0.0457583 69.4826 -0.00335345 69.7454 0.000177759 70.0103V82.0074C0.000177759 82.5377 0.210842 83.0463 0.585826 83.4213C0.960811 83.7963 1.4694 84.007 1.99971 84.007H75.9468V87.9971C75.9468 88.5274 76.1574 89.036 76.5324 89.411C76.9074 89.786 77.416 89.9967 77.9463 89.9967C78.8972 89.9967 77.9463 90.5477 95.1334 77.6085C95.3852 77.4216 95.5897 77.1785 95.7307 76.8984C95.8716 76.6183 95.9451 76.3091 95.9451 75.9955C95.9451 75.682 95.8716 75.3728 95.7307 75.0927C95.5897 74.8126 95.3852 74.5694 95.1334 74.3826ZM77.9463 42.008C77.9463 41.4777 77.7356 40.9691 77.3606 40.5941C76.9856 40.2191 76.4771 40.0084 75.9468 40.0084H73.9472L81.9453 29.3443C84.7269 33.0501 83.936 32.0103 89.9435 40.0084H87.9439C87.4136 40.0084 86.905 40.2191 86.5301 40.5941C86.1551 40.9691 85.9444 41.4777 85.9444 42.008C85.9593 49.4031 83.7957 56.6389 79.7236 62.812L79.1638 62.3943C78.8667 62.1715 78.5135 62.0358 78.1436 62.0024C77.7738 61.9691 77.402 62.0394 77.0698 62.2055C76.7377 62.3715 76.4584 62.6268 76.2632 62.9427C76.0679 63.2586 75.9645 63.6226 75.9645 63.9939V67.9841H62.8565C67.436 65.3661 71.2431 61.5854 73.8927 57.0242C76.5424 52.4629 77.9407 47.283 77.9463 42.008ZM3.99924 79.9813V71.9831H18.6447C21.9949 75.2759 25.8766 77.9798 30.1264 79.9813H3.99924ZM79.9458 83.9714V81.9808C79.9458 81.4505 79.7351 80.9419 79.3602 80.5669C78.9852 80.1919 78.4766 79.9813 77.9463 79.9813H47.9711C42.5938 80.0078 37.2733 78.8817 32.3679 76.6789C27.4624 74.476 23.086 71.2475 19.5334 67.2109L24.4655 60.6258C27.2642 64.1792 30.8352 67.0487 34.9079 69.0165C38.9806 70.9843 43.448 71.9989 47.9711 71.9831H77.9463C78.472 71.9832 78.9766 71.7762 79.3508 71.4069C79.725 71.0377 79.9388 70.5359 79.9458 70.0103V67.9841L90.61 75.9822C86.9042 78.7638 87.935 78.0084 79.9458 83.9714Z" fill="#F6C900"/>
</g>
<defs>
<filter id="filter0_d" x="0" y="0" width="100.512" height="94.5001" filterUnits="userSpaceOnUse" color-interpolation-filters="sRGB">
<feFlood flood-opacity="0" result="BackgroundImageFix"/>
<feColorMatrix in="SourceAlpha" type="matrix" values="0 0 0 0 0 0 0 0 0 0 0 0 0 0 0 0 0 0 127 0" result="hardAlpha"/>
<feOffset dx="4" dy="4"/>
<feGaussianBlur stdDeviation="0.25"/>
<feColorMatrix type="matrix" values="0 0 0 0 0 0 0 0 0 0 0 0 0 0 0 0 0 0 0.1 0"/>
<feBlend mode="normal" in2="BackgroundImageFix" result="effect1_dropShadow"/>
<feBlend mode="normal" in="SourceGraphic" in2="effect1_dropShadow" result="shape"/>
</filter>
</defs>
</svg>
