<svg width="102" height="95" viewBox="0 0 102 95" fill="none" xmlns="http://www.w3.org/2000/svg">
<g filter="url(#filter0_d)">
<path d="M95.13 0.000506996H2.025C1.48794 0.000506996 0.97287 0.216073 0.593109 0.599784C0.213348 0.983496 0 1.50392 0 2.04657V26.5993C0 27.142 0.213348 27.6624 0.593109 28.0461C0.97287 28.4298 1.48794 28.6454 2.025 28.6454V83.8618C2.02738 85.489 2.66819 87.0489 3.80696 88.1995C4.94572 89.3501 6.48954 89.9976 8.1 90H89.1C90.7105 89.9976 92.2543 89.3501 93.393 88.1995C94.5318 87.0489 95.1726 85.489 95.175 83.8618V28.6272C95.7121 28.6272 96.2271 28.4116 96.6069 28.0279C96.9866 27.6442 97.2 27.1238 97.2 26.5811V2.02838C97.1977 1.75735 97.1421 1.48949 97.0365 1.24035C96.9308 0.991215 96.7773 0.765765 96.5847 0.577097C96.3921 0.388428 96.1643 0.240302 95.9146 0.14132C95.6649 0.0423381 95.3982 -0.00552619 95.13 0.000506996ZM93.105 12.2678H87.867L79.767 4.08354H93.096L93.105 12.2678ZM93.105 24.5442H79.776L87.876 16.3599H93.114L93.105 24.5442ZM65.61 24.5442L73.71 16.3599H82.152L74.052 24.5442H65.61ZM49.41 24.5442L57.51 16.3599H67.977L59.877 24.5442H49.41ZM35.235 24.5442L43.335 16.3599H51.777L43.677 24.5442H35.235ZM28.332 24.5442C28.332 17.8786 28.332 17.7785 28.206 16.3599H37.62C28.305 25.7718 29.997 24.5442 28.341 24.5442H28.332ZM43.695 4.09263L51.795 12.2769H43.344L35.244 4.09263H43.695ZM59.895 4.09263L67.995 12.2769H57.51L49.41 4.09263H59.895ZM74.061 4.09263L82.161 12.2769H73.701L65.601 4.09263H74.061ZM29.529 4.09263L37.629 12.2769H27.27C26.1467 9.06703 24.1654 6.23424 21.546 4.09263H29.529ZM4.059 4.09263H10.134C13.888 4.09985 17.4861 5.61047 20.1398 8.29344C22.7935 10.9764 24.2862 14.6129 24.291 18.406V24.5442H4.05L4.059 4.09263ZM91.089 83.8436C91.089 84.3863 90.8756 84.9067 90.4959 85.2904C90.1161 85.6741 89.6011 85.8897 89.064 85.8897H8.1C7.56294 85.8897 7.04787 85.6741 6.66811 85.2904C6.28835 84.9067 6.075 84.3863 6.075 83.8436V28.6272H91.08L91.089 83.8436Z" fill="#F6C900"/>
<path d="M12.15 32.7192C11.6129 32.7192 11.0979 32.9348 10.7181 33.3185C10.3383 33.7022 10.125 34.2227 10.125 34.7653C10.125 35.308 10.3383 35.8284 10.7181 36.2121C11.0979 36.5958 11.6129 36.8114 12.15 36.8114H28.35V53.1799H12.15C11.6129 53.1799 11.0979 53.3954 10.7181 53.7791C10.3383 54.1629 10.125 54.6833 10.125 55.2259C10.125 55.7686 10.3383 56.289 10.7181 56.6727C11.0979 57.0564 11.6129 57.272 12.15 57.272H52.65V65.4562H12.15C11.6129 65.4562 11.0979 65.6718 10.7181 66.0555C10.3383 66.4392 10.125 66.9597 10.125 67.5023C10.125 68.045 10.3383 68.5654 10.7181 68.9491C11.0979 69.3328 11.6129 69.5484 12.15 69.5484H52.65V77.7326H12.15C11.6374 77.7672 11.157 77.9973 10.8061 78.3764C10.4552 78.7554 10.2599 79.2551 10.2599 79.7741C10.2599 80.2932 10.4552 80.7928 10.8061 81.1719C11.157 81.551 11.6374 81.7811 12.15 81.8157H85.05C85.5626 81.7811 86.043 81.551 86.3939 81.1719C86.7448 80.7928 86.9401 80.2932 86.9401 79.7741C86.9401 79.2551 86.7448 78.7554 86.3939 78.3764C86.043 77.9973 85.5626 77.7672 85.05 77.7326H56.673V69.5484H85.005C85.5421 69.5484 86.0571 69.3328 86.4369 68.9491C86.8167 68.5654 87.03 68.045 87.03 67.5023C87.03 66.9597 86.8167 66.4392 86.4369 66.0555C86.0571 65.6718 85.5421 65.4562 85.005 65.4562H56.673V57.272H85.005C85.5421 57.272 86.0571 57.0564 86.4369 56.6727C86.8167 56.289 87.03 55.7686 87.03 55.2259C87.03 54.6833 86.8167 54.1629 86.4369 53.7791C86.0571 53.3954 85.5421 53.1799 85.005 53.1799H68.805V36.8114H85.005C85.5421 36.8114 86.0571 36.5958 86.4369 36.2121C86.8167 35.8284 87.03 35.308 87.03 34.7653C87.03 34.2227 86.8167 33.7022 86.4369 33.3185C86.0571 32.9348 85.5421 32.7192 85.005 32.7192H12.15ZM64.773 53.1708H32.373V36.8023H64.773V53.1708Z" fill="#F6C900"/>
<path d="M10.1246 22.4981C10.6617 22.4981 11.1767 22.2826 11.5565 21.8989C11.9363 21.5151 12.1496 20.9947 12.1496 20.4521C12.1496 19.9094 11.9363 19.389 11.5565 19.0053C11.1767 18.6216 10.6617 18.406 10.1246 18.406C9.58755 18.406 9.07248 18.6216 8.69272 19.0053C8.31296 19.389 8.09961 19.9094 8.09961 20.4521C8.09961 20.9947 8.31296 21.5151 8.69272 21.8989C9.07248 22.2826 9.58755 22.4981 10.1246 22.4981Z" fill="#F6C900"/>
<path d="M10.1254 12.2677C10.638 12.2331 11.1184 12.003 11.4693 11.624C11.8203 11.2449 12.0155 10.7453 12.0155 10.2262C12.0155 9.70716 11.8203 9.20751 11.4693 8.82845C11.1184 8.4494 10.638 8.21928 10.1254 8.18469C9.61286 8.21928 9.13246 8.4494 8.78153 8.82845C8.43059 9.20751 8.23535 9.70716 8.23535 10.2262C8.23535 10.7453 8.43059 11.2449 8.78153 11.624C9.13246 12.003 9.61286 12.2331 10.1254 12.2677Z" fill="#F6C900"/>
</g>
<defs>
<filter id="filter0_d" x="0" y="0" width="101.7" height="94.5" filterUnits="userSpaceOnUse" color-interpolation-filters="sRGB">
<feFlood flood-opacity="0" result="BackgroundImageFix"/>
<feColorMatrix in="SourceAlpha" type="matrix" values="0 0 0 0 0 0 0 0 0 0 0 0 0 0 0 0 0 0 127 0" result="hardAlpha"/>
<feOffset dx="4" dy="4"/>
<feGaussianBlur stdDeviation="0.25"/>
<feColorMatrix type="matrix" values="0 0 0 0 0 0 0 0 0 0 0 0 0 0 0 0 0 0 0.1 0"/>
<feBlend mode="normal" in2="BackgroundImageFix" result="effect1_dropShadow"/>
<feBlend mode="normal" in="SourceGraphic" in2="effect1_dropShadow" result="shape"/>
</filter>
</defs>
</svg>
