<svg width="95" height="95" viewBox="0 0 95 95" fill="none" xmlns="http://www.w3.org/2000/svg">
<g filter="url(#filter0_d)">
<path d="M44.9965 65.5916C45.5157 65.5916 46.0136 65.394 46.3807 65.0424C46.7478 64.6907 46.954 64.2138 46.954 63.7166C46.954 63.2193 46.7478 62.7424 46.3807 62.3907C46.0136 62.0391 45.5157 61.8416 44.9965 61.8416C44.4774 61.8416 43.9795 62.0391 43.6124 62.3907C43.2453 62.7424 43.0391 63.2193 43.0391 63.7166C43.0391 64.2138 43.2453 64.6907 43.6124 65.0424C43.9795 65.394 44.4774 65.5916 44.9965 65.5916Z" fill="#F6C900"/>
<path d="M84.1276 0H5.8724C4.31565 0.00220424 2.82332 0.595544 1.72253 1.64996C0.621738 2.70437 0.00230119 4.13383 0 5.625V65.625C0.00230119 67.1162 0.621738 68.5456 1.72253 69.6C2.82332 70.6545 4.31565 71.2478 5.8724 71.25H33.2595V86.25H27.3871C26.868 86.25 26.3701 86.4475 26.003 86.7992C25.6359 87.1508 25.4297 87.6277 25.4297 88.125C25.4297 88.6223 25.6359 89.0992 26.003 89.4508C26.3701 89.8025 26.868 90 27.3871 90H62.6042C63.1233 90 63.6212 89.8025 63.9883 89.4508C64.3554 89.0992 64.5616 88.6223 64.5616 88.125C64.5616 87.6277 64.3554 87.1508 63.9883 86.7992C63.6212 86.4475 63.1233 86.25 62.6042 86.25H56.7405V71.25H84.1276C85.6843 71.2478 87.1767 70.6545 88.2775 69.6C89.3783 68.5456 89.9977 67.1162 90 65.625V5.625C89.9977 4.13383 89.3783 2.70437 88.2775 1.64996C87.1767 0.595544 85.6843 0.00220424 84.1276 0ZM3.91493 15H15.651V56.225H3.91493V15ZM19.5747 15H86.0938V56.225H19.566L19.5747 15ZM3.91493 5.63333C3.91493 5.13605 4.12117 4.65914 4.48826 4.30751C4.85536 3.95588 5.35325 3.75833 5.8724 3.75833H84.1711C84.6903 3.75833 85.1881 3.95588 85.5552 4.30751C85.9223 4.65914 86.1286 5.13605 86.1286 5.63333V11.2583H3.91493V5.63333ZM52.8255 86.2167H37.1658V71.2167H52.8255V86.2167ZM86.0851 65.5917C86.0851 66.0889 85.8788 66.5659 85.5117 66.9175C85.1446 67.2691 84.6468 67.4667 84.1276 67.4667H5.8724C5.35325 67.4667 4.85536 67.2691 4.48826 66.9175C4.12117 66.5659 3.91493 66.0889 3.91493 65.5917V59.975H86.0851V65.5917Z" fill="#F6C900"/>
<path d="M70.4337 28.1083H59.2805C58.179 25.8676 56.4353 23.9729 54.2527 22.645C52.0701 21.3171 49.5385 20.6108 46.9528 20.6083C32.4676 20.6083 27.9088 39.5499 41.0543 45.5333C39.5057 47.6166 38.6793 48.3249 39.3143 49.5749C40.0886 51.0249 38.4966 50.5916 70.3989 50.5916C70.9181 50.5916 71.416 50.3941 71.7831 50.0424C72.1502 49.6908 72.3564 49.2139 72.3564 48.7166V29.9833C72.3565 29.4917 72.155 29.0198 71.7954 28.6691C71.4358 28.3184 70.9468 28.117 70.4337 28.1083ZM37.1742 33.7333C37.1742 24.7416 49.18 20.9416 54.774 28.1083H50.8678C50.3486 28.1083 49.8507 28.3058 49.4836 28.6575C49.1165 29.0091 48.9103 29.486 48.9103 29.9833V34.9833L43.3772 42.4249C41.5481 41.7453 39.9767 40.5512 38.8695 38.9999C37.7624 37.4485 37.1713 35.6125 37.1742 33.7333ZM44.891 46.8499L50.8678 38.8333L56.8532 46.8499H44.891ZM68.4763 46.8499H61.6469L52.8252 35.0083V31.8583H68.485L68.4763 46.8499Z" fill="#F6C900"/>
<path d="M9.78755 20.6166C9.26839 20.6166 8.7705 20.8141 8.40341 21.1658C8.03631 21.5174 7.83008 21.9943 7.83008 22.4916C7.83008 22.9889 8.03631 23.4658 8.40341 23.8174C8.7705 24.169 9.26839 24.3666 9.78755 24.3666C10.3067 24.3666 10.8046 24.169 11.1717 23.8174C11.5388 23.4658 11.745 22.9889 11.745 22.4916C11.745 21.9943 11.5388 21.5174 11.1717 21.1658C10.8046 20.8141 10.3067 20.6166 9.78755 20.6166Z" fill="#F6C900"/>
<path d="M9.78755 5.625C9.26839 5.625 8.7705 5.82254 8.40341 6.17417C8.03631 6.5258 7.83008 7.00272 7.83008 7.5C7.83008 7.99728 8.03631 8.47419 8.40341 8.82582C8.7705 9.17745 9.26839 9.375 9.78755 9.375C10.3067 9.375 10.8046 9.17745 11.1717 8.82582C11.5388 8.47419 11.745 7.99728 11.745 7.5C11.745 7.00272 11.5388 6.5258 11.1717 6.17417C10.8046 5.82254 10.3067 5.625 9.78755 5.625Z" fill="#F6C900"/>
<path d="M19.5653 7.5C19.5653 7.00272 19.3591 6.5258 18.992 6.17417C18.6249 5.82254 18.127 5.625 17.6079 5.625C17.0887 5.625 16.5908 5.82254 16.2237 6.17417C15.8566 6.5258 15.6504 7.00272 15.6504 7.5C15.6504 7.99728 15.8566 8.47419 16.2237 8.82582C16.5908 9.17745 17.0887 9.375 17.6079 9.375C18.127 9.375 18.6249 9.17745 18.992 8.82582C19.3591 8.47419 19.5653 7.99728 19.5653 7.5Z" fill="#F6C900"/>
<path d="M25.4379 9.375C25.9571 9.375 26.455 9.17745 26.8221 8.82582C27.1892 8.47419 27.3954 7.99728 27.3954 7.5C27.3954 7.00272 27.1892 6.5258 26.8221 6.17417C26.455 5.82254 25.9571 5.625 25.4379 5.625C24.9188 5.625 24.4209 5.82254 24.0538 6.17417C23.6867 6.5258 23.4805 7.00272 23.4805 7.5C23.4805 7.99728 23.6867 8.47419 24.0538 8.82582C24.4209 9.17745 24.9188 9.375 25.4379 9.375Z" fill="#F6C900"/>
<path d="M9.78755 28.1083C9.26839 28.1083 8.7705 28.3058 8.40341 28.6575C8.03631 29.0091 7.83008 29.486 7.83008 29.9833C7.83008 30.4806 8.03631 30.9575 8.40341 31.3091C8.7705 31.6607 9.26839 31.8583 9.78755 31.8583C10.3067 31.8583 10.8046 31.6607 11.1717 31.3091C11.5388 30.9575 11.745 30.4806 11.745 29.9833C11.745 29.486 11.5388 29.0091 11.1717 28.6575C10.8046 28.3058 10.3067 28.1083 9.78755 28.1083Z" fill="#F6C900"/>
<path d="M9.78755 35.6084C9.26839 35.6084 8.7705 35.8059 8.40341 36.1576C8.03631 36.5092 7.83008 36.9861 7.83008 37.4834C7.83008 37.9807 8.03631 38.4576 8.40341 38.8092C8.7705 39.1609 9.26839 39.3584 9.78755 39.3584C10.3067 39.3584 10.8046 39.1609 11.1717 38.8092C11.5388 38.4576 11.745 37.9807 11.745 37.4834C11.745 36.9861 11.5388 36.5092 11.1717 36.1576C10.8046 35.8059 10.3067 35.6084 9.78755 35.6084Z" fill="#F6C900"/>
<path d="M9.78798 43.1083C9.29251 43.14 8.82813 43.3509 8.4889 43.6982C8.14967 44.0456 7.96094 44.5035 7.96094 44.9791C7.96094 45.4548 8.14967 45.9126 8.4889 46.26C8.82813 46.6074 9.29251 46.8183 9.78798 46.8499C10.2835 46.8183 10.7478 46.6074 11.0871 46.26C11.4263 45.9126 11.615 45.4548 11.615 44.9791C11.615 44.5035 11.4263 44.0456 11.0871 43.6982C10.7478 43.3509 10.2835 43.14 9.78798 43.1083Z" fill="#F6C900"/>
</g>
<defs>
<filter id="filter0_d" x="0" y="0" width="94.5" height="94.5" filterUnits="userSpaceOnUse" color-interpolation-filters="sRGB">
<feFlood flood-opacity="0" result="BackgroundImageFix"/>
<feColorMatrix in="SourceAlpha" type="matrix" values="0 0 0 0 0 0 0 0 0 0 0 0 0 0 0 0 0 0 127 0" result="hardAlpha"/>
<feOffset dx="4" dy="4"/>
<feGaussianBlur stdDeviation="0.25"/>
<feColorMatrix type="matrix" values="0 0 0 0 0 0 0 0 0 0 0 0 0 0 0 0 0 0 0.1 0"/>
<feBlend mode="normal" in2="BackgroundImageFix" result="effect1_dropShadow"/>
<feBlend mode="normal" in="SourceGraphic" in2="effect1_dropShadow" result="shape"/>
</filter>
</defs>
</svg>
