<svg width="57" height="95" viewBox="0 0 57 95" fill="none" xmlns="http://www.w3.org/2000/svg">
<g filter="url(#filter0_d)">
<path d="M45 0H7.5C5.51087 0 3.60322 0.790177 2.1967 2.1967C0.790175 3.60322 0 5.51088 0 7.5V82.5C0 84.4891 0.790175 86.3968 2.1967 87.8033C3.60322 89.2098 5.51087 90 7.5 90H45C46.9891 90 48.8968 89.2098 50.3033 87.8033C51.7098 86.3968 52.5 84.4891 52.5 82.5V7.5C52.5 5.51088 51.7098 3.60322 50.3033 2.1967C48.8968 0.790177 46.9891 0 45 0ZM48.75 82.5C48.7478 83.4939 48.352 84.4464 47.6492 85.1492C46.9464 85.852 45.9939 86.2478 45 86.25H7.5C6.50611 86.2478 5.55357 85.852 4.85078 85.1492C4.148 84.4464 3.7522 83.4939 3.75 82.5V78.75H48.75V82.5ZM48.75 75H3.75V13.1167H14.55C16.4167 15.6167 13.7833 14.9917 35.6333 14.9917C36.7917 14.9917 37.2333 14.1083 37.975 13.1167H48.75V75ZM48.75 9.40833C34.7083 9.375 36.525 8.80833 34.7083 11.25H17.825C15.95 8.75 17.775 9.375 3.775 9.375V7.5C3.7772 6.50611 4.173 5.55357 4.87578 4.85078C5.57857 4.148 6.53112 3.7522 7.525 3.75H45.025C46.0189 3.7522 46.9714 4.148 47.6742 4.85078C48.377 5.55357 48.7728 6.50611 48.775 7.5L48.75 9.40833Z" fill="#F6C900"/>
<path d="M30.0088 5.625H22.5088C22.0115 5.625 21.5346 5.82254 21.183 6.17417C20.8313 6.5258 20.6338 7.00272 20.6338 7.5C20.6338 7.99728 20.8313 8.47419 21.183 8.82582C21.5346 9.17745 22.0115 9.375 22.5088 9.375H30.0088C30.5061 9.375 30.983 9.17745 31.3346 8.82582C31.6862 8.47419 31.8838 7.99728 31.8838 7.5C31.8838 7.00272 31.6862 6.5258 31.3346 6.17417C30.983 5.82254 30.5061 5.625 30.0088 5.625Z" fill="#F6C900"/>
<path d="M18.7666 54.35C20.8377 54.35 22.5166 52.671 22.5166 50.6C22.5166 48.5289 20.8377 46.85 18.7666 46.85C16.6955 46.85 15.0166 48.5289 15.0166 50.6C15.0166 52.671 16.6955 54.35 18.7666 54.35Z" fill="#F6C900"/>
<path d="M35.6338 54.35C37.7049 54.35 39.3838 52.671 39.3838 50.6C39.3838 48.5289 37.7049 46.85 35.6338 46.85C33.5627 46.85 31.8838 48.5289 31.8838 50.6C31.8838 52.671 33.5627 54.35 35.6338 54.35Z" fill="#F6C900"/>
<path d="M16.8833 22.3332C16.8436 21.8653 16.6298 21.4293 16.2842 21.1115C15.9385 20.7936 15.4862 20.617 15.0166 20.6166H9.3916C8.89432 20.6166 8.41741 20.8141 8.06578 21.1658C7.71415 21.5174 7.5166 21.9943 7.5166 22.4916C7.5166 22.9889 7.71415 23.4658 8.06578 23.8174C8.41741 24.169 8.89432 24.3666 9.3916 24.3666H13.2916C13.8249 30.7416 13.2916 25.1416 15.0249 43.2832C15.0762 43.7422 15.2951 44.166 15.6395 44.4735C15.984 44.7811 16.4298 44.9507 16.8916 44.9499H37.5083C37.9255 44.9496 38.3308 44.8101 38.6598 44.5535C38.9889 44.2969 39.2229 43.9379 39.3249 43.5332L43.0749 28.5332C43.1432 28.2573 43.1477 27.9695 43.0884 27.6915C43.029 27.4136 42.9072 27.1528 42.7322 26.9288C42.5572 26.7048 42.3336 26.5236 42.0782 26.3988C41.8229 26.2739 41.5425 26.2088 41.2583 26.2082H17.2083L16.8833 22.3332ZM38.8749 29.9832L36.0416 41.2332H18.5999L17.5416 29.9832H38.8749Z" fill="#F6C900"/>
<path d="M11.083 61.0999V70.0916C11.0852 70.3893 11.2044 70.6742 11.4149 70.8847C11.6254 71.0952 11.9103 71.2144 12.208 71.2166H15.5413C15.8397 71.2166 16.1259 71.0981 16.3368 70.8871C16.5478 70.6761 16.6663 70.39 16.6663 70.0916C16.6663 69.7932 16.5478 69.5071 16.3368 69.2961C16.1259 69.0851 15.8397 68.9666 15.5413 68.9666H13.2913V61.0999C13.2413 60.8438 13.1039 60.613 12.9024 60.4471C12.701 60.2812 12.4481 60.1904 12.1872 60.1904C11.9262 60.1904 11.6734 60.2812 11.4719 60.4471C11.2705 60.613 11.133 60.8438 11.083 61.0999Z" fill="#F6C900"/>
<path d="M19.3584 61.0917V70.0917C19.3584 70.39 19.4769 70.6762 19.6879 70.8872C19.8989 71.0982 20.185 71.2167 20.4834 71.2167C20.7818 71.2167 21.0679 71.0982 21.2789 70.8872C21.4899 70.6762 21.6084 70.39 21.6084 70.0917V61.0917C21.6084 60.7933 21.4899 60.5072 21.2789 60.2962C21.0679 60.0852 20.7818 59.9667 20.4834 59.9667C20.185 59.9667 19.8989 60.0852 19.6879 60.2962C19.4769 60.5072 19.3584 60.7933 19.3584 61.0917Z" fill="#F6C900"/>
<path d="M34.708 61.1V70.0916C34.708 70.39 34.8265 70.6762 35.0375 70.8871C35.2485 71.0981 35.5346 71.2166 35.833 71.2166H40.333C40.6314 71.2166 40.9175 71.0981 41.1285 70.8871C41.3395 70.6762 41.458 70.39 41.458 70.0916C41.458 69.7933 41.3395 69.5071 41.1285 69.2961C40.9175 69.0852 40.6314 68.9666 40.333 68.9666H36.9997V66.7583H40.333C40.6314 66.7583 40.9175 66.6398 41.1285 66.4288C41.3395 66.2178 41.458 65.9317 41.458 65.6333C41.458 65.3349 41.3395 65.0488 41.1285 64.8378C40.9175 64.6268 40.6314 64.5083 40.333 64.5083H36.9997V62.2583H40.333C40.6136 62.2341 40.8749 62.1055 41.0653 61.898C41.2556 61.6905 41.3613 61.4191 41.3613 61.1375C41.3613 60.8558 41.2556 60.5845 41.0653 60.3769C40.8749 60.1694 40.6136 60.0409 40.333 60.0166H35.833C35.5411 60.0143 35.2599 60.1264 35.0496 60.3289C34.8393 60.5314 34.7167 60.8082 34.708 61.1Z" fill="#F6C900"/>
<path d="M29.2671 64.4666L28.3588 66.8916L27.4505 64.4666L26.6171 62.2166C26.0671 60.7499 25.9505 59.9749 24.9505 59.9749C24.7694 59.9757 24.5911 60.0201 24.4309 60.1045C24.2707 60.1889 24.1332 60.3107 24.0301 60.4596C23.927 60.6085 23.8614 60.78 23.8389 60.9597C23.8163 61.1394 23.8374 61.3218 23.9005 61.4916C27.5505 71.2333 27.2338 71.2166 28.3255 71.2166C29.4171 71.2166 29.1588 71.1583 32.7505 61.4916C32.861 61.212 32.8559 60.9 32.7363 60.6241C32.6168 60.3483 32.3925 60.1313 32.113 60.0208C31.8334 59.9103 31.5214 59.9153 31.2455 60.0349C30.9697 60.1544 30.7526 60.3787 30.6421 60.6583L30.0755 62.1749L29.2671 64.4666Z" fill="#F6C900"/>
</g>
<defs>
<filter id="filter0_d" x="0" y="0" width="57" height="94.5" filterUnits="userSpaceOnUse" color-interpolation-filters="sRGB">
<feFlood flood-opacity="0" result="BackgroundImageFix"/>
<feColorMatrix in="SourceAlpha" type="matrix" values="0 0 0 0 0 0 0 0 0 0 0 0 0 0 0 0 0 0 127 0" result="hardAlpha"/>
<feOffset dx="4" dy="4"/>
<feGaussianBlur stdDeviation="0.25"/>
<feColorMatrix type="matrix" values="0 0 0 0 0 0 0 0 0 0 0 0 0 0 0 0 0 0 0.1 0"/>
<feBlend mode="normal" in2="BackgroundImageFix" result="effect1_dropShadow"/>
<feBlend mode="normal" in="SourceGraphic" in2="effect1_dropShadow" result="shape"/>
</filter>
</defs>
</svg>
