<svg width="109" height="97" viewBox="0 0 109 97" fill="none" xmlns="http://www.w3.org/2000/svg">
<g filter="url(#filter0_d)">
<path d="M14.2041 70.7088C11.3948 70.7088 8.64861 69.8758 6.31275 68.315C3.97689 66.7542 2.15631 64.5358 1.08123 61.9404C0.00615444 59.3449 -0.275135 56.4889 0.272935 53.7336C0.821005 50.9783 2.17382 48.4473 4.1603 46.4608C6.14679 44.4744 8.67772 43.1215 11.4331 42.5735C14.1884 42.0254 17.0444 42.3067 19.6398 43.3818C22.2353 44.4568 24.4537 46.2774 26.0145 48.6133C27.5752 50.9491 28.4083 53.6954 28.4083 56.5047C28.4033 60.2703 26.9052 63.8803 24.2425 66.543C21.5798 69.2057 17.9698 70.7038 14.2041 70.7088ZM14.2041 46.5364C12.2326 46.5364 10.3053 47.121 8.66605 48.2163C7.02677 49.3117 5.7491 50.8685 4.99463 52.69C4.24015 54.5114 4.04274 56.5157 4.42737 58.4494C4.812 60.3831 5.76139 62.1593 7.15548 63.5533C8.54958 64.9474 10.3258 65.8968 12.2594 66.2815C14.1931 66.6661 16.1974 66.4687 18.0189 65.7142C19.8403 64.9597 21.3972 63.6821 22.4925 62.0428C23.5878 60.4035 24.1725 58.4762 24.1725 56.5047C24.17 53.8617 23.1189 51.3277 21.25 49.4588C19.3812 47.5899 16.8471 46.5389 14.2041 46.5364Z" fill="#F6C900"/>
<path d="M50.4629 61.644C47.6536 61.644 44.9074 60.8109 42.5715 59.2502C40.2357 57.6894 38.4151 55.471 37.34 52.8755C36.2649 50.2801 35.9837 47.4241 36.5317 44.6688C37.0798 41.9134 38.4326 39.3825 40.4191 37.396C42.4056 35.4095 44.9365 34.0567 47.6918 33.5087C50.4472 32.9606 53.3032 33.2419 55.8986 34.3169C58.4941 35.392 60.7125 37.2126 62.2732 39.5485C63.834 41.8843 64.6671 44.6306 64.6671 47.4399C64.6621 51.2055 63.164 54.8155 60.5013 57.4782C57.8386 60.1409 54.2286 61.639 50.4629 61.644ZM50.4629 37.4716C48.4914 37.4716 46.5641 38.0562 44.9248 39.1515C43.2856 40.2468 42.0079 41.8037 41.2534 43.6252C40.4989 45.4466 40.3015 47.4509 40.6862 49.3846C41.0708 51.3182 42.0202 53.0944 43.4143 54.4885C44.8084 55.8826 46.5845 56.832 48.5182 57.2166C50.4519 57.6013 52.4562 57.4039 54.2776 56.6494C56.0991 55.8949 57.6559 54.6172 58.7513 52.978C59.8466 51.3387 60.4312 49.4114 60.4312 47.4399C60.4287 44.7969 59.3777 42.2628 57.5088 40.394C55.64 38.5251 53.1059 37.474 50.4629 37.4716Z" fill="#F6C900"/>
<path d="M71.6133 91.8597C68.804 91.8597 66.0578 91.0266 63.7219 89.4659C61.3861 87.9051 59.5655 85.6867 58.4904 83.0912C57.4153 80.4958 57.134 77.6398 57.6821 74.8845C58.2302 72.1291 59.583 69.5982 61.5695 67.6117C63.556 65.6252 66.0869 64.2724 68.8422 63.7244C71.5976 63.1763 74.4535 63.4576 77.049 64.5326C79.6445 65.6077 81.8629 67.4283 83.4236 69.7642C84.9844 72.1 85.8175 74.8462 85.8175 77.6556C85.8125 81.4212 84.3144 85.0312 81.6517 87.6939C78.9889 90.3566 75.379 91.8547 71.6133 91.8597ZM71.6133 67.6873C69.6418 67.6873 67.7145 68.2719 66.0752 69.3672C64.4359 70.4625 63.1583 72.0194 62.4038 73.8408C61.6493 75.6623 61.4519 77.6666 61.8366 79.6003C62.2212 81.5339 63.1706 83.3101 64.5647 84.7042C65.9588 86.0983 67.7349 87.0477 69.6686 87.4323C71.6023 87.817 73.6066 87.6196 75.428 86.8651C77.2495 86.1106 78.8063 84.8329 79.9017 83.1937C80.997 81.5544 81.5816 79.6271 81.5816 77.6556C81.5742 75.0158 80.5209 72.4866 78.6526 70.6218C76.7843 68.757 74.2531 67.7086 71.6133 67.7061V67.6873Z" fill="#F6C900"/>
<path d="M26.2904 58.6225C25.7287 58.6225 25.19 58.3994 24.7929 58.0022C24.3957 57.605 24.1725 57.0663 24.1725 56.5046V11.2284C24.1607 10.7528 24.3094 10.2871 24.5945 9.90625C24.8797 9.52546 25.2848 9.25176 25.7445 9.12928L62.0126 0.0646089C62.3232 -0.0146644 62.6479 -0.021079 62.9614 0.045867C63.2749 0.112813 63.5687 0.251308 63.8198 0.45054C64.0739 0.647828 64.2797 0.900394 64.4216 1.18907C64.5635 1.47776 64.6378 1.79496 64.6388 2.11663V47.44C64.6388 48.0017 64.4156 48.5404 64.0185 48.9376C63.6213 49.3347 63.0826 49.5579 62.5209 49.5579C61.9592 49.5579 61.4205 49.3347 61.0233 48.9376C60.6261 48.5404 60.403 48.0017 60.403 47.44V4.82756L28.3989 12.838V56.5046C28.3989 57.0647 28.1771 57.602 27.7819 57.9989C27.3868 58.3958 26.8505 58.6201 26.2904 58.6225Z" fill="#F6C900"/>
<path d="M26.2906 25.3478C25.7949 25.3242 25.3231 25.1272 24.9578 24.7913C24.5924 24.4553 24.3567 24.0017 24.2917 23.5097C24.2267 23.0176 24.3365 22.5184 24.6021 22.0991C24.8677 21.6798 25.272 21.3671 25.7447 21.2155L62.041 12.1697C62.3167 12.0834 62.6072 12.0544 62.8945 12.0846C63.1818 12.1147 63.46 12.2033 63.7118 12.3449C63.9636 12.4866 64.1838 12.6782 64.3588 12.9081C64.5338 13.138 64.6599 13.4012 64.7293 13.6817C64.7988 13.9621 64.8102 14.2538 64.7627 14.5388C64.7153 14.8238 64.61 15.096 64.4534 15.3388C64.2968 15.5816 64.0922 15.7898 63.8522 15.9506C63.6121 16.1114 63.3417 16.2213 63.0576 16.2737L26.7989 25.3478C26.6303 25.3708 26.4593 25.3708 26.2906 25.3478Z" fill="#F6C900"/>
<path d="M83.6999 79.7733C83.1382 79.7733 82.5995 79.5502 82.2024 79.153C81.8052 78.7558 81.582 78.2171 81.582 77.6554V26.289C81.5817 25.9828 81.648 25.6802 81.7764 25.4022C81.9048 25.1242 82.0923 24.8776 82.3257 24.6794C82.562 24.4813 82.838 24.336 83.1351 24.2532C83.4321 24.1704 83.7435 24.152 84.0482 24.1993C84.8577 24.3405 103.947 27.6821 103.947 41.3968C103.926 45.3014 103.31 49.18 102.121 52.8994C101.001 56.834 100.577 58.3024 103.326 61.051C103.534 61.2449 103.701 61.4787 103.817 61.7385C103.932 61.9983 103.995 62.2787 104 62.5631C104.005 62.8475 103.952 63.13 103.846 63.3937C103.739 63.6574 103.581 63.897 103.38 64.0981C103.179 64.2992 102.939 64.4577 102.675 64.5643C102.412 64.6708 102.129 64.7231 101.845 64.7181C101.56 64.7131 101.28 64.6508 101.02 64.535C100.76 64.4193 100.527 64.2524 100.333 64.0443C95.8238 59.5355 96.8592 55.9209 98.0547 51.7416C99.1234 48.3929 99.6818 44.9023 99.7114 41.3874C99.7114 33.697 90.3831 30.1954 85.8179 28.9434V77.6554C85.8179 78.2171 85.5947 78.7558 85.1975 79.153C84.8003 79.5502 84.2617 79.7733 83.6999 79.7733Z" fill="#F6C900"/>
</g>
<defs>
<filter id="filter0_d" x="0" y="0" width="108.5" height="96.3597" filterUnits="userSpaceOnUse" color-interpolation-filters="sRGB">
<feFlood flood-opacity="0" result="BackgroundImageFix"/>
<feColorMatrix in="SourceAlpha" type="matrix" values="0 0 0 0 0 0 0 0 0 0 0 0 0 0 0 0 0 0 127 0" result="hardAlpha"/>
<feOffset dx="4" dy="4"/>
<feGaussianBlur stdDeviation="0.25"/>
<feColorMatrix type="matrix" values="0 0 0 0 0 0 0 0 0 0 0 0 0 0 0 0 0 0 0.1 0"/>
<feBlend mode="normal" in2="BackgroundImageFix" result="effect1_dropShadow"/>
<feBlend mode="normal" in="SourceGraphic" in2="effect1_dropShadow" result="shape"/>
</filter>
</defs>
</svg>
