<svg width="105" height="101" viewBox="0 0 105 101" fill="none" xmlns="http://www.w3.org/2000/svg">
<g filter="url(#filter0_d)">
<path d="M93.7471 12.4965H78.5827L74.8773 1.42658C74.7382 1.01275 74.4733 0.652748 74.1195 0.396953C73.7657 0.141158 73.3408 0.00236699 72.9042 0H56.2298C55.7917 0.000434705 55.3647 0.138331 55.0091 0.394261C54.6534 0.650191 54.387 1.01126 54.2474 1.42658L50.542 12.4965H45.8362V6.25288C45.8362 5.70009 45.6166 5.16994 45.2257 4.77906C44.8348 4.38818 44.3047 4.16859 43.7519 4.16859H31.2554C30.7026 4.16859 30.1724 4.38818 29.7816 4.77906C29.3907 5.16994 29.1711 5.70009 29.1711 6.25288V12.4965H27.0868C25.4292 12.4989 23.8402 13.1585 22.6681 14.3306C21.4959 15.5027 20.8364 17.0918 20.8339 18.7494V58.3324H2.08455C1.81127 58.3324 1.54068 58.3864 1.28832 58.4912C1.03596 58.5961 0.8068 58.7498 0.613994 58.9434C0.421188 59.1371 0.268536 59.367 0.164802 59.6198C0.0610687 59.8726 0.00829683 60.1434 0.00951682 60.4167C0.00951682 96.3777 -0.0460642 93.6635 0.111416 94.2564C0.695018 96.5074 0.111412 95.8312 43.7519 95.8312C44.3047 95.8312 44.8348 95.6116 45.2257 95.2207C45.6166 94.8298 45.8362 94.2997 45.8362 93.7469V70.8289H93.7471C95.4047 70.8265 96.9938 70.1669 98.1659 68.9948C99.338 67.8227 99.9976 66.2337 100 64.576V18.7494C99.9976 17.0918 99.338 15.5027 98.1659 14.3306C96.9938 13.1585 95.4047 12.4989 93.7471 12.4965ZM95.8314 18.7494V29.1616H81.2506C79.2969 26.5861 76.7768 24.4947 73.8855 23.049C70.9941 21.6033 67.8089 20.8421 64.5763 20.8244C61.3396 20.8193 58.1466 21.5705 55.2516 23.018C52.3567 24.4655 49.8399 26.5692 47.9019 29.1616C47.3739 29.1616 49.8287 29.1616 37.4527 29.1616V16.6651H93.6915C93.9699 16.6577 94.2469 16.7061 94.5062 16.8075C94.7656 16.9089 95.002 17.0613 95.2014 17.2556C95.4009 17.4498 95.5594 17.6821 95.6676 17.9387C95.7758 18.1953 95.8315 18.4709 95.8314 18.7494ZM64.5855 25.0023C67.8834 25.0023 71.1072 25.9802 73.8493 27.8124C76.5914 29.6446 78.7286 32.2488 79.9906 35.2956C81.2527 38.3424 81.5829 41.6951 80.9395 44.9296C80.2961 48.1641 78.708 51.1352 76.3761 53.4671C74.0441 55.7991 71.0731 57.3872 67.8386 58.0306C64.604 58.6739 61.2514 58.3437 58.2045 57.0817C55.1577 55.8196 52.5535 53.6824 50.7213 50.9404C48.8891 48.1983 47.9112 44.9745 47.9112 41.6766C47.9112 37.2543 49.668 33.0131 52.795 29.8861C55.922 26.759 60.1632 25.0023 64.5855 25.0023ZM57.7583 4.16859H71.4313L74.2104 12.5058H54.9793L57.7583 4.16859ZM33.3397 8.32791H41.6768V12.4965H33.3397V8.32791ZM27.0868 16.6651H33.3397V29.1616H25.0025V18.7494C25.0025 18.1966 25.2221 17.6664 25.613 17.2756C26.0039 16.8847 26.534 16.6651 27.0868 16.6651ZM25.0025 33.3394H33.3397V58.3509H25.0025V33.3394ZM41.6768 62.501V74.136L36.8969 69.3931C36.683 69.1792 36.4252 69.0144 36.1413 68.9101C35.8574 68.8059 35.5542 68.7646 35.2528 68.7893C34.9513 68.814 34.6589 68.904 34.3957 69.053C34.1325 69.2021 33.9049 69.4066 33.7287 69.6524L24.7431 82.1953L18.1475 75.6089C17.9449 75.4075 17.7032 75.2497 17.4374 75.1452C17.1715 75.0407 16.8871 74.9918 16.6016 75.0013C16.3161 75.0109 16.0356 75.0787 15.7773 75.2007C15.5191 75.3227 15.2885 75.4963 15.0998 75.7108L4.16884 88.198V62.4917L41.6768 62.501ZM6.67925 91.6255L16.7765 80.1295L23.5296 86.8826C23.7427 87.098 24.0003 87.2641 24.2844 87.3693C24.5685 87.4744 24.8722 87.5161 25.1741 87.4914C25.4761 87.4667 25.7689 87.3762 26.0322 87.2262C26.2954 87.0762 26.5225 86.8704 26.6977 86.6232L35.6833 74.0248L41.6676 80.0091V91.6255H6.67925ZM93.7564 66.614H45.8362V60.4167C45.8362 59.8639 45.6166 59.3338 45.2257 58.9429C44.8348 58.552 44.3047 58.3324 43.7519 58.3324H37.5083V33.3209H45.4934C44.1089 36.4901 43.5355 39.9541 43.8249 43.4004C44.1144 46.8467 45.2576 50.1666 47.1513 53.0604C49.045 55.9543 51.6296 58.3309 54.6718 59.9758C57.7139 61.6207 61.1179 62.482 64.5763 62.482C68.0347 62.482 71.4386 61.6207 74.4808 59.9758C77.523 58.3309 80.1076 55.9543 82.0013 53.0604C83.895 50.1666 85.0382 46.8467 85.3276 43.4004C85.6171 39.9541 85.0436 36.4901 83.6591 33.3209H95.8222V64.576C95.8222 65.1272 95.6038 65.656 95.215 66.0466C94.8261 66.4372 94.2983 66.6579 93.7471 66.6603L93.7564 66.614Z" fill="#F6C900"/>
<path d="M89.5882 56.248C89.0354 56.248 88.5053 56.4676 88.1144 56.8585C87.7235 57.2494 87.5039 57.7796 87.5039 58.3323C87.5039 58.8851 87.7235 59.4153 88.1144 59.8062C88.5053 60.197 89.0354 60.4166 89.5882 60.4166C90.141 60.4166 90.6711 60.197 91.062 59.8062C91.4529 59.4153 91.6725 58.8851 91.6725 58.3323C91.6725 57.7796 91.4529 57.2494 91.062 56.8585C90.6711 56.4676 90.141 56.248 89.5882 56.248Z" fill="#F6C900"/>
<path d="M85.4193 25.0022H89.5878C90.1406 25.0022 90.6708 24.7826 91.0617 24.3917C91.4525 24.0008 91.6721 23.4707 91.6721 22.9179C91.6721 22.3651 91.4525 21.835 91.0617 21.4441C90.6708 21.0532 90.1406 20.8336 89.5878 20.8336H85.4193C84.8665 20.8336 84.3363 21.0532 83.9454 21.4441C83.5546 21.835 83.335 22.3651 83.335 22.9179C83.335 23.4707 83.5546 24.0008 83.9454 24.3917C84.3363 24.7826 84.8665 25.0022 85.4193 25.0022Z" fill="#F6C900"/>
<path d="M12.5062 70.8289C13.059 70.8289 13.5891 70.6093 13.98 70.2184C14.3709 69.8275 14.5905 69.2974 14.5905 68.7446C14.5905 68.1918 14.3709 67.6616 13.98 67.2707C13.5891 66.8799 13.059 66.6603 12.5062 66.6603C11.9534 66.6603 11.4232 66.8799 11.0324 67.2707C10.6415 67.6616 10.4219 68.1918 10.4219 68.7446C10.4219 69.2974 10.6415 69.8275 11.0324 70.2184C11.4232 70.6093 11.9534 70.8289 12.5062 70.8289Z" fill="#F6C900"/>
</g>
<defs>
<filter id="filter0_d" x="0" y="0" width="104.5" height="100.426" filterUnits="userSpaceOnUse" color-interpolation-filters="sRGB">
<feFlood flood-opacity="0" result="BackgroundImageFix"/>
<feColorMatrix in="SourceAlpha" type="matrix" values="0 0 0 0 0 0 0 0 0 0 0 0 0 0 0 0 0 0 127 0" result="hardAlpha"/>
<feOffset dx="4" dy="4"/>
<feGaussianBlur stdDeviation="0.25"/>
<feColorMatrix type="matrix" values="0 0 0 0 0 0 0 0 0 0 0 0 0 0 0 0 0 0 0.1 0"/>
<feBlend mode="normal" in2="BackgroundImageFix" result="effect1_dropShadow"/>
<feBlend mode="normal" in="SourceGraphic" in2="effect1_dropShadow" result="shape"/>
</filter>
</defs>
</svg>
