<svg width="95" height="95" viewBox="0 0 95 95" fill="none" xmlns="http://www.w3.org/2000/svg">
<g filter="url(#filter0_d)">
<path d="M84.0866 56.2453H5.88706C4.32639 56.2475 2.83028 56.8685 1.72672 57.972C0.623156 59.0756 0.0022059 60.5717 0 62.1324V84.113C0.0022059 85.6736 0.623156 87.1698 1.72672 88.2733C2.83028 89.3769 4.32639 89.9978 5.88706 90H84.1283C85.6889 89.9978 87.1851 89.3769 88.2886 88.2733C89.3922 87.1698 90.0131 85.6736 90.0153 84.113V62.1324C90.0142 61.3561 89.8598 60.5876 89.561 59.8712C89.2622 59.1547 88.8247 58.5043 88.2739 57.9573C87.723 57.4103 87.0695 56.9775 86.351 56.6837C85.6324 56.3899 84.8629 56.2409 84.0866 56.2453ZM86.2213 84.113C86.2213 84.6791 85.9964 85.2221 85.596 85.6224C85.1957 86.0228 84.6527 86.2477 84.0866 86.2477H5.88706C5.32091 86.2477 4.77794 86.0228 4.37761 85.6224C3.97728 85.2221 3.75238 84.6791 3.75238 84.113V62.1324C3.75238 61.5662 3.97728 61.0233 4.37761 60.6229C4.77794 60.2226 5.32091 59.9977 5.88706 59.9977H84.1283C84.6944 59.9977 85.2374 60.2226 85.6377 60.6229C86.038 61.0233 86.263 61.5662 86.263 62.1324L86.2213 84.113Z" fill="#F6C900"/>
<path d="M14.9592 50.6167H31.8365C32.0825 50.6178 32.3263 50.5703 32.5539 50.4769C32.7815 50.3836 32.9884 50.2462 33.1627 50.0726C33.337 49.8991 33.4754 49.6928 33.5698 49.4656C33.6642 49.2384 33.7127 48.9949 33.7127 48.7489C36.6646 48.7489 38.6242 48.6071 41.5594 49.5827C45.6786 50.9503 47.1879 50.6167 64.132 50.6167C66.0468 50.6269 67.9095 49.9938 69.4216 48.819C70.9336 47.6441 72.0073 45.9956 72.4706 44.1376L76.6399 27.4604C78.0075 21.9903 73.8548 16.8287 67.9427 16.8287H56.7523L58.8787 8.49006C60.3046 -0.0236669 48.0885 -3.35911 46.1873 4.25404C44.186 12.2424 42.6934 12.7844 36.4561 18.98L33.7127 19.8889V18.7382C33.7127 18.2406 33.5151 17.7634 33.1632 17.4115C32.8114 17.0597 32.3341 16.862 31.8365 16.862H14.9592C14.4616 16.862 13.9844 17.0597 13.6325 17.4115C13.2807 17.7634 13.083 18.2406 13.083 18.7382V48.7572C13.0841 49.0025 13.1335 49.2452 13.2284 49.4714C13.3233 49.6976 13.4618 49.9029 13.636 50.0756C13.8102 50.2482 14.0167 50.3849 14.2438 50.4777C14.4708 50.5706 14.7139 50.6178 14.9592 50.6167ZM40.9757 19.8056C47.3297 13.685 48.2053 11.6337 49.8229 5.16295C50.5651 2.21942 55.7767 4.21235 55.218 7.75626L52.5247 18.2796C52.4549 18.5562 52.4492 18.8452 52.5079 19.1244C52.5666 19.4036 52.6882 19.6657 52.8635 19.8908C53.0388 20.1159 53.2631 20.2981 53.5194 20.4235C53.7757 20.5489 54.0572 20.6142 54.3425 20.6144H67.8927C68.9386 20.5862 69.9684 20.8755 70.8466 21.4441C71.7248 22.0127 72.4102 22.834 72.8125 23.7998C73.4796 25.6509 73.3462 25.0089 68.7933 43.2287C68.5332 44.2685 67.9334 45.1917 67.089 45.8519C66.2445 46.512 65.2038 46.8713 64.132 46.8727H47.9301C43.1354 46.8727 41.8596 44.9965 36.3728 44.9965H33.7127V23.8414C39.4914 21.9152 37.757 22.9159 40.9757 19.8056ZM16.8354 20.6394H29.9604V46.8727H16.8354V20.6394Z" fill="#F6C900"/>
<path d="M53.1252 69.4954L48.6474 68.845L46.6461 64.7924C46.4721 64.506 46.2273 64.2692 45.9352 64.1048C45.6431 63.9405 45.3136 63.8541 44.9784 63.8541C44.6433 63.8541 44.3137 63.9405 44.0216 64.1048C43.7295 64.2692 43.4847 64.506 43.3107 64.7924L41.3094 68.845C36.3646 69.5621 35.7559 69.437 35.3223 70.7712C34.8887 72.1054 35.6975 72.6057 39.033 75.8494C38.1991 80.7442 37.8739 81.3112 39.033 82.1451C40.3421 83.0957 41.4262 82.0617 45.0034 80.1772C49.3979 82.487 49.2645 82.4953 49.8815 82.4953C50.1549 82.4956 50.425 82.4361 50.673 82.3211C50.921 82.2061 51.1408 82.0382 51.3172 81.8293C51.4935 81.6204 51.622 81.3755 51.6938 81.1117C51.7656 80.848 51.7789 80.5717 51.7327 80.3023L50.9155 75.8494L54.1509 72.6974C54.4019 72.4541 54.5798 72.1454 54.6648 71.8063C54.7497 71.4672 54.7382 71.1111 54.6316 70.7782C54.5249 70.4453 54.3274 70.1488 54.0612 69.9221C53.7951 69.6955 53.4709 69.5477 53.1252 69.4954ZM47.3466 77.192C44.7032 75.8077 45.1619 75.8411 42.5852 77.192C43.0689 74.3652 43.2523 74.7487 41.1093 72.6641C44.0695 72.2305 43.6776 72.464 44.9617 69.8623C46.2459 72.4389 45.8623 72.2305 48.8225 72.6641C46.7462 74.6654 46.8463 74.2484 47.3466 77.192Z" fill="#F6C900"/>
<path d="M26.8673 69.4954L22.3978 68.845L20.3965 64.7924C20.2225 64.506 19.9777 64.2692 19.6856 64.1048C19.3935 63.9405 19.064 63.8541 18.7288 63.8541C18.3937 63.8541 18.0641 63.9405 17.772 64.1048C17.4799 64.2692 17.2351 64.506 17.0611 64.7924L15.0598 68.845C10.1317 69.5621 9.50631 69.437 9.0727 70.7712C8.63909 72.1054 9.45628 72.6057 12.7917 75.8494C11.9579 80.7442 11.6243 81.3112 12.7917 82.1451C13.9591 82.979 14.6512 82.3452 18.7705 80.1772L22.773 82.2868C23.0827 82.4486 23.4313 82.5206 23.7796 82.4949C24.128 82.4692 24.4623 82.3467 24.7448 82.1413C25.0273 81.9359 25.2469 81.6557 25.3788 81.3323C25.5107 81.0088 25.5497 80.655 25.4914 80.3106L24.7326 75.8494L27.968 72.6974C28.2206 72.4492 28.3978 72.1345 28.479 71.7898C28.5603 71.445 28.5423 71.0843 28.4272 70.7494C28.312 70.4145 28.1045 70.1189 27.8284 69.897C27.5524 69.6751 27.2192 69.5359 26.8673 69.4954ZM21.097 77.192C18.4536 75.8077 18.9039 75.8411 16.3273 77.192C16.8109 74.3652 16.9944 74.7487 14.8514 72.6641C17.8116 72.2305 17.428 72.464 18.7121 69.8623C19.9879 72.4389 19.6127 72.2305 22.5646 72.6307C20.5133 74.6654 20.5883 74.2484 21.097 77.192Z" fill="#F6C900"/>
<path d="M79.3753 69.4954L74.8975 68.845L72.8962 64.7924C72.7222 64.506 72.4774 64.2692 72.1853 64.1048C71.8931 63.9405 71.5636 63.8541 71.2285 63.8541C70.8933 63.8541 70.5638 63.9405 70.2717 64.1048C69.9796 64.2692 69.7347 64.506 69.5608 64.7924L67.5595 68.845C62.6147 69.5621 62.006 69.437 61.5724 70.7712C61.072 72.3139 62.4563 73.0894 65.283 75.8494C64.4492 80.7442 64.124 81.3112 65.283 82.1451C66.5922 83.0874 67.6846 82.0617 71.2618 80.1772C75.6479 82.487 75.5145 82.4953 76.1316 82.4953C76.4049 82.4956 76.6751 82.4361 76.9231 82.3211C77.171 82.2061 77.3909 82.0382 77.5672 81.8293C77.7435 81.6204 77.8721 81.3755 77.9439 81.1117C78.0156 80.848 78.0289 80.5717 77.9828 80.3023L77.2156 75.8494L80.4593 72.6974C80.7083 72.4489 80.8827 72.1357 80.9629 71.7932C81.0431 71.4507 81.0258 71.0925 80.913 70.7593C80.8002 70.4261 80.5964 70.1312 80.3246 69.9078C80.0529 69.6844 79.724 69.5416 79.3753 69.4954ZM73.605 77.192C70.9533 75.7994 71.4036 75.8494 68.8353 77.192C69.3189 74.3485 69.5024 74.7404 67.3594 72.6557C70.3196 72.2221 69.9276 72.464 71.2201 69.854C72.4959 72.4389 72.1207 72.2305 75.0976 72.6307C73.0213 74.6654 73.0963 74.2484 73.605 77.192Z" fill="#F6C900"/>
</g>
<defs>
<filter id="filter0_d" x="0" y="0" width="94.5153" height="94.5" filterUnits="userSpaceOnUse" color-interpolation-filters="sRGB">
<feFlood flood-opacity="0" result="BackgroundImageFix"/>
<feColorMatrix in="SourceAlpha" type="matrix" values="0 0 0 0 0 0 0 0 0 0 0 0 0 0 0 0 0 0 127 0" result="hardAlpha"/>
<feOffset dx="4" dy="4"/>
<feGaussianBlur stdDeviation="0.25"/>
<feColorMatrix type="matrix" values="0 0 0 0 0 0 0 0 0 0 0 0 0 0 0 0 0 0 0.1 0"/>
<feBlend mode="normal" in2="BackgroundImageFix" result="effect1_dropShadow"/>
<feBlend mode="normal" in="SourceGraphic" in2="effect1_dropShadow" result="shape"/>
</filter>
</defs>
</svg>
