<svg width="95" height="95" viewBox="0 0 95 95" fill="none" xmlns="http://www.w3.org/2000/svg">
<g filter="url(#filter0_d)">
<path d="M77.2106 86.5763H1.88319C1.38373 86.5763 0.904738 86.3779 0.551572 86.0248C0.198407 85.6716 0 85.1926 0 84.6931V13.174C0 12.6745 0.198407 12.1955 0.551572 11.8423C0.904738 11.4892 1.38373 11.2908 1.88319 11.2908H88.5013C89.0008 11.2908 89.4798 11.4892 89.8329 11.8423C90.1861 12.1955 90.3845 12.6745 90.3845 13.174V82.7765C90.3845 83.2759 90.1861 83.7549 89.8329 84.1081C89.4798 84.4613 89.0008 84.6597 88.5013 84.6597C88.0019 84.6597 87.5229 84.4613 87.1697 84.1081C86.8166 83.7549 86.6181 83.2759 86.6181 82.7765V15.0571H3.79985V82.8518H77.2106C77.71 82.8518 78.189 83.0502 78.5422 83.4034C78.8954 83.7566 79.0938 84.2355 79.0938 84.735C79.0938 85.2345 78.8954 85.7134 78.5422 86.0666C78.189 86.4198 77.71 86.6182 77.2106 86.6182V86.5763Z" fill="#F6C900"/>
<path d="M88.5015 15.0571H1.91688C1.41743 15.0571 0.938429 14.8587 0.585264 14.5055C0.232098 14.1524 0.0336914 13.6734 0.0336914 13.1739V5.64119C0.035909 4.14428 0.632107 2.70944 1.69136 1.65176C2.75062 0.594068 4.18634 -1.64269e-06 5.68325 0H84.7352C86.2321 -1.64269e-06 87.6678 0.594068 88.7271 1.65176C89.7863 2.70944 90.3825 4.14428 90.3847 5.64119V13.1739C90.3847 13.6734 90.1863 14.1524 89.8332 14.5055C89.48 14.8587 89.001 15.0571 88.5015 15.0571ZM3.80006 11.2907H86.6602V5.64119C86.6602 5.14173 86.4618 4.66274 86.1086 4.30957C85.7555 3.95641 85.2765 3.758 84.777 3.758H5.68325C5.1838 3.758 4.7048 3.95641 4.35163 4.30957C3.99847 4.66274 3.80006 5.14173 3.80006 5.64119V11.2907Z" fill="#F6C900"/>
<path d="M9.44959 9.40761C10.4896 9.40761 11.3328 8.56447 11.3328 7.52442C11.3328 6.48437 10.4896 5.64124 9.44959 5.64124C8.40954 5.64124 7.56641 6.48437 7.56641 7.52442C7.56641 8.56447 8.40954 9.40761 9.44959 9.40761Z" fill="#F6C900"/>
<path d="M16.9735 9.40761C18.0136 9.40761 18.8567 8.56447 18.8567 7.52442C18.8567 6.48437 18.0136 5.64124 16.9735 5.64124C15.9335 5.64124 15.0903 6.48437 15.0903 7.52442C15.0903 8.56447 15.9335 9.40761 16.9735 9.40761Z" fill="#F6C900"/>
<path d="M24.5067 9.40761C25.5468 9.40761 26.3899 8.56447 26.3899 7.52442C26.3899 6.48437 25.5468 5.64124 24.5067 5.64124C23.4667 5.64124 22.6235 6.48437 22.6235 7.52442C22.6235 8.56447 23.4667 9.40761 24.5067 9.40761Z" fill="#F6C900"/>
<path d="M48.9709 77.1688C43.3853 77.1688 37.9251 75.5123 33.281 72.409C28.6369 69.3056 25.0174 64.8947 22.8803 59.7342C20.7431 54.5736 20.1844 48.8952 21.2747 43.417C22.365 37.9389 25.0554 32.9071 29.0056 28.9581C32.9557 25.0091 37.9883 22.3202 43.4668 21.2315C48.9452 20.1429 54.6235 20.7033 59.7834 22.842C64.9434 24.9806 69.3532 28.6014 72.4551 33.2465C75.5571 37.8915 77.2119 43.3521 77.2103 48.9377C77.2014 56.4238 74.2231 63.6006 68.9288 68.8933C63.6346 74.1859 56.4569 77.1621 48.9709 77.1688ZM48.9709 24.4396C44.1316 24.4396 39.401 25.8743 35.377 28.5623C31.353 31.2503 28.2162 35.071 26.3631 39.5414C24.5101 44.0118 24.024 48.9312 24.9663 53.6778C25.9085 58.4245 28.2369 62.7852 31.657 66.2088C35.0771 69.6324 39.4354 71.9652 44.181 72.9124C48.9267 73.8595 53.8466 73.3784 58.3189 71.53C62.7912 69.6815 66.6151 66.5486 69.3073 62.5274C71.9994 58.5061 73.4389 53.777 73.4439 48.9377C73.4373 42.4491 70.8567 36.2282 66.2686 31.64C61.6804 27.0519 55.4595 24.4713 48.9709 24.4647V24.4396Z" fill="#F6C900"/>
<path d="M48.9709 77.1688C43.3853 77.1688 37.9251 75.5123 33.281 72.409C28.6369 69.3056 25.0174 64.8947 22.8803 59.7342C20.7431 54.5736 20.1844 48.8952 21.2747 43.417C22.365 37.9389 25.0554 32.9071 29.0056 28.9581C32.9557 25.0091 37.9883 22.3202 43.4668 21.2315C48.9452 20.1429 54.6235 20.7033 59.7834 22.842C64.9434 24.9806 69.3532 28.6014 72.4551 33.2465C75.5571 37.8915 77.2119 43.3521 77.2103 48.9377C77.2014 56.4238 74.2231 63.6006 68.9288 68.8933C63.6346 74.1859 56.4569 77.1621 48.9709 77.1688ZM48.9709 24.4396C44.1316 24.4396 39.401 25.8743 35.377 28.5623C31.353 31.2503 28.2162 35.071 26.3631 39.5414C24.5101 44.0118 24.024 48.9312 24.9663 53.6778C25.9085 58.4245 28.2369 62.7852 31.657 66.2088C35.0771 69.6324 39.4354 71.9652 44.181 72.9124C48.9267 73.8595 53.8466 73.3784 58.3189 71.53C62.7912 69.6815 66.6151 66.5486 69.3073 62.5274C71.9994 58.5061 73.4389 53.777 73.4439 48.9377C73.4373 42.4491 70.8567 36.2282 66.2686 31.64C61.6804 27.0519 55.4595 24.4713 48.9709 24.4647V24.4396Z" fill="#F6C900"/>
<path d="M48.9708 69.636C44.8751 69.636 40.8713 68.4214 37.466 66.1457C34.0606 63.8701 31.4066 60.6356 29.8396 56.8515C28.2726 53.0674 27.863 48.9035 28.6627 44.8866C29.4623 40.8697 31.4353 37.1801 34.332 34.2845C37.2287 31.389 40.919 29.4175 44.9363 28.6195C48.9535 27.8215 53.1172 28.2327 56.9007 29.8013C60.6842 31.3698 63.9176 34.0251 66.1919 37.4314C68.4661 40.8377 69.6792 44.842 69.6775 48.9377C69.6708 54.4266 67.4869 59.6887 63.6048 63.5692C59.7228 67.4497 54.4598 69.6316 48.9708 69.636ZM48.9708 31.9723C45.6214 31.9723 42.3472 32.9652 39.5619 34.8255C36.7767 36.6858 34.6054 39.3301 33.3225 42.424C32.0396 45.518 31.7026 48.9228 32.3542 52.2083C33.0058 55.4937 34.6168 58.5122 36.9834 60.8823C39.35 63.2525 42.3661 64.8678 45.6506 65.5243C48.935 66.1808 52.3404 65.8489 55.4362 64.5706C58.5321 63.2923 61.1795 61.1249 63.044 58.3424C64.9084 55.5599 65.9062 52.2871 65.9111 48.9377C65.9067 44.4462 64.1205 40.14 60.9445 36.964C57.7686 33.788 53.4623 32.0018 48.9708 31.9974V31.9723Z" fill="#F6C900"/>
<path d="M82.8517 89.9995C81.9058 90.0058 80.9681 89.8241 80.0931 89.4649C79.2181 89.1057 78.4231 88.5762 77.7545 87.9071L62.1199 72.2641C61.9349 72.0917 61.7865 71.8838 61.6835 71.6528C61.5806 71.4218 61.5253 71.1724 61.5208 70.9196C61.5163 70.6667 61.5629 70.4156 61.6576 70.1811C61.7523 69.9466 61.8933 69.7336 62.0721 69.5548C62.2509 69.3759 62.4639 69.235 62.6984 69.1402C62.9329 69.0455 63.1841 68.999 63.4369 69.0035C63.6898 69.0079 63.9391 69.0633 64.1701 69.1662C64.4011 69.2691 64.609 69.4175 64.7815 69.6026L80.4161 85.2874C81.0766 85.9052 81.9472 86.2489 82.8517 86.2489C83.7561 86.2489 84.6267 85.9052 85.2872 85.2874C85.9297 84.6413 86.2903 83.7672 86.2903 82.856C86.2903 81.9448 85.9297 81.0707 85.2872 80.4246L69.6443 64.7397C69.3116 64.3828 69.1305 63.9106 69.1391 63.4227C69.1477 62.9348 69.3454 62.4694 69.6904 62.1243C70.0354 61.7793 70.5009 61.5817 70.9888 61.573C71.4767 61.5644 71.9488 61.7455 72.3058 62.0782L87.9488 77.7547C89.2986 79.1059 90.0568 80.9377 90.0568 82.8476C90.0568 84.7575 89.2986 86.5894 87.9488 87.9406C87.2777 88.604 86.4816 89.1276 85.6066 89.481C84.7317 89.8344 83.7952 90.0107 82.8517 89.9995Z" fill="#F6C900"/>
<path d="M22.8826 54.5789H9.4911C8.99164 54.5789 8.51265 54.3805 8.15948 54.0273C7.80632 53.6741 7.60791 53.1951 7.60791 52.6957C7.60791 52.1962 7.80632 51.7172 8.15948 51.3641C8.51265 51.0109 8.99164 50.8125 9.4911 50.8125H22.8826C23.3821 50.8125 23.8611 51.0109 24.2142 51.3641C24.5674 51.7172 24.7658 52.1962 24.7658 52.6957C24.7658 53.1951 24.5674 53.6741 24.2142 54.0273C23.8611 54.3805 23.3821 54.5789 22.8826 54.5789Z" fill="#F6C900"/>
<path d="M80.9686 43.2881H74.2728C73.7734 43.2881 73.2944 43.0897 72.9412 42.7365C72.5881 42.3834 72.3896 41.9044 72.3896 41.4049C72.3896 40.9055 72.5881 40.4265 72.9412 40.0733C73.2944 39.7201 73.7734 39.5217 74.2728 39.5217H80.9686C81.4681 39.5217 81.9471 39.7201 82.3002 40.0733C82.6534 40.4265 82.8518 40.9055 82.8518 41.4049C82.8518 41.9044 82.6534 42.3834 82.3002 42.7365C81.9471 43.0897 81.4681 43.2881 80.9686 43.2881Z" fill="#F6C900"/>
<path d="M50.8543 56.4621C50.5067 56.4604 50.1663 56.3626 49.8709 56.1794C49.5754 55.9962 49.3364 55.7349 49.1804 55.4242L45.0625 47.1968L41.1873 53.6666C41.0197 53.9451 40.7828 54.1756 40.4998 54.3354C40.2167 54.4953 39.8971 54.5792 39.572 54.5789H30.5243C30.0248 54.5789 29.5459 54.3805 29.1927 54.0273C28.8395 53.6741 28.6411 53.1951 28.6411 52.6957C28.6411 52.1962 28.8395 51.7172 29.1927 51.3641C29.5459 51.0109 30.0248 50.8125 30.5243 50.8125H38.4923L43.5978 42.3173C43.7587 42.0196 44.0024 41.775 44.2996 41.613C44.5967 41.4511 44.9344 41.3788 45.2717 41.405C45.6091 41.418 45.9368 41.5212 46.2209 41.7037C46.5049 41.8862 46.735 42.1414 46.8871 42.4428L50.7288 50.1346L54.7714 40.6852C54.918 40.3474 55.16 40.0597 55.4678 39.8575C55.7756 39.6553 56.1356 39.5474 56.5039 39.5469H66.2462C66.7457 39.5469 67.2247 39.7453 67.5778 40.0984C67.931 40.4516 68.1294 40.9306 68.1294 41.4301C68.1294 41.9295 67.931 42.4085 67.5778 42.7617C67.2247 43.1148 66.7457 43.3132 66.2462 43.3132H57.7426L52.5869 55.3238C52.4435 55.652 52.2103 55.933 51.9141 56.1344C51.6179 56.3358 51.2709 56.4494 50.9129 56.4621H50.8543Z" fill="#F6C900"/>
</g>
<defs>
<filter id="filter0_d" x="0" y="0" width="94.8847" height="94.5" filterUnits="userSpaceOnUse" color-interpolation-filters="sRGB">
<feFlood flood-opacity="0" result="BackgroundImageFix"/>
<feColorMatrix in="SourceAlpha" type="matrix" values="0 0 0 0 0 0 0 0 0 0 0 0 0 0 0 0 0 0 127 0" result="hardAlpha"/>
<feOffset dx="4" dy="4"/>
<feGaussianBlur stdDeviation="0.25"/>
<feColorMatrix type="matrix" values="0 0 0 0 0 0 0 0 0 0 0 0 0 0 0 0 0 0 0.1 0"/>
<feBlend mode="normal" in2="BackgroundImageFix" result="effect1_dropShadow"/>
<feBlend mode="normal" in="SourceGraphic" in2="effect1_dropShadow" result="shape"/>
</filter>
</defs>
</svg>
