<svg width="95" height="95" viewBox="0 0 95 95" fill="none" xmlns="http://www.w3.org/2000/svg">
<g filter="url(#filter0_d)">
<path d="M28.124 26.2483V35.6201C28.124 36.1177 28.3217 36.5949 28.6735 36.9467C29.0253 37.2985 29.5025 37.4962 30.0001 37.4962H60.0165C60.2625 37.4962 60.5061 37.4476 60.7332 37.3532C60.9604 37.2588 61.1666 37.1205 61.3402 36.9462C61.5137 36.7719 61.6511 36.565 61.7445 36.3374C61.8378 36.1099 61.8853 35.8661 61.8842 35.6201V26.2483C61.8813 23.5621 60.917 20.9656 59.166 18.9286C57.4149 16.8915 54.9927 15.5484 52.3373 15.1422C53.4261 13.7646 54.1047 12.1082 54.2956 10.3627C54.4864 8.61715 54.1817 6.85319 53.4164 5.27286C52.651 3.69252 51.456 2.35973 49.9682 1.42717C48.4804 0.494612 46.76 0 45.0041 0C43.2482 0 41.5278 0.494612 40.04 1.42717C38.5522 2.35973 37.3572 3.69252 36.5919 5.27286C35.8266 6.85319 35.5219 8.61715 35.7127 10.3627C35.9035 12.1082 36.5822 13.7646 37.6709 15.1422C35.0163 15.5501 32.595 16.8936 30.8443 18.9303C29.0935 20.967 28.1287 23.5626 28.124 26.2483ZM45.4669 18.7442L48.5853 29.6752L45.8754 33.7441H44.1328L41.423 29.6752L44.5414 18.7442H45.4669ZM31.8761 26.2483C31.8761 24.2581 32.6667 22.3494 34.074 20.9421C35.4813 19.5348 37.39 18.7442 39.3802 18.7442H40.6392C37.3041 30.534 37.1707 30.0671 37.821 31.0343L39.622 33.7441H31.8761V26.2483ZM58.1322 26.2483V33.7524H50.3862C52.3373 30.8258 52.7292 30.534 52.429 29.4918L49.3607 18.7442H50.628C52.6183 18.7442 54.527 19.5348 55.9343 20.9421C57.3416 22.3494 58.1322 24.2581 58.1322 26.2483ZM45 3.73596C46.1134 3.73431 47.2024 4.06299 48.129 4.68041C49.0557 5.29783 49.7783 6.17624 50.2056 7.20449C50.6328 8.23274 50.7455 9.36462 50.5293 10.4569C50.313 11.5492 49.7777 12.5528 48.9909 13.3408C48.2041 14.1287 47.2013 14.6655 46.1094 14.8834C45.0174 15.1012 43.8853 14.9903 42.8565 14.5645C41.8276 14.1388 40.9481 13.4174 40.3293 12.4917C39.7105 11.566 39.3802 10.4775 39.3802 9.36405C39.3846 7.87495 39.9781 6.4481 41.0311 5.39514C42.084 4.34219 43.5109 3.7487 45 3.7443V3.73596Z" fill="#F6C900"/>
<path d="M24.2133 67.621C25.302 66.2434 25.9807 64.5869 26.1715 62.8414C26.3624 61.0959 26.0577 59.332 25.2923 57.7516C24.527 56.1713 23.332 54.8385 21.8442 53.9059C20.3564 52.9734 18.636 52.4788 16.8801 52.4788C15.1242 52.4788 13.4038 52.9734 11.916 53.9059C10.4282 54.8385 9.23321 56.1713 8.46787 57.7516C7.70253 59.332 7.39783 61.0959 7.58867 62.8414C7.77951 64.5869 8.45817 66.2434 9.54691 67.621C6.89019 68.0309 4.46764 69.3773 2.71683 71.4171C0.966022 73.4569 0.0023923 76.0556 0 78.7438V88.1239C0 88.6215 0.197653 89.0986 0.549477 89.4505C0.723682 89.6247 0.930494 89.7629 1.1581 89.8571C1.38572 89.9514 1.62967 89.9999 1.87603 89.9999H31.8925C32.3901 89.9999 32.8672 89.8023 33.2191 89.4505C33.5709 89.0986 33.7685 88.6215 33.7685 88.1239V78.7438C33.7676 76.0539 32.8034 73.4533 31.0506 71.413C29.2978 69.3727 26.8723 68.0275 24.2133 67.621ZM20.4612 82.1623L17.7514 86.2312H16.0088L13.2906 82.1623L16.4173 71.2313H17.3345L20.4612 82.1623ZM16.8759 56.2314C17.9898 56.2297 19.0791 56.5586 20.0059 57.1764C20.9327 57.7942 21.6553 58.6731 22.0823 59.7019C22.5094 60.7306 22.6215 61.8629 22.4046 62.9554C22.1877 64.0479 21.6515 65.0515 20.8639 65.8391C20.0763 66.6267 19.0727 67.1629 17.9802 67.3798C16.8877 67.5967 15.7554 67.4846 14.7266 67.0576C13.6979 66.6306 12.819 65.9079 12.2012 64.9811C11.5834 64.0543 11.2545 62.965 11.2562 61.8512C11.2628 60.3643 11.8575 58.9404 12.9105 57.8906C13.9634 56.8408 15.389 56.2503 16.8759 56.2481V56.2314ZM3.75206 78.7438C3.75206 76.7535 4.54267 74.8448 5.94997 73.4375C7.35726 72.0302 9.26596 71.2396 11.2562 71.2396H12.5152C9.18004 83.0294 9.04664 82.5625 9.68865 83.5297L11.498 86.2395H3.75206V78.7438ZM29.9998 86.2479H22.2539L24.0632 83.5381C24.7302 82.5375 24.5552 82.8627 21.2367 71.248H22.504C24.4942 71.248 26.4029 72.0386 27.8102 73.4459C29.2175 74.8532 30.0081 76.7619 30.0081 78.7521L29.9998 86.2479Z" fill="#F6C900"/>
<path d="M80.4608 67.621C81.5496 66.2434 82.2282 64.5869 82.4191 62.8414C82.6099 61.0959 82.3052 59.332 81.5399 57.7516C80.7745 56.1713 79.5795 54.8385 78.0917 53.9059C76.6039 52.9734 74.8835 52.4788 73.1276 52.4788C71.3717 52.4788 69.6513 52.9734 68.1635 53.9059C66.6757 54.8385 65.4807 56.1713 64.7154 57.7516C63.9501 59.332 63.6454 61.0959 63.8362 62.8414C64.027 64.5869 64.7057 66.2434 65.7944 67.621C63.1413 68.0306 60.722 69.375 58.9729 71.4115C57.2239 73.448 56.2602 76.0426 56.2559 78.7271V88.1072C56.2559 88.6048 56.4535 89.082 56.8053 89.4338C57.1572 89.7856 57.6343 89.9833 58.1319 89.9833H88.1484C88.6459 89.9833 89.1231 89.7856 89.4749 89.4338C89.8267 89.082 90.0244 88.6048 90.0244 88.1072V78.7438C90.0214 76.0531 89.0554 73.4525 87.3012 71.4123C85.5471 69.3722 83.1206 68.0273 80.4608 67.621ZM76.7171 82.179L73.9989 86.2479H72.2563L69.5465 82.179L72.6315 71.248H73.557L76.7171 82.179ZM73.1318 56.2481C74.2453 56.2481 75.3337 56.5784 76.2595 57.1972C77.1852 57.8159 77.9065 58.6954 78.3323 59.7243C78.758 60.7532 78.869 61.8852 78.6511 62.9772C78.4333 64.0692 77.8964 65.072 77.1085 65.8588C76.3206 66.6455 75.317 67.1809 74.2247 67.3971C73.1324 67.6133 72.0005 67.5007 70.9722 67.0734C69.944 66.6462 69.0656 65.9235 68.4482 64.9969C67.8307 64.0703 67.5021 62.9813 67.5037 61.8678C67.5037 61.1291 67.6493 60.3977 67.9323 59.7153C68.2152 59.0329 68.6299 58.4131 69.1526 57.8911C69.6754 57.3692 70.2959 56.9554 70.9786 56.6735C71.6614 56.3915 72.3931 56.247 73.1318 56.2481ZM60.0079 78.7604C60.0079 76.7702 60.7985 74.8615 62.2058 73.4542C63.6131 72.0469 65.5218 71.2563 67.512 71.2563H68.7794C65.4442 83.0461 65.3025 82.5792 65.9528 83.5464L67.7622 86.2562H60.0079V78.7604ZM86.2557 86.2646H78.5097L80.3191 83.5547C80.9778 82.5542 80.811 82.8794 77.4925 71.2647H78.7515C80.7418 71.2647 82.6505 72.0553 84.0578 73.4626C85.4651 74.8699 86.2557 76.7786 86.2557 78.7688V86.2646Z" fill="#F6C900"/>
<path d="M58.1321 61.8679C58.3781 61.869 58.6219 61.8215 58.8494 61.7282C59.077 61.6348 59.2839 61.4974 59.4582 61.3239C59.6325 61.1503 59.7708 60.9441 59.8652 60.7169C59.9596 60.4898 60.0082 60.2462 60.0081 60.0003V43.1243C60.0081 42.6268 59.8105 42.1496 59.4587 41.7978C59.1068 41.4459 58.6297 41.2483 58.1321 41.2483H39.3802C38.8826 41.2483 38.4054 41.4459 38.0536 41.7978C37.7018 42.1496 37.5041 42.6268 37.5041 43.1243V48.7441H31.876C31.3785 48.7441 30.9013 48.9417 30.5495 49.2936C30.1977 49.6454 30 50.1226 30 50.6201V65.6283C30 66.1259 30.1977 66.6031 30.5495 66.9549C30.9013 67.3067 31.3785 67.5044 31.876 67.5044H33.7521V69.3721C33.7521 69.8696 33.9497 70.3468 34.3015 70.6986C34.6534 71.0504 35.1305 71.2481 35.6281 71.2481C36.2368 71.2481 35.9116 71.3231 43.5741 67.496H50.628C51.1256 67.496 51.6027 67.2984 51.9545 66.9466C52.3064 66.5947 52.504 66.1176 52.504 65.62V61.8679H58.1321ZM41.2562 44.992H56.2644V58.1242H52.5124V50.6201C52.5124 50.1226 52.3147 49.6454 51.9629 49.2936C51.6111 48.9417 51.1339 48.7441 50.6363 48.7441H41.2562V44.992ZM48.7603 63.744C41.1144 63.744 43.9493 63.1186 37.5125 66.3371V65.62C37.5125 65.1225 37.3148 64.6453 36.963 64.2935C36.6112 63.9416 36.134 63.744 35.6364 63.744H33.7521V52.4961H48.7603V63.744Z" fill="#F6C900"/>
<path d="M43.1325 56.2482H39.3804C38.8829 56.2482 38.4057 56.4458 38.0539 56.7976C37.702 57.1495 37.5044 57.6266 37.5044 58.1242C37.5044 58.6218 37.702 59.0989 38.0539 59.4508C38.4057 59.8026 38.8829 60.0002 39.3804 60.0002H43.1325C43.63 60.0002 44.1072 59.8026 44.459 59.4508C44.8109 59.0989 45.0085 58.6218 45.0085 58.1242C45.0085 57.6266 44.8109 57.1495 44.459 56.7976C44.1072 56.4458 43.63 56.2482 43.1325 56.2482Z" fill="#F6C900"/>
<path d="M50.3445 80.2112C46.8055 80.7615 43.2027 80.7615 39.6636 80.2112C39.42 80.174 39.1714 80.1851 38.9321 80.244C38.6928 80.3028 38.4674 80.4082 38.2688 80.5542C38.0702 80.7001 37.9023 80.8837 37.7747 81.0946C37.647 81.3054 37.5622 81.5393 37.525 81.7829C37.4877 82.0266 37.4988 82.2751 37.5577 82.5145C37.6165 82.7538 37.7219 82.9792 37.8679 83.1778C38.1626 83.5789 38.6046 83.8464 39.0966 83.9216C43.012 84.5219 46.9961 84.5219 50.9115 83.9216C51.4035 83.8464 51.8455 83.5789 52.1403 83.1778C52.435 82.7767 52.5584 82.275 52.4832 81.7829C52.408 81.2909 52.1404 80.8489 51.7393 80.5542C51.3383 80.2594 50.8365 80.1361 50.3445 80.2112Z" fill="#F6C900"/>
<path d="M9.69681 49.6695C8.67452 41.9955 10.1827 34.1974 13.9925 27.4579C17.8024 20.7184 23.7061 15.4052 30.8084 12.324C31.235 12.1077 31.5628 11.7367 31.7249 11.2867C31.887 10.8368 31.8711 10.3419 31.6806 9.90325C31.49 9.4646 31.1391 9.1153 30.6996 8.92674C30.2601 8.73818 29.7651 8.7246 29.3159 8.88878C21.458 12.2907 14.9256 18.1652 10.7116 25.6193C6.49773 33.0734 4.83275 41.6995 5.96977 50.1865C6.03832 50.6807 6.3004 51.1275 6.69835 51.4285C7.0963 51.7295 7.59753 51.8601 8.09176 51.7915C8.586 51.723 9.03276 51.4609 9.33377 51.0629C9.63477 50.665 9.76536 50.1637 9.69681 49.6695Z" fill="#F6C900"/>
<path d="M59.199 12.3241C66.3013 15.4053 72.205 20.7185 76.0149 27.458C79.8247 34.1975 81.3329 41.9956 80.3106 49.6696C80.271 50.1474 80.4159 50.6222 80.7155 50.9965C81.015 51.3708 81.4465 51.6163 81.9213 51.6824C82.3962 51.7486 82.8783 51.6304 83.2688 51.3522C83.6593 51.0741 83.9284 50.6569 84.021 50.1865C85.1608 41.6993 83.497 33.072 79.2828 25.6173C75.0685 18.1626 68.5345 12.2886 60.6748 8.88886C60.2286 8.74015 59.7429 8.76444 59.3138 8.95692C58.8847 9.14939 58.5435 9.49601 58.3579 9.92812C58.1723 10.3602 58.1557 10.8463 58.3115 11.29C58.4672 11.7338 58.784 12.1028 59.199 12.3241Z" fill="#F6C900"/>
</g>
<defs>
<filter id="filter0_d" x="0" y="0" width="94.5244" height="94.4999" filterUnits="userSpaceOnUse" color-interpolation-filters="sRGB">
<feFlood flood-opacity="0" result="BackgroundImageFix"/>
<feColorMatrix in="SourceAlpha" type="matrix" values="0 0 0 0 0 0 0 0 0 0 0 0 0 0 0 0 0 0 127 0" result="hardAlpha"/>
<feOffset dx="4" dy="4"/>
<feGaussianBlur stdDeviation="0.25"/>
<feColorMatrix type="matrix" values="0 0 0 0 0 0 0 0 0 0 0 0 0 0 0 0 0 0 0.1 0"/>
<feBlend mode="normal" in2="BackgroundImageFix" result="effect1_dropShadow"/>
<feBlend mode="normal" in="SourceGraphic" in2="effect1_dropShadow" result="shape"/>
</filter>
</defs>
</svg>
