<svg width="95" height="95" viewBox="0 0 95 95" fill="none" xmlns="http://www.w3.org/2000/svg">
<g filter="url(#filter0_d)">
<path d="M84.3724 0H5.62761C4.13575 0.00220526 2.70563 0.59582 1.65072 1.65072C0.59582 2.70563 0.00220526 4.13575 0 5.62761V84.3724C0.00220526 85.8643 0.59582 87.2944 1.65072 88.3493C2.70563 89.4042 4.13575 89.9978 5.62761 90H84.3724C85.8643 89.9978 87.2944 89.4042 88.3493 88.3493C89.4042 87.2944 89.9978 85.8643 90 84.3724V5.62761C89.9978 4.13575 89.4042 2.70563 88.3493 1.65072C87.2944 0.59582 85.8643 0.00220526 84.3724 0ZM3.75174 5.62761C3.75174 5.13009 3.94937 4.65296 4.30117 4.30117C4.65296 3.94937 5.13009 3.75174 5.62761 3.75174H84.3724C84.8699 3.75174 85.347 3.94937 85.6988 4.30117C86.0506 4.65296 86.2483 5.13009 86.2483 5.62761V14.9986H3.75174V5.62761ZM86.2899 84.3724C86.2899 84.8699 86.0923 85.347 85.7405 85.6988C85.3887 86.0506 84.9116 86.2483 84.4141 86.2483H5.62761C5.13009 86.2483 4.65296 86.0506 4.30117 85.6988C3.94937 85.347 3.75174 84.8699 3.75174 84.3724V18.7503H86.2899V84.3724Z" fill="#F6C900"/>
<path d="M9.37934 7.50342C8.88183 7.50342 8.40469 7.70105 8.0529 8.05285C7.70111 8.40464 7.50347 8.88177 7.50347 9.37929C7.50347 9.8768 7.70111 10.3539 8.0529 10.7057C8.40469 11.0575 8.88183 11.2552 9.37934 11.2552C9.87685 11.2552 10.354 11.0575 10.7058 10.7057C11.0576 10.3539 11.2552 9.8768 11.2552 9.37929C11.2552 8.88177 11.0576 8.40464 10.7058 8.05285C10.354 7.70105 9.87685 7.50342 9.37934 7.50342Z" fill="#F6C900"/>
<path d="M16.8747 7.50342C16.3772 7.50342 15.9 7.70105 15.5482 8.05285C15.1964 8.40464 14.9988 8.88177 14.9988 9.37929C14.9988 9.8768 15.1964 10.3539 15.5482 10.7057C15.9 11.0575 16.3772 11.2552 16.8747 11.2552C17.3722 11.2552 17.8493 11.0575 18.2011 10.7057C18.5529 10.3539 18.7505 9.8768 18.7505 9.37929C18.7505 8.88177 18.5529 8.40464 18.2011 8.05285C17.8493 7.70105 17.3722 7.50342 16.8747 7.50342Z" fill="#F6C900"/>
<path d="M24.3781 7.50342C23.8806 7.50342 23.4035 7.70105 23.0517 8.05285C22.6999 8.40464 22.5023 8.88177 22.5023 9.37929C22.5023 9.8768 22.6999 10.3539 23.0517 10.7057C23.4035 11.0575 23.8806 11.2552 24.3781 11.2552C24.8757 11.2552 25.3528 11.0575 25.7046 10.7057C26.0564 10.3539 26.254 9.8768 26.254 9.37929C26.254 8.88177 26.0564 8.40464 25.7046 8.05285C25.3528 7.70105 24.8757 7.50342 24.3781 7.50342Z" fill="#F6C900"/>
<path d="M9.37936 48.7475H43.1283C43.3743 48.7475 43.6178 48.699 43.8449 48.6046C44.072 48.5102 44.2783 48.3719 44.4518 48.1976C44.6253 48.0233 44.7627 47.8164 44.8561 47.5889C44.9495 47.3614 44.9969 47.1176 44.9958 46.8717V24.3612C44.9969 24.1153 44.9495 23.8715 44.8561 23.644C44.7627 23.4165 44.6253 23.2096 44.4518 23.0353C44.2783 22.861 44.072 22.7227 43.8449 22.6283C43.6178 22.5339 43.3743 22.4854 43.1283 22.4854H9.37936C9.13271 22.4843 8.88828 22.532 8.66019 22.6259C8.4321 22.7198 8.22487 22.8579 8.05046 23.0323C7.87605 23.2068 7.73791 23.414 7.64403 23.6421C7.55015 23.8702 7.50239 24.1146 7.50349 24.3612V46.8717C7.50239 47.1183 7.55015 47.3627 7.64403 47.5908C7.73791 47.8189 7.87605 48.0262 8.05046 48.2006C8.22487 48.375 8.4321 48.5131 8.66019 48.607C8.88828 48.7009 9.13271 48.7486 9.37936 48.7475ZM11.2552 26.2371H41.2691V44.9958H11.2552V26.2371Z" fill="#F6C900"/>
<path d="M31.0394 34.0658C25.245 30.1973 24.8032 29.5137 23.5359 30.2223C22.2687 30.931 22.5438 31.6397 22.5438 39.3932C22.5438 39.8908 22.7414 40.3679 23.0932 40.7197C23.445 41.0715 23.9221 41.2691 24.4196 41.2691C25.1867 41.2691 24.9282 41.2691 31.0894 37.2006C31.3465 37.0257 31.556 36.7897 31.6992 36.5137C31.8424 36.2378 31.9148 35.9305 31.9098 35.6197C31.9049 35.3088 31.8227 35.0041 31.6708 34.7328C31.5189 34.4616 31.3019 34.2324 31.0394 34.0658ZM26.2538 35.8749C26.2538 35.233 26.1538 35.308 26.6207 35.6248L26.2538 35.8749Z" fill="#F6C900"/>
<path d="M50.6232 26.2538H80.6371C81.1346 26.2538 81.6117 26.0562 81.9635 25.7044C82.3153 25.3526 82.513 24.8755 82.513 24.3779C82.513 23.8804 82.3153 23.4033 81.9635 23.0515C81.6117 22.6997 81.1346 22.5021 80.6371 22.5021H50.6232C50.1257 22.5021 49.6486 22.6997 49.2968 23.0515C48.945 23.4033 48.7473 23.8804 48.7473 24.3779C48.7473 24.8755 48.945 25.3526 49.2968 25.7044C49.6486 26.0562 50.1257 26.2538 50.6232 26.2538Z" fill="#F6C900"/>
<path d="M50.6232 33.7489H80.6371C81.1346 33.7489 81.6117 33.5513 81.9635 33.1995C82.3153 32.8477 82.513 32.3706 82.513 31.8731C82.513 31.3755 82.3153 30.8984 81.9635 30.5466C81.6117 30.1948 81.1346 29.9972 80.6371 29.9972H50.6232C50.1257 29.9972 49.6486 30.1948 49.2968 30.5466C48.945 30.8984 48.7473 31.3755 48.7473 31.8731C48.7473 32.3706 48.945 32.8477 49.2968 33.1995C49.6486 33.5513 50.1257 33.7489 50.6232 33.7489Z" fill="#F6C900"/>
<path d="M50.6232 41.2525H80.6371C81.1346 41.2525 81.6117 41.0548 81.9635 40.703C82.3153 40.3512 82.513 39.8741 82.513 39.3766C82.513 38.8791 82.3153 38.402 81.9635 38.0502C81.6117 37.6984 81.1346 37.5007 80.6371 37.5007H50.6232C50.1257 37.5007 49.6486 37.6984 49.2968 38.0502C48.945 38.402 48.7473 38.8791 48.7473 39.3766C48.7473 39.8741 48.945 40.3512 49.2968 40.703C49.6486 41.0548 50.1257 41.2525 50.6232 41.2525Z" fill="#F6C900"/>
<path d="M50.6232 48.7476H80.6371C81.1346 48.7476 81.6117 48.5499 81.9635 48.1982C82.3153 47.8464 82.513 47.3692 82.513 46.8717C82.513 46.3742 82.3153 45.8971 81.9635 45.5453C81.6117 45.1935 81.1346 44.9958 80.6371 44.9958H50.6232C50.1257 44.9958 49.6486 45.1935 49.2968 45.5453C48.945 45.8971 48.7473 46.3742 48.7473 46.8717C48.7473 47.3692 48.945 47.8464 49.2968 48.1982C49.6486 48.5499 50.1257 48.7476 50.6232 48.7476Z" fill="#F6C900"/>
<path d="M9.37934 60.0027H43.1283C43.6258 60.0027 44.1029 59.8051 44.4547 59.4533C44.8065 59.1015 45.0042 58.6244 45.0042 58.1268C45.0042 57.6293 44.8065 57.1522 44.4547 56.8004C44.1029 56.4486 43.6258 56.251 43.1283 56.251H9.37934C8.88183 56.251 8.40469 56.4486 8.0529 56.8004C7.70111 57.1522 7.50347 57.6293 7.50347 58.1268C7.50347 58.6244 7.70111 59.1015 8.0529 59.4533C8.40469 59.8051 8.88183 60.0027 9.37934 60.0027Z" fill="#F6C900"/>
<path d="M9.37934 67.4978H43.1283C43.6258 67.4978 44.1029 67.3002 44.4547 66.9484C44.8065 66.5966 45.0042 66.1195 45.0042 65.622C45.0042 65.1245 44.8065 64.6473 44.4547 64.2955C44.1029 63.9437 43.6258 63.7461 43.1283 63.7461H9.37934C8.88183 63.7461 8.40469 63.9437 8.0529 64.2955C7.70111 64.6473 7.50347 65.1245 7.50347 65.622C7.50347 66.1195 7.70111 66.5966 8.0529 66.9484C8.40469 67.3002 8.88183 67.4978 9.37934 67.4978Z" fill="#F6C900"/>
<path d="M9.37934 75.0014H43.1283C43.6258 75.0014 44.1029 74.8037 44.4547 74.4519C44.8065 74.1001 45.0042 73.623 45.0042 73.1255C45.0042 72.628 44.8065 72.1509 44.4547 71.7991C44.1029 71.4473 43.6258 71.2496 43.1283 71.2496H9.37934C8.88183 71.2496 8.40469 71.4473 8.0529 71.7991C7.70111 72.1509 7.50347 72.628 7.50347 73.1255C7.50347 73.623 7.70111 74.1001 8.0529 74.4519C8.40469 74.8037 8.88183 75.0014 9.37934 75.0014Z" fill="#F6C900"/>
<path d="M9.37934 82.4965H43.1283C43.6258 82.4965 44.1029 82.2989 44.4547 81.9471C44.8065 81.5953 45.0042 81.1181 45.0042 80.6206C45.0042 80.1231 44.8065 79.646 44.4547 79.2942C44.1029 78.9424 43.6258 78.7448 43.1283 78.7448H9.37934C8.88183 78.7448 8.40469 78.9424 8.0529 79.2942C7.70111 79.646 7.50347 80.1231 7.50347 80.6206C7.50347 81.1181 7.70111 81.5953 8.0529 81.9471C8.40469 82.2989 8.88183 82.4965 9.37934 82.4965Z" fill="#F6C900"/>
<path d="M49.9063 82.3548C50.4232 82.5632 48.4473 82.4965 80.6206 82.4965C81.1181 82.4965 81.5952 82.2989 81.947 81.9471C82.2988 81.5953 82.4964 81.1182 82.4964 80.6207V58.1102C82.4964 57.6127 82.2988 57.1356 81.947 56.7838C81.5952 56.432 81.1181 56.2344 80.6206 56.2344H50.6067C50.1092 56.2344 49.632 56.432 49.2802 56.7838C48.9284 57.1356 48.7308 57.6127 48.7308 58.1102C48.7475 81.9129 48.2889 81.6795 49.9063 82.3548ZM55.1171 78.7448L59.9693 73.9009L62.3871 76.327C62.7399 76.6763 63.2163 76.8722 63.7127 76.8722C64.2092 76.8722 64.6856 76.6763 65.0383 76.327L73.2672 68.0982L78.7113 72.1834V78.7448H55.1171ZM78.7113 60.0028V67.5063L74.2926 64.1214C73.9286 63.8358 73.4718 63.6949 73.0101 63.7256C72.5484 63.7564 72.1144 63.9567 71.7915 64.2881L63.7377 72.3418L61.32 69.9157C60.9682 69.5644 60.4915 69.3671 59.9943 69.3671C59.4972 69.3671 59.0205 69.5644 58.6687 69.9157L52.4909 76.0852V60.0028H78.7113Z" fill="#F6C900"/>
</g>
<defs>
<filter id="filter0_d" x="0" y="0" width="94.5" height="94.5" filterUnits="userSpaceOnUse" color-interpolation-filters="sRGB">
<feFlood flood-opacity="0" result="BackgroundImageFix"/>
<feColorMatrix in="SourceAlpha" type="matrix" values="0 0 0 0 0 0 0 0 0 0 0 0 0 0 0 0 0 0 127 0" result="hardAlpha"/>
<feOffset dx="4" dy="4"/>
<feGaussianBlur stdDeviation="0.25"/>
<feColorMatrix type="matrix" values="0 0 0 0 0 0 0 0 0 0 0 0 0 0 0 0 0 0 0.1 0"/>
<feBlend mode="normal" in2="BackgroundImageFix" result="effect1_dropShadow"/>
<feBlend mode="normal" in="SourceGraphic" in2="effect1_dropShadow" result="shape"/>
</filter>
</defs>
</svg>
