<svg width="88" height="95" viewBox="0 0 88 95" fill="none" xmlns="http://www.w3.org/2000/svg">
<g filter="url(#filter0_d)">
<path d="M69.3841 48.8764V37.4972C69.2978 34.0733 67.877 30.8186 65.4249 28.4275C62.9727 26.0364 59.6833 24.6981 56.2584 24.6981C52.8334 24.6981 49.544 26.0364 47.0918 28.4275C44.6397 30.8186 43.219 34.0733 43.1327 37.4972V58.1215C43.1327 61.1062 41.947 63.9688 39.8364 66.0794C37.7258 68.1899 34.8633 69.3756 31.8785 69.3756C28.8937 69.3756 26.0312 68.1899 23.9206 66.0794C21.81 63.9688 20.6243 61.1062 20.6243 58.1215V52.4027C25.4101 51.9215 29.8278 49.6194 32.9639 45.9725C36.1001 42.3256 37.7146 37.6129 37.4737 32.8091C37.2328 28.0053 35.1549 23.4777 31.6696 20.1629C28.1844 16.8481 23.5585 14.9995 18.7486 14.9995C13.9388 14.9995 9.31285 16.8481 5.82762 20.1629C2.34239 23.4777 0.264453 28.0053 0.0235503 32.8091C-0.217353 37.6129 1.39721 42.3256 4.53332 45.9725C7.66943 49.6194 12.0872 51.9215 16.8729 52.4027V58.1215C16.8729 62.1012 18.4539 65.9179 21.268 68.732C24.0821 71.5461 27.8988 73.127 31.8785 73.127C35.8582 73.127 39.6749 71.5461 42.489 68.732C45.3031 65.9179 46.8841 62.1012 46.8841 58.1215V37.4972C46.9568 35.0593 47.9763 32.7457 49.7264 31.047C51.4765 29.3484 53.8195 28.3983 56.2584 28.3983C58.6973 28.3983 61.0403 29.3484 62.7904 31.047C64.5404 32.7457 65.56 35.0593 65.6327 37.4972V48.8764C62.0121 49.3346 58.6826 51.0965 56.2673 53.8325C53.8521 56.5684 52.5167 60.0907 52.5111 63.7402V74.9944C52.5111 78.9741 54.0921 82.7908 56.9062 85.6049C59.7203 88.419 63.537 89.9999 67.5167 89.9999C71.4964 89.9999 75.3131 88.419 78.1272 85.6049C80.9413 82.7908 82.5223 78.9741 82.5223 74.9944V63.7402C82.5162 60.0882 81.1784 56.5638 78.7598 53.8275C76.3412 51.0912 73.0077 49.3308 69.3841 48.8764ZM3.76808 33.7458C3.76808 30.7779 4.64814 27.8768 6.29698 25.4091C7.94581 22.9415 10.2894 21.0182 13.0313 19.8824C15.7732 18.7467 18.7903 18.4495 21.7011 19.0285C24.6119 19.6075 27.2856 21.0367 29.3842 23.1352C31.4827 25.2338 32.9119 27.9075 33.4909 30.8183C34.0699 33.7291 33.7727 36.7462 32.637 39.4881C31.5012 42.23 29.5779 44.5736 27.1103 46.2224C24.6426 47.8713 21.7415 48.7513 18.7736 48.7513C14.7939 48.7513 10.9772 47.1704 8.16311 44.3563C5.34902 41.5422 3.76808 37.7255 3.76808 33.7458ZM78.7959 74.9944C78.7959 77.9792 77.6102 80.8417 75.4996 82.9523C73.389 85.0628 70.5265 86.2485 67.5417 86.2485C64.5569 86.2485 61.6944 85.0628 59.5838 82.9523C57.4732 80.8417 56.2875 77.9792 56.2875 74.9944V63.7402C56.2875 60.7554 57.4732 57.8929 59.5838 55.7823C61.6944 53.6717 64.5569 52.486 67.5417 52.486C70.5265 52.486 73.389 53.6717 75.4996 55.7823C77.6102 57.8929 78.7959 60.7554 78.7959 63.7402V74.9944Z" fill="#F6C900"/>
<path d="M20.6408 42.7741C26.6097 40.6483 25.0174 31.8701 18.7651 31.8701C18.3938 31.8701 18.0308 31.7599 17.7221 31.5534C17.4135 31.3469 17.1731 31.0535 17.0314 30.7102C16.8897 30.367 16.853 29.9895 16.9261 29.6254C16.9991 29.2613 17.1786 28.9271 17.4417 28.6651C17.7049 28.4031 18.0399 28.2252 18.4043 28.1537C18.7687 28.0823 19.1461 28.1206 19.4887 28.2639C19.8313 28.4071 20.1236 28.6488 20.3287 28.9584C20.5338 29.2679 20.6424 29.6314 20.6408 30.0027C20.6725 30.4775 20.8834 30.9225 21.2309 31.2475C21.5784 31.5726 22.0365 31.7534 22.5123 31.7534C22.9881 31.7534 23.4462 31.5726 23.7937 31.2475C24.1412 30.9225 24.3521 30.4775 24.3838 30.0027C24.3815 28.8432 24.0206 27.7128 23.3504 26.7665C22.6803 25.8203 21.7338 25.1045 20.6408 24.7174C20.6408 21.708 16.8894 21.7663 16.8894 24.7174C10.9205 26.8516 12.5128 35.6215 18.7651 35.6215C19.1361 35.6215 19.4987 35.7315 19.8072 35.9376C20.1156 36.1437 20.356 36.4366 20.498 36.7794C20.64 37.1221 20.6771 37.4992 20.6047 37.8631C20.5324 38.2269 20.3537 38.5612 20.0914 38.8235C19.8291 39.0858 19.4949 39.2645 19.131 39.3368C18.7672 39.4092 18.39 39.3721 18.0473 39.2301C17.7045 39.0881 17.4116 38.8477 17.2055 38.5392C16.9994 38.2308 16.8894 37.8681 16.8894 37.4972C16.8894 36.9997 16.6918 36.5226 16.34 36.1709C15.9883 35.8191 15.5112 35.6215 15.0137 35.6215C14.5162 35.6215 14.0391 35.8191 13.6874 36.1709C13.3356 36.5226 13.138 36.9997 13.138 37.4972C13.1414 38.6566 13.5039 39.7864 14.1757 40.7314C14.8475 41.6763 15.7955 42.39 16.8894 42.7741C16.8894 45.7419 20.6408 45.7586 20.6408 42.7741Z" fill="#F6C900"/>
<path d="M20.6408 7.50278V1.87569C20.6408 1.37823 20.4432 0.901139 20.0914 0.549378C19.7397 0.197617 19.2626 0 18.7651 0C18.2676 0 17.7905 0.197617 17.4388 0.549378C17.087 0.901139 16.8894 1.37823 16.8894 1.87569V7.50278C16.8894 8.00024 17.087 8.47733 17.4388 8.8291C17.7905 9.18086 18.2676 9.37847 18.7651 9.37847C19.2626 9.37847 19.7397 9.18086 20.0914 8.8291C20.4432 8.47733 20.6408 8.00024 20.6408 7.50278Z" fill="#F6C900"/>
<path d="M9.48715 12.1211C9.84271 12.4524 10.313 12.6328 10.7989 12.6242C11.2849 12.6156 11.7485 12.4188 12.0922 12.0751C12.4358 11.7315 12.6327 11.2678 12.6413 10.7819C12.6498 10.296 12.4694 9.82568 12.1381 9.47012L8.16165 5.49364C7.80133 5.19291 7.34136 5.03819 6.87253 5.06001C6.40371 5.08184 5.9601 5.27864 5.62928 5.61155C5.29846 5.94447 5.10446 6.38931 5.08559 6.85826C5.06672 7.32722 5.22434 7.7862 5.52735 8.14462L9.48715 12.1211Z" fill="#F6C900"/>
<path d="M26.718 12.6713C27.7518 12.6713 27.7601 12.4045 32.02 8.14463C32.3513 7.78906 32.5317 7.31877 32.5231 6.83284C32.5146 6.34691 32.3177 5.88327 31.974 5.53961C31.6304 5.19595 31.1667 4.9991 30.6808 4.99053C30.1949 4.98195 29.7246 5.16233 29.369 5.49365L25.3926 9.47012C25.1306 9.73244 24.9522 10.0665 24.8799 10.4301C24.8077 10.7938 24.8449 11.1707 24.9867 11.5132C25.1285 11.8557 25.3687 12.1485 25.6768 12.3547C25.985 12.5608 26.3473 12.671 26.718 12.6713Z" fill="#F6C900"/>
<path d="M65.633 59.9972V63.7402C65.633 64.2377 65.8306 64.7148 66.1824 65.0665C66.5342 65.4183 67.0113 65.6159 67.5087 65.6159C68.0062 65.6159 68.4833 65.4183 68.835 65.0665C69.1868 64.7148 69.3844 64.2377 69.3844 63.7402V59.9972C69.3844 59.4997 69.1868 59.0226 68.835 58.6708C68.4833 58.3191 68.0062 58.1215 67.5087 58.1215C67.0113 58.1215 66.5342 58.3191 66.1824 58.6708C65.8306 59.0226 65.633 59.4997 65.633 59.9972Z" fill="#F6C900"/>
</g>
<defs>
<filter id="filter0_d" x="0" y="0" width="87.0223" height="94.4999" filterUnits="userSpaceOnUse" color-interpolation-filters="sRGB">
<feFlood flood-opacity="0" result="BackgroundImageFix"/>
<feColorMatrix in="SourceAlpha" type="matrix" values="0 0 0 0 0 0 0 0 0 0 0 0 0 0 0 0 0 0 127 0" result="hardAlpha"/>
<feOffset dx="4" dy="4"/>
<feGaussianBlur stdDeviation="0.25"/>
<feColorMatrix type="matrix" values="0 0 0 0 0 0 0 0 0 0 0 0 0 0 0 0 0 0 0.1 0"/>
<feBlend mode="normal" in2="BackgroundImageFix" result="effect1_dropShadow"/>
<feBlend mode="normal" in="SourceGraphic" in2="effect1_dropShadow" result="shape"/>
</filter>
</defs>
</svg>
