<svg width="95" height="95" viewBox="0 0 95 95" fill="none" xmlns="http://www.w3.org/2000/svg">
<g filter="url(#filter0_d)">
<path d="M11.2576 46.8818H30.0037C30.5013 46.8818 30.9785 46.6842 31.3304 46.3323C31.6823 45.9804 31.88 45.5032 31.88 45.0056V26.2512C31.88 25.7535 31.6823 25.2763 31.3304 24.9244C30.9785 24.5726 30.5013 24.3749 30.0037 24.3749H11.2576C10.76 24.3749 10.2828 24.5726 9.9309 24.9244C9.57903 25.2763 9.38135 25.7535 9.38135 26.2512V45.0056C9.38135 45.5032 9.57903 45.9804 9.9309 46.3323C10.2828 46.6842 10.76 46.8818 11.2576 46.8818ZM13.1256 28.1274H28.1358V43.1376H13.1256V28.1274Z" fill="#F6C900"/>
<path d="M78.7622 28.1274H39.3855C38.8879 28.1274 38.4106 28.3251 38.0588 28.677C37.7069 29.0289 37.5092 29.5061 37.5092 30.0037C37.5092 30.5013 37.7069 30.9786 38.0588 31.3304C38.4106 31.6823 38.8879 31.88 39.3855 31.88H78.7622C79.2598 31.88 79.7371 31.6823 80.089 31.3304C80.4408 30.9786 80.6385 30.5013 80.6385 30.0037C80.6385 29.5061 80.4408 29.0289 80.089 28.677C79.7371 28.3251 79.2598 28.1274 78.7622 28.1274Z" fill="#F6C900"/>
<path d="M78.7618 37.5088H39.385C38.9101 37.5405 38.465 37.7515 38.1399 38.0991C37.8147 38.4467 37.6338 38.9049 37.6338 39.3809C37.6338 39.8569 37.8147 40.3151 38.1399 40.6627C38.465 41.0103 38.9101 41.2213 39.385 41.253H78.7618C79.2367 41.2213 79.6818 41.0103 80.007 40.6627C80.3321 40.3151 80.5131 39.8569 80.5131 39.3809C80.5131 38.9049 80.3321 38.4467 80.007 38.0991C79.6818 37.7515 79.2367 37.5405 78.7618 37.5088Z" fill="#F6C900"/>
<path d="M35.6329 52.5106H11.258C10.7831 52.5423 10.338 52.7534 10.0128 53.101C9.68767 53.4486 9.50677 53.9067 9.50677 54.3827C9.50677 54.8587 9.68767 55.3169 10.0128 55.6645C10.338 56.0121 10.7831 56.2231 11.258 56.2548H35.6329C36.1078 56.2231 36.553 56.0121 36.8781 55.6645C37.2033 55.3169 37.3842 54.8587 37.3842 54.3827C37.3842 53.9067 37.2033 53.4486 36.8781 53.101C36.553 52.7534 36.1078 52.5423 35.6329 52.5106Z" fill="#F6C900"/>
<path d="M30.0037 61.8837H11.2576C10.76 61.8837 10.2828 62.0813 9.9309 62.4332C9.57903 62.7851 9.38135 63.2623 9.38135 63.7599C9.38135 64.2576 9.57903 64.7348 9.9309 65.0867C10.2828 65.4385 10.76 65.6362 11.2576 65.6362H30.0037C30.5013 65.6362 30.9785 65.4385 31.3304 65.0867C31.6823 64.7348 31.88 64.2576 31.88 63.7599C31.88 63.2623 31.6823 62.7851 31.3304 62.4332C30.9785 62.0813 30.5013 61.8837 30.0037 61.8837Z" fill="#F6C900"/>
<path d="M84.3906 0H5.62882C4.13741 -1.63666e-06 2.70696 0.591889 1.65159 1.64569C0.59622 2.6995 0.0022095 4.12907 0 5.62048V69.3888C0.0022095 70.8802 0.59622 72.3098 1.65159 73.3636C2.70696 74.4174 4.13741 75.0093 5.62882 75.0093H45.0473C47.7028 78.5706 51.5421 81.0674 55.8744 82.0503C60.2067 83.0333 64.7475 82.4379 68.68 80.3712L76.6604 88.3517C77.712 89.4055 79.1392 89.9984 80.628 90C81.3652 90.0008 82.0953 89.8563 82.7767 89.575C83.458 89.2936 84.0773 88.8807 84.5991 88.36C85.1209 87.8393 85.5351 87.2209 85.8179 86.5401C86.1007 85.8594 86.2467 85.1295 86.2475 84.3924C86.2482 83.6552 86.1038 82.9251 85.8224 82.2437C85.541 81.5624 85.1282 80.9431 84.6075 80.4213L79.2038 75.0093H84.3906C85.882 75.0093 87.3125 74.4174 88.3679 73.3636C89.4232 72.3098 90.0173 70.8802 90.0195 69.3888V5.62048C90.0173 4.12907 89.4232 2.6995 88.3679 1.64569C87.3125 0.591889 85.882 -1.63666e-06 84.3906 0ZM5.62882 3.75255H84.3906C84.6366 3.75145 84.8804 3.79896 85.108 3.89234C85.3356 3.98572 85.5425 4.12313 85.7169 4.2967C85.8912 4.47026 86.0295 4.67655 86.1239 4.90372C86.2183 5.1309 86.2669 5.37448 86.2669 5.62048V9.37303H33.7312C32.4304 9.37303 32.3386 9.9651 28.978 15.0019H3.75255V5.62048C3.75255 5.37448 3.80114 5.1309 3.89553 4.90372C3.98992 4.67655 4.12826 4.47026 4.3026 4.2967C4.47694 4.12313 4.68384 3.98572 4.91143 3.89234C5.13903 3.79896 5.38282 3.75145 5.62882 3.75255ZM45.0056 63.7933C45.0056 60.8246 45.8859 57.9225 47.5352 55.4541C49.1846 52.9857 51.5288 51.0618 54.2716 49.9257C57.0144 48.7896 60.0324 48.4924 62.9441 49.0715C65.8558 49.6507 68.5303 51.0803 70.6296 53.1795C72.7288 55.2787 74.1584 57.9533 74.7375 60.865C75.3167 63.7767 75.0194 66.7947 73.8834 69.5375C72.7473 72.2802 70.8234 74.6245 68.355 76.2738C65.8866 77.9232 62.9845 78.8035 60.0158 78.8035C58.0418 78.8035 56.0872 78.4142 54.2639 77.6577C52.4406 76.9013 50.7844 75.7927 49.3901 74.3953C47.9959 72.998 46.8909 71.3393 46.1386 69.5144C45.3862 67.6894 45.0012 65.7339 45.0056 63.76V63.7933ZM82.531 84.424C82.5275 84.7924 82.4155 85.1517 82.2091 85.4569C82.0027 85.7621 81.711 85.9998 81.3704 86.1403C81.0298 86.2808 80.6553 86.3179 80.2938 86.247C79.9322 86.1761 79.5995 86.0003 79.3372 85.7416L71.8988 78.2948C72.8626 77.5062 73.7453 76.6235 74.5339 75.6597C82.3976 83.4817 82.5144 83.3399 82.5144 84.3906L82.531 84.424ZM84.4073 71.2901H77.1857C78.434 68.4371 78.9519 65.3181 78.6925 62.2148C78.4332 59.1115 77.4048 56.1217 75.7004 53.5154C73.9959 50.9092 71.669 48.7687 68.9299 47.2871C66.1908 45.8056 63.1257 45.0298 60.0116 45.0298C56.8975 45.0298 53.8324 45.8056 51.0933 47.2871C48.3542 48.7687 46.0273 50.9092 44.3228 53.5154C42.6183 56.1217 41.59 59.1115 41.3306 62.2148C41.0713 65.3181 41.5892 68.4371 42.8374 71.2901H5.62882C5.38282 71.2912 5.13903 71.2437 4.91143 71.1503C4.68384 71.0569 4.47694 70.9195 4.3026 70.7459C4.12826 70.5724 3.98992 70.3661 3.89553 70.1389C3.80114 69.9117 3.75255 69.6681 3.75255 69.4221V18.7544C31.9717 18.7544 30.7709 19.1046 31.5631 17.9205L34.7569 13.1256H86.2669V69.3888C86.2669 69.6348 86.2183 69.8784 86.1239 70.1055C86.0295 70.3327 85.8912 70.539 85.7169 70.7126C85.5425 70.8861 85.3356 71.0236 85.108 71.1169C84.8804 71.2103 84.6366 71.2578 84.3906 71.2567L84.4073 71.2901Z" fill="#F6C900"/>
<path d="M8.04723 10.7073C8.40673 11.0248 8.87376 11.1934 9.35318 11.1785C9.8326 11.1637 10.2883 10.9666 10.6275 10.6274C10.9666 10.2883 11.1637 9.83254 11.1786 9.35312C11.1934 8.8737 11.0249 8.40667 10.7074 8.04717C10.3479 7.72964 9.88084 7.56113 9.40142 7.57598C8.92201 7.59082 8.46629 7.7879 8.12713 8.12706C7.78796 8.46623 7.59088 8.92194 7.57604 9.40136C7.56119 9.88078 7.7297 10.3478 8.04723 10.7073Z" fill="#F6C900"/>
<path d="M15.1519 10.0985C15.2877 10.4279 15.5145 10.7118 15.8058 10.9171C16.097 11.1223 16.4407 11.2404 16.7966 11.2575C17.1525 11.2745 17.506 11.1899 17.8155 11.0135C18.1251 10.8371 18.3781 10.5762 18.5448 10.2612C18.7115 9.94633 18.7851 9.59046 18.757 9.23525C18.7288 8.88004 18.6001 8.54019 18.3859 8.25544C18.1717 7.97069 17.8809 7.75282 17.5474 7.62732C17.2139 7.50182 16.8516 7.47387 16.5028 7.54674C16.2337 7.60445 15.9806 7.72038 15.7611 7.88639C15.5416 8.0524 15.3612 8.26445 15.2324 8.50766C15.1037 8.75086 15.0298 9.01931 15.0158 9.29414C15.0019 9.56897 15.0484 9.84351 15.1519 10.0985Z" fill="#F6C900"/>
<path d="M23.0489 10.7072C23.2886 10.9478 23.5892 11.1187 23.9185 11.2019C24.2477 11.2851 24.5934 11.2773 24.9186 11.1794C25.2439 11.0815 25.5364 10.8972 25.7651 10.6461C25.9938 10.395 26.15 10.0865 26.2171 9.7536C26.2843 9.42068 26.2598 9.07577 26.1463 8.75567C26.0328 8.43557 25.8345 8.15229 25.5726 7.93602C25.3108 7.71976 24.9951 7.57863 24.6593 7.52769C24.3235 7.47676 23.9802 7.51791 23.666 7.64678C23.3817 7.76556 23.1308 7.95224 22.9354 8.19046C22.74 8.42867 22.606 8.71116 22.5451 9.01319C22.4842 9.31522 22.4983 9.62758 22.5861 9.9229C22.6739 10.2182 22.8328 10.4875 23.0489 10.7072Z" fill="#F6C900"/>
</g>
<defs>
<filter id="filter0_d" x="0" y="0" width="94.5195" height="94.5" filterUnits="userSpaceOnUse" color-interpolation-filters="sRGB">
<feFlood flood-opacity="0" result="BackgroundImageFix"/>
<feColorMatrix in="SourceAlpha" type="matrix" values="0 0 0 0 0 0 0 0 0 0 0 0 0 0 0 0 0 0 127 0" result="hardAlpha"/>
<feOffset dx="4" dy="4"/>
<feGaussianBlur stdDeviation="0.25"/>
<feColorMatrix type="matrix" values="0 0 0 0 0 0 0 0 0 0 0 0 0 0 0 0 0 0 0.1 0"/>
<feBlend mode="normal" in2="BackgroundImageFix" result="effect1_dropShadow"/>
<feBlend mode="normal" in="SourceGraphic" in2="effect1_dropShadow" result="shape"/>
</filter>
</defs>
</svg>
