<svg width="108" height="95" viewBox="0 0 108 95" fill="none" xmlns="http://www.w3.org/2000/svg">
<g filter="url(#filter0_d)">
<path d="M38.1626 79.8293C37.7564 79.4428 37.2153 79.2302 36.6546 79.2367C36.0939 79.2433 35.5579 79.4684 35.1608 79.8643C34.7637 80.2602 34.5369 80.7955 34.5286 81.3561C34.5203 81.9168 34.7312 82.4585 35.1164 82.866C35.5227 83.2525 36.0637 83.4651 36.6244 83.4586C37.1851 83.452 37.7211 83.2268 38.1182 82.831C38.5153 82.4351 38.7422 81.8998 38.7505 81.3392C38.7588 80.7785 38.5478 80.2367 38.1626 79.8293Z" fill="#F6C900"/>
<path d="M87.3969 79.8293C86.9865 79.4669 86.4534 79.2745 85.9061 79.2914C85.3588 79.3084 84.8386 79.5334 84.4514 79.9205C84.0642 80.3077 83.8393 80.8279 83.8223 81.3752C83.8054 81.9225 83.9977 82.4556 84.3602 82.866C84.7706 83.2285 85.3037 83.4208 85.851 83.4039C86.3983 83.3869 86.9185 83.162 87.3057 82.7748C87.6929 82.3876 87.9178 81.8674 87.9348 81.3201C87.9517 80.7729 87.7594 80.2397 87.3969 79.8293Z" fill="#F6C900"/>
<path d="M94.4413 72.785H35.7259C35.0452 71.4597 34.6902 69.9912 34.6902 68.5013C34.6902 67.0114 35.0452 65.5429 35.7259 64.2176H94.4318C94.9336 64.2185 95.4197 64.0424 95.8045 63.7203C96.1893 63.3982 96.4482 62.9507 96.5356 62.4565C103.523 22.8655 103.389 25.4357 102.533 24.3791C101.676 23.3224 101.819 23.6175 85.7597 22.7608C85.9932 20.6064 85.6764 18.4279 84.8391 16.4292C84.0018 14.4305 82.6712 12.6768 80.9718 11.3321C79.2725 9.98748 77.2598 9.09579 75.1221 8.74046C72.9844 8.38514 70.7915 8.5778 68.7486 9.30041V2.14186C68.7486 1.5738 68.5229 1.02901 68.1212 0.627334C67.7196 0.225658 67.1748 0 66.6067 0H45.2072C44.6391 0 44.0943 0.225658 43.6927 0.627334C43.291 1.02901 43.0653 1.5738 43.0653 2.14186V20.4571L31.3756 19.8383L30.6711 14.1838C30.4743 12.6308 29.718 11.2027 28.544 10.1671C27.37 9.13148 25.8587 8.55937 24.2932 8.5579H21.6563C21.6538 7.42344 21.2014 6.33631 20.3983 5.53501C19.5952 4.73372 18.5071 4.28371 17.3726 4.28371H6.67284C5.80885 4.25044 4.94702 4.39188 4.13899 4.69956C3.33095 5.00725 2.59333 5.47485 1.97029 6.07436C1.34725 6.67386 0.851607 7.39295 0.513054 8.18855C0.174502 8.98414 0 9.83988 0 10.7045C0 11.5691 0.174502 12.4249 0.513054 13.2205C0.851607 14.0161 1.34725 14.7352 1.97029 15.3347C2.59333 15.9342 3.33095 16.4018 4.13899 16.7095C4.94702 17.0172 5.80885 17.1586 6.67284 17.1253H17.3726C18.5079 17.1228 19.5961 16.6707 20.3989 15.8679C21.2017 15.0651 21.6538 13.9769 21.6563 12.8416H24.2932C24.8201 12.8428 25.3282 13.0373 25.7213 13.3882C26.1143 13.7391 26.3649 14.2221 26.4255 14.7455L32.2894 61.6854C31.176 63.594 30.5439 65.7449 30.4477 67.9523C30.3515 70.1598 30.7941 72.3575 31.7373 74.3557C30.3684 75.3057 29.3063 76.6342 28.6809 78.1786C28.0555 79.7231 27.894 81.4163 28.2163 83.0511C28.5385 84.6859 29.3305 86.1912 30.4952 87.3828C31.6598 88.5744 33.1467 89.4005 34.7737 89.7599C36.4007 90.1194 38.0972 89.9966 39.6555 89.4066C41.2138 88.8166 42.5662 87.785 43.5472 86.4382C44.5282 85.0913 45.0951 83.4876 45.1786 81.8235C45.2621 80.1594 44.8585 78.507 44.0173 77.0687H78.5059C77.7359 78.3697 77.3238 79.8512 77.3115 81.3629C77.2992 82.8747 77.6872 84.3627 78.4359 85.676C79.1847 86.9893 80.2677 88.0811 81.5748 88.8405C82.882 89.6 84.3669 90 85.8786 90C87.3904 90 88.8753 89.6 90.1824 88.8405C91.4896 88.0811 92.5726 86.9893 93.3213 85.676C94.0701 84.3627 94.4581 82.8747 94.4458 81.3629C94.4335 79.8512 94.0214 78.3697 93.2514 77.0687H94.4413C95.0094 77.0687 95.5541 76.843 95.9558 76.4414C96.3575 76.0397 96.5832 75.4949 96.5832 74.9268C96.5832 74.3588 96.3575 73.814 95.9558 73.4123C95.5541 73.0107 95.0094 72.785 94.4413 72.785ZM6.67284 12.8131C6.10478 12.8131 5.56 12.5874 5.15832 12.1857C4.75664 11.784 4.53098 11.2393 4.53098 10.6712C4.53098 10.1031 4.75664 9.55835 5.15832 9.15668C5.56 8.755 6.10478 8.52934 6.67284 8.52934H17.3726V12.8131H6.67284ZM81.5045 22.5133L68.7486 21.8279V14.0125C70.1301 13.222 71.7044 12.832 73.2952 12.8862C74.8859 12.9404 76.4301 13.4366 77.7546 14.3193C79.0791 15.202 80.1315 16.4361 80.7939 17.8834C81.4562 19.3308 81.7023 20.934 81.5045 22.5133ZM47.349 20.6856V4.28371H64.4839V21.5994L47.349 20.6856ZM98.3728 27.7013L92.6612 59.9434H36.3923L31.9182 24.1411L98.3728 27.7013ZM40.9235 81.3524C40.9235 82.1997 40.6722 83.0279 40.2015 83.7323C39.7308 84.4368 39.0618 84.9858 38.2791 85.3101C37.4963 85.6343 36.635 85.7191 35.8041 85.5538C34.9731 85.3885 34.2098 84.9805 33.6107 84.3815C33.0116 83.7824 32.6037 83.0191 32.4384 82.1881C32.2731 81.3572 32.3579 80.4959 32.6821 79.7131C33.0064 78.9304 33.5554 78.2613 34.2599 77.7906C34.9643 77.3199 35.7925 77.0687 36.6398 77.0687C37.7759 77.0687 38.8655 77.52 39.6688 78.3234C40.4722 79.1267 40.9235 80.2163 40.9235 81.3524ZM90.1576 81.3524C90.1576 82.1997 89.9064 83.0279 89.4357 83.7323C88.965 84.4368 88.2959 84.9858 87.5132 85.3101C86.7304 85.6343 85.8691 85.7191 85.0382 85.5538C84.2072 85.3885 83.4439 84.9805 82.8448 84.3815C82.2458 83.7824 81.8378 83.0191 81.6725 82.1881C81.5072 81.3572 81.592 80.4959 81.9162 79.7131C82.2405 78.9304 82.7895 78.2613 83.494 77.7906C84.1984 77.3199 85.0266 77.0687 85.8739 77.0687C86.4368 77.0675 86.9944 77.1774 87.5147 77.3922C88.035 77.6071 88.5077 77.9225 88.9057 78.3206C89.3037 78.7186 89.6192 79.1913 89.8341 79.7116C90.0489 80.2319 90.1589 80.7895 90.1576 81.3524Z" fill="#F6C900"/>
<path d="M66.6062 51.3759V34.2411C66.57 33.6989 66.3291 33.1908 65.9323 32.8196C65.5355 32.4484 65.0125 32.2419 64.4691 32.2419C63.9258 32.2419 63.4027 32.4484 63.0059 32.8196C62.6091 33.1908 62.3682 33.6989 62.332 34.2411V51.3759C62.3682 51.9181 62.6091 52.4262 63.0059 52.7974C63.4027 53.1686 63.9258 53.3751 64.4691 53.3751C65.0125 53.3751 65.5355 53.1686 65.9323 52.7974C66.3291 52.4262 66.57 51.9181 66.6062 51.3759Z" fill="#F6C900"/>
<path d="M79.4391 51.6425L81.581 34.5077C81.6238 33.9587 81.4536 33.4144 81.1056 32.9876C80.7577 32.5609 80.2588 32.2845 79.7125 32.2159C79.1661 32.1473 78.6144 32.2917 78.1717 32.6192C77.7291 32.9467 77.4296 33.4321 77.3354 33.9746L75.1935 51.1094C75.1507 51.6584 75.3209 52.2027 75.6688 52.6295C76.0168 53.0562 76.5157 53.3326 77.062 53.4012C77.6084 53.4698 78.1601 53.3253 78.6028 52.9979C79.0454 52.6704 79.3449 52.185 79.4391 51.6425Z" fill="#F6C900"/>
<path d="M49.5008 51.6425C49.595 52.185 49.8945 52.6704 50.3372 52.9979C50.7798 53.3254 51.3316 53.4698 51.8779 53.4012C52.4242 53.3326 52.9231 53.0562 53.2711 52.6295C53.619 52.2027 53.7892 51.6584 53.7464 51.1094L51.6141 33.9746C51.5434 33.4103 51.2514 32.8973 50.8024 32.5482C50.3535 32.1992 49.7842 32.0429 49.22 32.1136C48.6557 32.1843 48.1426 32.4762 47.7936 32.9252C47.4446 33.3742 47.2882 33.9434 47.3589 34.5077L49.5008 51.6425Z" fill="#F6C900"/>
</g>
<defs>
<filter id="filter0_d" x="0" y="0" width="107.443" height="94.5" filterUnits="userSpaceOnUse" color-interpolation-filters="sRGB">
<feFlood flood-opacity="0" result="BackgroundImageFix"/>
<feColorMatrix in="SourceAlpha" type="matrix" values="0 0 0 0 0 0 0 0 0 0 0 0 0 0 0 0 0 0 127 0" result="hardAlpha"/>
<feOffset dx="4" dy="4"/>
<feGaussianBlur stdDeviation="0.25"/>
<feColorMatrix type="matrix" values="0 0 0 0 0 0 0 0 0 0 0 0 0 0 0 0 0 0 0.1 0"/>
<feBlend mode="normal" in2="BackgroundImageFix" result="effect1_dropShadow"/>
<feBlend mode="normal" in="SourceGraphic" in2="effect1_dropShadow" result="shape"/>
</filter>
</defs>
</svg>
