<svg width="84" height="95" viewBox="0 0 84 95" fill="none" xmlns="http://www.w3.org/2000/svg">
<g filter="url(#filter0_d)">
<path d="M78.7637 30.0028C78.7637 27.0842 79.5976 30.2279 73.1434 10.9488V1.87622C73.1434 1.37861 72.9458 0.90139 72.5939 0.549531C72.242 0.197672 71.7648 0 71.2672 0H7.50923C7.01162 0 6.5344 0.197672 6.18254 0.549531C5.83068 0.90139 5.63301 1.37861 5.63301 1.87622V10.9321C-0.362541 28.9271 0.00436284 27.6763 0.00436284 28.1099C0.00436284 31.5454 0.146122 34.7058 3.7568 37.4409V86.2476H1.88058C1.38298 86.2476 0.905753 86.4452 0.553894 86.7971C0.202035 87.149 0.00436284 87.6262 0.00436284 88.1238C0.00436284 88.6214 0.202035 89.0986 0.553894 89.4505C0.905753 89.8023 1.38298 90 1.88058 90H76.9292C77.4268 90 77.904 89.8023 78.2559 89.4505C78.6078 89.0986 78.8054 88.6214 78.8054 88.1238C78.8054 87.6262 78.6078 87.149 78.2559 86.7971C77.904 86.4452 77.4268 86.2476 76.9292 86.2476H75.053V37.4576C76.2061 36.5868 77.1413 35.4602 77.7852 34.1667C78.4291 32.8731 78.7641 31.4477 78.7637 30.0028ZM69.391 35.6314C67.8989 35.6292 66.4685 35.0355 65.4134 33.9804C64.3583 32.9253 63.7646 31.4949 63.7624 30.0028H75.0196C75.0174 31.4949 74.4237 32.9253 73.3686 33.9804C72.3135 35.0355 70.8831 35.6292 69.391 35.6314ZM3.7568 30.0028H15.0058C15.0349 30.7596 14.911 31.5146 14.6415 32.2224C14.372 32.9302 13.9623 33.5763 13.4372 34.1221C12.912 34.6679 12.2821 35.102 11.5852 35.3986C10.8883 35.6952 10.1387 35.848 9.38127 35.848C8.62387 35.848 7.87427 35.6952 7.17734 35.3986C6.48042 35.102 5.85051 34.6679 5.32536 34.1221C4.8002 33.5763 4.3906 32.9302 4.12107 32.2224C3.85155 31.5146 3.72765 30.7596 3.7568 30.0028ZM31.6665 13.1252L30.2073 26.2587H19.2252L22.1354 13.1252H31.6665ZM56.6327 13.1252L59.5263 26.2587H48.5692L47.1099 13.1252H56.6327ZM43.2907 13.1252L44.75 26.2587H33.9097L35.3689 13.1252H43.2907ZM29.9488 30.0028C29.9779 30.7596 29.854 31.5146 29.5845 32.2224C29.315 32.9302 28.9054 33.5763 28.3802 34.1221C27.855 34.6679 27.2251 35.102 26.5282 35.3986C25.8313 35.6952 25.0817 35.848 24.3243 35.848C23.5669 35.848 22.8173 35.6952 22.1204 35.3986C21.4234 35.102 20.7935 34.6679 20.2684 34.1221C19.7432 33.5763 19.3336 32.9302 19.0641 32.2224C18.7946 31.5146 18.6707 30.7596 18.6998 30.0028H29.9488ZM44.9585 30.0028C44.9876 30.7596 44.8637 31.5146 44.5942 32.2224C44.3247 32.9302 43.9151 33.5763 43.3899 34.1221C42.8648 34.6679 42.2349 35.102 41.5379 35.3986C40.841 35.6952 40.0914 35.848 39.334 35.848C38.5766 35.848 37.827 35.6952 37.1301 35.3986C36.4332 35.102 35.8033 34.6679 35.2781 34.1221C34.7529 33.5763 34.3433 32.9302 34.0738 32.2224C33.8043 31.5146 33.6804 30.7596 33.7095 30.0028H44.9585ZM59.9682 30.0028C59.9682 31.4956 59.3752 32.9273 58.3196 33.9828C57.2641 35.0384 55.8324 35.6314 54.3396 35.6314C52.8468 35.6314 51.4151 35.0384 50.3595 33.9828C49.3039 32.9273 48.7109 31.4956 48.7109 30.0028H59.9682ZM63.3037 26.2587L60.3852 13.1252H69.9163L74.2858 26.2587H63.3037ZM9.29372 3.74409H69.3326V9.37274H9.29372V3.74409ZM8.76838 13.1168H18.2996L15.381 26.2503H4.4906L8.76838 13.1168ZM16.7902 86.2559V71.2462H24.2951V86.2559H16.7902ZM35.5441 86.2559V63.7413H43.0489V86.2559H35.5441ZM54.2979 86.2559V56.2365H61.8027V86.2559H54.2979ZM71.1755 86.2559H65.6386V54.3853C65.6386 53.8876 65.4409 53.4104 65.089 53.0586C64.7372 52.7067 64.26 52.509 63.7624 52.509H52.5134C52.0158 52.509 51.5386 52.7067 51.1867 53.0586C50.8348 53.4104 50.6372 53.8876 50.6372 54.3853V86.2642H46.8847V61.8818C46.8847 61.6358 46.8362 61.3922 46.7418 61.165C46.6474 60.9379 46.509 60.7316 46.3347 60.558C46.1604 60.3845 45.9535 60.2471 45.7259 60.1537C45.4983 60.0603 45.2545 60.0128 45.0085 60.0139H33.7596C33.5136 60.0128 33.2698 60.0603 33.0422 60.1537C32.8146 60.2471 32.6077 60.3845 32.4334 60.558C32.2591 60.7316 32.1207 60.9379 32.0263 61.165C31.9319 61.3922 31.8834 61.6358 31.8834 61.8818V86.2642H28.1393V69.3866C28.1393 68.889 27.9416 68.4118 27.5897 68.06C27.2379 67.7081 26.7607 67.5104 26.263 67.5104H15.0058C14.5081 67.5104 14.0309 67.7081 13.6791 68.06C13.3272 68.4118 13.1295 68.889 13.1295 69.3866V86.2642H7.50923V39.1921C9.254 39.5468 11.0639 39.3945 12.7248 38.7532C14.3858 38.1119 15.8284 37.0083 16.882 35.5731C17.7441 36.755 18.8733 37.7166 20.1774 38.3795C21.4816 39.0425 22.9239 39.388 24.3868 39.388C25.8498 39.388 27.2921 39.0425 28.5962 38.3795C29.9004 37.7166 31.0295 36.755 31.8917 35.5731C32.7539 36.755 33.883 37.7166 35.1871 38.3795C36.4913 39.0425 37.9336 39.388 39.3966 39.388C40.8595 39.388 42.3018 39.0425 43.606 38.3795C44.9101 37.7166 46.0393 36.755 46.9014 35.5731C47.7636 36.755 48.8927 37.7166 50.1969 38.3795C51.501 39.0425 52.9433 39.388 54.4063 39.388C55.8693 39.388 57.3116 39.0425 58.6157 38.3795C59.9199 37.7166 61.049 36.755 61.9111 35.5731C62.9661 37.009 64.4101 38.1129 66.0725 38.7542C67.7349 39.3955 69.5462 39.5475 71.2922 39.1921L71.1755 86.2559Z" fill="#F6C900"/>
<path d="M32.3252 43.7366C31.8421 43.6658 31.3504 43.7861 30.9546 44.072C30.5587 44.3579 30.2899 44.7868 30.2053 45.2677C30.1206 45.7486 30.2267 46.2435 30.5011 46.6474C30.7755 47.0513 31.1965 47.3323 31.6748 47.4307L34.6017 47.9394L19.5586 58.4629C19.2329 58.6921 18.9886 59.019 18.861 59.3963C18.7335 59.7736 18.7293 60.1817 18.8491 60.5616C18.9689 60.9414 19.2065 61.2732 19.5274 61.5091C19.8483 61.7449 20.236 61.8725 20.6343 61.8734C21.4682 61.8734 20.4175 62.4404 36.7531 51.033L36.2361 53.9599C36.1653 54.443 36.2856 54.9347 36.5714 55.3306C36.8573 55.7264 37.2862 55.9952 37.7671 56.0799C38.248 56.1645 38.7429 56.0584 39.1468 55.784C39.5507 55.5096 39.8317 55.0886 39.9301 54.6104C41.848 43.7366 43.2907 45.6629 32.3252 43.7366Z" fill="#F6C900"/>
</g>
<defs>
<filter id="filter0_d" x="0" y="0" width="83.3054" height="94.5" filterUnits="userSpaceOnUse" color-interpolation-filters="sRGB">
<feFlood flood-opacity="0" result="BackgroundImageFix"/>
<feColorMatrix in="SourceAlpha" type="matrix" values="0 0 0 0 0 0 0 0 0 0 0 0 0 0 0 0 0 0 127 0" result="hardAlpha"/>
<feOffset dx="4" dy="4"/>
<feGaussianBlur stdDeviation="0.25"/>
<feColorMatrix type="matrix" values="0 0 0 0 0 0 0 0 0 0 0 0 0 0 0 0 0 0 0.1 0"/>
<feBlend mode="normal" in2="BackgroundImageFix" result="effect1_dropShadow"/>
<feBlend mode="normal" in="SourceGraphic" in2="effect1_dropShadow" result="shape"/>
</filter>
</defs>
</svg>
