<svg width="95" height="95" viewBox="0 0 95 95" fill="none" xmlns="http://www.w3.org/2000/svg">
<g filter="url(#filter0_d)">
<path d="M39.3766 75.0014H1.85919C1.36458 74.997 0.891716 74.7974 0.543521 74.4461C0.195326 74.0948 -1.95401e-05 73.6202 1.466e-09 73.1255V1.87587C1.466e-09 1.62953 0.048521 1.3856 0.142792 1.158C0.237063 0.930414 0.375239 0.72362 0.549429 0.549429C0.901223 0.197636 1.37836 0 1.87587 0H54.4002C54.6465 0 54.8905 0.048521 55.118 0.142792C55.3456 0.237063 55.5524 0.375239 55.7266 0.549429C55.9008 0.72362 56.039 0.930414 56.1333 1.158C56.2275 1.3856 56.2761 1.62953 56.2761 1.87587V58.1269C56.2761 58.6244 56.0784 59.1016 55.7266 59.4534C55.3748 59.8051 54.8977 60.0028 54.4002 60.0028C53.9027 60.0028 53.4255 59.8051 53.0737 59.4534C52.722 59.1016 52.5243 58.6244 52.5243 58.1269V3.75174H3.75174V71.283H39.3766C39.8741 71.283 40.3512 71.4806 40.703 71.8324C41.0548 72.1842 41.2524 72.6614 41.2524 73.1589C41.2524 73.6564 41.0548 74.1335 40.703 74.4853C40.3512 74.8371 39.8741 75.0347 39.3766 75.0347V75.0014Z" fill="#F6C900"/>
<path d="M88.1239 90H39.3764C38.8789 90 38.4017 89.8024 38.0499 89.4506C37.6981 89.0988 37.5005 88.6217 37.5005 88.1242V58.1103C37.4994 57.8636 37.5472 57.6192 37.6411 57.3911C37.7349 57.163 37.8731 56.9558 38.0475 56.7814C38.2219 56.607 38.4291 56.4688 38.6572 56.3749C38.8853 56.2811 39.1297 56.2333 39.3764 56.2344H88.1239C88.6215 56.2344 89.0986 56.432 89.4504 56.7838C89.8022 57.1356 89.9998 57.6128 89.9998 58.1103V88.1242C89.9998 88.6217 89.8022 89.0988 89.4504 89.4506C89.0986 89.8024 88.6215 90 88.1239 90ZM41.2522 86.2483H86.2731V60.0028H41.2522V86.2483Z" fill="#F6C900"/>
<path d="M88.1238 26.2538H61.87C61.624 26.2538 61.3805 26.2052 61.1534 26.1108C60.9263 26.0165 60.72 25.8782 60.5465 25.7039C60.373 25.5296 60.2356 25.3227 60.1422 25.0952C60.0489 24.8676 60.0014 24.6239 60.0025 24.3779V5.62758C60.0014 5.38163 60.0489 5.13789 60.1422 4.91034C60.2356 4.6828 60.373 4.47594 60.5465 4.30164C60.72 4.12734 60.9263 3.98903 61.1534 3.89466C61.3805 3.80029 61.624 3.75171 61.87 3.75171H88.1238C88.6213 3.75171 89.0985 3.94934 89.4503 4.30114C89.802 4.65293 89.9997 5.13007 89.9997 5.62758V24.3779C89.9997 24.8754 89.802 25.3526 89.4503 25.7044C89.0985 26.0562 88.6213 26.2538 88.1238 26.2538ZM63.7459 22.5021H86.2563V7.49511H63.7459V22.5021Z" fill="#F6C900"/>
<path d="M88.1238 52.4993H61.87C61.624 52.4993 61.3805 52.4507 61.1534 52.3563C60.9263 52.262 60.72 52.1236 60.5465 51.9493C60.373 51.775 60.2356 51.5682 60.1422 51.3406C60.0489 51.1131 60.0014 50.8694 60.0025 50.6234V31.8731C60.0014 31.6271 60.0489 31.3834 60.1422 31.1558C60.2356 30.9283 60.373 30.7214 60.5465 30.5471C60.72 30.3728 60.9263 30.2345 61.1534 30.1401C61.3805 30.0458 61.624 29.9972 61.87 29.9972H88.1238C88.6213 29.9972 89.0985 30.1948 89.4503 30.5466C89.802 30.8984 89.9997 31.3755 89.9997 31.8731V50.6234C89.9997 51.1209 89.802 51.5981 89.4503 51.9498C89.0985 52.3016 88.6213 52.4993 88.1238 52.4993ZM63.7459 48.7475H86.2563V33.7406H63.7459V48.7475Z" fill="#F6C900"/>
<path d="M63.7461 78.7448C63.3394 78.7418 62.9445 78.6073 62.6206 78.3613L38.2343 59.6109C38.0388 59.461 37.8749 59.2739 37.7517 59.0606C37.6286 58.8472 37.5486 58.6117 37.5165 58.3674C37.4844 58.1232 37.5007 57.875 37.5645 57.637C37.6283 57.3991 37.7383 57.176 37.8883 56.9806C38.0383 56.7851 38.2253 56.6212 38.4387 56.498C38.652 56.3748 38.8876 56.2949 39.1318 56.2628C39.3761 56.2307 39.6243 56.247 39.8622 56.3108C40.1002 56.3745 40.3232 56.4846 40.5187 56.6346L63.7461 74.5095L86.9818 56.6346C87.3765 56.3272 87.8772 56.1892 88.3736 56.251C88.87 56.3128 89.3216 56.5692 89.6289 56.9639C89.9363 57.3586 90.0742 57.8592 90.0125 58.3556C89.9507 58.852 89.6943 59.3036 89.2996 59.6109L64.8883 78.3613C64.561 78.6129 64.1589 78.7479 63.7461 78.7448Z" fill="#F6C900"/>
<path d="M20.6262 22.502H9.3793C8.88179 22.502 8.40466 22.3044 8.05287 21.9526C7.70107 21.6008 7.50344 21.1237 7.50344 20.6262V9.3793C7.50233 9.13265 7.5501 8.88823 7.64398 8.66014C7.73786 8.43205 7.87599 8.22482 8.05041 8.05041C8.22482 7.87599 8.43205 7.73786 8.66014 7.64398C8.88823 7.5501 9.13265 7.50233 9.3793 7.50344H20.6262C21.1237 7.50344 21.6008 7.70107 21.9526 8.05287C22.3044 8.40466 22.502 8.88179 22.502 9.3793V20.6262C22.502 21.1237 22.3044 21.6008 21.9526 21.9526C21.6008 22.3044 21.1237 22.502 20.6262 22.502ZM11.2468 18.7503H18.7503V11.2468H11.2468V18.7503Z" fill="#F6C900"/>
<path d="M46.8717 29.9972H9.35437C9.09807 30.0143 8.84099 29.9786 8.59905 29.8923C8.35712 29.806 8.13549 29.6709 7.9479 29.4954C7.76031 29.3199 7.61076 29.1078 7.50851 28.8722C7.40627 28.6365 7.35352 28.3824 7.35352 28.1255C7.35352 27.8686 7.40627 27.6145 7.50851 27.3788C7.61076 27.1432 7.76031 26.9311 7.9479 26.7556C8.13549 26.5801 8.35712 26.445 8.59905 26.3587C8.84099 26.2724 9.09807 26.2367 9.35437 26.2538H46.8717C47.128 26.2367 47.3851 26.2724 47.6271 26.3587C47.869 26.445 48.0906 26.5801 48.2782 26.7556C48.4658 26.9311 48.6154 27.1432 48.7176 27.3788C48.8198 27.6145 48.8726 27.8686 48.8726 28.1255C48.8726 28.3824 48.8198 28.6365 48.7176 28.8722C48.6154 29.1078 48.4658 29.3199 48.2782 29.4954C48.0906 29.6709 47.869 29.806 47.6271 29.8923C47.3851 29.9786 47.128 30.0143 46.8717 29.9972Z" fill="#F6C900"/>
<path d="M46.8713 37.5006H9.3539C8.85639 37.5006 8.37925 37.303 8.02746 36.9512C7.67566 36.5994 7.47803 36.1223 7.47803 35.6248C7.47803 35.1273 7.67566 34.6501 8.02746 34.2983C8.37925 33.9465 8.85639 33.7489 9.3539 33.7489H46.8713C47.3688 33.7489 47.8459 33.9465 48.1977 34.2983C48.5495 34.6501 48.7471 35.1273 48.7471 35.6248C48.7471 36.1223 48.5495 36.5994 48.1977 36.9512C47.8459 37.303 47.3688 37.5006 46.8713 37.5006Z" fill="#F6C900"/>
<path d="M46.8717 44.9959H9.35437C9.09807 45.013 8.84099 44.9773 8.59905 44.891C8.35712 44.8046 8.13549 44.6696 7.9479 44.4941C7.76031 44.3186 7.61076 44.1065 7.50851 43.8708C7.40627 43.6352 7.35352 43.381 7.35352 43.1242C7.35352 42.8673 7.40627 42.6132 7.50851 42.3775C7.61076 42.1419 7.76031 41.9297 7.9479 41.7542C8.13549 41.5788 8.35712 41.4437 8.59905 41.3574C8.84099 41.2711 9.09807 41.2353 9.35437 41.2525H46.8717C47.128 41.2353 47.3851 41.2711 47.6271 41.3574C47.869 41.4437 48.0906 41.5788 48.2782 41.7542C48.4658 41.9297 48.6154 42.1419 48.7176 42.3775C48.8198 42.6132 48.8726 42.8673 48.8726 43.1242C48.8726 43.381 48.8198 43.6352 48.7176 43.8708C48.6154 44.1065 48.4658 44.3186 48.2782 44.4941C48.0906 44.6696 47.869 44.8046 47.6271 44.891C47.3851 44.9773 47.128 45.013 46.8717 44.9959Z" fill="#F6C900"/>
<path d="M46.8713 52.4993H9.3539C8.85639 52.4993 8.37925 52.3017 8.02746 51.9499C7.67566 51.5981 7.47803 51.1209 7.47803 50.6234C7.47803 50.1259 7.67566 49.6488 8.02746 49.297C8.37925 48.9452 8.85639 48.7476 9.3539 48.7476H46.8713C47.3688 48.7476 47.8459 48.9452 48.1977 49.297C48.5495 49.6488 48.7471 50.1259 48.7471 50.6234C48.7471 51.1209 48.5495 51.5981 48.1977 51.9499C47.8459 52.3017 47.3688 52.4993 46.8713 52.4993Z" fill="#F6C900"/>
<path d="M24.3779 60.0027H9.37098C8.87347 60.0027 8.39634 59.8051 8.04455 59.4533C7.69275 59.1015 7.49512 58.6244 7.49512 58.1268C7.49512 57.6293 7.69275 57.1522 8.04455 56.8004C8.39634 56.4486 8.87347 56.251 9.37098 56.251H24.3779C24.8754 56.251 25.3526 56.4486 25.7044 56.8004C26.0562 57.1522 26.2538 57.6293 26.2538 58.1268C26.2538 58.6244 26.0562 59.1015 25.7044 59.4533C25.3526 59.8051 24.8754 60.0027 24.3779 60.0027Z" fill="#F6C900"/>
<path d="M73.1257 18.7504H69.3739C68.8764 18.7504 68.3993 18.5528 68.0475 18.201C67.6957 17.8492 67.498 17.372 67.498 16.8745C67.498 16.377 67.6957 15.8999 68.0475 15.5481C68.3993 15.1963 68.8764 14.9987 69.3739 14.9987H73.1257C73.6232 14.9987 74.1003 15.1963 74.4521 15.5481C74.8039 15.8999 75.0015 16.377 75.0015 16.8745C75.0015 17.372 74.8039 17.8492 74.4521 18.201C74.1003 18.5528 73.6232 18.7504 73.1257 18.7504Z" fill="#F6C900"/>
<path d="M76.8774 39.3765H69.3739C68.8764 39.3765 68.3993 39.1789 68.0475 38.8271C67.6957 38.4753 67.498 37.9981 67.498 37.5006C67.498 37.0031 67.6957 36.526 68.0475 36.1742C68.3993 35.8224 68.8764 35.6248 69.3739 35.6248H76.8774C77.3749 35.6248 77.852 35.8224 78.2038 36.1742C78.5556 36.526 78.7533 37.0031 78.7533 37.5006C78.7533 37.9981 78.5556 38.4753 78.2038 38.8271C77.852 39.1789 77.3749 39.3765 76.8774 39.3765Z" fill="#F6C900"/>
<path d="M73.1261 44.9959H69.3744C69.1181 45.013 68.861 44.9773 68.6191 44.891C68.3771 44.8046 68.1555 44.6696 67.9679 44.4941C67.7803 44.3186 67.6308 44.1065 67.5285 43.8708C67.4263 43.6352 67.3735 43.381 67.3735 43.1242C67.3735 42.8673 67.4263 42.6132 67.5285 42.3775C67.6308 42.1419 67.7803 41.9297 67.9679 41.7542C68.1555 41.5788 68.3771 41.4437 68.6191 41.3574C68.861 41.2711 69.1181 41.2353 69.3744 41.2525H73.1261C73.3824 41.2353 73.6395 41.2711 73.8815 41.3574C74.1234 41.4437 74.345 41.5788 74.5326 41.7542C74.7202 41.9297 74.8697 42.1419 74.972 42.3775C75.0742 42.6132 75.127 42.8673 75.127 43.1242C75.127 43.381 75.0742 43.6352 74.972 43.8708C74.8697 44.1065 74.7202 44.3186 74.5326 44.4941C74.345 44.6696 74.1234 44.8046 73.8815 44.891C73.6395 44.9773 73.3824 45.013 73.1261 44.9959Z" fill="#F6C900"/>
</g>
<defs>
<filter id="filter0_d" x="0" y="0" width="94.5269" height="94.5" filterUnits="userSpaceOnUse" color-interpolation-filters="sRGB">
<feFlood flood-opacity="0" result="BackgroundImageFix"/>
<feColorMatrix in="SourceAlpha" type="matrix" values="0 0 0 0 0 0 0 0 0 0 0 0 0 0 0 0 0 0 127 0" result="hardAlpha"/>
<feOffset dx="4" dy="4"/>
<feGaussianBlur stdDeviation="0.25"/>
<feColorMatrix type="matrix" values="0 0 0 0 0 0 0 0 0 0 0 0 0 0 0 0 0 0 0.1 0"/>
<feBlend mode="normal" in2="BackgroundImageFix" result="effect1_dropShadow"/>
<feBlend mode="normal" in="SourceGraphic" in2="effect1_dropShadow" result="shape"/>
</filter>
</defs>
</svg>
