<svg width="72" height="95" viewBox="0 0 72 95" fill="none" xmlns="http://www.w3.org/2000/svg">
<g filter="url(#filter0_d)">
<path d="M16.8587 35.6552H13.1169C12.6422 35.6869 12.1974 35.8978 11.8724 36.2452C11.5475 36.5926 11.3667 37.0505 11.3667 37.5262C11.3667 38.0018 11.5475 38.4597 11.8724 38.8071C12.1974 39.1545 12.6422 39.3654 13.1169 39.3971H16.8587C17.6151 39.4262 18.3696 39.3024 19.077 39.033C19.7844 38.7637 20.4302 38.3543 20.9756 37.8295C21.5211 37.3046 21.955 36.6751 22.2514 35.9786C22.5478 35.2821 22.7005 34.5329 22.7005 33.776C22.7005 33.019 22.5478 32.2698 22.2514 31.5733C21.955 30.8768 21.5211 30.2473 20.9756 29.7224C20.4302 29.1976 19.7844 28.7882 19.077 28.5189C18.3696 28.2495 17.6151 28.1257 16.8587 28.1548C16.3614 28.1548 15.8845 27.9572 15.5328 27.6056C15.1812 27.2539 14.9836 26.777 14.9836 26.2797C14.9836 25.7824 15.1812 25.3055 15.5328 24.9538C15.8845 24.6022 16.3614 24.4046 16.8587 24.4046H20.609C21.0836 24.3729 21.5284 24.162 21.8534 23.8146C22.1783 23.4672 22.3591 23.0093 22.3591 22.5337C22.3591 22.058 22.1783 21.6001 21.8534 21.2527C21.5284 20.9053 21.0836 20.6944 20.609 20.6627H16.8587C15.4054 20.7187 14.0302 21.3354 13.0217 22.3835C12.0132 23.4315 11.4499 24.8294 11.4499 26.2839C11.4499 27.7383 12.0132 29.1362 13.0217 30.1843C14.0302 31.2323 15.4054 31.849 16.8587 31.905C17.3561 31.905 17.833 32.1026 18.1846 32.4542C18.5363 32.8059 18.7338 33.2828 18.7338 33.7801C18.7338 34.2774 18.5363 34.7544 18.1846 35.106C17.833 35.4577 17.3561 35.6552 16.8587 35.6552Z" fill="#F6C900"/>
<path d="M28.11 39.3971H35.6104C36.085 39.3654 36.5299 39.1545 36.8548 38.8071C37.1798 38.4598 37.3606 38.0019 37.3606 37.5262C37.3606 37.0505 37.1798 36.5926 36.8548 36.2452C36.5299 35.8978 36.085 35.6869 35.6104 35.6552H29.9851V31.905H35.6021C36.0994 31.905 36.5763 31.7075 36.928 31.3558C37.2796 31.0042 37.4772 30.5272 37.4772 30.0299C37.4772 29.5326 37.2796 29.0557 36.928 28.704C36.5763 28.3524 36.0994 28.1548 35.6021 28.1548H29.9851V24.4046H35.6021C36.0767 24.3729 36.5216 24.162 36.8465 23.8146C37.1715 23.4673 37.3523 23.0094 37.3523 22.5337C37.3523 22.058 37.1715 21.6001 36.8465 21.2527C36.5216 20.9053 36.0767 20.6944 35.6021 20.6627H28.1017C27.8558 20.6616 27.6122 20.7091 27.3847 20.8024C27.1573 20.8958 26.9505 21.0331 26.7763 21.2065C26.602 21.38 26.4638 21.5862 26.3695 21.8132C26.2751 22.0402 26.2266 22.2837 26.2266 22.5295V37.5303C26.2266 37.7769 26.2754 38.021 26.3702 38.2486C26.4651 38.4762 26.6041 38.6827 26.7792 38.8563C26.9543 39.0298 27.1621 39.167 27.3905 39.2598C27.6189 39.3527 27.8635 39.3993 28.11 39.3971Z" fill="#F6C900"/>
<path d="M47.7867 39.3971C49.5255 39.3949 51.1925 38.7032 52.422 37.4737C53.6515 36.2441 54.3432 34.5772 54.3454 32.8384V27.2214C54.3454 25.4819 53.6544 23.8137 52.4244 22.5837C51.1944 21.3537 49.5262 20.6627 47.7867 20.6627C46.0473 20.6627 44.379 21.3537 43.149 22.5837C41.919 23.8137 41.228 25.4819 41.228 27.2214V32.8384C41.2302 34.5772 41.9219 36.2441 43.1515 37.4737C44.381 38.7032 46.0479 39.3949 47.7867 39.3971ZM44.9782 27.2214C44.9782 23.4962 50.5952 23.5045 50.5952 27.2214V32.8384C50.5952 36.5636 44.9782 36.5553 44.9782 32.8384V27.2214Z" fill="#F6C900"/>
<path d="M67.4454 14.9375C67.3954 14.0041 67.8371 14.7791 55.7781 0.694992C54.9447 -0.255061 58.5033 0.0449558 1.8751 0.0449558C1.3778 0.0449558 0.900856 0.242511 0.549206 0.594161C0.197555 0.945811 0 1.42275 0 1.92006V88.1249C0 88.6222 0.197555 89.0991 0.549206 89.4508C0.900856 89.8024 1.3778 90 1.8751 90H65.587C65.8336 90.0011 66.0779 89.9533 66.3059 89.8595C66.5339 89.7656 66.741 89.6276 66.9154 89.4532C67.0897 89.2789 67.2278 89.0717 67.3216 88.8438C67.4155 88.6158 67.4632 88.3714 67.4621 88.1249C67.4621 3.49514 67.5204 16.2292 67.4454 14.9375ZM56.2198 6.98701L61.5118 13.1624H56.2198V6.98701ZM3.71688 86.2581V3.79517H52.4696V15.0375C52.4696 15.5348 52.6672 16.0117 53.0188 16.3634C53.3705 16.715 53.8474 16.9126 54.3447 16.9126H63.7119V86.2581H3.71688Z" fill="#F6C900"/>
<path d="M58.0955 78.7577H56.2204V58.1399C57.5121 58.1399 59.1206 58.4565 59.7873 57.0815C60.454 55.7064 60.1206 55.7981 52.0618 45.7225C51.8796 45.5138 51.6548 45.3465 51.4025 45.2319C51.1502 45.1173 50.8763 45.058 50.5992 45.058C50.3222 45.058 50.0483 45.1173 49.796 45.2319C49.5437 45.3465 49.3189 45.5138 49.1367 45.7225L41.6362 55.1147C41.4168 55.3907 41.2797 55.723 41.2406 56.0735C41.2015 56.4239 41.262 56.7782 41.4151 57.0958C41.5683 57.4135 41.8079 57.6814 42.1064 57.8691C42.405 58.0567 42.7504 58.1563 43.103 58.1565H44.9781V78.7743H41.2279V65.6403C41.2279 65.143 41.0303 64.666 40.6787 64.3144C40.327 63.9627 39.8501 63.7652 39.3528 63.7652H31.8524C31.6065 63.7652 31.3631 63.8137 31.1361 63.9081C30.909 64.0024 30.7029 64.1407 30.5294 64.3149C30.356 64.4891 30.2186 64.6959 30.1253 64.9233C30.032 65.1508 29.9845 65.3944 29.9856 65.6403V78.7577H26.2354V69.3905C26.2354 68.8932 26.0378 68.4162 25.6862 68.0646C25.3345 67.7129 24.8576 67.5154 24.3603 67.5154H16.8599C16.3626 67.5154 15.8856 67.7129 15.534 68.0646C15.1823 68.4162 14.9848 68.8932 14.9848 69.3905V78.7577H11.2429V46.8976C11.2429 46.4003 11.0453 45.9233 10.6937 45.5717C10.342 45.22 9.86509 45.0225 9.36778 45.0225C8.87047 45.0225 8.39353 45.22 8.04188 45.5717C7.69023 45.9233 7.49268 46.4003 7.49268 46.8976V80.6328C7.49268 81.1301 7.69023 81.607 8.04188 81.9587C8.39353 82.3103 8.87047 82.5079 9.36778 82.5079H58.0955C58.5928 82.5079 59.0697 82.3103 59.4214 81.9587C59.773 81.607 59.9706 81.1301 59.9706 80.6328C59.9706 80.1355 59.773 79.6585 59.4214 79.3069C59.0697 78.9552 58.5928 78.7577 58.0955 78.7577ZM18.735 78.7577V71.2573H22.4852V78.7577H18.735ZM33.7358 78.7577V67.5154H37.486V78.7577H33.7358ZM48.7366 78.7577V56.2564C48.7361 55.7855 48.5583 55.332 48.2387 54.9861C47.919 54.6403 47.481 54.4273 47.0115 54.3896L50.6117 49.8894L54.2119 54.3896C53.7425 54.4273 53.3045 54.6403 52.9848 54.9861C52.6652 55.332 52.4874 55.7855 52.4869 56.2564V78.7577H48.7366Z" fill="#F6C900"/>
<path d="M31.8515 48.7727H16.8507C16.3534 48.7727 15.8764 48.9703 15.5248 49.3219C15.1731 49.6736 14.9756 50.1505 14.9756 50.6478C14.9756 51.1451 15.1731 51.6221 15.5248 51.9737C15.8764 52.3254 16.3534 52.5229 16.8507 52.5229H31.8515C32.3488 52.5229 32.8258 52.3254 33.1774 51.9737C33.5291 51.6221 33.7266 51.1451 33.7266 50.6478C33.7266 50.1505 33.5291 49.6736 33.1774 49.3219C32.8258 48.9703 32.3488 48.7727 31.8515 48.7727Z" fill="#F6C900"/>
<path d="M16.859 56.2648C16.3617 56.2648 15.8847 56.4623 15.5331 56.814C15.1814 57.1656 14.9839 57.6426 14.9839 58.1399C14.9839 58.6372 15.1814 59.1141 15.5331 59.4658C15.8847 59.8174 16.3617 60.015 16.859 60.015H24.3594C24.8567 60.015 25.3337 59.8174 25.6853 59.4658C26.037 59.1141 26.2345 58.6372 26.2345 58.1399C26.2345 57.6426 26.037 57.1656 25.6853 56.814C25.3337 56.4623 24.8567 56.2648 24.3594 56.2648H16.859Z" fill="#F6C900"/>
</g>
<defs>
<filter id="filter0_d" x="0" y="0" width="71.9837" height="94.5" filterUnits="userSpaceOnUse" color-interpolation-filters="sRGB">
<feFlood flood-opacity="0" result="BackgroundImageFix"/>
<feColorMatrix in="SourceAlpha" type="matrix" values="0 0 0 0 0 0 0 0 0 0 0 0 0 0 0 0 0 0 127 0" result="hardAlpha"/>
<feOffset dx="4" dy="4"/>
<feGaussianBlur stdDeviation="0.25"/>
<feColorMatrix type="matrix" values="0 0 0 0 0 0 0 0 0 0 0 0 0 0 0 0 0 0 0.1 0"/>
<feBlend mode="normal" in2="BackgroundImageFix" result="effect1_dropShadow"/>
<feBlend mode="normal" in="SourceGraphic" in2="effect1_dropShadow" result="shape"/>
</filter>
</defs>
</svg>
