<svg width="95" height="95" viewBox="0 0 95 95" fill="none" xmlns="http://www.w3.org/2000/svg">
<g filter="url(#filter0_d)">
<path d="M69.3033 46.8554H75.2905C77.5086 55.4026 90.025 53.6931 90.025 44.9792C90.025 36.2652 77.5169 34.5807 75.2905 43.1113H69.3033C68.8973 37.952 66.852 33.0578 63.4661 29.1439L69.3033 23.3068C70.8767 24.2348 72.7346 24.557 74.5287 24.2131C76.3228 23.8692 77.9298 22.8828 79.0486 21.4387C80.1673 19.9946 80.721 18.1921 80.6058 16.369C80.4905 14.5459 79.7143 12.8274 78.4226 11.5357C77.1309 10.244 75.4124 9.4678 73.5893 9.35256C71.7662 9.23731 69.9637 9.79096 68.5196 10.9097C67.0755 12.0285 66.0891 13.6355 65.7452 15.4296C65.4013 17.2237 65.7235 19.0816 66.6515 20.6551L60.8144 26.4922C56.8951 23.1214 52.0014 21.0909 46.847 20.6967V10.9071C52.8176 8.78069 51.2249 0 44.9708 0C38.7168 0 37.1658 8.75568 43.1363 10.9071V20.6967C37.977 21.1027 33.0828 23.148 29.1689 26.5339L24.1657 21.5306C25.7997 19.2317 26.5105 16.4027 26.1572 13.6044C25.8039 10.8061 24.4122 8.24257 22.258 6.42194C20.1037 4.60131 17.3441 3.65639 14.526 3.77445C11.708 3.8925 9.03708 5.06491 7.04266 7.05933C5.04823 9.05376 3.87582 11.7247 3.75777 14.5427C3.63972 17.3608 4.58463 20.1204 6.40526 22.2746C8.22589 24.4289 10.7894 25.8206 13.5877 26.1739C16.386 26.5272 19.215 25.8164 21.5139 24.1823L26.5172 29.1856C23.1465 33.1049 21.1159 37.9986 20.7218 43.153H14.7346C12.5164 34.5641 0 36.2735 0 44.9792C0 53.6848 12.5081 55.3859 14.7346 46.8554H20.7218C21.1277 52.0146 23.1731 56.9088 26.5589 60.8228L16.911 70.4206C15.3375 69.4926 13.4796 69.1704 11.6855 69.5143C9.89144 69.8582 8.28439 70.8446 7.16563 72.2887C6.04687 73.7328 5.49322 75.5353 5.60846 77.3584C5.72371 79.1815 6.49994 80.9 7.79164 82.1917C9.08334 83.4834 10.8018 84.2596 12.6249 84.3749C14.448 84.4901 16.2506 83.9365 17.6946 82.8177C19.1387 81.6989 20.1251 80.0919 20.469 78.2978C20.813 76.5037 20.4907 74.6458 19.5627 73.0724L29.1689 63.4411C33.0828 66.827 37.977 68.8723 43.1363 69.2782V79.0929C37.1658 81.2193 38.7585 90 45.0042 90C51.2499 90 52.8509 81.2193 46.8804 79.0929V69.2782C52.0396 68.8723 56.9338 66.827 60.8478 63.4411L67.2019 69.7952C65.9213 71.733 65.4058 74.0772 65.7553 76.3734C66.1048 78.6696 67.2945 80.7543 69.0937 82.2232C70.8928 83.6921 73.1733 84.4407 75.493 84.3238C77.8128 84.2069 80.0065 83.2328 81.6488 81.5905C83.2912 79.9481 84.2653 77.7544 84.3822 75.4347C84.4991 73.115 83.7505 70.8345 82.2816 69.0353C80.8126 67.2361 78.728 66.0465 76.4318 65.6969C74.1355 65.3474 71.7913 65.8629 69.8536 67.1435L63.4661 60.8228C66.852 56.9088 68.8973 52.0146 69.3033 46.8554ZM82.5201 41.2351C83.2627 41.2351 83.9885 41.4553 84.6058 41.868C85.223 42.2807 85.704 42.8673 85.9877 43.5534C86.2715 44.2396 86.3453 44.9945 86.1999 45.7226C86.0544 46.4508 85.6962 47.1194 85.1706 47.6438C84.6449 48.1683 83.9755 48.525 83.2471 48.6688C82.5186 48.8127 81.7639 48.7372 81.0784 48.4519C80.3929 48.1666 79.8074 47.6843 79.3961 47.0662C78.9847 46.448 78.7661 45.7217 78.7677 44.9792C78.7699 43.9868 79.1651 43.0358 79.8668 42.3341C80.5685 41.6324 81.5195 41.2373 82.5118 41.2351H82.5201ZM73.1391 13.1002C73.8812 13.1002 74.6067 13.3202 75.2238 13.7326C75.8409 14.1449 76.3219 14.7309 76.6059 15.4166C76.8899 16.1023 76.9642 16.8568 76.8194 17.5847C76.6746 18.3126 76.3172 18.9812 75.7924 19.506C75.2677 20.0307 74.599 20.3881 73.8711 20.5329C73.1432 20.6777 72.3887 20.6034 71.7031 20.3194C71.0174 20.0354 70.4314 19.5544 70.019 18.9373C69.6067 18.3202 69.3866 17.5947 69.3866 16.8526C69.3888 15.8581 69.7849 14.9049 70.4881 14.2017C71.1914 13.4984 72.1445 13.1024 73.1391 13.1002ZM45.0042 3.72742C45.5018 3.72742 45.979 3.92509 46.3309 4.27695C46.6827 4.62881 46.8804 5.10603 46.8804 5.60363C46.8804 6.10124 46.6827 6.57846 46.3309 6.93032C45.979 7.28218 45.5018 7.47985 45.0042 7.47985C44.5066 7.47985 44.0293 7.28218 43.6775 6.93032C43.3256 6.57846 43.128 6.10124 43.128 5.60363C43.128 5.10603 43.3256 4.62881 43.6775 4.27695C44.0293 3.92509 44.5066 3.72742 45.0042 3.72742ZM7.47985 14.9764C7.47985 13.4921 7.92 12.0411 8.74465 10.8069C9.56929 9.57273 10.7414 8.61081 12.1127 8.04278C13.4841 7.47476 14.993 7.32614 16.4488 7.61571C17.9046 7.90529 19.2419 8.62006 20.2915 9.66963C21.341 10.7192 22.0558 12.0564 22.3454 13.5122C22.635 14.968 22.4863 16.477 21.9183 17.8484C21.3503 19.2197 20.3884 20.3918 19.1542 21.2164C17.92 22.0411 16.469 22.4812 14.9847 22.4812C12.9986 22.4746 11.0962 21.681 9.69414 20.2743C8.29211 18.8676 7.50485 16.9625 7.50486 14.9764H7.47985ZM7.47985 48.7316C6.48464 48.7316 5.5302 48.3362 4.82648 47.6325C4.12276 46.9288 3.72742 45.9744 3.72742 44.9792C3.72742 43.9839 4.12276 43.0295 4.82648 42.3258C5.5302 41.6221 6.48464 41.2267 7.47985 41.2267C12.4998 41.2351 12.408 48.7316 7.50486 48.7316H7.47985ZM45.0042 24.3575C49.0851 24.3558 53.0749 25.5645 56.4687 27.8308C59.8626 30.097 62.5081 33.3189 64.0706 37.0889C65.633 40.8589 66.0423 45.0076 65.2466 49.0102C64.4508 53.0128 62.4858 56.6895 59.6002 59.5751C56.7145 62.4608 53.0378 64.4258 49.0352 65.2215C45.0326 66.0173 40.8839 65.608 37.1139 64.0456C33.3439 62.4831 30.122 59.8376 27.8558 56.4437C25.5896 53.0499 24.3808 49.0601 24.3825 44.9792C24.3891 39.512 26.5639 34.2706 30.4297 30.4047C34.2956 26.5388 39.537 24.3641 45.0042 24.3575ZM13.1252 80.6106C12.3827 80.6106 11.6568 80.3903 11.0396 79.9776C10.4223 79.5649 9.94135 78.9784 9.65759 78.2922C9.37382 77.6061 9.3 76.8511 9.44547 76.123C9.59093 75.3949 9.94915 74.7263 10.4748 74.2018C11.0004 73.6774 11.6698 73.3206 12.3982 73.1768C13.1267 73.033 13.8814 73.1085 14.567 73.3938C15.2525 73.679 15.8379 74.1613 16.2493 74.7795C16.6606 75.3977 16.8793 76.124 16.8776 76.8665C16.8776 77.3589 16.7805 77.8464 16.5918 78.3012C16.4031 78.756 16.1266 79.1691 15.778 79.5169C15.4295 79.8647 15.0158 80.1403 14.5605 80.328C14.1053 80.5156 13.6176 80.6117 13.1252 80.6106ZM45.0042 86.2392C44.5066 86.2392 44.0293 86.0416 43.6775 85.6897C43.3256 85.3378 43.128 84.8606 43.128 84.363C43.128 83.8654 43.3256 83.3882 43.6775 83.0363C44.0293 82.6845 44.5066 82.4868 45.0042 82.4868C45.5018 82.4868 45.979 82.6845 46.3309 83.0363C46.6827 83.3882 46.8804 83.8654 46.8804 84.363C46.8804 84.8606 46.6827 85.3378 46.3309 85.6897C45.979 86.0416 45.5018 86.2392 45.0042 86.2392ZM80.6356 74.9903C80.6356 76.1039 80.3053 77.1924 79.6864 78.1182C79.0676 79.0441 78.188 79.7655 77.159 80.1913C76.13 80.617 74.9979 80.728 73.9058 80.5101C72.8137 80.2923 71.8108 79.7554 71.0239 78.9674C70.2371 78.1794 69.7017 77.1757 69.4854 76.0833C69.2692 74.9909 69.3819 73.8588 69.8092 72.8305C70.2365 71.8021 70.9592 70.9237 71.8859 70.3062C72.8126 69.6887 73.9017 69.36 75.0153 69.3616C75.7541 69.3616 76.4856 69.5073 77.168 69.7902C77.8504 70.0732 78.4704 70.4879 78.9924 71.0107C79.5144 71.5335 79.9282 72.1541 80.2102 72.8369C80.4921 73.5198 80.6367 74.2515 80.6356 74.9903Z" fill="#F6C900"/>
<path d="M41.6021 55.7194L54.5772 50.1575C55.5901 49.7238 56.4534 49.0023 57.06 48.0825C57.6667 47.1627 57.9901 46.0851 57.9901 44.9833C57.9901 43.8815 57.6667 42.8039 57.06 41.8841C56.4534 40.9643 55.5901 40.2429 54.5772 39.8091L41.6021 34.2555C40.7462 33.8885 39.8126 33.7397 38.8851 33.8222C37.9575 33.9048 37.0648 34.2162 36.2872 34.7285C35.5096 35.2409 34.8712 35.9382 34.4293 36.758C33.9875 37.5777 33.7559 38.4943 33.7554 39.4255V50.5494C33.758 51.4799 33.9909 52.3953 34.4333 53.2139C34.8757 54.0325 35.5139 54.7288 36.2909 55.2408C37.0679 55.7527 37.9596 56.0644 38.8863 56.1479C39.8131 56.2314 40.7461 56.0842 41.6021 55.7194ZM37.5078 39.4172C37.5078 38.921 37.7043 38.4451 38.0544 38.0935C38.4044 37.7418 38.8795 37.5432 39.3757 37.541C39.926 37.541 38.9587 37.1991 53.1012 43.2614C53.4403 43.4039 53.7297 43.6433 53.9332 43.9496C54.1368 44.2559 54.2453 44.6155 54.2453 44.9833C54.2453 45.3511 54.1368 45.7107 53.9332 46.017C53.7297 46.3233 53.4403 46.5628 53.1012 46.7053C39.1505 52.6841 39.5008 52.8759 38.35 52.1088C37.1993 51.3416 37.5078 51.5584 37.5078 39.4172Z" fill="#F6C900"/>
</g>
<defs>
<filter id="filter0_d" x="0" y="0" width="94.525" height="94.5" filterUnits="userSpaceOnUse" color-interpolation-filters="sRGB">
<feFlood flood-opacity="0" result="BackgroundImageFix"/>
<feColorMatrix in="SourceAlpha" type="matrix" values="0 0 0 0 0 0 0 0 0 0 0 0 0 0 0 0 0 0 127 0" result="hardAlpha"/>
<feOffset dx="4" dy="4"/>
<feGaussianBlur stdDeviation="0.25"/>
<feColorMatrix type="matrix" values="0 0 0 0 0 0 0 0 0 0 0 0 0 0 0 0 0 0 0.1 0"/>
<feBlend mode="normal" in2="BackgroundImageFix" result="effect1_dropShadow"/>
<feBlend mode="normal" in="SourceGraphic" in2="effect1_dropShadow" result="shape"/>
</filter>
</defs>
</svg>
