<svg width="99" height="95" viewBox="0 0 99 95" fill="none" xmlns="http://www.w3.org/2000/svg">
<g filter="url(#filter0_d)">
<path d="M33.2563 7.8291H13.6923C13.4356 7.8291 13.1815 7.87979 12.9445 7.97826C12.7076 8.07672 12.4924 8.22103 12.3113 8.4029C12.1303 8.58476 11.9869 8.8006 11.8895 9.03802C11.7921 9.27544 11.7425 9.52976 11.7437 9.78638V29.3418C11.7425 29.5984 11.7921 29.8527 11.8895 30.0901C11.9869 30.3275 12.1303 30.5434 12.3113 30.7252C12.4924 30.9071 12.7076 31.0514 12.9445 31.1499C13.1815 31.2484 13.4356 31.299 13.6923 31.299H33.2563C33.7754 31.299 34.2733 31.0928 34.6403 30.7258C35.0074 30.3587 35.2136 29.8609 35.2136 29.3418V9.78638C35.2136 9.26728 35.0074 8.76944 34.6403 8.40238C34.2733 8.03531 33.7754 7.8291 33.2563 7.8291ZM31.2991 27.3845H15.6408V11.7263H21.5127V13.6835C21.5127 14.2026 21.7189 14.7005 22.0859 15.0675C22.453 15.4346 22.9508 15.6408 23.4699 15.6408C23.989 15.6408 24.4869 15.4346 24.8539 15.0675C25.221 14.7005 25.4272 14.2026 25.4272 13.6835V11.735H31.2904L31.2991 27.3845Z" fill="#F6C900"/>
<path d="M33.2565 35.2136H13.6924C13.1733 35.2136 12.6754 35.4198 12.3084 35.7869C11.9413 36.154 11.7351 36.6518 11.7351 37.1709C11.7351 37.69 11.9413 38.1878 12.3084 38.5549C12.6754 38.922 13.1733 39.1282 13.6924 39.1282H33.2565C33.7756 39.1282 34.2734 38.922 34.6405 38.5549C35.0075 38.1878 35.2137 37.69 35.2137 37.1709C35.2137 36.6518 35.0075 36.154 34.6405 35.7869C34.2734 35.4198 33.7756 35.2136 33.2565 35.2136Z" fill="#F6C900"/>
<path d="M29.3418 43.0427H13.6836C13.1881 43.0758 12.7238 43.2959 12.3846 43.6586C12.0454 44.0212 11.8567 44.4991 11.8567 44.9957C11.8567 45.4922 12.0454 45.9702 12.3846 46.3328C12.7238 46.6954 13.1881 46.9155 13.6836 46.9486H29.3418C29.8372 46.9155 30.3015 46.6954 30.6407 46.3328C30.9799 45.9702 31.1686 45.4922 31.1686 44.9957C31.1686 44.4991 30.9799 44.0212 30.6407 43.6586C30.3015 43.2959 29.8372 43.0758 29.3418 43.0427Z" fill="#F6C900"/>
<path d="M45.0001 25.4359C45.87 25.4359 45.2698 25.6447 56.7351 18.007C68.1395 25.6012 68.1047 26.071 69.5575 25.1054L81.2924 17.2763C81.6929 16.9763 81.9632 16.5344 82.048 16.0413C82.1328 15.5483 82.0255 15.0415 81.7483 14.625C81.471 14.2085 81.0448 13.9141 80.5572 13.8021C80.0696 13.6901 79.5576 13.7691 79.1264 14.0228L68.4701 21.1212C57.0657 13.5183 57.1005 13.0485 55.6477 14.0228L43.9128 21.8519C43.5639 22.0853 43.2994 22.4247 43.1581 22.8199C43.0169 23.2151 43.0064 23.6453 43.1283 24.0469C43.2501 24.4485 43.4978 24.8004 43.8349 25.0505C44.1719 25.3006 44.5804 25.4357 45.0001 25.4359Z" fill="#F6C900"/>
<path d="M43.0432 31.299V43.0427C43.0763 43.5381 43.2964 44.0025 43.659 44.3417C44.0216 44.6809 44.4996 44.8696 44.9961 44.8696C45.4927 44.8696 45.9706 44.6809 46.3332 44.3417C46.6959 44.0025 46.916 43.5381 46.9491 43.0427V31.299C46.916 30.8036 46.6959 30.3393 46.3332 30.0001C45.9706 29.6609 45.4927 29.4722 44.9961 29.4722C44.4996 29.4722 44.0216 29.6609 43.659 30.0001C43.2964 30.3393 43.0763 30.8036 43.0432 31.299Z" fill="#F6C900"/>
<path d="M54.7773 25.4359V43.0427C54.7773 43.5618 54.9836 44.0597 55.3506 44.4267C55.7177 44.7938 56.2155 45 56.7346 45C57.2537 45 57.7516 44.7938 58.1186 44.4267C58.4857 44.0597 58.6919 43.5618 58.6919 43.0427V25.4359C58.6919 24.9168 58.4857 24.419 58.1186 24.0519C57.7516 23.6848 57.2537 23.4786 56.7346 23.4786C56.2155 23.4786 55.7177 23.6848 55.3506 24.0519C54.9836 24.419 54.7773 24.9168 54.7773 25.4359Z" fill="#F6C900"/>
<path d="M66.5127 31.2991V43.0427C66.5127 43.5618 66.7189 44.0597 67.086 44.4268C67.453 44.7938 67.9509 45 68.47 45C68.9891 45 69.4869 44.7938 69.854 44.4268C70.221 44.0597 70.4273 43.5618 70.4273 43.0427V31.2991C70.4273 30.78 70.221 30.2821 69.854 29.9151C69.4869 29.548 68.9891 29.3418 68.47 29.3418C67.9509 29.3418 67.453 29.548 67.086 29.9151C66.7189 30.2821 66.5127 30.78 66.5127 31.2991Z" fill="#F6C900"/>
<path d="M78.2563 25.4359V43.0427C78.2894 43.5381 78.5096 44.0024 78.8722 44.3416C79.2348 44.6808 79.7128 44.8695 80.2093 44.8695C80.7058 44.8695 81.1838 44.6808 81.5464 44.3416C81.909 44.0024 82.1291 43.5381 82.1622 43.0427V25.4359C82.1291 24.9405 81.909 24.4761 81.5464 24.1369C81.1838 23.7977 80.7058 23.609 80.2093 23.609C79.7128 23.609 79.2348 23.7977 78.8722 24.1369C78.5096 24.4761 78.2894 24.9405 78.2563 25.4359Z" fill="#F6C900"/>
<path d="M84.1195 0H9.78639C7.19229 0.00459948 4.70576 1.03714 2.87145 2.87145C1.03714 4.70576 0.00459948 7.19229 0 9.78639V60.6495C0.0046052 63.2428 1.03742 65.7285 2.87198 67.5614C4.70654 69.3943 7.19309 70.4249 9.78639 70.4272H33.2737V86.0854H29.3592C28.8401 86.0854 28.3422 86.2917 27.9752 86.6587C27.6081 87.0258 27.4019 87.5236 27.4019 88.0427C27.4019 88.5618 27.6081 89.0597 27.9752 89.4267C28.3422 89.7938 28.8401 90 29.3592 90H64.5554C65.0745 90 65.5723 89.7938 65.9394 89.4267C66.3064 89.0597 66.5127 88.5618 66.5127 88.0427C66.5127 87.5236 66.3064 87.0258 65.9394 86.6587C65.5723 86.2917 65.0745 86.0854 64.5554 86.0854H60.6495V70.4272H84.1369C86.7302 70.4249 89.2167 69.3943 91.0513 67.5614C92.8858 65.7285 93.9187 63.2428 93.9233 60.6495V9.78639C93.9186 7.18928 92.8837 4.70011 91.0457 2.86531C89.2076 1.0305 86.7166 -4.08952e-06 84.1195 0ZM3.91456 9.78639C3.91456 8.22908 4.53319 6.73556 5.63438 5.63438C6.73556 4.53319 8.22908 3.91456 9.78639 3.91456H84.1195C85.6768 3.91456 87.1703 4.53319 88.2715 5.63438C89.3727 6.73556 89.9913 8.22908 89.9913 9.78639V54.7777H3.91456V9.78639ZM56.735 86.0767H37.1709V70.4185H56.735V86.0767ZM89.9913 60.6495C89.989 62.2053 89.3693 63.6966 88.2684 64.7959C87.1675 65.8952 85.6753 66.5127 84.1195 66.5127H9.78639C8.23059 66.5127 6.73838 65.8952 5.63745 64.7959C4.53652 63.6966 3.91686 62.2053 3.91456 60.6495V58.6922H90.0348L89.9913 60.6495Z" fill="#F6C900"/>
<path d="M15.6494 64.5554C16.1448 64.5223 16.6091 64.3022 16.9483 63.9396C17.2875 63.577 17.4762 63.099 17.4762 62.6025C17.4762 62.1059 17.2875 61.628 16.9483 61.2654C16.6091 60.9028 16.1448 60.6826 15.6494 60.6495C15.154 60.6826 14.6896 60.9028 14.3504 61.2654C14.0112 61.628 13.8225 62.1059 13.8225 62.6025C13.8225 63.099 14.0112 63.577 14.3504 63.9396C14.6896 64.3022 15.154 64.5223 15.6494 64.5554Z" fill="#F6C900"/>
</g>
<defs>
<filter id="filter0_d" x="0" y="0" width="98.4233" height="94.5" filterUnits="userSpaceOnUse" color-interpolation-filters="sRGB">
<feFlood flood-opacity="0" result="BackgroundImageFix"/>
<feColorMatrix in="SourceAlpha" type="matrix" values="0 0 0 0 0 0 0 0 0 0 0 0 0 0 0 0 0 0 127 0" result="hardAlpha"/>
<feOffset dx="4" dy="4"/>
<feGaussianBlur stdDeviation="0.25"/>
<feColorMatrix type="matrix" values="0 0 0 0 0 0 0 0 0 0 0 0 0 0 0 0 0 0 0.1 0"/>
<feBlend mode="normal" in2="BackgroundImageFix" result="effect1_dropShadow"/>
<feBlend mode="normal" in="SourceGraphic" in2="effect1_dropShadow" result="shape"/>
</filter>
</defs>
</svg>
