<svg width="105" height="76" viewBox="0 0 105 76" fill="none" xmlns="http://www.w3.org/2000/svg">
<g filter="url(#filter0_d)">
<path d="M87.4938 54.1639H54.145C54.145 53.6111 53.9254 53.081 53.5345 52.6901C53.1436 52.2992 52.6135 52.0796 52.0607 52.0796C51.5079 52.0796 50.9778 52.2992 50.5869 52.6901C50.196 53.081 49.9764 53.6111 49.9764 54.1639H43.7513C43.1985 54.1639 42.6684 54.3835 42.2775 54.7744C41.8866 55.1652 41.667 55.6954 41.667 56.2482C41.667 56.801 41.8866 57.3311 42.2775 57.722C42.6684 58.1129 43.1985 58.3325 43.7513 58.3325H49.9949C49.9949 58.8853 50.2145 59.4154 50.6054 59.8063C50.9963 60.1972 51.5264 60.4168 52.0792 60.4168C52.632 60.4168 53.1622 60.1972 53.553 59.8063C53.9439 59.4154 54.1635 58.8853 54.1635 58.3325H87.5123C88.0651 58.33 88.5943 58.1081 88.9834 57.7155C89.3725 57.3228 89.5898 56.7917 89.5873 56.2389C89.5849 55.6861 89.3629 55.157 88.9703 54.7678C88.5777 54.3787 88.0466 54.1614 87.4938 54.1639Z" fill="#F6C900"/>
<path d="M93.7471 0H6.2529C4.59528 0.00245029 3.00625 0.662023 1.83414 1.83414C0.662022 3.00625 0.00245029 4.59528 0 6.25289V64.6133C0.00245029 66.2709 0.662022 67.8599 1.83414 69.032C3.00625 70.2041 4.59528 70.8637 6.2529 70.8661H93.7471C95.4047 70.8637 96.9938 70.2041 98.1659 69.032C99.338 67.8599 99.9976 66.2709 100 64.6133V6.25289C99.9976 4.59528 99.338 3.00625 98.1659 1.83414C96.9938 0.662023 95.4047 0.00245029 93.7471 0ZM4.1686 64.5855V6.22511C4.1686 5.67232 4.38819 5.14217 4.77907 4.75128C5.16996 4.3604 5.70011 4.14081 6.2529 4.14081H12.5058V66.6698H6.2529C5.70011 66.6698 5.16996 66.4502 4.77907 66.0593C4.38819 65.6684 4.1686 65.1383 4.1686 64.5855ZM95.8777 64.5855C95.8777 65.1383 95.6581 65.6684 95.2672 66.0593C94.8764 66.4502 94.3462 66.6698 93.7934 66.6698H16.6651V4.1686H93.7471C94.2999 4.1686 94.83 4.38819 95.2209 4.77907C95.6118 5.16996 95.8314 5.7001 95.8314 6.25289L95.8777 64.5855Z" fill="#F6C900"/>
<path d="M9.12436 33.5063C8.74671 33.3392 8.32707 33.2914 7.92152 33.3692C7.51597 33.447 7.14382 33.6467 6.85479 33.9417C6.53855 34.2546 6.33125 34.6609 6.26348 35.1006C6.19571 35.5403 6.27105 35.9901 6.4784 36.3837C6.68574 36.7774 7.01411 37.0939 7.41506 37.2867C7.81601 37.4795 8.26831 37.5383 8.70523 37.4545C9.14216 37.3707 9.54058 37.1487 9.84172 36.8212C10.1429 36.4937 10.3308 36.0781 10.3777 35.6357C10.4247 35.1933 10.3282 34.7475 10.1026 34.3641C9.87688 33.9807 9.53395 33.6799 9.12436 33.5063Z" fill="#F6C900"/>
<path d="M54.1644 37.4989H58.333C59.9897 37.4989 61.5788 36.8414 62.7512 35.6707C63.9235 34.5001 64.5834 32.912 64.5859 31.2552V22.9181C64.5834 21.2604 63.9238 19.6714 62.7517 18.4993C61.5796 17.3272 59.9906 16.6676 58.333 16.6652H54.1644C53.6116 16.6652 53.0814 16.8848 52.6906 17.2756C52.2997 17.6665 52.0801 18.1967 52.0801 18.7495V35.4238C52.0825 35.975 52.3032 36.5028 52.6938 36.8917C53.0844 37.2806 53.6132 37.4989 54.1644 37.4989ZM56.2487 20.8245H58.333C58.8858 20.8245 59.4159 21.0441 59.8068 21.435C60.1977 21.8259 60.4173 22.356 60.4173 22.9088V31.246C60.4173 31.7988 60.1977 32.3289 59.8068 32.7198C59.4159 33.1107 58.8858 33.3303 58.333 33.3303H56.2487V20.8245Z" fill="#F6C900"/>
<path d="M37.3687 36.1557L38.4248 33.3766H44.9093L45.9653 36.1557C46.1606 36.6728 46.5534 37.0912 47.0572 37.3188C47.3066 37.4315 47.5759 37.4939 47.8494 37.5026C48.123 37.5112 48.3957 37.4659 48.6517 37.3692C48.9078 37.2725 49.1423 37.1263 49.3419 36.9389C49.5415 36.7516 49.7022 36.5268 49.8149 36.2773C49.9276 36.0278 49.99 35.7586 49.9986 35.485C50.0073 35.2114 49.962 34.9388 49.8653 34.6828L43.6401 18.0176C43.4884 17.6223 43.2204 17.2822 42.8715 17.0424C42.5225 16.8025 42.109 16.6741 41.6855 16.6741C41.2621 16.6741 40.8486 16.8025 40.4996 17.0424C40.1507 17.2822 39.8826 17.6223 39.7309 18.0176L33.4502 34.6828C33.3535 34.94 33.3084 35.2139 33.3176 35.4886C33.3267 35.7633 33.3898 36.0335 33.5033 36.2838C33.7327 36.7894 34.1534 37.1831 34.673 37.3784C35.1927 37.5738 35.7686 37.5547 36.2741 37.3253C36.5244 37.2118 36.7499 37.0501 36.9378 36.8494C37.1256 36.6487 37.272 36.4129 37.3687 36.1557ZM41.667 24.6874L43.3437 29.1709H39.981L41.667 24.6874Z" fill="#F6C900"/>
<path d="M72.9131 33.3395H68.7445C68.2169 33.3748 67.7224 33.6092 67.3612 33.9953C67 34.3815 66.799 34.8905 66.799 35.4192C66.799 35.948 67 36.457 67.3612 36.8431C67.7224 37.2292 68.2169 37.4637 68.7445 37.4989H72.9131C73.7538 37.5313 74.5925 37.3936 75.3788 37.0942C76.1651 36.7948 76.8829 36.3398 77.4892 35.7564C78.0955 35.173 78.5779 34.4732 78.9073 33.699C79.2368 32.9248 79.4066 32.092 79.4066 31.2506C79.4066 30.4092 79.2368 29.5765 78.9073 28.8023C78.5779 28.028 78.0955 27.3283 77.4892 26.7449C76.8829 26.1615 76.1651 25.7065 75.3788 25.407C74.5925 25.1076 73.7538 24.97 72.9131 25.0024C72.3603 25.0024 71.8301 24.7828 71.4392 24.3919C71.0483 24.001 70.8288 23.4708 70.8288 22.9181C70.8288 22.3653 71.0483 21.8351 71.4392 21.4442C71.8301 21.0534 72.3603 20.8338 72.9131 20.8338H77.0816C77.6344 20.8338 78.1646 20.6142 78.5555 20.2233C78.9463 19.8324 79.1659 19.3022 79.1659 18.7495C79.1659 18.1967 78.9463 17.6665 78.5555 17.2756C78.1646 16.8848 77.6344 16.6652 77.0816 16.6652H72.9131C71.2547 16.6652 69.6642 17.3239 68.4916 18.4966C67.3189 19.6692 66.6602 21.2597 66.6602 22.9181C66.6602 24.5764 67.3189 26.1669 68.4916 27.3395C69.6642 28.5122 71.2547 29.171 72.9131 29.171C73.4658 29.171 73.996 29.3905 74.3869 29.7814C74.7778 30.1723 74.9973 30.7025 74.9973 31.2552C74.9973 31.808 74.7778 32.3382 74.3869 32.7291C73.996 33.12 73.4658 33.3395 72.9131 33.3395Z" fill="#F6C900"/>
<path d="M34.7008 52.5243C29.2723 49.8101 27.4752 48.2445 24.8907 49.8286C22.3062 51.4127 22.9176 54.062 22.9176 59.0922C22.9077 59.645 23.008 60.1943 23.2125 60.708C23.417 61.2218 23.7217 61.6897 24.1087 62.0845C24.4958 62.4794 24.9576 62.7933 25.4672 63.0079C25.9768 63.2226 26.524 63.3337 27.0769 63.3349C28.4849 63.3349 29.0593 62.8346 34.7008 60.0185C35.4031 59.6762 35.995 59.1433 36.4091 58.4808C36.8232 57.8183 37.0428 57.0527 37.0428 56.2714C37.0428 55.4901 36.8232 54.7245 36.4091 54.062C35.995 53.3995 35.4031 52.8666 34.7008 52.5243ZM27.0862 59.1385V53.3765L32.8388 56.2482L27.0862 59.1385Z" fill="#F6C900"/>
<path d="M33.3304 45.836H79.1664C81.3776 45.836 83.4982 44.9576 85.0617 43.3941C86.6252 41.8306 87.5036 39.71 87.5036 37.4988V16.6651C87.5036 14.4539 86.6252 12.3333 85.0617 10.7698C83.4982 9.20626 81.3776 8.32788 79.1664 8.32788H33.3304C31.1192 8.32788 28.9986 9.20626 27.4351 10.7698C25.8715 12.3333 24.9932 14.4539 24.9932 16.6651V37.4988C24.9932 39.71 25.8715 41.8306 27.4351 43.3941C28.9986 44.9576 31.1192 45.836 33.3304 45.836ZM29.171 16.6651C29.1735 15.5627 29.6125 14.5062 30.392 13.7267C31.1715 12.9472 32.228 12.5082 33.3304 12.5057H79.1664C80.2704 12.5057 81.3293 12.9437 82.1108 13.7234C82.8923 14.5032 83.3325 15.5611 83.335 16.6651V37.4988C83.3325 38.6036 82.8926 39.6625 82.1113 40.4437C81.3301 41.225 80.2712 41.6649 79.1664 41.6674H33.3304C32.2264 41.6649 31.1685 41.2247 30.3887 40.4432C29.6089 39.6617 29.171 38.6028 29.171 37.4988V16.6651Z" fill="#F6C900"/>
</g>
<defs>
<filter id="filter0_d" x="0" y="0" width="104.5" height="75.3661" filterUnits="userSpaceOnUse" color-interpolation-filters="sRGB">
<feFlood flood-opacity="0" result="BackgroundImageFix"/>
<feColorMatrix in="SourceAlpha" type="matrix" values="0 0 0 0 0 0 0 0 0 0 0 0 0 0 0 0 0 0 127 0" result="hardAlpha"/>
<feOffset dx="4" dy="4"/>
<feGaussianBlur stdDeviation="0.25"/>
<feColorMatrix type="matrix" values="0 0 0 0 0 0 0 0 0 0 0 0 0 0 0 0 0 0 0.1 0"/>
<feBlend mode="normal" in2="BackgroundImageFix" result="effect1_dropShadow"/>
<feBlend mode="normal" in="SourceGraphic" in2="effect1_dropShadow" result="shape"/>
</filter>
</defs>
</svg>
