<svg width="95" height="95" viewBox="0 0 95 95" fill="none" xmlns="http://www.w3.org/2000/svg">
<g filter="url(#filter0_d)">
<path d="M3.75174 14.9986V3.75174H14.9986C15.4961 3.75174 15.9733 3.5541 16.3251 3.20231C16.6768 2.85051 16.8745 2.37338 16.8745 1.87587C16.8745 1.37836 16.6768 0.901223 16.3251 0.549429C15.9733 0.197636 15.4961 1.04843e-08 14.9986 0H1.87587C1.37836 0 0.901223 0.197636 0.549429 0.549429C0.197636 0.901223 0 1.37836 0 1.87587V14.9986C0 15.4961 0.197636 15.9733 0.549429 16.3251C0.901223 16.6768 1.37836 16.8745 1.87587 16.8745C2.37338 16.8745 2.85051 16.6768 3.20231 16.3251C3.5541 15.9733 3.75174 15.4961 3.75174 14.9986Z" fill="#F6C900"/>
<path d="M14.9986 86.2482H3.75174V75.0014C3.75174 74.5038 3.5541 74.0267 3.20231 73.6749C2.85051 73.3231 2.37338 73.1255 1.87587 73.1255C1.37836 73.1255 0.901223 73.3231 0.549429 73.6749C0.197636 74.0267 1.04843e-08 74.5038 0 75.0014V88.1241C0 88.6216 0.197636 89.0987 0.549429 89.4505C0.901223 89.8023 1.37836 90 1.87587 90H14.9986C15.4961 90 15.9733 89.8023 16.325 89.4505C16.6768 89.0987 16.8745 88.6216 16.8745 88.1241C16.8745 87.6266 16.6768 87.1495 16.325 86.7977C15.9733 86.4459 15.4961 86.2482 14.9986 86.2482Z" fill="#F6C900"/>
<path d="M86.2477 75.0014V86.2482H75.0009C74.5034 86.2482 74.0262 86.4459 73.6744 86.7977C73.3226 87.1495 73.125 87.6266 73.125 88.1241C73.125 88.6216 73.3226 89.0987 73.6744 89.4505C74.0262 89.8023 74.5034 90 75.0009 90H88.1236C88.6211 90 89.0983 89.8023 89.4501 89.4505C89.8018 89.0987 89.9995 88.6216 89.9995 88.1241V75.0014C89.9995 74.5038 89.8018 74.0267 89.4501 73.6749C89.0983 73.3231 88.6211 73.1255 88.1236 73.1255C87.6261 73.1255 87.149 73.3231 86.7972 73.6749C86.4454 74.0267 86.2477 74.5038 86.2477 75.0014Z" fill="#F6C900"/>
<path d="M88.1236 0H75.0009C74.5034 0 74.0262 0.197636 73.6744 0.549429C73.3226 0.901223 73.125 1.37836 73.125 1.87587C73.125 2.37338 73.3226 2.85051 73.6744 3.20231C74.0262 3.5541 74.5034 3.75174 75.0009 3.75174H86.2477V14.9986C86.2477 15.4961 86.4454 15.9733 86.7972 16.3251C87.149 16.6768 87.6261 16.8745 88.1236 16.8745C88.6211 16.8745 89.0983 16.6768 89.4501 16.3251C89.8018 15.9733 89.9995 15.4961 89.9995 14.9986V1.87587C89.9995 1.37836 89.8018 0.901223 89.4501 0.549429C89.0983 0.197636 88.6211 0 88.1236 0Z" fill="#F6C900"/>
<path d="M52.4992 35.6248C52.4992 27.5211 52.7743 27.2876 51.6071 26.5289C50.4399 25.7703 50.4983 26.0954 35.1829 33.749H28.1213C18.0666 33.749 15.0986 47.6137 24.3779 51.7073V58.1269C24.4339 59.5809 25.0508 60.9566 26.0993 61.9655C27.1478 62.9744 28.5463 63.538 30.0013 63.538C31.4563 63.538 32.8548 62.9744 33.9033 61.9655C34.9518 60.9566 35.5687 59.5809 35.6247 58.1269V52.7244C51.2653 60.5364 50.4233 60.453 51.6071 59.7193C52.791 58.9856 52.4992 58.5688 52.4992 50.6234C54.4893 50.6234 56.3978 49.8329 57.805 48.4257C59.2122 47.0185 60.0027 45.11 60.0027 43.12C60.0027 41.1299 59.2122 39.2214 57.805 37.8142C56.3978 36.407 54.4893 35.6165 52.4992 35.6165V35.6248ZM22.4853 43.1283C22.4853 41.6372 23.0771 40.2071 24.1307 39.1519C25.1842 38.0968 26.6135 37.5029 28.1046 37.5007H33.7322V48.7476H28.1213C26.6309 48.7476 25.2017 48.1555 24.1478 47.1017C23.094 46.0479 22.502 44.6186 22.502 43.1283H22.4853ZM31.8563 58.1353C31.8563 58.6328 31.6587 59.1099 31.3069 59.4617C30.9551 59.8135 30.478 60.0111 29.9805 60.0111C29.4829 60.0111 29.0058 59.8135 28.654 59.4617C28.3022 59.1099 28.1046 58.6328 28.1046 58.1353V52.4993H31.8563V58.1353ZM48.7475 55.1172L37.5006 49.4646V36.7754L48.7475 31.1478V55.1172ZM52.4992 46.8967V39.3932C52.9919 39.3932 53.4798 39.4903 53.9349 39.6788C54.3901 39.8674 54.8037 40.1437 55.1521 40.4921C55.5005 40.8405 55.7768 41.2541 55.9654 41.7092C56.1539 42.1644 56.251 42.6523 56.251 43.145C56.251 43.6377 56.1539 44.1255 55.9654 44.5807C55.7768 45.0359 55.5005 45.4495 55.1521 45.7979C54.8037 46.1462 54.3901 46.4226 53.9349 46.6111C53.4798 46.7997 52.9919 46.8967 52.4992 46.8967Z" fill="#F6C900"/>
<path d="M65.622 44.9958H69.3737C69.8485 44.9641 70.2936 44.7532 70.6186 44.4056C70.9437 44.0581 71.1246 43.6 71.1246 43.1241C71.1246 42.6483 70.9437 42.1902 70.6186 41.8427C70.2936 41.4951 69.8485 41.2841 69.3737 41.2524H65.622C65.1472 41.2841 64.7021 41.4951 64.377 41.8427C64.052 42.1902 63.8711 42.6483 63.8711 43.1241C63.8711 43.6 64.052 44.0581 64.377 44.4056C64.7021 44.7532 65.1472 44.9641 65.622 44.9958Z" fill="#F6C900"/>
<path d="M62.3289 37.0422C63.4544 37.0422 63.8796 36.2668 66.3057 33.8407C66.6371 33.4851 66.8174 33.0148 66.8089 32.5288C66.8003 32.0428 66.6034 31.5792 66.2597 31.2355C65.916 30.8918 65.4524 30.6949 64.9664 30.6863C64.4804 30.6778 64.0101 30.8581 63.6545 31.1895L61.0032 33.8491C60.7441 34.1118 60.5682 34.4452 60.4975 34.8074C60.4269 35.1697 60.4647 35.5447 60.6063 35.8856C60.7478 36.2265 60.9867 36.518 61.2931 36.7238C61.5995 36.9295 61.9598 37.0403 62.3289 37.0422Z" fill="#F6C900"/>
<path d="M66.3059 52.4076L63.6547 49.7564C63.2991 49.425 62.8288 49.2446 62.3428 49.2532C61.8568 49.2618 61.3931 49.4587 61.0494 49.8024C60.7057 50.1461 60.5089 50.6097 60.5003 51.0957C60.4917 51.5817 60.6721 52.052 61.0035 52.4076L63.6547 55.0588C64.0103 55.3902 64.4806 55.5706 64.9666 55.562C65.4526 55.5534 65.9163 55.3566 66.26 55.0129C66.6036 54.6692 66.8005 54.2055 66.8091 53.7195C66.8177 53.2336 66.6373 52.7632 66.3059 52.4076Z" fill="#F6C900"/>
<path d="M88.1241 43.1283H86.1983C85.7211 32.852 81.4247 23.124 74.1504 15.8497C66.8761 8.57537 57.148 4.2789 46.8717 3.80177V1.87588C46.84 1.40106 46.629 0.956043 46.2815 0.630952C45.934 0.305861 45.4759 0.125 45 0.125C44.5241 0.125 44.0661 0.305861 43.7185 0.630952C43.371 0.956043 43.16 1.40106 43.1283 1.87588V3.80177C32.852 4.2789 23.124 8.57537 15.8497 15.8497C8.57537 23.124 4.2789 32.852 3.80177 43.1283H1.87588C1.40106 43.16 0.956043 43.371 0.630952 43.7185C0.305861 44.0661 0.125 44.5241 0.125 45C0.125 45.4759 0.305861 45.934 0.630952 46.2815C0.956043 46.629 1.40106 46.84 1.87588 46.8717H3.80177C4.2789 57.148 8.57537 66.8761 15.8497 74.1504C23.124 81.4247 32.852 85.7211 43.1283 86.1983V88.1241C43.16 88.599 43.371 89.044 43.7185 89.3691C44.0661 89.6942 44.5241 89.875 45 89.875C45.4759 89.875 45.934 89.6942 46.2815 89.3691C46.629 89.044 46.84 88.599 46.8717 88.1241V86.1983C57.148 85.7211 66.8761 81.4247 74.1504 74.1504C81.4247 66.8761 85.7211 57.148 86.1983 46.8717H88.1241C88.599 46.84 89.044 46.629 89.3691 46.2815C89.6942 45.934 89.875 45.4759 89.875 45C89.875 44.5241 89.6942 44.0661 89.3691 43.7185C89.044 43.371 88.599 43.16 88.1241 43.1283ZM82.4048 43.1283H78.6531C78.185 34.8518 74.6863 27.0372 68.8245 21.1755C62.9628 15.3137 55.1483 11.8151 46.8717 11.3469V7.59519C56.1407 8.07373 64.9033 11.971 71.4661 18.5339C78.029 25.0968 81.9263 33.8593 82.4048 43.1283ZM44.9958 75.0014C39.0597 75.0014 33.2568 73.2411 28.321 69.9432C23.3853 66.6452 19.5383 61.9577 17.2666 56.4733C14.9949 50.989 14.4006 44.9542 15.5587 39.1321C16.7167 33.31 19.5753 27.962 23.7728 23.7645C27.9703 19.567 33.3183 16.7084 39.1404 15.5503C44.9626 14.3922 50.9973 14.9866 56.4817 17.2583C61.966 19.53 66.6535 23.3769 69.9515 28.3127C73.2495 33.2484 75.0097 39.0513 75.0097 44.9875C75.0097 52.9477 71.8476 60.5818 66.2189 66.2105C60.5902 71.8392 52.956 75.0014 44.9958 75.0014ZM43.1283 7.59519V11.3469C34.8512 11.8133 27.0356 15.3114 21.1735 21.1735C15.3114 27.0356 11.8133 34.8512 11.3469 43.1283H7.59519C8.07373 33.8593 11.971 25.0968 18.5339 18.5339C25.0968 11.971 33.8593 8.07373 43.1283 7.59519ZM7.59519 46.8717H11.3469C11.8133 55.1489 15.3114 62.9644 21.1735 68.8266C27.0356 74.6887 34.8512 78.1868 43.1283 78.6531V82.4048C33.8593 81.9263 25.0968 78.029 18.5339 71.4661C11.971 64.9033 8.07373 56.1407 7.59519 46.8717ZM46.8717 82.4048V78.6531C55.1483 78.185 62.9628 74.6863 68.8245 68.8245C74.6863 62.9628 78.185 55.1483 78.6531 46.8717H82.4048C81.9263 56.1407 78.029 64.9033 71.4661 71.4661C64.9033 78.029 56.1407 81.9263 46.8717 82.4048Z" fill="#F6C900"/>
</g>
<defs>
<filter id="filter0_d" x="0" y="0" width="94.4995" height="94.5" filterUnits="userSpaceOnUse" color-interpolation-filters="sRGB">
<feFlood flood-opacity="0" result="BackgroundImageFix"/>
<feColorMatrix in="SourceAlpha" type="matrix" values="0 0 0 0 0 0 0 0 0 0 0 0 0 0 0 0 0 0 127 0" result="hardAlpha"/>
<feOffset dx="4" dy="4"/>
<feGaussianBlur stdDeviation="0.25"/>
<feColorMatrix type="matrix" values="0 0 0 0 0 0 0 0 0 0 0 0 0 0 0 0 0 0 0.1 0"/>
<feBlend mode="normal" in2="BackgroundImageFix" result="effect1_dropShadow"/>
<feBlend mode="normal" in="SourceGraphic" in2="effect1_dropShadow" result="shape"/>
</filter>
</defs>
</svg>
