<svg width="95" height="95" viewBox="0 0 95 95" fill="none" xmlns="http://www.w3.org/2000/svg">
<g filter="url(#filter0_d)">
<path d="M84.3906 0H5.62882C4.13741 -1.63666e-06 2.70696 0.591889 1.65159 1.64569C0.59622 2.6995 0.0022095 4.12907 0 5.62048V69.3888C0.0022095 70.8802 0.59622 72.3098 1.65159 73.3636C2.70696 74.4174 4.13741 75.0093 5.62882 75.0093H45.0473C47.7028 78.5706 51.5421 81.0674 55.8744 82.0503C60.2067 83.0333 64.7475 82.4379 68.68 80.3712L76.6604 88.3517C77.712 89.4055 79.1392 89.9984 80.628 90C81.3652 90.0008 82.0953 89.8563 82.7767 89.575C83.458 89.2936 84.0773 88.8807 84.5991 88.36C85.1209 87.8393 85.5351 87.2209 85.8179 86.5401C86.1007 85.8594 86.2467 85.1295 86.2475 84.3924C86.2482 83.6552 86.1038 82.9251 85.8224 82.2437C85.541 81.5624 85.1282 80.9431 84.6075 80.4213L79.2038 75.0093H84.3906C85.882 75.0093 87.3125 74.4174 88.3679 73.3636C89.4232 72.3098 90.0173 70.8802 90.0195 69.3888V5.62048C90.0173 4.12907 89.4232 2.6995 88.3679 1.64569C87.3125 0.591889 85.882 -1.63666e-06 84.3906 0ZM60.0158 78.7618C57.047 78.7618 54.145 77.8815 51.6765 76.2321C49.2081 74.5828 47.2842 72.2385 46.1481 69.4958C45.0121 66.753 44.7148 63.735 45.294 60.8233C45.8731 57.9116 47.3027 55.237 49.4019 53.1378C51.5012 51.0386 54.1757 49.609 57.0874 49.0299C59.9991 48.4507 63.0172 48.7479 65.7599 49.884C68.5027 51.0201 70.8469 52.944 72.4963 55.4124C74.1456 57.8808 75.0259 60.7829 75.0259 63.7516C75.0259 67.7326 73.4445 71.5505 70.6296 74.3654C67.8146 77.1804 63.9967 78.7618 60.0158 78.7618ZM81.9557 83.0647C82.2821 83.419 82.4591 83.8856 82.4497 84.3673C82.4403 84.8489 82.2451 85.3083 81.9051 85.6494C81.565 85.9906 81.1062 86.1872 80.6246 86.1982C80.143 86.2091 79.6758 86.0336 79.3205 85.7082L71.8821 78.2615C72.8459 77.4728 73.7286 76.5901 74.5173 75.6264L81.9557 83.0647ZM86.2669 69.3888C86.2669 69.6348 86.2183 69.8784 86.1239 70.1055C86.0295 70.3327 85.8912 70.539 85.7169 70.7126C85.5425 70.8861 85.3356 71.0236 85.108 71.1169C84.8804 71.2103 84.6366 71.2578 84.3906 71.2567H77.1857C78.434 68.4037 78.9519 65.2847 78.6925 62.1814C78.4332 59.0781 77.4048 56.0883 75.7004 53.4821C73.9959 50.8759 71.669 48.7353 68.9299 47.2538C66.1908 45.7723 63.1257 44.9965 60.0116 44.9965C56.8975 44.9965 53.8324 45.7723 51.0933 47.2538C48.3542 48.7353 46.0273 50.8759 44.3228 53.4821C42.6183 56.0883 41.59 59.0781 41.3306 62.1814C41.0713 65.2847 41.5892 68.4037 42.8374 71.2567H5.62882C5.38282 71.2578 5.13903 71.2103 4.91143 71.1169C4.68384 71.0236 4.47694 70.8861 4.3026 70.7126C4.12826 70.539 3.98992 70.3327 3.89553 70.1055C3.80114 69.8784 3.75255 69.6348 3.75255 69.3888V18.7544H30.0037C31.3046 18.7544 31.388 18.179 34.7569 13.1256H86.2669V69.3888ZM86.2669 9.34802C29.6368 9.34802 33.0141 8.96442 32.1969 10.1819L29.003 14.9768H3.75255V5.62048C3.75255 5.37448 3.80114 5.1309 3.89553 4.90372C3.98992 4.67655 4.12826 4.47026 4.3026 4.2967C4.47694 4.12313 4.68384 3.98572 4.91143 3.89234C5.13903 3.79896 5.38282 3.75145 5.62882 3.75255H84.3906C84.6366 3.75145 84.8804 3.79896 85.108 3.89234C85.3356 3.98572 85.5425 4.12313 85.7169 4.2967C85.8912 4.47026 86.0295 4.67655 86.1239 4.90372C86.2183 5.1309 86.2669 5.37448 86.2669 5.62048V9.34802Z" fill="#F6C900"/>
<path d="M8.04691 8.04706C7.83049 8.26595 7.67125 8.53473 7.58323 8.8297C7.49521 9.12466 7.48111 9.43675 7.54218 9.73845C7.60325 10.0402 7.73761 10.3222 7.93341 10.5597C8.12921 10.7972 8.38044 10.9829 8.66495 11.1004C8.94946 11.2179 9.25851 11.2636 9.56485 11.2335C9.87119 11.2033 10.1654 11.0983 10.4216 10.9276C10.6777 10.7569 10.888 10.5258 11.0337 10.2547C11.1795 9.98359 11.2563 9.68077 11.2574 9.37296C11.2548 9.00217 11.1428 8.64039 10.9356 8.33292C10.7283 8.02545 10.435 7.78595 10.0922 7.64441C9.74952 7.50287 9.37265 7.46558 9.00883 7.5372C8.64502 7.60882 8.31041 7.78618 8.04691 8.04706Z" fill="#F6C900"/>
<path d="M18.212 8.04719C17.8561 7.70861 17.3821 7.52235 16.891 7.52808C16.3998 7.53381 15.9303 7.73108 15.5824 8.07786C15.2345 8.42465 15.0358 8.89354 15.0285 9.38469C15.0213 9.87583 15.206 10.3504 15.5435 10.7073C15.8994 11.0459 16.3734 11.2322 16.8645 11.2264C17.3557 11.2207 17.8252 11.0234 18.1731 10.6767C18.5209 10.3299 18.7197 9.86097 18.7269 9.36983C18.7342 8.87868 18.5494 8.40411 18.212 8.04719Z" fill="#F6C900"/>
<path d="M24.0078 7.53836C23.5836 7.62449 23.2023 7.8546 22.9284 8.1897C22.6545 8.52481 22.5049 8.9443 22.5049 9.37711C22.5049 9.80991 22.6545 10.2294 22.9284 10.5645C23.2023 10.8996 23.5836 11.1297 24.0078 11.2159C27.1016 11.6411 26.8264 7.02134 24.0078 7.53836Z" fill="#F6C900"/>
<path d="M60.3574 61.8836H50.6341C50.1365 61.8836 49.6592 62.0813 49.3074 62.4332C48.9555 62.785 48.7578 63.2623 48.7578 63.7599V67.5124C48.7578 68.0101 48.9555 68.4873 49.3074 68.8392C49.6592 69.191 50.1365 69.3887 50.6341 69.3887C51.1317 69.3887 51.6089 69.191 51.9608 68.8392C52.3127 68.4873 52.5104 68.0101 52.5104 67.5124V65.6362H54.3866V67.5124C54.3866 68.0101 54.5843 68.4873 54.9362 68.8392C55.2881 69.191 55.7653 69.3887 56.2629 69.3887C56.7605 69.3887 57.2378 69.191 57.5896 68.8392C57.9415 68.4873 58.1392 68.0101 58.1392 67.5124V65.6362H60.3574C62.4838 71.6069 71.2648 70.0141 71.2648 63.7599C71.2648 57.5056 62.4838 55.9129 60.3574 61.8836ZM65.6359 65.6362C65.1383 65.6362 64.6611 65.4385 64.3092 65.0866C63.9573 64.7347 63.7597 64.2575 63.7597 63.7599C63.7597 63.2623 63.9573 62.785 64.3092 62.4332C64.6611 62.0813 65.1383 61.8836 65.6359 61.8836C66.1336 61.8836 66.6108 62.0813 66.9627 62.4332C67.3145 62.785 67.5122 63.2623 67.5122 63.7599C67.5122 64.2575 67.3145 64.7347 66.9627 65.0866C66.6108 65.4385 66.1336 65.6362 65.6359 65.6362Z" fill="#F6C900"/>
<path d="M30.0033 56.2549H14.9931C13.5002 56.2549 12.0685 56.8479 11.0129 57.9035C9.95729 58.9591 9.36426 60.3908 9.36426 61.8837C9.36426 63.3766 9.95729 64.8083 11.0129 65.8639C12.0685 66.9195 13.5002 67.5125 14.9931 67.5125H30.0033C31.4961 67.5125 32.9278 66.9195 33.9835 65.8639C35.0391 64.8083 35.6321 63.3766 35.6321 61.8837C35.6321 60.3908 35.0391 58.9591 33.9835 57.9035C32.9278 56.8479 31.4961 56.2549 30.0033 56.2549ZM30.0033 63.76H14.9931C14.4955 63.76 14.0182 63.5623 13.6664 63.2104C13.3145 62.8586 13.1168 62.3813 13.1168 61.8837C13.1168 61.3861 13.3145 60.9089 13.6664 60.557C14.0182 60.2051 14.4955 60.0074 14.9931 60.0074H30.0033C30.5009 60.0074 30.9781 60.2051 31.33 60.557C31.6819 60.9089 31.8795 61.3861 31.8795 61.8837C31.8795 62.3813 31.6819 62.8586 31.33 63.2104C30.9781 63.5623 30.5009 63.76 30.0033 63.76Z" fill="#F6C900"/>
<path d="M35.6323 26.2512H38.6093L27.7686 37.0918C21.2392 33.823 20.6888 33.2392 19.513 34.1232C11.4909 40.1439 11.2658 39.9605 11.2658 41.2447V48.7498H9.38116C8.88354 48.7498 8.4063 48.9474 8.05443 49.2993C7.70256 49.6512 7.50488 50.1284 7.50488 50.626C7.50488 51.1237 7.70256 51.6009 8.05443 51.9528C8.4063 52.3046 8.88354 52.5023 9.38116 52.5023H39.4015C39.8992 52.5023 40.3764 52.3046 40.7283 51.9528C41.0801 51.6009 41.2778 51.1237 41.2778 50.626C41.2778 50.1284 41.0801 49.6512 40.7283 49.2993C40.3764 48.9474 39.8992 48.7498 39.4015 48.7498H37.5086V32.6555L41.2611 28.903V31.88C41.2929 32.3549 41.5039 32.8 41.8515 33.1252C42.1991 33.4503 42.6573 33.6312 43.1332 33.6312C43.6092 33.6312 44.0674 33.4503 44.415 33.1252C44.7626 32.8 44.9736 32.3549 45.0054 31.88C45.0054 20.7391 46.6731 22.4986 35.6323 22.4986C35.1347 22.4986 34.6575 22.6963 34.3056 23.0482C33.9537 23.4 33.756 23.8773 33.756 24.3749C33.756 24.8725 33.9537 25.3497 34.3056 25.7016C34.6575 26.0535 35.1347 26.2512 35.6323 26.2512ZM18.7542 48.7664H15.0016V42.1953L18.7542 39.3767V48.7664ZM26.2593 48.7664H22.5067V38.6679L26.2593 40.5359V48.7664ZM33.7644 48.7664H30.0118V40.1606L33.7644 36.408V48.7664Z" fill="#F6C900"/>
<path d="M52.511 30.0036H78.7622C79.2598 30.0036 79.7371 29.806 80.0889 29.4541C80.4408 29.1022 80.6385 28.625 80.6385 28.1274C80.6385 27.6298 80.4408 27.1525 80.0889 26.8006C79.7371 26.4488 79.2598 26.2511 78.7622 26.2511H52.511C52.0134 26.2511 51.5362 26.4488 51.1843 26.8006C50.8324 27.1525 50.6348 27.6298 50.6348 28.1274C50.6348 28.625 50.8324 29.1022 51.1843 29.4541C51.5362 29.806 52.0134 30.0036 52.511 30.0036Z" fill="#F6C900"/>
<path d="M78.762 33.7562H60.0159C59.5183 33.7562 59.0411 33.9539 58.6892 34.3058C58.3373 34.6576 58.1396 35.1349 58.1396 35.6325C58.1396 36.1301 58.3373 36.6074 58.6892 36.9592C59.0411 37.3111 59.5183 37.5088 60.0159 37.5088H78.762C79.2596 37.5088 79.7368 37.3111 80.0887 36.9592C80.4406 36.6074 80.6383 36.1301 80.6383 35.6325C80.6383 35.1349 80.4406 34.6576 80.0887 34.3058C79.7368 33.9539 79.2596 33.7562 78.762 33.7562Z" fill="#F6C900"/>
</g>
<defs>
<filter id="filter0_d" x="0" y="0" width="94.5195" height="94.5" filterUnits="userSpaceOnUse" color-interpolation-filters="sRGB">
<feFlood flood-opacity="0" result="BackgroundImageFix"/>
<feColorMatrix in="SourceAlpha" type="matrix" values="0 0 0 0 0 0 0 0 0 0 0 0 0 0 0 0 0 0 127 0" result="hardAlpha"/>
<feOffset dx="4" dy="4"/>
<feGaussianBlur stdDeviation="0.25"/>
<feColorMatrix type="matrix" values="0 0 0 0 0 0 0 0 0 0 0 0 0 0 0 0 0 0 0.1 0"/>
<feBlend mode="normal" in2="BackgroundImageFix" result="effect1_dropShadow"/>
<feBlend mode="normal" in="SourceGraphic" in2="effect1_dropShadow" result="shape"/>
</filter>
</defs>
</svg>
