<svg width="95" height="95" viewBox="0 0 95 95" fill="none" xmlns="http://www.w3.org/2000/svg">
<g filter="url(#filter0_d)">
<path d="M88.1205 86.2492H86.2447V28.133C86.2447 27.6356 86.0471 27.1584 85.6953 26.8067C85.3435 26.4549 84.8664 26.2573 84.3689 26.2573H73.1225C72.8759 26.2562 72.6314 26.3039 72.4034 26.3978C72.1753 26.4917 71.9681 26.6298 71.7937 26.8042C71.6192 26.9786 71.4811 27.1858 71.3872 27.4139C71.2934 27.642 71.2456 27.8864 71.2467 28.133V86.2492H65.6193V54.3774C65.6193 53.88 65.4217 53.4028 65.0699 53.0511C64.7181 52.6993 64.241 52.5017 63.7435 52.5017H52.4971C51.9996 52.5017 51.5225 52.6993 51.1707 53.0511C50.819 53.4028 50.6213 53.88 50.6213 54.3774V86.2492H44.994V43.131C44.994 42.6335 44.7963 42.1564 44.4446 41.8047C44.0928 41.4529 43.6157 41.2552 43.1182 41.2552H31.8718C31.3743 41.2552 30.8972 41.4529 30.5454 41.8047C30.1936 42.1564 29.996 42.6335 29.996 43.131V86.2492H24.3769V65.6238C24.3769 65.1264 24.1793 64.6492 23.8275 64.2975C23.4758 63.9457 22.9986 63.7481 22.5012 63.7481H11.2464C10.7489 63.7481 10.2718 63.9457 9.92002 64.2975C9.56824 64.6492 9.37062 65.1264 9.37062 65.6238V86.2492H3.75158V1.88031C3.75158 1.38282 3.55395 0.905702 3.20218 0.553923C2.8504 0.202144 2.37328 0.0045166 1.87579 0.0045166C1.3783 0.0045166 0.901185 0.202144 0.549406 0.553923C0.197627 0.905702 1.04838e-08 1.38282 0 1.88031V88.125C0 88.6225 0.197627 89.0996 0.549406 89.4514C0.901185 89.8032 1.3783 90.0008 1.87579 90.0008H88.1205C88.618 90.0008 89.0951 89.8032 89.4469 89.4514C89.7987 89.0996 89.9963 88.6225 89.9963 88.125C89.9963 87.6275 89.7987 87.1504 89.4469 86.7986C89.0951 86.4468 88.618 86.2492 88.1205 86.2492ZM13.0889 86.2492V67.4996H20.592V86.2492H13.0889ZM33.7142 86.2492V45.0068H41.2174V86.2492H33.7142ZM54.3396 86.2492V56.2366H61.8427V86.2492H54.3396ZM74.9566 86.2492V30.0005H82.4598V86.2492H74.9566Z" fill="#F6C900"/>
<path d="M16.8738 25.4561V31.8755C16.8446 32.6322 16.9685 33.3869 17.2379 34.0946C17.5074 34.8022 17.9169 35.4482 18.442 35.9939C18.967 36.5395 19.5968 36.9736 20.2935 37.2701C20.9903 37.5666 21.7397 37.7194 22.497 37.7194C23.2542 37.7194 24.0036 37.5666 24.7004 37.2701C25.3972 36.9736 26.0269 36.5395 26.552 35.9939C27.077 35.4482 27.4865 34.8022 27.756 34.0946C28.0254 33.3869 28.1493 32.6322 28.1202 31.8755V26.4732C43.535 34.1848 42.4929 33.7513 43.1265 33.7513C43.624 33.7513 44.1011 33.5537 44.4529 33.2019C44.8047 32.8501 45.0023 32.373 45.0023 31.8755V24.3723C45.9876 24.3723 46.9633 24.1783 47.8736 23.8012C48.7839 23.4241 49.6111 22.8714 50.3078 22.1747C51.0046 21.478 51.5572 20.6508 51.9343 19.7405C52.3114 18.8302 52.5054 17.8545 52.5054 16.8692C52.5054 15.8838 52.3114 14.9082 51.9343 13.9978C51.5572 13.0875 51.0046 12.2604 50.3078 11.5636C49.6111 10.8669 48.7839 10.3142 47.8736 9.93715C46.9633 9.56008 45.9876 9.366 45.0023 9.366V1.86284C45.0001 1.54469 44.917 1.23233 44.7608 0.955127C44.6047 0.677928 44.3806 0.445003 44.1096 0.278258C43.8387 0.111513 43.5298 0.0164278 43.2119 0.0019448C42.8941 -0.0125382 42.5778 0.0540571 42.2928 0.195468L27.6783 7.50688H20.6253C10.5628 7.50688 7.5865 21.3711 16.8738 25.4561ZM24.3769 31.8755C24.3769 32.373 24.1793 32.8501 23.8275 33.2019C23.4757 33.5537 22.9986 33.7513 22.5011 33.7513C22.0036 33.7513 21.5265 33.5537 21.1747 33.2019C20.823 32.8501 20.6253 32.373 20.6253 31.8755V26.2565H24.3769V31.8755ZM48.7455 16.8692C48.7433 17.8635 48.3474 18.8164 47.6443 19.5195C46.9412 20.2226 45.9882 20.6185 44.9939 20.6207V13.1176C45.4873 13.1176 45.9758 13.2149 46.4315 13.404C46.8872 13.593 47.3012 13.8701 47.6497 14.2193C47.9981 14.5686 48.2743 14.9831 48.4624 15.4393C48.6504 15.8954 48.7466 16.3841 48.7455 16.8775V16.8692ZM41.2424 28.8325L29.9876 23.2135V10.5415L41.2424 4.91412V28.8325ZM20.6253 11.2585H26.2444V22.5049H20.6253C19.8687 22.534 19.1139 22.4101 18.4062 22.1407C17.6986 21.8712 17.0526 21.4617 16.5069 20.9367C15.9613 20.4116 15.5272 19.7819 15.2307 19.0851C14.9342 18.3883 14.7814 17.6389 14.7814 16.8817C14.7814 16.1244 14.9342 15.375 15.2307 14.6782C15.5272 13.9815 15.9613 13.3517 16.5069 12.8267C17.0526 12.3016 17.6986 11.8921 18.4062 11.6227C19.1139 11.3532 19.8687 11.2293 20.6253 11.2585Z" fill="#F6C900"/>
<path d="M58.1248 18.7533H61.8681C62.3655 18.7533 62.8427 18.5557 63.1944 18.2039C63.5462 17.8521 63.7438 17.375 63.7438 16.8775C63.7438 16.38 63.5462 15.9029 63.1944 15.5511C62.8427 15.1993 62.3655 15.0017 61.8681 15.0017H58.1248C57.6273 15.0017 57.1502 15.1993 56.7984 15.5511C56.4466 15.9029 56.249 16.38 56.249 16.8775C56.249 17.375 56.4466 17.8521 56.7984 18.2039C57.1502 18.5557 57.6273 18.7533 58.1248 18.7533Z" fill="#F6C900"/>
<path d="M54.8234 10.7999C55.9488 10.7999 56.3824 10.0246 58.8 7.59853C59.1314 7.24294 59.3118 6.77263 59.3032 6.28667C59.2946 5.80071 59.0977 5.33705 58.7541 4.99338C58.4104 4.6497 57.9467 4.45284 57.4608 4.44426C56.9748 4.43569 56.5045 4.61607 56.1489 4.94741L53.4978 7.59853C53.2358 7.86086 53.0574 8.19494 52.9852 8.55859C52.9129 8.92225 52.9501 9.29915 53.0919 9.6417C53.2338 9.98425 53.4739 10.2771 53.7821 10.4832C54.0903 10.6894 54.4526 10.7996 54.8234 10.7999Z" fill="#F6C900"/>
<path d="M56.1487 28.8075C56.5043 29.1388 56.9746 29.3192 57.4606 29.3107C57.9465 29.3021 58.4102 29.1052 58.7538 28.7615C59.0975 28.4179 59.2944 27.9542 59.303 27.4683C59.3115 26.9823 59.1312 26.512 58.7998 26.1564L56.1487 23.5053C55.7931 23.1739 55.3228 22.9935 54.8368 23.0021C54.3509 23.0107 53.8872 23.2076 53.5435 23.5512C53.1999 23.8949 53.003 24.3586 52.9944 24.8445C52.9859 25.3305 53.1662 25.8008 53.4976 26.1564L56.1487 28.8075Z" fill="#F6C900"/>
</g>
<defs>
<filter id="filter0_d" x="0" y="0" width="94.4963" height="94.5008" filterUnits="userSpaceOnUse" color-interpolation-filters="sRGB">
<feFlood flood-opacity="0" result="BackgroundImageFix"/>
<feColorMatrix in="SourceAlpha" type="matrix" values="0 0 0 0 0 0 0 0 0 0 0 0 0 0 0 0 0 0 127 0" result="hardAlpha"/>
<feOffset dx="4" dy="4"/>
<feGaussianBlur stdDeviation="0.25"/>
<feColorMatrix type="matrix" values="0 0 0 0 0 0 0 0 0 0 0 0 0 0 0 0 0 0 0.1 0"/>
<feBlend mode="normal" in2="BackgroundImageFix" result="effect1_dropShadow"/>
<feBlend mode="normal" in="SourceGraphic" in2="effect1_dropShadow" result="shape"/>
</filter>
</defs>
</svg>
