<svg width="95" height="95" viewBox="0 0 95 95" fill="none" xmlns="http://www.w3.org/2000/svg">
<g filter="url(#filter0_d)">
<path d="M79.0626 43.1243H69.259C68.8531 37.9665 66.8084 33.0736 63.4235 29.1608L68.4253 24.1589C70.7237 25.7926 73.5518 26.5032 76.3494 26.1499C79.1469 25.7967 81.7097 24.4054 83.5298 22.2518C85.35 20.0981 86.2946 17.3393 86.1766 14.522C86.0586 11.7047 84.8865 9.03457 82.8926 7.0407C80.8987 5.04683 78.2286 3.87475 75.4113 3.75672C72.594 3.6387 69.8352 4.58336 67.6815 6.40348C65.5279 8.22361 64.1366 10.7864 63.7834 13.5839C63.4301 16.3815 64.1407 19.2096 65.7744 21.508L60.7725 26.5098C56.8543 23.14 51.962 21.1101 46.809 20.716V14.7305C55.3538 12.513 53.6449 0 44.9333 0C36.2217 0 34.5378 12.5046 43.066 14.7305V20.716C37.9081 21.1218 33.0153 23.1666 29.1024 26.5515L19.5322 16.9063C20.46 15.3332 20.7822 13.4758 20.4384 11.6823C20.0945 9.88869 19.1084 8.28209 17.6647 7.16364C16.221 6.04519 14.419 5.49169 12.5964 5.60691C10.7738 5.72212 9.0558 6.49813 7.76446 7.78947C6.47312 9.08081 5.69711 10.7988 5.5819 12.6214C5.46668 14.444 6.02018 16.246 7.13863 17.6897C8.25708 19.1334 9.86368 20.1196 11.6573 20.4634C13.4508 20.8072 15.3082 20.485 16.8813 19.5572L26.4848 29.1608C23.115 33.079 21.0851 37.9714 20.691 43.1243H10.904C8.77825 37.1554 0 38.7477 0 44.9917C0 51.2356 8.75324 52.8362 10.904 46.8674H20.691C21.0968 52.0252 23.1416 56.918 26.5265 60.8309L20.1741 67.1832C18.2369 65.903 15.8934 65.3876 13.5978 65.737C11.3022 66.0865 9.21817 67.2758 7.74964 69.0745C6.28112 70.8731 5.53275 73.153 5.64962 75.4721C5.76649 77.7912 6.74028 79.9842 8.38219 81.6261C10.0241 83.2681 12.2172 84.2419 14.5363 84.3587C16.8553 84.4756 19.1352 83.7272 20.9339 82.2587C22.7325 80.7902 23.9219 78.7061 24.2713 76.4105C24.6207 74.115 24.1054 71.7714 22.8251 69.8342L29.1358 63.4485C33.0486 66.8334 37.9415 68.8782 43.0993 69.284V75.2695C34.5545 77.487 36.2634 90 44.9667 90C53.6699 90 55.3705 77.4954 46.8424 75.2695V69.284C52.0002 68.8782 56.893 66.8334 60.8059 63.4485L66.6413 69.284C65.7136 70.857 65.3914 72.7144 65.7352 74.508C66.079 76.3016 67.0652 77.9082 68.5089 79.0266C69.9526 80.1451 71.7546 80.6986 73.5772 80.5834C75.3998 80.4681 77.1178 79.6921 78.4091 78.4008C79.7005 77.1095 80.4765 75.3914 80.5917 73.5689C80.7069 71.7463 80.1534 69.9442 79.035 68.5005C77.9165 67.0569 76.3099 66.0707 74.5163 65.7269C72.7227 65.3831 70.8653 65.7053 69.2923 66.633L63.4568 60.7975C66.8231 56.8894 68.8556 52.0096 69.259 46.8674H79.0709C81.1967 52.8362 89.975 51.244 89.975 44.9917C89.975 38.7393 81.1884 37.1554 79.0626 43.1243ZM74.9694 7.50278C76.4533 7.50278 77.9039 7.94281 79.1378 8.76723C80.3716 9.59164 81.3332 10.7634 81.9011 12.1344C82.469 13.5053 82.6175 15.0139 82.328 16.4693C82.0386 17.9247 81.324 19.2615 80.2747 20.3108C79.2254 21.3601 77.8885 22.0747 76.4332 22.3642C74.9778 22.6537 73.4692 22.5051 72.0982 21.9372C70.7273 21.3694 69.5555 20.4077 68.7311 19.1739C67.9067 17.9401 67.4667 16.4895 67.4667 15.0056C67.4667 13.0157 68.2571 11.1073 69.6642 9.70029C71.0712 8.29325 72.9796 7.50278 74.9694 7.50278ZM41.2236 7.50278C41.2236 6.76047 41.4438 6.03485 41.8564 5.41776C42.269 4.80066 42.8554 4.31984 43.5413 4.03616C44.2273 3.75247 44.982 3.67867 45.7099 3.82409C46.4378 3.96952 47.1063 4.32763 47.6306 4.85311C48.1549 5.37858 48.5115 6.0478 48.6553 6.77604C48.7991 7.50429 48.7236 8.25883 48.4384 8.94416C48.1532 9.62949 47.6711 10.2148 47.0531 10.626C46.4351 11.0372 45.709 11.2558 44.9667 11.2542C43.9732 11.252 43.0211 10.8558 42.3194 10.1525C41.6177 9.44919 41.2236 8.49627 41.2236 7.50278ZM9.35346 13.1215C9.35347 12.3792 9.57369 11.6536 9.98627 11.0365C10.3988 10.4194 10.9852 9.93859 11.6712 9.65491C12.3572 9.37122 13.1119 9.29742 13.8398 9.44284C14.5677 9.58827 15.2361 9.94638 15.7604 10.4719C16.2847 10.9973 16.6414 11.6665 16.7852 12.3948C16.929 13.123 16.8535 13.8776 16.5683 14.5629C16.2831 15.2482 15.801 15.8335 15.1829 16.2448C14.5649 16.656 13.8388 16.8746 13.0965 16.8729C12.6043 16.8729 12.1169 16.7758 11.6622 16.5872C11.2075 16.3986 10.7945 16.1221 10.4468 15.7737C10.0991 15.4252 9.82361 15.0116 9.63599 14.5565C9.44838 14.1014 9.35237 13.6138 9.35346 13.1215ZM5.60208 46.8674C5.1273 46.8357 4.68232 46.6247 4.35726 46.2772C4.0322 45.9297 3.85136 45.4717 3.85136 44.9958C3.85136 44.52 4.0322 44.062 4.35726 43.7145C4.68232 43.367 5.1273 43.156 5.60208 43.1243C6.07685 43.156 6.52183 43.367 6.84689 43.7145C7.17195 44.062 7.35279 44.52 7.35279 44.9958C7.35279 45.4717 7.17195 45.9297 6.84689 46.2772C6.52183 46.6247 6.07685 46.8357 5.60208 46.8674ZM39.3479 46.8674V43.1243H50.5937V46.8674C50.6229 47.624 50.499 48.3787 50.2296 49.0863C49.9601 49.794 49.5506 50.4399 49.0256 50.9855C48.5006 51.5312 47.8709 51.9652 47.1741 52.2617C46.4774 52.5582 45.728 52.711 44.9708 52.711C44.2136 52.711 43.4642 52.5582 42.7675 52.2617C42.0708 51.9652 41.441 51.5312 40.916 50.9855C40.391 50.4399 39.9815 49.794 39.7121 49.0863C39.4426 48.3787 39.3188 47.624 39.3479 46.8674ZM38.756 35.8633C38.5726 35.5132 37.5056 35.6215 48.7597 35.6215C49.2572 35.6215 49.7343 35.8191 50.086 36.1709C50.4378 36.5227 50.6354 36.9998 50.6354 37.4972V39.3729H39.3479C39.4652 38.1713 39.2609 36.96 38.756 35.8633ZM54.3451 56.2458C55.4352 56.2402 56.5032 56.5526 57.4183 57.1449C58.3334 57.7372 59.0558 58.5836 59.497 59.5804C55.6404 63.4254 50.4167 65.5845 44.9708 65.5845C39.525 65.5845 34.3012 63.4254 30.4446 59.5804C30.8849 58.583 31.6071 57.736 32.5225 57.1435C33.4378 56.5511 34.5062 56.2391 35.5965 56.2458H54.3451ZM14.9722 80.6132C13.8589 80.6132 12.7707 80.283 11.8451 79.6643C10.9196 79.0456 10.1983 78.1663 9.77267 77.1376C9.34702 76.1089 9.23607 74.977 9.45387 73.8852C9.67167 72.7935 10.2084 71.7908 10.9962 71.0042C11.784 70.2176 12.7874 69.6823 13.8795 69.4661C14.9716 69.25 16.1033 69.3626 17.1314 69.7898C18.1595 70.2169 19.0377 70.9395 19.655 71.8659C20.2723 72.7924 20.6009 73.8812 20.5993 74.9944C20.5993 75.733 20.4537 76.4643 20.1708 77.1466C19.8879 77.8288 19.4733 78.4486 18.9507 78.9705C18.428 79.4923 17.8076 79.906 17.125 80.1879C16.4423 80.4698 15.7108 80.6143 14.9722 80.6132ZM48.718 82.4889C48.718 83.2308 48.498 83.9561 48.0858 84.5731C47.6736 85.19 47.0877 85.6708 46.4023 85.9547C45.7168 86.2387 44.9625 86.3129 44.2348 86.1682C43.5071 86.0234 42.8387 85.6662 42.314 85.1415C41.7894 84.6169 41.4321 83.9484 41.2873 83.2207C41.1426 82.493 41.2169 81.7388 41.5008 81.0533C41.7848 80.3678 42.2656 79.7819 42.8825 79.3697C43.4994 78.9575 44.2247 78.7375 44.9667 78.7375C45.9616 78.7375 46.9158 79.1327 47.6193 79.8363C48.3228 80.5398 48.718 81.494 48.718 82.4889ZM76.8451 73.1188C76.8451 73.8607 76.6251 74.586 76.2129 75.2029C75.8007 75.8198 75.2148 76.3007 74.5293 76.5846C73.8439 76.8685 73.0896 76.9428 72.3619 76.7981C71.6342 76.6533 70.9658 76.296 70.4411 75.7714C69.9165 75.2467 69.5592 74.5783 69.4144 73.8506C69.2697 73.1229 69.344 72.3686 69.6279 71.6832C69.9118 70.9977 70.3927 70.4118 71.0096 69.9996C71.6265 69.5874 72.3518 69.3674 73.0937 69.3674C74.088 69.3696 75.0409 69.7655 75.7439 70.4686C76.447 71.1716 76.8429 72.1245 76.8451 73.1188ZM62.048 56.5459C59.3053 52.6112 55.6373 52.4944 52.4194 52.4944C54.9704 49.1599 54.3451 46.5506 54.3451 37.4889C54.3429 35.9972 53.7494 34.5672 52.6946 33.5124C51.6398 32.4576 50.2098 31.864 48.718 31.8618C34.3961 31.8618 34.7462 31.5534 34.0043 32.7538C33.2623 33.9542 34.0043 34.7129 35.3964 37.5389C35.6549 38.0391 35.5965 38.1308 35.5965 41.2403C35.5965 46.7423 35.138 49.3433 37.5222 52.4861C34.1376 52.4861 30.628 52.5695 27.8937 56.5376C18.6736 42.9576 28.4105 24.3757 44.9667 24.3757C61.5228 24.3757 71.2597 42.9659 62.048 56.5459ZM84.3396 46.8674C83.8648 46.8357 83.4198 46.6247 83.0948 46.2772C82.7697 45.9297 82.5889 45.4717 82.5889 44.9958C82.5889 44.52 82.7697 44.062 83.0948 43.7145C83.4198 43.367 83.8648 43.156 84.3396 43.1243C84.8143 43.156 85.2593 43.367 85.5844 43.7145C85.9094 44.062 86.0903 44.52 86.0903 44.9958C86.0903 45.4717 85.9094 45.9297 85.5844 46.2772C85.2593 46.6247 84.8143 46.8357 84.3396 46.8674Z" fill="#F6C900"/>
</g>
<defs>
<filter id="filter0_d" x="0" y="0" width="94.475" height="94.5" filterUnits="userSpaceOnUse" color-interpolation-filters="sRGB">
<feFlood flood-opacity="0" result="BackgroundImageFix"/>
<feColorMatrix in="SourceAlpha" type="matrix" values="0 0 0 0 0 0 0 0 0 0 0 0 0 0 0 0 0 0 127 0" result="hardAlpha"/>
<feOffset dx="4" dy="4"/>
<feGaussianBlur stdDeviation="0.25"/>
<feColorMatrix type="matrix" values="0 0 0 0 0 0 0 0 0 0 0 0 0 0 0 0 0 0 0.1 0"/>
<feBlend mode="normal" in2="BackgroundImageFix" result="effect1_dropShadow"/>
<feBlend mode="normal" in="SourceGraphic" in2="effect1_dropShadow" result="shape"/>
</filter>
</defs>
</svg>
