<svg width="95" height="95" viewBox="0 0 95 95" fill="none" xmlns="http://www.w3.org/2000/svg">
<g filter="url(#filter0_d)">
<path d="M87.6383 75.4761L63.6519 51.4813C72.3305 33.812 59.3505 13.2751 39.8257 13.2751C32.7862 13.2818 26.0369 16.0813 21.0592 21.059C16.0815 26.0367 13.2821 32.7859 13.2754 39.8255C13.2754 59.3756 33.8376 72.3218 51.4816 63.6516L75.4764 87.638C77.1031 89.1814 79.2683 90.0287 81.5105 89.9992C83.7528 89.9698 85.8949 89.066 87.4806 87.4803C89.0662 85.8947 89.97 83.7525 89.9995 81.5103C90.0289 79.268 89.1817 77.1029 87.6383 75.4761ZM30.3459 39.8255C30.3459 37.9485 30.9026 36.1137 31.9455 34.5532C32.9885 32.9927 34.4708 31.7765 36.2051 31.0586C37.9393 30.3407 39.8476 30.1533 41.6883 30.5201C43.5291 30.8869 45.2197 31.7914 46.5464 33.1192C47.873 34.447 48.776 36.1385 49.1412 37.9796C49.5063 39.8207 49.3172 41.7287 48.5978 43.4623C47.8783 45.1959 46.6609 46.6772 45.0994 47.7188C43.538 48.7604 41.7027 49.3154 39.8257 49.3138C37.3107 49.3115 34.8995 48.3109 33.1219 46.5317C31.3444 44.7526 30.3459 42.3405 30.3459 39.8255ZM28.8109 47.2306C24.2649 45.5944 20.0226 43.0641 17.4924 39.8255C20.0226 36.5952 24.2396 34.0566 28.8109 32.4204C27.3384 34.6093 26.5519 37.1874 26.5519 39.8255C26.5519 42.4635 27.3384 45.0417 28.8109 47.2306ZM50.8406 32.4204C55.3865 34.0566 59.6373 36.6374 62.159 39.8255C59.6288 43.0641 55.4118 45.5944 50.8406 47.2306C52.3163 45.0429 53.1047 42.4643 53.1047 39.8255C53.1047 37.1867 52.3163 34.608 50.8406 32.4204ZM39.8257 17.0705C44.881 17.079 49.7897 18.7695 53.7782 21.8754C57.7668 24.9814 60.6085 29.3262 61.8554 34.2253C55.8926 29.3504 46.885 26.5503 39.8257 26.5503C32.7664 26.5503 23.7589 29.3504 17.796 34.2253C19.043 29.3262 21.8847 24.9814 25.8732 21.8754C29.8618 18.7695 34.7705 17.079 39.8257 17.0705ZM17.796 45.451C23.7589 50.309 32.7749 53.1006 39.8257 53.1006C46.8766 53.1006 55.8926 50.309 61.8554 45.451C60.6108 50.3494 57.769 54.6933 53.7794 57.796C49.7897 60.8987 44.8798 62.5831 39.8257 62.5831C34.7716 62.5831 29.8617 60.8987 25.8721 57.796C21.8824 54.6933 19.0407 50.3494 17.796 45.451ZM84.9562 84.956C84.0536 85.8552 82.8314 86.3601 81.5573 86.3601C80.2832 86.3601 79.061 85.8552 78.1584 84.956L54.8805 61.6781C57.5389 59.8419 59.8421 57.5387 61.6783 54.8802L84.9562 78.1581C85.8555 79.0608 86.3604 80.283 86.3604 81.5571C86.3604 82.8312 85.8555 84.0534 84.9562 84.956Z" fill="#F6C900"/>
<path d="M49.5668 68.5602C44.9197 70.0446 45.5185 68.7205 45.5185 75.8641H34.141V71.1411C34.1412 70.7161 33.9981 70.3035 33.7349 69.9698C33.4717 69.6362 33.1037 69.4011 32.6903 69.3024C24.8804 67.4048 23.6153 64.0902 21.7261 65.9879L18.3525 69.3615L10.298 61.307L13.6716 57.9334C13.98 57.6386 14.1796 57.248 14.2378 56.8254C14.296 56.4027 14.2094 55.9728 13.9921 55.6056C7.42197 44.8184 13.9162 45.4847 3.87124 45.4847V34.141H8.60273C9.02769 34.1412 9.44032 33.9981 9.77394 33.7349C10.1076 33.4717 10.3427 33.1037 10.4414 32.6903C13.3848 20.5537 17.5344 25.5045 10.4414 18.3525L18.4959 10.298L21.8695 13.6716C22.171 13.9633 22.5614 14.1459 22.9786 14.1902C23.3958 14.2345 23.8159 14.138 24.172 13.9162C34.7651 7.39665 34.2928 13.8655 34.2928 3.79531H45.5185V8.51837C45.5198 8.94295 45.6634 9.35484 45.9264 9.68816C46.1893 10.0215 46.5565 10.257 46.9691 10.357C54.7791 12.2546 56.0442 15.5692 57.9334 13.6631L61.307 10.2895L69.3615 18.344L65.9879 21.7176C65.6888 22.0192 65.499 22.412 65.4485 22.8337C65.3981 23.2554 65.49 23.6819 65.7096 24.0454C72.2712 34.841 65.7855 34.1663 75.8304 34.1663V45.5185C68.7121 45.5185 70.0025 44.9112 68.5265 49.5668C68.3733 50.0522 68.4192 50.5786 68.6541 51.0302C68.8889 51.4817 69.2936 51.8215 69.779 51.9747C70.2644 52.1279 70.7908 52.0821 71.2423 51.8472C71.6939 51.6123 72.0337 51.2077 72.1869 50.7223C72.3387 50.2584 72.4821 49.7861 72.617 49.3138H77.7787C78.2819 49.3138 78.7646 49.1139 79.1205 48.758C79.4764 48.4021 79.6763 47.9194 79.6763 47.4161V32.2349C79.6763 31.7316 79.4764 31.2489 79.1205 30.893C78.7646 30.5371 78.2819 30.3372 77.7787 30.3372H72.6002C71.8954 27.9116 70.9223 25.5721 69.6989 23.3623C73.6207 19.4489 73.9159 19.4236 73.9159 18.3693C73.9159 17.3151 74.0846 17.7536 62.6227 6.29179C62.2669 5.93642 61.7846 5.73681 61.2817 5.73681C60.7788 5.73681 60.2965 5.93642 59.9407 6.29179L56.2887 9.94372C54.077 8.72642 51.7379 7.75629 49.3138 7.05085V1.89766C49.3138 1.39437 49.1139 0.91169 48.758 0.555811C48.4021 0.199931 47.9194 0 47.4161 0H32.2349C31.7316 0 31.2489 0.199931 30.893 0.555811C30.5372 0.91169 30.3372 1.39437 30.3372 1.89766V7.05928C27.9099 7.75556 25.5699 8.72611 23.3623 9.95216L19.7104 6.30022C19.3545 5.94485 18.8722 5.74525 18.3693 5.74525C17.8665 5.74525 17.3841 5.94485 17.0283 6.30022L6.30024 17.0367C5.94487 17.3926 5.74527 17.8749 5.74527 18.3778C5.74527 18.8806 5.94487 19.363 6.30024 19.7188L9.95218 23.3707C8.72333 25.5769 7.75264 27.9173 7.0593 30.3457H1.89768C1.64816 30.3445 1.40089 30.3929 1.17016 30.4878C0.939417 30.5828 0.729777 30.7225 0.553341 30.899C0.376904 31.0754 0.237166 31.285 0.142195 31.5158C0.0472247 31.7465 -0.00109751 31.9938 1.89123e-05 32.2433V47.4246C1.89123e-05 47.9279 0.19995 48.4105 0.55583 48.7664C0.91171 49.1223 1.39439 49.3222 1.89768 49.3222H7.0593C7.76331 51.7441 8.73352 54.0805 9.95218 56.2887C6.03879 60.2106 5.73516 60.2274 5.73516 61.2901C5.73516 62.3528 5.55805 61.8889 17.0368 73.3592C17.3937 73.7125 17.8756 73.9107 18.3778 73.9107C18.88 73.9107 19.3619 73.7125 19.7188 73.3592L23.3707 69.6988C25.5806 70.9223 27.92 71.8954 30.3457 72.6002V77.7618C30.3457 78.2651 30.5456 78.7477 30.9015 79.1036C31.2574 79.4595 31.74 79.6594 32.2433 79.6594H47.4246C47.9279 79.6594 48.4105 79.4595 48.7664 79.1036C49.1223 78.7477 49.3222 78.2651 49.3222 77.7618V72.6002C49.7945 72.4652 50.2668 72.3218 50.7307 72.17C51.1924 72.0022 51.5711 71.6619 51.787 71.2207C52.003 70.7795 52.0394 70.2717 51.8887 69.8041C51.7379 69.3366 51.4117 68.9457 50.9787 68.7137C50.5457 68.4818 50.0396 68.4267 49.5668 68.5602Z" fill="#F6C900"/>
<path d="M39.8261 34.141C38.6998 34.141 37.5988 34.4751 36.6624 35.101C35.726 35.7269 34.9964 36.6166 34.5657 37.6573C34.1351 38.6981 34.0228 39.8432 34.2432 40.9477C34.4635 42.0523 35.0066 43.0666 35.8036 43.8625C36.6006 44.6583 37.6158 45.1999 38.7207 45.4186C39.8256 45.6373 40.9705 45.5233 42.0106 45.0912C43.0507 44.659 43.9392 43.928 44.5638 42.9907C45.1883 42.0534 45.5208 40.9519 45.5191 39.8255C45.5191 39.0783 45.3718 38.3384 45.0856 37.6482C44.7994 36.958 44.3799 36.3309 43.8512 35.803C43.3224 35.275 42.6948 34.8565 42.0041 34.5713C41.3135 34.2861 40.5734 34.1399 39.8261 34.141ZM39.8261 41.7316C39.3229 41.7316 38.8402 41.5317 38.4843 41.1758C38.1284 40.8199 37.9285 40.3373 37.9285 39.834C37.9285 39.3307 38.1284 38.848 38.4843 38.4921C38.8402 38.1362 39.3229 37.9363 39.8261 37.9363C40.3065 37.9684 40.7567 38.1818 41.0855 38.5334C41.4144 38.8849 41.5974 39.3483 41.5974 39.8298C41.5974 40.3112 41.4144 40.7746 41.0855 41.1261C40.7567 41.4777 40.3065 41.6911 39.8261 41.7232V41.7316Z" fill="#F6C900"/>
</g>
<defs>
<filter id="filter0_d" x="0" y="0" width="94.5002" height="94.5" filterUnits="userSpaceOnUse" color-interpolation-filters="sRGB">
<feFlood flood-opacity="0" result="BackgroundImageFix"/>
<feColorMatrix in="SourceAlpha" type="matrix" values="0 0 0 0 0 0 0 0 0 0 0 0 0 0 0 0 0 0 127 0" result="hardAlpha"/>
<feOffset dx="4" dy="4"/>
<feGaussianBlur stdDeviation="0.25"/>
<feColorMatrix type="matrix" values="0 0 0 0 0 0 0 0 0 0 0 0 0 0 0 0 0 0 0.1 0"/>
<feBlend mode="normal" in2="BackgroundImageFix" result="effect1_dropShadow"/>
<feBlend mode="normal" in="SourceGraphic" in2="effect1_dropShadow" result="shape"/>
</filter>
</defs>
</svg>
