<svg width="95" height="95" viewBox="0 0 95 95" fill="none" xmlns="http://www.w3.org/2000/svg">
<g filter="url(#filter0_d)">
<path d="M74.9825 30.0028C77.9495 30.0028 80.8498 29.123 83.3168 27.4746C85.7838 25.8262 87.7065 23.4833 88.8419 20.7422C89.9774 18.001 90.2744 14.9848 89.6956 12.0748C89.1168 9.16478 87.688 6.49179 85.59 4.39381C83.4921 2.29583 80.8191 0.867086 77.9091 0.288254C74.9991 -0.290578 71.9828 0.00649979 69.2417 1.14192C66.5005 2.27734 64.1576 4.2001 62.5093 6.66707C60.8609 9.13403 59.9811 12.0344 59.9811 15.0014C59.9811 18.98 61.5616 22.7957 64.3749 25.609C67.1882 28.4223 71.0039 30.0028 74.9825 30.0028ZM67.9235 23.7605C68.4474 22.3097 69.4059 21.0557 70.6683 20.1693C71.9308 19.283 73.4358 18.8074 74.9783 18.8074C76.5208 18.8074 78.0259 19.283 79.2883 20.1693C80.5507 21.0557 81.5092 22.3097 82.0331 23.7605C80.0365 25.3755 77.5463 26.2566 74.9783 26.2566C72.4103 26.2566 69.9201 25.3755 67.9235 23.7605ZM73.1073 13.1346C73.1073 12.6372 73.3049 12.1603 73.6565 11.8086C74.0082 11.4569 74.4851 11.2594 74.9825 11.2594C75.4798 11.2594 75.9567 11.4569 76.3084 11.8086C76.6601 12.1603 76.8576 12.6372 76.8576 13.1346C76.8576 13.6319 76.6601 14.1088 76.3084 14.4605C75.9567 14.8122 75.4798 15.0097 74.9825 15.0097C74.4851 15.0097 74.0082 14.8122 73.6565 14.4605C73.3049 14.1088 73.1073 13.6319 73.1073 13.1346ZM74.9825 3.76702C76.9552 3.7716 78.8921 4.2948 80.5988 5.28415C82.3056 6.27351 83.7222 7.69423 84.7066 9.40383C85.691 11.1134 86.2085 13.0518 86.2074 15.0246C86.2062 16.9973 85.6864 18.9351 84.7 20.6436C83.5294 18.664 81.7858 17.0861 79.6996 16.1182C80.2339 15.2696 80.531 14.2933 80.5598 13.2909C80.5887 12.2885 80.3483 11.2967 79.8636 10.4188C79.379 9.54084 78.6678 8.80892 77.8042 8.29921C76.9406 7.7895 75.9561 7.52065 74.9533 7.52065C73.9505 7.52065 72.966 7.7895 72.1024 8.29921C71.2388 8.80892 70.5276 9.54084 70.043 10.4188C69.5583 11.2967 69.3179 12.2885 69.3468 13.2909C69.3756 14.2933 69.6727 15.2696 70.207 16.1182C68.1185 17.0825 66.3739 18.6613 65.2066 20.6436C64.215 18.9313 63.6929 16.9876 63.693 15.0089C63.6932 13.0302 64.2155 11.0865 65.2073 9.37435C66.1991 7.66217 67.6252 6.24206 69.3416 5.2575C71.058 4.27294 73.0038 3.7588 74.9825 3.76702Z" fill="#F6C900"/>
<path d="M61.6565 61.1139L67.282 51.3797C67.5304 50.9484 67.5979 50.4363 67.4699 49.9553C67.3418 49.4743 67.0286 49.0636 66.5986 48.8128C62.0566 46.1959 64.2734 48.4461 63.6067 42.9039L66.5986 41.1871C67.0286 40.9364 67.3418 40.5256 67.4699 40.0446C67.5979 39.5637 67.5304 39.0515 67.282 38.6202L61.6565 28.886C61.5339 28.6725 61.3704 28.4854 61.1752 28.3355C60.9801 28.1855 60.7572 28.0756 60.5194 28.0121C60.2816 27.9485 60.0336 27.9327 59.7896 27.9654C59.5457 27.9981 59.3106 28.0787 59.0979 28.2026L56.106 29.9194C51.6639 26.6441 52.489 29.6027 52.489 24.3855C52.489 23.8882 52.2914 23.4113 51.9398 23.0596C51.5881 22.7079 51.1112 22.5104 50.6138 22.5104H39.3711C38.8738 22.5104 38.3968 22.7079 38.0452 23.0596C37.6935 23.4113 37.496 23.8882 37.496 24.3855V27.8359C32.4205 30.0444 35.3874 30.7945 30.887 28.2026C30.6746 28.0776 30.4395 27.996 30.1953 27.9627C29.9511 27.9294 29.7028 27.9451 29.4647 28.0087C29.2266 28.0722 29.0035 28.1826 28.8084 28.3332C28.6134 28.4838 28.4502 28.6717 28.3284 28.886L22.7029 38.6202C22.4545 39.0515 22.387 39.5637 22.5151 40.0446C22.6431 40.5256 22.9563 40.9364 23.3863 41.1871L26.3699 42.9039C25.7282 48.4294 27.9367 46.1876 23.3863 48.8128C22.9563 49.0636 22.6431 49.4743 22.5151 49.9553C22.387 50.4363 22.4545 50.9484 22.7029 51.3797L28.3284 61.1139C28.451 61.3274 28.6146 61.5145 28.8097 61.6645C29.0049 61.8144 29.2278 61.9243 29.4656 61.9879C29.7034 62.0514 29.9514 62.0672 30.1953 62.0345C30.4393 62.0018 30.6743 61.9212 30.887 61.7973C35.3458 59.2221 32.4872 59.9805 37.496 62.164V65.6144C37.496 66.1117 37.6935 66.5886 38.0452 66.9403C38.3968 67.292 38.8738 67.4895 39.3711 67.4895H50.6138C51.1112 67.4895 51.5881 67.292 51.9398 66.9403C52.2914 66.5886 52.489 66.1117 52.489 65.6144C52.489 60.3972 51.6556 63.3558 56.106 60.0722L59.0979 61.7807C59.3096 61.9053 59.5438 61.9868 59.7871 62.0208C60.0303 62.0547 60.2779 62.0403 60.5156 61.9783C60.7533 61.9164 60.9764 61.8081 61.1722 61.6598C61.368 61.5115 61.5326 61.326 61.6565 61.1139ZM59.348 57.6136C57.3478 56.4635 56.0143 55.2551 54.7225 56.3885C51.0222 59.5555 48.7387 58.6554 48.7387 60.8889V63.7392H41.238C41.238 61.4306 41.6297 59.7055 39.9878 59.1221C35.3791 57.4553 34.9874 55.0801 33.0955 56.1885L30.5953 57.6136L26.845 51.1297L29.3452 49.6962C29.6808 49.5041 29.9485 49.2124 30.1112 48.8616C30.274 48.5108 30.3237 48.118 30.2536 47.7377C28.9202 40.537 32.8455 42.3205 26.92 38.8702L30.6703 32.378L33.1706 33.8114C35.1291 34.9365 35.3374 32.553 40.0629 30.8778C41.563 30.3444 41.313 29.1443 41.313 26.2607H48.8137V29.111C48.8137 31.3195 51.1555 30.4944 54.7976 33.6114C56.006 34.6448 56.9311 33.8198 59.423 32.378L63.1733 38.8702C58.4979 41.5788 60.0647 40.337 60.0647 44.9958C60.0647 49.6546 58.4396 48.4461 63.0983 51.1297L59.348 57.6136Z" fill="#F6C900"/>
<path d="M44.9879 37.5034C43.5044 37.5034 42.0542 37.9433 40.8207 38.7675C39.5872 39.5917 38.6259 40.7631 38.0581 42.1337C37.4904 43.5043 37.3419 45.0124 37.6313 46.4674C37.9207 47.9224 38.6351 49.2589 39.6841 50.3079C40.7331 51.3569 42.0696 52.0713 43.5246 52.3607C44.9796 52.6501 46.4877 52.5016 47.8583 51.9338C49.2288 51.3661 50.4003 50.4048 51.2245 49.1713C52.0487 47.9378 52.4886 46.4876 52.4886 45.0041C52.4886 43.0148 51.6983 41.107 50.2917 39.7003C48.885 38.2937 46.9772 37.5034 44.9879 37.5034ZM44.9879 48.7461C44.2461 48.7461 43.521 48.5262 42.9043 48.1141C42.2876 47.702 41.8069 47.1163 41.523 46.431C41.2392 45.7457 41.1649 44.9916 41.3096 44.2641C41.4543 43.5366 41.8115 42.8684 42.336 42.3439C42.8605 41.8194 43.5287 41.4622 44.2562 41.3175C44.9837 41.1728 45.7378 41.2471 46.4231 41.5309C47.1084 41.8148 47.6941 42.2955 48.1062 42.9122C48.5183 43.5289 48.7382 44.254 48.7382 44.9958C48.7382 45.9904 48.3431 46.9443 47.6398 47.6477C46.9364 48.351 45.9825 48.7461 44.9879 48.7461Z" fill="#F6C900"/>
<path d="M74.9825 59.9972C72.0155 59.9972 69.1151 60.877 66.6482 62.5254C64.1812 64.1738 62.2584 66.5166 61.123 69.2578C59.9876 71.9989 59.6905 75.0152 60.2693 77.9252C60.8482 80.8352 62.2769 83.5082 64.3749 85.6062C66.4729 87.7041 69.1459 89.1329 72.0558 89.7117C74.9658 90.2906 77.9821 89.9935 80.7233 88.8581C83.4644 87.7226 85.8073 85.7999 87.4557 83.3329C89.104 80.8659 89.9839 77.9656 89.9839 74.9986C89.9839 71.02 88.4034 67.2043 85.5901 64.391C82.7767 61.5777 78.9611 59.9972 74.9825 59.9972ZM67.9235 83.7327C68.4474 82.2819 69.4059 81.0279 70.6683 80.1415C71.9308 79.2551 73.4358 78.7796 74.9783 78.7796C76.5208 78.7796 78.0259 79.2551 79.2883 80.1415C80.5508 81.0279 81.5092 82.2819 82.0331 83.7327C80.0379 85.3506 77.5471 86.2336 74.9783 86.2336C72.4095 86.2336 69.9187 85.3506 67.9235 83.7327ZM73.1073 73.1151C73.1073 72.6177 73.3049 72.1408 73.6565 71.7891C74.0082 71.4375 74.4851 71.2399 74.9825 71.2399C75.4798 71.2399 75.9568 71.4375 76.3084 71.7891C76.6601 72.1408 76.8576 72.6177 76.8576 73.1151C76.8576 73.6124 76.6601 74.0894 76.3084 74.441C75.9568 74.7927 75.4798 74.9902 74.9825 74.9902C74.4851 74.9902 74.0082 74.7927 73.6565 74.441C73.3049 74.0894 73.1073 73.6124 73.1073 73.1151ZM84.7 80.6158C83.5294 78.6362 81.7858 77.0583 79.6996 76.0903C80.2339 75.2418 80.531 74.2654 80.5598 73.263C80.5887 72.2607 80.3483 71.2689 79.8636 70.3909C79.379 69.513 78.6678 68.7811 77.8042 68.2714C76.9406 67.7617 75.9561 67.4928 74.9533 67.4928C73.9505 67.4928 72.966 67.7617 72.1024 68.2714C71.2388 68.7811 70.5277 69.513 70.043 70.3909C69.5583 71.2689 69.3179 72.2607 69.3468 73.263C69.3756 74.2654 69.6727 75.2418 70.207 76.0903C68.1185 77.0547 66.3739 78.6335 65.2066 80.6158C64.216 78.9083 63.6929 76.9699 63.6898 74.9959C63.6867 73.0219 64.2038 71.0819 65.1891 69.3713C66.1743 67.6607 67.5929 66.24 69.3019 65.2521C71.0109 64.2642 72.9501 63.744 74.9241 63.744C76.8982 63.744 78.8373 64.2642 80.5464 65.2521C82.2554 66.24 83.674 67.6607 84.6592 69.3713C85.6444 71.0819 86.1616 73.0219 86.1585 74.9959C86.1554 76.9699 85.6323 78.9083 84.6417 80.6158H84.7Z" fill="#F6C900"/>
<path d="M15.0014 59.9972C12.0344 59.9972 9.13404 60.877 6.66707 62.5254C4.2001 64.1738 2.27734 66.5166 1.14192 69.2578C0.00649979 71.9989 -0.290578 75.0152 0.288254 77.9252C0.867086 80.8352 2.29583 83.5082 4.39381 85.6062C6.49179 87.7041 9.16478 89.1329 12.0748 89.7117C14.9848 90.2906 18.001 89.9935 20.7422 88.8581C23.4833 87.7226 25.8262 85.7999 27.4746 83.3329C29.123 80.8659 30.0028 77.9656 30.0028 74.9986C30.0028 71.02 28.4223 67.2043 25.609 64.391C22.7957 61.5777 18.98 59.9972 15.0014 59.9972ZM7.95074 83.7327C8.4763 82.2847 9.43495 81.0336 10.6964 80.1495C11.9579 79.2654 13.461 78.7911 15.0014 78.7911C16.5418 78.7911 18.0449 79.2654 19.3064 80.1495C20.5678 81.0336 21.5265 82.2847 22.052 83.7327C20.0581 85.35 17.5688 86.2326 15.0014 86.2326C12.434 86.2326 9.94469 85.35 7.95074 83.7327ZM13.1262 73.1151C13.1262 72.6177 13.3238 72.1408 13.6754 71.7891C14.0271 71.4375 14.5041 71.2399 15.0014 71.2399C15.4987 71.2399 15.9757 71.4375 16.3273 71.7891C16.679 72.1408 16.8766 72.6177 16.8766 73.1151C16.8766 73.6124 16.679 74.0894 16.3273 74.441C15.9757 74.7927 15.4987 74.9902 15.0014 74.9902C14.5041 74.9902 14.0271 74.7927 13.6754 74.441C13.3238 74.0894 13.1262 73.6124 13.1262 73.1151ZM24.719 80.6158C23.5495 78.6352 21.8056 77.0569 19.7185 76.0903C20.2513 75.2416 20.547 74.2656 20.5748 73.2638C20.6025 72.262 20.3614 71.2711 19.8765 70.3941C19.3915 69.5171 18.6805 68.7861 17.8173 68.277C16.954 67.768 15.9702 67.4995 14.9681 67.4995C13.9659 67.4995 12.9821 67.768 12.1189 68.277C11.2556 68.7861 10.5446 69.5171 10.0596 70.3941C9.5747 71.2711 9.33358 72.262 9.36136 73.2638C9.38914 74.2656 9.68481 75.2416 10.2176 76.0903C8.13052 77.0569 6.3866 78.6352 5.21716 80.6158C4.2266 78.9083 3.70344 76.9699 3.70036 74.9959C3.69729 73.0219 4.21441 71.0819 5.19964 69.3713C6.18488 67.6607 7.60344 66.24 9.31248 65.2521C11.0215 64.2642 12.9607 63.744 14.9347 63.744C16.9087 63.744 18.8479 64.2642 20.557 65.2521C22.266 66.24 23.6846 67.6607 24.6698 69.3713C25.655 71.0819 26.1722 73.0219 26.1691 74.9959C26.166 76.9699 25.6428 78.9083 24.6523 80.6158H24.719Z" fill="#F6C900"/>
<path d="M15.0014 30.0028C17.9684 30.0028 20.8687 29.123 23.3357 27.4746C25.8027 25.8262 27.7254 23.4833 28.8609 20.7422C29.9963 18.001 30.2934 14.9848 29.7145 12.0748C29.1357 9.16478 27.7069 6.49179 25.609 4.39381C23.511 2.29583 20.838 0.867086 17.928 0.288254C15.018 -0.290578 12.0017 0.00649979 9.2606 1.14192C6.51946 2.27734 4.17656 4.2001 2.52819 6.66707C0.879816 9.13403 0 12.0344 0 15.0014C0 18.98 1.5805 22.7957 4.3938 25.609C7.20711 28.4223 11.0228 30.0028 15.0014 30.0028ZM7.95074 23.7605C8.47629 22.3125 9.43495 21.0614 10.6964 20.1773C11.9579 19.2932 13.4609 18.8189 15.0014 18.8189C16.5418 18.8189 18.0449 19.2932 19.3064 20.1773C20.5678 21.0614 21.5265 22.3125 22.052 23.7605C20.0574 25.3764 17.5684 26.258 15.0014 26.258C12.4344 26.258 9.94534 25.3764 7.95074 23.7605ZM13.1262 13.1346C13.1262 12.6372 13.3238 12.1603 13.6754 11.8086C14.0271 11.4569 14.5041 11.2594 15.0014 11.2594C15.4987 11.2594 15.9757 11.4569 16.3273 11.8086C16.679 12.1603 16.8766 12.6372 16.8766 13.1346C16.8766 13.6319 16.679 14.1088 16.3273 14.4605C15.9757 14.8122 15.4987 15.0097 15.0014 15.0097C14.5041 15.0097 14.0271 14.8122 13.6754 14.4605C13.3238 14.1088 13.1262 13.6319 13.1262 13.1346ZM15.0014 3.76702C16.9751 3.76907 18.9135 4.29069 20.6218 5.27944C22.33 6.26819 23.7478 7.68923 24.7327 9.39968C25.7176 11.1101 26.2348 13.0497 26.2324 15.0235C26.23 16.9972 25.708 18.9355 24.719 20.6436C23.5495 18.663 21.8056 17.0848 19.7185 16.1182C20.2513 15.2694 20.547 14.2934 20.5747 13.2916C20.6025 12.2899 20.3614 11.299 19.8765 10.422C19.3915 9.54496 18.6805 8.81391 17.8172 8.30484C16.954 7.79577 15.9702 7.52727 14.9681 7.52727C13.9659 7.52727 12.9821 7.79577 12.1189 8.30484C11.2556 8.81391 10.5446 9.54496 10.0596 10.422C9.57469 11.299 9.33357 12.2899 9.36135 13.2916C9.38914 14.2934 9.6848 15.2694 10.2176 16.1182C8.13051 17.0848 6.38659 18.663 5.21715 20.6436C4.22793 18.9302 3.70798 16.9863 3.70976 15.0079C3.71153 13.0295 4.23496 11.0865 5.22725 9.37494C6.21954 7.66336 7.64561 6.2437 9.36164 5.25913C11.0777 4.27455 13.023 3.75988 15.0014 3.76702Z" fill="#F6C900"/>
<path d="M13.1262 35.6283V54.3717C13.1262 54.8691 13.3238 55.346 13.6754 55.6977C14.0271 56.0494 14.5041 56.2469 15.0014 56.2469C15.4987 56.2469 15.9757 56.0494 16.3273 55.6977C16.679 55.346 16.8766 54.8691 16.8766 54.3717V35.6283C16.8766 35.131 16.679 34.6541 16.3273 34.3024C15.9757 33.9507 15.4987 33.7532 15.0014 33.7532C14.5041 33.7532 14.0271 33.9507 13.6754 34.3024C13.3238 34.6541 13.1262 35.131 13.1262 35.6283Z" fill="#F6C900"/>
<path d="M35.6202 16.8849H54.3636C54.8609 16.8849 55.3379 16.6873 55.6895 16.3356C56.0412 15.984 56.2387 15.507 56.2387 15.0097C56.2387 14.5124 56.0412 14.0354 55.6895 13.6837C55.3379 13.3321 54.8609 13.1345 54.3636 13.1345H35.6202C35.1228 13.1345 34.6459 13.3321 34.2942 13.6837C33.9426 14.0354 33.745 14.5124 33.745 15.0097C33.745 15.507 33.9426 15.984 34.2942 16.3356C34.6459 16.6873 35.1228 16.8849 35.6202 16.8849Z" fill="#F6C900"/>
<path d="M73.1073 35.6283V54.3717C73.1073 54.8691 73.3049 55.346 73.6565 55.6977C74.0082 56.0494 74.4851 56.2469 74.9825 56.2469C75.4798 56.2469 75.9568 56.0494 76.3084 55.6977C76.6601 55.346 76.8576 54.8691 76.8576 54.3717V35.6283C76.8576 35.131 76.6601 34.6541 76.3084 34.3024C75.9568 33.9507 75.4798 33.7532 74.9825 33.7532C74.4851 33.7532 74.0082 33.9507 73.6565 34.3024C73.3049 34.6541 73.1073 35.131 73.1073 35.6283Z" fill="#F6C900"/>
<path d="M54.3636 73.1151H35.6202C35.1228 73.1151 34.6459 73.3127 34.2942 73.6643C33.9426 74.016 33.745 74.493 33.745 74.9903C33.745 75.4876 33.9426 75.9646 34.2942 76.3162C34.6459 76.6679 35.1228 76.8655 35.6202 76.8655H54.3636C54.8609 76.8655 55.3379 76.6679 55.6895 76.3162C56.0412 75.9646 56.2387 75.4876 56.2387 74.9903C56.2387 74.493 56.0412 74.016 55.6895 73.6643C55.3379 73.3127 54.8609 73.1151 54.3636 73.1151Z" fill="#F6C900"/>
</g>
<defs>
<filter id="filter0_d" x="0" y="0" width="94.4839" height="94.5" filterUnits="userSpaceOnUse" color-interpolation-filters="sRGB">
<feFlood flood-opacity="0" result="BackgroundImageFix"/>
<feColorMatrix in="SourceAlpha" type="matrix" values="0 0 0 0 0 0 0 0 0 0 0 0 0 0 0 0 0 0 127 0" result="hardAlpha"/>
<feOffset dx="4" dy="4"/>
<feGaussianBlur stdDeviation="0.25"/>
<feColorMatrix type="matrix" values="0 0 0 0 0 0 0 0 0 0 0 0 0 0 0 0 0 0 0.1 0"/>
<feBlend mode="normal" in2="BackgroundImageFix" result="effect1_dropShadow"/>
<feBlend mode="normal" in="SourceGraphic" in2="effect1_dropShadow" result="shape"/>
</filter>
</defs>
</svg>
