<svg width="88" height="95" viewBox="0 0 88 95" fill="none" xmlns="http://www.w3.org/2000/svg">
<g filter="url(#filter0_d)">
<path d="M23.8546 56.7847C23.6361 56.564 23.3666 56.4008 23.0698 56.3094C22.7731 56.2181 22.4584 56.2015 22.1537 56.2611C21.849 56.3208 21.5638 56.4548 21.3233 56.6512C21.0829 56.8477 20.8948 57.1005 20.7756 57.3872C20.6565 57.6739 20.61 57.9856 20.6404 58.2946C20.6708 58.6036 20.777 58.9003 20.9497 59.1583C21.1224 59.4163 21.3561 59.6276 21.6302 59.7735C21.9043 59.9194 22.2101 59.9953 22.5206 59.9945C22.8903 59.9896 23.2505 59.8766 23.5567 59.6694C23.8628 59.4622 24.1016 59.1698 24.2435 58.8284C24.3854 58.487 24.4242 58.1115 24.355 57.7483C24.2859 57.3851 24.1119 57.0501 23.8546 56.7847Z" fill="#F6C900"/>
<path d="M31.3588 56.7847C31.1402 56.5685 30.8718 56.4095 30.5773 56.3214C30.2828 56.2334 29.9711 56.219 29.6698 56.2797C29.3684 56.3403 29.0866 56.4741 28.8491 56.6693C28.6116 56.8644 28.4257 57.1149 28.3077 57.3988C28.1897 57.6826 28.1433 57.9911 28.1726 58.2971C28.2018 58.6031 28.3058 58.8973 28.4754 59.1536C28.645 59.41 28.875 59.6208 29.1452 59.7674C29.4154 59.914 29.7174 59.992 30.0248 59.9945C30.3998 60.0017 30.7683 59.8958 31.0823 59.6906C31.3963 59.4854 31.6413 59.1904 31.7852 58.844C31.9292 58.4976 31.9655 58.1159 31.8894 57.7486C31.8133 57.3813 31.6284 57.0454 31.3588 56.7847Z" fill="#F6C900"/>
<path d="M35.6267 39.3767H19.6277C18.2353 33.1238 19.2108 33.7491 13.1246 33.7491C12.6271 33.7491 12.15 33.9467 11.7982 34.2985C11.4464 34.6503 11.2488 35.1274 11.2488 35.6249C11.2488 36.1224 11.4464 36.5996 11.7982 36.9514C12.15 37.3032 12.6271 37.5008 13.1246 37.5008H15.3674L18.7939 52.9079C18.8996 53.3165 19.1344 53.6801 19.4634 53.9445C19.7924 54.2089 20.198 54.36 20.6198 54.3753C32.5586 54.3753 33.0172 54.7254 33.6091 53.1664C33.7759 52.7329 33.2173 54.392 37.4026 41.8445C37.4962 41.5629 37.5217 41.2631 37.477 40.9697C37.4322 40.6763 37.3185 40.3977 37.1452 40.1569C36.9718 39.916 36.7438 39.7197 36.4798 39.584C36.2159 39.4484 35.9235 39.3773 35.6267 39.3767ZM33.0255 43.1284L30.5244 50.6319H22.1288L20.4614 43.1284H33.0255Z" fill="#F6C900"/>
<path d="M82.4818 18.6836C82.4818 18.4836 82.8903 19.3673 78.7467 9.01251V1.87587C78.7467 1.37836 78.549 0.901223 78.1973 0.549429C77.8455 0.197636 77.3683 0 76.8708 0H5.62117C5.12365 0 4.64652 0.197636 4.29473 0.549429C3.94293 0.901223 3.7453 1.37836 3.7453 1.87587V9.01251C0.360397 17.4831 0.00189774 18.4335 0.00189774 18.7503C0.00189774 21.2515 -0.206532 24.7781 3.7453 27.0875V73.1255C3.74751 74.6166 4.34139 76.0459 5.39653 77.0994C6.45167 78.153 7.88181 78.7448 9.3729 78.7448H33.0255L30.5244 86.2483H28.1232C27.6257 86.2483 27.1486 86.4459 26.7968 86.7977C26.445 87.1495 26.2474 87.6266 26.2474 88.1241C26.2474 88.6216 26.445 89.0988 26.7968 89.4506C27.1486 89.8024 27.6257 90 28.1232 90H54.3687C54.8662 90 55.3434 89.8024 55.6952 89.4506C56.047 89.0988 56.2446 88.6216 56.2446 88.1241C56.2446 87.6266 56.047 87.1495 55.6952 86.7977C55.3434 86.4459 54.8662 86.2483 54.3687 86.2483H51.976L49.4748 78.7448H73.1191C74.6102 78.7448 76.0403 78.153 77.0955 77.0994C78.1506 76.0459 78.7445 74.6166 78.7467 73.1255V27.0792C82.0065 25.1783 82.6318 22.3687 82.4818 18.6836ZM3.7453 20.6262H11.2488C11.2488 21.6212 10.8535 22.5755 10.1499 23.2791C9.44633 23.9827 8.49206 24.378 7.49703 24.378C6.50201 24.378 5.54774 23.9827 4.84416 23.2791C4.14057 22.5755 3.7453 21.6212 3.7453 20.6262ZM6.89676 11.2552H12.7328L11.6156 16.8745H4.67906L6.89676 11.2552ZM44.9977 11.2552V16.8745H37.4943V11.2552H44.9977ZM54.7106 11.2552L55.8361 16.8745H48.7495V11.2552H54.7106ZM65.9574 11.2552L67.083 16.8745H59.6545L58.529 11.2552H65.9574ZM33.7509 16.8745H26.6559L27.7814 11.2552H33.7509V16.8745ZM22.8375 16.8745H15.409L16.5346 11.2552H23.963L22.8375 16.8745ZM22.4956 20.6262C22.4956 21.6212 22.1004 22.5755 21.3968 23.2791C20.6932 23.9827 19.7389 24.378 18.7439 24.378C17.7489 24.378 16.7946 23.9827 16.091 23.2791C15.3874 22.5755 14.9922 21.6212 14.9922 20.6262H22.4956ZM33.7509 20.6262C33.7509 21.6212 33.3556 22.5755 32.652 23.2791C31.9484 23.9827 30.9941 24.378 29.9991 24.378C29.0041 24.378 28.0498 23.9827 27.3462 23.2791C26.6427 22.5755 26.2474 21.6212 26.2474 20.6262H33.7509ZM44.9977 20.6262C44.9977 21.6212 44.6025 22.5755 43.8989 23.2791C43.1953 23.9827 42.241 24.378 41.246 24.378C40.251 24.378 39.2967 23.9827 38.5931 23.2791C37.8895 22.5755 37.4943 21.6212 37.4943 20.6262H44.9977ZM56.2446 20.6262C56.2446 21.6212 55.8493 22.5755 55.1457 23.2791C54.4422 23.9827 53.4879 24.378 52.4929 24.378C51.4978 24.378 50.5436 23.9827 49.84 23.2791C49.1364 22.5755 48.7411 21.6212 48.7411 20.6262H56.2446ZM67.4998 20.6262C67.4998 21.6212 67.1045 22.5755 66.401 23.2791C65.6974 23.9827 64.7431 24.378 63.7481 24.378C62.7531 24.378 61.7988 23.9827 61.0952 23.2791C60.3916 22.5755 59.9963 21.6212 59.9963 20.6262H67.4998ZM70.9097 16.8745L69.7842 11.2552H75.6202L77.8713 16.8745H70.9097ZM7.49703 3.75174H75.0283V7.50347H7.49703V3.75174ZM48.0241 86.2899H34.4762L36.9773 78.7865H45.5313L48.0241 86.2899ZM73.1191 75.0431H9.3729C8.87539 75.0431 8.39826 74.8454 8.04646 74.4936C7.69467 74.1419 7.49703 73.6647 7.49703 73.1672V69.3738H75.0283V73.1255C75.0283 73.3747 74.9787 73.6214 74.8824 73.8512C74.786 74.081 74.6449 74.2893 74.4671 74.4639C74.2894 74.6385 74.0786 74.776 73.8472 74.8683C73.6157 74.9606 73.3682 75.0058 73.1191 75.0014V75.0431ZM74.9949 65.6637H7.46369V28.1464C8.53224 28.1447 9.58791 27.9129 10.559 27.467C11.53 27.021 12.3937 26.3713 13.0913 25.5618C13.7855 26.3747 14.6478 27.0275 15.6186 27.475C16.5894 27.9226 17.6457 28.1544 18.7147 28.1544C19.7837 28.1544 20.8401 27.9226 21.8109 27.475C22.7817 27.0275 23.6439 26.3747 24.3382 25.5618C25.0332 26.3749 25.8962 27.0277 26.8677 27.4754C27.8392 27.923 28.8961 28.1548 29.9658 28.1548C31.0354 28.1548 32.0924 27.923 33.0639 27.4754C34.0354 27.0277 34.8983 26.3749 35.5934 25.5618C36.2876 26.3747 37.1499 27.0275 38.1207 27.475C39.0915 27.9226 40.1478 28.1544 41.2168 28.1544C42.2858 28.1544 43.3421 27.9226 44.313 27.475C45.2838 27.0275 46.146 26.3747 46.8402 25.5618C47.5345 26.3747 48.3967 27.0275 49.3675 27.475C50.3384 27.9226 51.3947 28.1544 52.4637 28.1544C53.5327 28.1544 54.589 27.9226 55.5598 27.475C56.5306 27.0275 57.3929 26.3747 58.0871 25.5618C58.7814 26.3747 59.6436 27.0275 60.6144 27.475C61.5852 27.9226 62.6415 28.1544 63.7106 28.1544C64.7796 28.1544 65.8359 27.9226 66.8067 27.475C67.7775 27.0275 68.6398 26.3747 69.334 25.5618C70.0316 26.3713 70.8953 27.021 71.8663 27.467C72.8374 27.9129 73.893 28.1447 74.9616 28.1464L74.9949 65.6637ZM74.9949 24.4196C74.0006 24.4174 73.0476 24.0215 72.3445 23.3183C71.6414 22.6152 71.2454 21.6622 71.2432 20.6679H78.7467C78.7336 21.655 78.3328 22.5973 77.6308 23.2915C76.9289 23.9856 75.9821 24.3759 74.9949 24.378V24.4196Z" fill="#F6C900"/>
<path d="M67.5003 33.7489H44.9899C44.4924 33.7489 44.0152 33.9465 43.6634 34.2983C43.3117 34.6501 43.114 35.1273 43.114 35.6248C43.114 36.1223 43.3117 36.5994 43.6634 36.9512C44.0152 37.303 44.4924 37.5006 44.9899 37.5006H67.5003C67.9978 37.5006 68.4749 37.303 68.8267 36.9512C69.1785 36.5994 69.3762 36.1223 69.3762 35.6248C69.3762 35.1273 69.1785 34.6501 68.8267 34.2983C68.4749 33.9465 67.9978 33.7489 67.5003 33.7489Z" fill="#F6C900"/>
<path d="M44.9984 44.9958H60.0054C60.4802 44.9641 60.9252 44.7532 61.2503 44.4056C61.5754 44.0581 61.7563 43.6 61.7563 43.1241C61.7563 42.6483 61.5754 42.1902 61.2503 41.8427C60.9252 41.4951 60.4802 41.2841 60.0054 41.2524H44.9984C44.5236 41.2841 44.0786 41.4951 43.7535 41.8427C43.4284 42.1902 43.2476 42.6483 43.2476 43.1241C43.2476 43.6 43.4284 44.0581 43.7535 44.4056C44.0786 44.7532 44.5236 44.9641 44.9984 44.9958Z" fill="#F6C900"/>
<path d="M67.5003 48.7476H44.9899C44.4924 48.7476 44.0152 48.9452 43.6634 49.297C43.3117 49.6488 43.114 50.1259 43.114 50.6234V58.1269C43.114 58.6244 43.3117 59.1015 43.6634 59.4533C44.0152 59.8051 44.4924 60.0028 44.9899 60.0028H67.5003C67.7463 60.0028 67.9898 59.9542 68.2169 59.8598C68.444 59.7654 68.6503 59.6271 68.8238 59.4528C68.9973 59.2785 69.1347 59.0717 69.2281 58.8441C69.3214 58.6166 69.3689 58.3728 69.3678 58.1269V50.6234C69.3689 50.3775 69.3214 50.1337 69.2281 49.9062C69.1347 49.6787 68.9973 49.4718 68.8238 49.2975C68.6503 49.1232 68.444 48.9849 68.2169 48.8905C67.9898 48.7961 67.7463 48.7476 67.5003 48.7476ZM65.6244 56.251H46.8741V52.4993H65.6244V56.251Z" fill="#F6C900"/>
</g>
<defs>
<filter id="filter0_d" x="0" y="0" width="87.0021" height="94.5" filterUnits="userSpaceOnUse" color-interpolation-filters="sRGB">
<feFlood flood-opacity="0" result="BackgroundImageFix"/>
<feColorMatrix in="SourceAlpha" type="matrix" values="0 0 0 0 0 0 0 0 0 0 0 0 0 0 0 0 0 0 127 0" result="hardAlpha"/>
<feOffset dx="4" dy="4"/>
<feGaussianBlur stdDeviation="0.25"/>
<feColorMatrix type="matrix" values="0 0 0 0 0 0 0 0 0 0 0 0 0 0 0 0 0 0 0.1 0"/>
<feBlend mode="normal" in2="BackgroundImageFix" result="effect1_dropShadow"/>
<feBlend mode="normal" in="SourceGraphic" in2="effect1_dropShadow" result="shape"/>
</filter>
</defs>
</svg>
