<svg width="95" height="65" viewBox="0 0 95 65" fill="none" xmlns="http://www.w3.org/2000/svg">
<g filter="url(#filter0_d)">
<path d="M64.2758 13.6324L45.5696 32.3719C45.2384 32.7273 45.0581 33.1974 45.0667 33.6831C45.0753 34.1687 45.272 34.6322 45.6155 34.9757C45.959 35.3191 46.4224 35.5159 46.9081 35.5245C47.3938 35.533 47.8639 35.3528 48.2193 35.0216L66.9588 16.2821C67.1328 16.1059 67.2704 15.8972 67.3637 15.6678C67.457 15.4385 67.5042 15.193 67.5027 14.9454C67.5011 14.6978 67.4508 14.453 67.3547 14.2248C67.2585 13.9967 67.1183 13.7897 66.9421 13.6157C66.766 13.4417 66.5573 13.3041 66.3279 13.2108C66.0986 13.1175 65.8531 13.0703 65.6055 13.0718C65.3579 13.0734 65.113 13.1237 64.8849 13.2198C64.6567 13.316 64.4498 13.4562 64.2758 13.6324Z" fill="#F6C900"/>
<path d="M50.6439 22.4481C51.7566 22.4481 52.8444 22.118 53.7695 21.4996C54.6946 20.8812 55.4155 20.0023 55.8409 18.9741C56.2664 17.9459 56.3773 16.8146 56.1596 15.7234C55.9419 14.6321 55.4054 13.63 54.618 12.8437C53.8305 12.0575 52.8276 11.5225 51.736 11.3064C50.6445 11.0903 49.5133 11.2029 48.4858 11.6299C47.4582 12.0568 46.5804 12.779 45.9634 13.705C45.3464 14.6311 45.0179 15.7193 45.0195 16.832C45.0195 17.5702 45.1651 18.3012 45.4478 18.9831C45.7306 19.665 46.145 20.2845 46.6674 20.8061C47.1898 21.3277 47.8098 21.7412 48.4922 22.023C49.1745 22.3047 49.9057 22.4492 50.6439 22.4481ZM50.6439 14.9489C51.1184 14.9806 51.5632 15.1915 51.8881 15.5388C52.213 15.8861 52.3938 16.3439 52.3938 16.8195C52.3938 17.2951 52.213 17.753 51.8881 18.1003C51.5632 18.4476 51.1184 18.6585 50.6439 18.6902C50.1793 18.6462 49.7478 18.4306 49.4338 18.0854C49.1197 17.7402 48.9457 17.2904 48.9457 16.8237C48.9457 16.357 49.1197 15.9072 49.4338 15.562C49.7478 15.2168 50.1793 15.0012 50.6439 14.9572V14.9489Z" fill="#F6C900"/>
<path d="M61.8839 26.1976C60.7715 26.1976 59.6841 26.5275 58.7592 27.1455C57.8342 27.7635 57.1133 28.6419 56.6877 29.6696C56.262 30.6974 56.1506 31.8282 56.3676 32.9192C56.5846 34.0103 57.1203 35.0124 57.9069 35.799C58.6934 36.5856 59.6956 37.1213 60.7866 37.3383C61.8776 37.5553 63.0085 37.4439 64.0362 37.0182C65.0639 36.5925 65.9424 35.8716 66.5604 34.9467C67.1784 34.0218 67.5082 32.9344 67.5082 31.822C67.506 30.331 66.9128 28.9017 65.8585 27.8474C64.8042 26.7931 63.3749 26.1998 61.8839 26.1976ZM61.8839 33.6968C61.3867 33.6968 60.9098 33.4993 60.5582 33.1477C60.2066 32.7961 60.0091 32.3192 60.0091 31.822C60.0091 31.3248 60.2066 30.8479 60.5582 30.4963C60.9098 30.1447 61.3867 29.9472 61.8839 29.9472C62.3811 29.9472 62.858 30.1447 63.2096 30.4963C63.5612 30.8479 63.7587 31.3248 63.7587 31.822C63.7587 32.3192 63.5612 32.7961 63.2096 33.1477C62.858 33.4993 62.3811 33.6968 61.8839 33.6968Z" fill="#F6C900"/>
<path d="M89.6481 45.7288L82.6739 35.9049C84.9787 32.483 86.2222 28.4569 86.2485 24.3313C86.2485 0.0340232 46.9863 -9.23992 30.9381 11.3494C9.45722 13.0159 -2.89971 32.1387 7.55743 47.4203C-0.0333668 57.5691 -0.574973 57.5691 0.324925 59.0356C1.22482 60.5021 1.6831 60.0022 19.1144 56.8359C33.0712 63.1768 50.6775 59.4356 59.1099 48.5618C63.359 48.2508 67.5156 47.1664 71.3752 45.3622C88.9482 48.8951 87.8066 48.6951 88.0399 48.6951C88.3917 48.7112 88.7408 48.6278 89.0474 48.4546C89.354 48.2814 89.6056 48.0254 89.7734 47.7158C89.9412 47.4063 90.0184 47.0557 89.9963 46.7043C89.9741 46.3529 89.8534 46.0148 89.6481 45.7288ZM20.1727 53.228C19.3977 52.8613 19.9893 52.903 6.28258 55.386L11.382 48.5868C11.6313 48.2601 11.7664 47.8605 11.7664 47.4495C11.7664 47.0384 11.6313 46.6388 11.382 46.3121C1.79976 33.9801 11.0904 18.3153 28.3967 15.4823C20.7976 31.1471 34.4877 47.4703 54.0521 48.6535C45.5948 56.6609 31.1881 58.4524 20.1727 53.1946V53.228ZM71.5335 41.5626C70.142 41.2877 65.7008 44.8956 56.2602 44.8956C41.7785 44.9372 30.0299 35.6883 30.0299 24.3229C30.0299 12.9575 41.7785 3.7086 56.2602 3.7086C76.4746 3.7086 89.1398 21.0316 78.8743 34.7801C78.643 35.1017 78.5186 35.4879 78.5186 35.8841C78.5186 36.2803 78.643 36.6665 78.8743 36.9881L83.8737 44.0373L71.5335 41.5626Z" fill="#F6C900"/>
</g>
<defs>
<filter id="filter0_d" x="0" y="0" width="94.5" height="64.4256" filterUnits="userSpaceOnUse" color-interpolation-filters="sRGB">
<feFlood flood-opacity="0" result="BackgroundImageFix"/>
<feColorMatrix in="SourceAlpha" type="matrix" values="0 0 0 0 0 0 0 0 0 0 0 0 0 0 0 0 0 0 127 0" result="hardAlpha"/>
<feOffset dx="4" dy="4"/>
<feGaussianBlur stdDeviation="0.25"/>
<feColorMatrix type="matrix" values="0 0 0 0 0 0 0 0 0 0 0 0 0 0 0 0 0 0 0.1 0"/>
<feBlend mode="normal" in2="BackgroundImageFix" result="effect1_dropShadow"/>
<feBlend mode="normal" in="SourceGraphic" in2="effect1_dropShadow" result="shape"/>
</filter>
</defs>
</svg>
