<svg width="57" height="95" viewBox="0 0 57 95" fill="none" xmlns="http://www.w3.org/2000/svg">
<g filter="url(#filter0_d)">
<path d="M45 0H7.5C5.51087 0 3.60322 0.790177 2.1967 2.1967C0.790175 3.60322 0 5.51088 0 7.5V82.5C0 84.4891 0.790175 86.3968 2.1967 87.8033C3.60322 89.2098 5.51087 90 7.5 90H45C46.9891 90 48.8968 89.2098 50.3033 87.8033C51.7098 86.3968 52.5 84.4891 52.5 82.5V7.5C52.5 5.51088 51.7098 3.60322 50.3033 2.1967C48.8968 0.790177 46.9891 0 45 0ZM3.775 13.1167H14.55C16.4167 15.6167 13.7917 14.9917 35.6333 14.9917C36.7917 14.9917 37.2333 14.1083 37.975 13.1167H48.75V74.9667H3.75L3.775 13.1167ZM3.775 7.5C3.7772 6.50611 4.173 5.55357 4.87578 4.85078C5.57857 4.148 6.53112 3.7522 7.525 3.75H45.025C46.0189 3.7522 46.9714 4.148 47.6742 4.85078C48.377 5.55357 48.7728 6.50611 48.775 7.5V9.375C34.7083 9.375 36.525 8.80833 34.7083 11.25H17.825C15.95 8.75 17.7583 9.375 3.775 9.375V7.5ZM48.775 82.5C48.7728 83.4939 48.377 84.4464 47.6742 85.1492C46.9714 85.852 46.0189 86.2478 45.025 86.25H7.525C6.53112 86.2478 5.57857 85.852 4.87578 85.1492C4.173 84.4464 3.7772 83.4939 3.775 82.5V78.75H48.775V82.5Z" fill="#F6C900"/>
<path d="M22.5164 9.375H30.0164C30.5136 9.375 30.9906 9.17746 31.3422 8.82582C31.6938 8.47419 31.8914 7.99728 31.8914 7.5C31.8914 7.00272 31.6938 6.5258 31.3422 6.17417C30.9906 5.82254 30.5136 5.625 30.0164 5.625H22.5164C22.0191 5.625 21.5422 5.82254 21.1905 6.17417C20.8389 6.5258 20.6414 7.00272 20.6414 7.5C20.6414 7.99728 20.8389 8.47419 21.1905 8.82582C21.5422 9.17746 22.0191 9.375 22.5164 9.375Z" fill="#F6C900"/>
<path d="M13.1414 59.975H39.383C39.8803 59.975 40.3572 59.7775 40.7089 59.4258C41.0605 59.0742 41.258 58.5973 41.258 58.1V56.225C41.2547 53.2461 40.3644 50.3356 38.7007 47.8645C37.037 45.3935 34.6752 43.4737 31.9164 42.35C32.8622 41.2647 33.4757 39.9301 33.6836 38.5056C33.8915 37.0811 33.685 35.6269 33.0888 34.3166C32.4927 33.0062 31.532 31.8951 30.3215 31.116C29.111 30.3368 27.7018 29.9225 26.2622 29.9225C24.8226 29.9225 23.4134 30.3368 22.2029 31.116C20.9924 31.8951 20.0317 33.0062 19.4355 34.3166C18.8394 35.6269 18.6329 37.0811 18.8408 38.5056C19.0487 39.9301 19.6622 41.2647 20.608 42.35C17.8492 43.4737 15.4874 45.3935 13.8237 47.8645C12.16 50.3356 11.2697 53.2461 11.2664 56.225V58.1C11.2664 58.5973 11.4639 59.0742 11.8155 59.4258C12.1672 59.7775 12.6441 59.975 13.1414 59.975ZM22.5164 37.475C22.5164 36.733 22.7365 36.0076 23.1489 35.3907C23.5614 34.7739 24.1475 34.2932 24.8332 34.0097C25.5189 33.7261 26.2734 33.6523 27.001 33.7977C27.7287 33.943 28.3968 34.301 28.921 34.8263C29.4451 35.3516 29.8016 36.0206 29.9453 36.7485C30.0891 37.4765 30.0136 38.2308 29.7285 38.9158C29.4434 39.6009 28.9615 40.186 28.3437 40.5971C27.7259 41.0081 27.0001 41.2266 26.258 41.225C25.2664 41.2228 24.3159 40.8279 23.6147 40.1267C22.9135 39.4254 22.5186 38.475 22.5164 37.4833V37.475ZM26.258 44.975C29.241 44.9772 32.1012 46.1632 34.2105 48.2725C36.3198 50.3818 37.5058 53.242 37.508 56.225H15.008C15.0102 53.242 16.1962 50.3818 18.3055 48.2725C20.4148 46.1632 23.275 44.9772 26.258 44.975Z" fill="#F6C900"/>
<path d="M8.87564 35.475V27.3666H16.959C17.317 27.3666 17.6604 27.2244 17.9136 26.9712C18.1667 26.718 18.309 26.3747 18.309 26.0166C18.309 25.6586 18.1667 25.3152 17.9136 25.062C17.6604 24.8089 17.317 24.6666 16.959 24.6666H7.50063C7.14327 24.6688 6.80116 24.8117 6.54846 25.0644C6.29575 25.3171 6.15282 25.6593 6.15063 26.0166V35.475C6.15063 35.8363 6.29418 36.1829 6.5497 36.4384C6.80522 36.6939 7.15178 36.8375 7.51314 36.8375C7.87449 36.8375 8.22105 36.6939 8.47657 36.4384C8.73209 36.1829 8.87564 35.8363 8.87564 35.475Z" fill="#F6C900"/>
<path d="M16.9584 63.425H8.87505V55.3417C8.87505 54.9837 8.73282 54.6403 8.47964 54.3871C8.22647 54.1339 7.88309 53.9917 7.52505 53.9917C7.16701 53.9917 6.82363 54.1339 6.57045 54.3871C6.31728 54.6403 6.17505 54.9837 6.17505 55.3417V64.8C6.17723 65.1574 6.32017 65.4995 6.57287 65.7522C6.82557 66.0049 7.16768 66.1478 7.52505 66.15H16.9584C17.3197 66.15 17.6663 66.0065 17.9218 65.751C18.1773 65.4954 18.3209 65.1489 18.3209 64.7875C18.3209 64.4262 18.1773 64.0796 17.9218 63.8241C17.6663 63.5686 17.3197 63.425 16.9584 63.425Z" fill="#F6C900"/>
<path d="M43.6662 55.3416V63.425H35.5412C35.1831 63.425 34.8397 63.5672 34.5866 63.8204C34.3334 64.0735 34.1912 64.4169 34.1912 64.775C34.1912 65.133 34.3334 65.4764 34.5866 65.7295C34.8397 65.9827 35.1831 66.125 35.5412 66.125H45.0162C45.3707 66.1251 45.7113 65.9865 45.9651 65.739C46.2189 65.4914 46.3658 65.1544 46.3745 64.8V55.3416C46.3477 55.0008 46.1935 54.6826 45.9425 54.4506C45.6915 54.2185 45.3622 54.0896 45.0203 54.0896C44.6785 54.0896 44.3492 54.2185 44.0982 54.4506C43.8472 54.6826 43.6929 55.0008 43.6662 55.3416Z" fill="#F6C900"/>
<path d="M45.0162 24.6666H35.5412C35.1831 24.6666 34.8397 24.8089 34.5866 25.062C34.3334 25.3152 34.1912 25.6586 34.1912 26.0166C34.1912 26.3747 34.3334 26.718 34.5866 26.9712C34.8397 27.2244 35.1831 27.3666 35.5412 27.3666H43.6412V35.475C43.6679 35.8158 43.8222 36.1339 44.0732 36.366C44.3242 36.5981 44.6535 36.727 44.9953 36.727C45.3372 36.727 45.6665 36.5981 45.9175 36.366C46.1685 36.1339 46.3227 35.8158 46.3495 35.475V26.0166C46.3474 25.6621 46.2067 25.3225 45.9576 25.0702C45.7085 24.818 45.3706 24.6731 45.0162 24.6666Z" fill="#F6C900"/>
</g>
<defs>
<filter id="filter0_d" x="0" y="0" width="57" height="94.5" filterUnits="userSpaceOnUse" color-interpolation-filters="sRGB">
<feFlood flood-opacity="0" result="BackgroundImageFix"/>
<feColorMatrix in="SourceAlpha" type="matrix" values="0 0 0 0 0 0 0 0 0 0 0 0 0 0 0 0 0 0 127 0" result="hardAlpha"/>
<feOffset dx="4" dy="4"/>
<feGaussianBlur stdDeviation="0.25"/>
<feColorMatrix type="matrix" values="0 0 0 0 0 0 0 0 0 0 0 0 0 0 0 0 0 0 0.1 0"/>
<feBlend mode="normal" in2="BackgroundImageFix" result="effect1_dropShadow"/>
<feBlend mode="normal" in="SourceGraphic" in2="effect1_dropShadow" result="shape"/>
</filter>
</defs>
</svg>
