<svg width="99" height="95" viewBox="0 0 99 95" fill="none" xmlns="http://www.w3.org/2000/svg">
<g filter="url(#filter0_d)">
<path d="M76.0305 66.8237C77.2374 64.4131 77.9464 61.7841 78.1155 59.0936C78.2845 56.4031 77.9101 53.706 77.0145 51.1633C76.1189 48.6206 74.7205 46.2842 72.9027 44.2935C71.0848 42.3028 68.8848 40.6985 66.4336 39.5762V37.8999C66.4336 35.4341 62.5221 34.9108 62.5221 38.299C47.9759 35.2745 35.4786 49.3594 39.9844 63.8258H3.92055V3.99133H21.5001V17.9521C21.4954 18.4752 21.698 18.9788 22.0637 19.3528C22.4294 19.7268 22.9284 19.9408 23.4514 19.9478H42.9646C43.2239 19.9455 43.4803 19.8919 43.7189 19.7903C43.9575 19.6886 44.1736 19.5408 44.3549 19.3554C44.5362 19.17 44.6791 18.9505 44.7754 18.7097C44.8717 18.4689 44.9194 18.2114 44.9159 17.9521V3.99133H62.5221V5.98699C62.5041 6.2549 62.5412 6.52366 62.6314 6.77661C62.7215 7.02955 62.8626 7.26128 63.046 7.45743C63.2293 7.65358 63.4511 7.80996 63.6974 7.91688C63.9437 8.02379 64.2093 8.07896 64.4779 8.07896C64.7464 8.07896 65.012 8.02379 65.2583 7.91688C65.5047 7.80996 65.7264 7.65358 65.9098 7.45743C66.0931 7.26128 66.2343 7.02955 66.3244 6.77661C66.4145 6.52366 66.4517 6.2549 66.4336 5.98699V1.99566C66.436 1.73592 66.3871 1.47825 66.2899 1.23738C66.1926 0.996513 66.0489 0.777158 65.8669 0.591841C65.6848 0.406524 65.4681 0.258877 65.229 0.157328C64.9899 0.0557795 64.7332 0.00231914 64.4734 8.20969e-09H1.96924C1.7084 -2.3809e-05 1.45016 0.051775 1.20951 0.152389C0.968866 0.253003 0.750607 0.400427 0.567411 0.586098C0.384215 0.77177 0.239734 0.991988 0.142359 1.23396C0.0449844 1.47594 -0.00334392 1.73485 0.000180871 1.99566V65.8569C-0.00333415 66.1162 0.0444149 66.3737 0.140686 66.6145C0.236957 66.8553 0.379853 67.0748 0.561167 67.2602C0.742482 67.4456 0.958644 67.5934 1.19724 67.6951C1.43583 67.7967 1.69216 67.8503 1.9515 67.8526H41.6874C44.1135 72.2475 48.1609 75.5207 52.9661 76.9738C57.7714 78.427 62.9542 77.9452 67.4093 75.6312C79.6671 88.1462 80.4565 90 84.0132 90C89.4059 90 92.1644 83.3034 88.3238 79.3565L76.0305 66.8237ZM41.0399 3.99133V15.9564H25.4116V3.99133H41.0399ZM42.9912 57.8476C43.0576 54.7719 44.0302 51.7841 45.7873 49.2588C47.5444 46.7335 50.0078 44.7829 52.8687 43.6515C55.7295 42.5202 58.8607 42.2584 61.8698 42.8989C64.8788 43.5395 67.6319 45.0539 69.784 47.2523C71.936 49.4508 73.3913 52.2356 73.9676 55.2576C74.5438 58.2796 74.2152 61.4045 73.0231 64.2406C71.8309 67.0767 69.8283 69.4979 67.266 71.2007C64.7038 72.9035 61.6959 73.8122 58.6195 73.813C54.4313 73.7638 50.4337 72.0552 47.5038 69.0621C44.5739 66.069 42.951 62.0359 42.9912 57.8476ZM82.461 85.3435L70.7797 73.4227C71.9269 72.4898 72.9653 71.4306 73.8752 70.2651L85.5565 82.1947C87.6054 84.288 84.5099 87.4455 82.4876 85.3612L82.461 85.3435Z" fill="#F6C900"/>
<path d="M91.8281 27.9216V1.99566C91.8305 1.73592 91.7816 1.47825 91.6844 1.23738C91.5871 0.996513 91.4434 0.777158 91.2614 0.591841C91.0794 0.406524 90.8626 0.258877 90.6235 0.157328C90.3844 0.0557795 90.1277 0.00231913 89.868 0H82.0627C81.8029 0.00231913 81.5462 0.0557795 81.3071 0.157328C81.068 0.258877 80.8513 0.406524 80.6693 0.591841C80.4872 0.777158 80.3435 0.996513 80.2463 1.23738C80.149 1.47825 80.1002 1.73592 80.1025 1.99566V27.9216H78.1512V9.96945C78.1535 9.71087 78.1049 9.45435 78.0081 9.21456C77.9113 8.97477 77.7682 8.75639 77.587 8.5719C77.4058 8.3874 77.1901 8.24041 76.9521 8.13931C76.7141 8.03821 76.4585 7.98497 76.1999 7.98265H68.3857C68.1272 7.98497 67.8716 8.03821 67.6336 8.13931C67.3955 8.24041 67.1798 8.3874 66.9986 8.5719C66.8174 8.75639 66.6743 8.97477 66.5775 9.21456C66.4807 9.45435 66.4321 9.71087 66.4344 9.96945V27.9216H64.4742V13.9608C64.4778 13.7015 64.43 13.444 64.3337 13.2032C64.2375 12.9624 64.0946 12.7429 63.9133 12.5575C63.7319 12.3721 63.5158 12.2243 63.2772 12.1226C63.0386 12.0209 62.7823 11.9674 62.5229 11.9651H54.7088C54.4495 11.9674 54.1931 12.0209 53.9545 12.1226C53.7159 12.2243 53.4998 12.3721 53.3185 12.5575C53.1371 12.7429 52.9943 12.9624 52.898 13.2032C52.8017 13.444 52.754 13.7015 52.7575 13.9608V27.9216C50.1676 27.9216 50.1764 31.9129 52.7575 31.9129H91.8281C94.4092 31.9129 94.4092 27.9216 91.8281 27.9216ZM56.6601 27.9216V15.9564H60.5716V27.9216H56.6601ZM70.3371 27.9216V11.9562H74.2486V27.9216H70.3371ZM84.014 27.9216V3.97359H87.9166V27.9216H84.014Z" fill="#F6C900"/>
<path d="M9.7574 43.8779C9.49807 43.8802 9.24174 43.9338 9.00315 44.0354C8.76455 44.1371 8.54839 44.2849 8.36708 44.4703C8.18576 44.6557 8.04286 44.8752 7.94659 45.116C7.85032 45.3568 7.80257 45.6143 7.80609 45.8736V57.8476C7.80257 58.1069 7.85032 58.3644 7.94659 58.6052C8.04286 58.846 8.18576 59.0654 8.36708 59.2509C8.54839 59.4363 8.76455 59.5841 9.00315 59.6858C9.24174 59.7874 9.49807 59.8409 9.7574 59.8432H29.2706C29.5299 59.8409 29.7862 59.7874 30.0248 59.6858C30.2634 59.5841 30.4796 59.4363 30.6609 59.2509C30.8422 59.0654 30.9851 58.846 31.0814 58.6052C31.1776 58.3644 31.2254 58.1069 31.2219 57.8476V45.8736C31.2254 45.6143 31.1776 45.3568 31.0814 45.116C30.9851 44.8752 30.8422 44.6557 30.6609 44.4703C30.4796 44.2849 30.2634 44.1371 30.0248 44.0354C29.7862 43.9338 29.5299 43.8802 29.2706 43.8779H9.7574ZM27.3636 55.8519H11.7353V47.8693H27.3636V55.8519Z" fill="#F6C900"/>
<path d="M17.5977 53.8563H21.5004C24.0903 53.8563 24.0814 49.865 21.5004 49.865H17.5977C15.0078 49.865 15.0078 53.8563 17.5977 53.8563Z" fill="#F6C900"/>
</g>
<defs>
<filter id="filter0_d" x="0" y="0" width="98.2639" height="94.5" filterUnits="userSpaceOnUse" color-interpolation-filters="sRGB">
<feFlood flood-opacity="0" result="BackgroundImageFix"/>
<feColorMatrix in="SourceAlpha" type="matrix" values="0 0 0 0 0 0 0 0 0 0 0 0 0 0 0 0 0 0 127 0" result="hardAlpha"/>
<feOffset dx="4" dy="4"/>
<feGaussianBlur stdDeviation="0.25"/>
<feColorMatrix type="matrix" values="0 0 0 0 0 0 0 0 0 0 0 0 0 0 0 0 0 0 0.1 0"/>
<feBlend mode="normal" in2="BackgroundImageFix" result="effect1_dropShadow"/>
<feBlend mode="normal" in="SourceGraphic" in2="effect1_dropShadow" result="shape"/>
</filter>
</defs>
</svg>
