<svg width="95" height="95" viewBox="0 0 95 95" fill="none" xmlns="http://www.w3.org/2000/svg">
<g filter="url(#filter0_d)">
<path d="M29.4391 8.08406C21.3125 -0.0508563 21.8292 0.382562 21.3291 0.174188C20.829 -0.034186 22.4544 0.0324935 1.87536 0.0324935C1.37799 0.0324935 0.900981 0.230076 0.549282 0.581775C0.197583 0.933474 0 1.41048 0 1.90786V31.9137C0 32.4111 0.197583 32.8881 0.549282 33.2398C0.900981 33.5915 1.37799 33.7891 1.87536 33.7891H28.1138C28.6112 33.7891 29.0882 33.5915 29.4399 33.2398C29.7916 32.8881 29.9892 32.4111 29.9892 31.9137C29.9892 7.98404 30.2309 8.86754 29.4391 8.08406ZM26.2468 30.0217H3.74239V3.78322H19.8455L26.2468 10.1845V30.0217Z" fill="#F6C900"/>
<path d="M9.37683 18.7778H20.6207C21.1181 18.7778 21.5951 18.5802 21.9468 18.2285C22.2985 17.8768 22.496 17.3998 22.496 16.9025C22.496 16.4051 22.2985 15.9281 21.9468 15.5764C21.5951 15.2247 21.1181 15.0271 20.6207 15.0271H9.37683C8.87945 15.0271 8.40245 15.2247 8.05075 15.5764C7.69905 15.9281 7.50146 16.4051 7.50146 16.9025C7.50146 17.3998 7.69905 17.8768 8.05075 18.2285C8.40245 18.5802 8.87945 18.7778 9.37683 18.7778Z" fill="#F6C900"/>
<path d="M20.6207 22.5286H9.37683C8.87945 22.5286 8.40245 22.7261 8.05075 23.0778C7.69905 23.4295 7.50146 23.9066 7.50146 24.4039C7.50146 24.9013 7.69905 25.3783 8.05075 25.73C8.40245 26.0817 8.87945 26.2793 9.37683 26.2793H20.6207C21.1181 26.2793 21.5951 26.0817 21.9468 25.73C22.2985 25.3783 22.496 24.9013 22.496 24.4039C22.496 23.9066 22.2985 23.4295 21.9468 23.0778C21.5951 22.7261 21.1181 22.5286 20.6207 22.5286Z" fill="#F6C900"/>
<path d="M89.8348 8.69254C89.6264 8.20078 90.0765 8.73422 81.9249 0.582635C81.1414 -0.200851 81.9916 0.0325277 61.8544 0.0325277C61.6085 0.0325253 61.365 0.0810923 61.1379 0.17544C60.9109 0.269788 60.7047 0.408058 60.5312 0.582312C60.3577 0.756565 60.2204 0.96337 60.127 1.19085C60.0337 1.41833 59.9862 1.66201 59.9873 1.90789V31.9137C59.9862 32.1596 60.0337 32.4033 60.127 32.6308C60.2204 32.8582 60.3577 33.065 60.5312 33.2393C60.7047 33.4136 60.9109 33.5518 61.1379 33.6462C61.365 33.7405 61.6085 33.7891 61.8544 33.7891H88.1011C88.5985 33.7891 89.0755 33.5915 89.4272 33.2398C89.7789 32.8881 89.9765 32.4111 89.9765 31.9137C89.9765 7.30894 90.0348 9.1843 89.8348 8.69254ZM86.2258 30.0217H63.7214V3.78326H79.8162L86.2174 10.1845L86.2258 30.0217Z" fill="#F6C900"/>
<path d="M69.3558 18.7778H80.5997C81.0971 18.7778 81.5741 18.5802 81.9258 18.2285C82.2775 17.8768 82.475 17.3998 82.475 16.9025C82.475 16.4051 82.2775 15.9281 81.9258 15.5764C81.5741 15.2247 81.0971 15.0271 80.5997 15.0271H69.3558C68.8585 15.0271 68.3814 15.2247 68.0297 15.5764C67.678 15.9281 67.4805 16.4051 67.4805 16.9025C67.4805 17.3998 67.678 17.8768 68.0297 18.2285C68.3814 18.5802 68.8585 18.7778 69.3558 18.7778Z" fill="#F6C900"/>
<path d="M80.5997 22.5286H69.3558C68.8585 22.5286 68.3814 22.7261 68.0297 23.0778C67.678 23.4295 67.4805 23.9066 67.4805 24.4039C67.4805 24.9013 67.678 25.3783 68.0297 25.73C68.3814 26.0817 68.8585 26.2793 69.3558 26.2793H80.5997C81.0971 26.2793 81.5741 26.0817 81.9258 25.73C82.2775 25.3783 82.475 24.9013 82.475 24.4039C82.475 23.9066 82.2775 23.4295 81.9258 23.0778C81.5741 22.7261 81.0971 22.5286 80.5997 22.5286Z" fill="#F6C900"/>
<path d="M89.4264 64.2866C81.2915 56.1517 81.8166 56.5851 81.3165 56.3851C80.8164 56.185 82.4334 56.2434 61.8544 56.2434C61.6085 56.2434 61.365 56.292 61.1379 56.3863C60.9109 56.4807 60.7047 56.6189 60.5312 56.7932C60.3577 56.9674 60.2204 57.1742 60.127 57.4017C60.0337 57.6292 59.9862 57.8729 59.9873 58.1188V88.1246C59.9862 88.3705 60.0337 88.6141 60.127 88.8416C60.2204 89.0691 60.3577 89.2759 60.5312 89.4502C60.7047 89.6244 60.9109 89.7627 61.1379 89.857C61.365 89.9514 61.6085 90 61.8544 90H88.1011C88.5985 90 89.0755 89.8024 89.4272 89.4507C89.7789 89.099 89.9765 88.622 89.9765 88.1246C89.9765 64.2116 90.2099 65.1201 89.4264 64.2866ZM86.2258 86.2326H63.7214V60.0191H79.8162L86.2174 66.412L86.2258 86.2326Z" fill="#F6C900"/>
<path d="M69.3558 75.0138H80.5997C81.0971 75.0138 81.5741 74.8162 81.9258 74.4645C82.2775 74.1128 82.475 73.6358 82.475 73.1384C82.475 72.641 82.2775 72.164 81.9258 71.8123C81.5741 71.4606 81.0971 71.2631 80.5997 71.2631H69.3558C68.8585 71.2631 68.3814 71.4606 68.0297 71.8123C67.678 72.164 67.4805 72.641 67.4805 73.1384C67.4805 73.6358 67.678 74.1128 68.0297 74.4645C68.3814 74.8162 68.8585 75.0138 69.3558 75.0138Z" fill="#F6C900"/>
<path d="M80.5997 78.7561H69.3558C68.8585 78.7561 68.3814 78.9537 68.0297 79.3054C67.678 79.6571 67.4805 80.1341 67.4805 80.6315C67.4805 81.1288 67.678 81.6058 68.0297 81.9575C68.3814 82.3092 68.8585 82.5068 69.3558 82.5068H80.5997C81.0971 82.5068 81.5741 82.3092 81.9258 81.9575C82.2775 81.6058 82.475 81.1288 82.475 80.6315C82.475 80.1341 82.2775 79.6571 81.9258 79.3054C81.5741 78.9537 81.0971 78.7561 80.5997 78.7561Z" fill="#F6C900"/>
<path d="M29.4391 64.2866C21.3125 56.1517 21.8292 56.5851 21.3291 56.3851C20.829 56.185 22.4544 56.2434 1.87536 56.2434C1.37799 56.2434 0.900981 56.441 0.549282 56.7927C0.197583 57.1444 0 57.6214 0 58.1188V88.1246C0 88.622 0.197583 89.099 0.549282 89.4507C0.900981 89.8024 1.37799 90 1.87536 90H28.1138C28.6112 90 29.0882 89.8024 29.4399 89.4507C29.7916 89.099 29.9892 88.622 29.9892 88.1246C29.9892 64.2116 30.2309 65.1201 29.4391 64.2866ZM26.2468 86.2326H3.74239V60.0191H19.8455L26.2468 66.412V86.2326Z" fill="#F6C900"/>
<path d="M13.1196 77.9811L10.7024 75.5556C10.3469 75.2243 9.87671 75.044 9.39087 75.0526C8.90502 75.0611 8.44147 75.258 8.09787 75.6016C7.75427 75.9452 7.55745 76.4087 7.54888 76.8946C7.5403 77.3804 7.72065 77.8506 8.05191 78.2061L11.7776 81.9568C12.1293 82.308 12.6059 82.5053 13.1029 82.5053C13.5999 82.5053 14.0765 82.308 14.4282 81.9568L21.9296 74.4554C22.1047 74.2814 22.2439 74.0745 22.3391 73.8467C22.4343 73.6189 22.4837 73.3746 22.4844 73.1277C22.4852 72.8808 22.4374 72.6362 22.3436 72.4078C22.2498 72.1794 22.112 71.9717 21.9379 71.7965C21.7639 71.6214 21.5571 71.4823 21.3293 71.3871C21.1015 71.2919 20.8571 71.2425 20.6102 71.2417C20.3633 71.2409 20.1187 71.2888 19.8903 71.3826C19.6619 71.4763 19.4542 71.6142 19.2791 71.7882L13.1196 77.9811Z" fill="#F6C900"/>
<path d="M48.1847 9.95104C47.8321 9.59956 47.3544 9.40254 46.8565 9.40332C46.3587 9.4041 45.8815 9.60262 45.53 9.95521C45.1785 10.3078 44.9815 10.7856 44.9823 11.2834C44.9831 11.7813 45.1816 12.2584 45.5342 12.6099C46.3177 13.4434 47.4346 13.16 39.3663 13.16C38.869 13.16 38.3919 13.3576 38.0403 13.7093C37.6886 14.061 37.491 14.538 37.491 15.0354C37.491 15.5327 37.6886 16.0097 38.0403 16.3614C38.3919 16.7131 38.869 16.9107 39.3663 16.9107H46.0843L45.5342 17.4608C45.2029 17.8163 45.0226 18.2865 45.0312 18.7724C45.0397 19.2582 45.2366 19.7218 45.5802 20.0654C45.9237 20.409 46.3873 20.6058 46.8732 20.6144C47.359 20.623 47.8292 20.4426 48.1847 20.1113C54.0192 14.2769 53.9358 15.7022 48.1847 9.95104Z" fill="#F6C900"/>
<path d="M50.609 73.1385H43.8911L44.4412 72.5884C44.6152 72.4138 44.7531 72.2067 44.8471 71.9788C44.9411 71.7509 44.9893 71.5067 44.9889 71.2602C44.9885 71.0137 44.9396 70.7697 44.8449 70.5421C44.7502 70.3145 44.6116 70.1077 44.437 69.9337C44.2624 69.7597 44.0553 69.6217 43.8274 69.5278C43.5995 69.4338 43.3553 69.3856 43.1088 69.386C42.8623 69.3864 42.6183 69.4353 42.3907 69.53C42.1631 69.6247 41.9563 69.7633 41.7823 69.9379C37.8649 73.847 37.8315 73.7886 37.6148 74.2971C37.4746 74.6399 37.4385 75.0164 37.5112 75.3797C37.5838 75.7429 37.7619 76.0766 38.0233 76.3391C42.1074 80.4232 42.0824 80.6316 43.0992 80.6316C43.4699 80.6313 43.8322 80.5211 44.1403 80.315C44.4484 80.1089 44.6885 79.8162 44.8303 79.4737C44.9721 79.1312 45.0092 78.7544 44.937 78.3908C44.8648 78.0273 44.6864 77.6933 44.4245 77.431C43.6327 76.6475 42.5241 76.8809 50.5924 76.8809C51.0672 76.8514 51.5131 76.6425 51.8398 76.2965C52.1664 75.9505 52.3492 75.4933 52.3514 75.0175C52.3535 74.5417 52.1747 74.0829 51.8512 73.734C51.5277 73.3851 51.0836 73.1722 50.609 73.1385Z" fill="#F6C900"/>
<path d="M73.1056 39.3985V46.1165L72.5555 45.5663C72.1999 45.2351 71.7297 45.0547 71.2439 45.0633C70.758 45.0719 70.2945 45.2687 69.9509 45.6123C69.6073 45.9559 69.4105 46.4194 69.4019 46.9053C69.3933 47.3911 69.5737 47.8614 69.9049 48.2169L73.6473 51.9676C74.0004 52.3193 74.4784 52.5168 74.9768 52.5168C75.4751 52.5168 75.9531 52.3193 76.3062 51.9676L80.0486 48.2169C80.3798 47.8614 80.5602 47.3911 80.5516 46.9053C80.543 46.4194 80.3462 45.9559 80.0026 45.6123C79.659 45.2687 79.1955 45.0719 78.7096 45.0633C78.2238 45.0547 77.7536 45.2351 77.3981 45.5663C76.6146 46.3498 76.848 47.4667 76.848 39.3985C76.8163 38.9238 76.6053 38.4789 76.2579 38.1539C75.9105 37.8289 75.4525 37.6481 74.9768 37.6481C74.501 37.6481 74.043 37.8289 73.6956 38.1539C73.3482 38.4789 73.1373 38.9238 73.1056 39.3985Z" fill="#F6C900"/>
</g>
<defs>
<filter id="filter0_d" x="0" y="0" width="94.509" height="94.5" filterUnits="userSpaceOnUse" color-interpolation-filters="sRGB">
<feFlood flood-opacity="0" result="BackgroundImageFix"/>
<feColorMatrix in="SourceAlpha" type="matrix" values="0 0 0 0 0 0 0 0 0 0 0 0 0 0 0 0 0 0 127 0" result="hardAlpha"/>
<feOffset dx="4" dy="4"/>
<feGaussianBlur stdDeviation="0.25"/>
<feColorMatrix type="matrix" values="0 0 0 0 0 0 0 0 0 0 0 0 0 0 0 0 0 0 0.1 0"/>
<feBlend mode="normal" in2="BackgroundImageFix" result="effect1_dropShadow"/>
<feBlend mode="normal" in="SourceGraphic" in2="effect1_dropShadow" result="shape"/>
</filter>
</defs>
</svg>
