<svg width="95" height="95" viewBox="0 0 95 95" fill="none" xmlns="http://www.w3.org/2000/svg">
<g filter="url(#filter0_d)">
<path d="M80.6281 3.73541H49.5609C48.5424 2.53416 47.4269 1.41867 46.2257 0.400222C45.8793 0.140434 45.458 0 45.025 0C44.592 0 44.1707 0.140434 43.8243 0.400222C42.6248 1.42057 41.5095 2.53591 40.4892 3.73541H9.38021C6.89454 3.73761 4.51119 4.72545 2.75278 6.4823C0.994366 8.23915 0.00441406 10.6216 0 13.1073V61.8594C0.00440858 64.3458 0.994093 66.7291 2.75227 68.4873C4.51045 70.2455 6.89378 71.2352 9.38021 71.2396H31.8927V86.2479H28.1406C27.6431 86.2479 27.1659 86.4456 26.8141 86.7974C26.4622 87.1492 26.2646 87.6264 26.2646 88.124C26.2646 88.6215 26.4622 89.0987 26.8141 89.4505C27.1659 89.8023 27.6431 90 28.1406 90H61.876C62.3736 90 62.8508 89.8023 63.2026 89.4505C63.5544 89.0987 63.7521 88.6215 63.7521 88.124C63.7521 87.6264 63.5544 87.1492 63.2026 86.7974C62.8508 86.4456 62.3736 86.2479 61.876 86.2479H58.1323V71.2396H80.6448C83.1312 71.2352 85.5146 70.2455 87.2727 68.4873C89.0309 66.7291 90.0206 64.3458 90.025 61.8594V13.1073C90.0206 10.6187 89.0283 8.23373 87.2663 6.47641C85.5043 4.71908 83.1167 3.73319 80.6281 3.73541ZM80.6281 7.48749C82.1193 7.48749 83.5496 8.07931 84.6049 9.13299C85.6601 10.1867 86.254 11.6161 86.2562 13.1073V56.2396H78.5686C78.134 54.1258 76.985 52.226 75.3148 50.8595C73.6446 49.4929 71.5549 48.7429 69.3969 48.7354H63.5603C63.143 47.1267 62.2034 45.7021 60.8891 44.685C59.5747 43.6679 57.9599 43.1159 56.2979 43.1156C55.625 43.114 54.965 42.9302 54.3881 42.5838C53.8111 42.2373 53.3388 41.7411 53.0211 41.1479C53.3789 41.0571 53.7015 40.862 53.948 40.5873C54.1945 40.3126 54.3537 39.9708 54.4052 39.6053L54.6887 37.4875H65.6281C65.9772 37.4871 66.3193 37.3893 66.6159 37.2051C66.9125 37.0209 67.1517 36.7576 67.3068 36.4449C67.4619 36.1321 67.5267 35.7822 67.4938 35.4347C67.4609 35.0871 67.3316 34.7556 67.1206 34.4775C56.1228 20.0528 56.5648 20.5864 56.373 20.4113C56.0905 15.8361 54.6936 11.3993 52.3041 7.48749H80.6281ZM45 4.4358C47.8336 7.09993 49.9922 10.4005 51.2971 14.0644C52.602 17.7283 53.0158 21.6503 52.5042 25.5058L51.9038 29.9833H38.1462L37.5459 25.5058C37.0273 21.6543 37.4329 17.7346 38.7291 14.0708C40.0252 10.4071 42.1748 7.10439 45 4.4358ZM39.1634 37.4875L38.6631 33.7354H51.3619L50.8616 37.4875H39.1634ZM56.1395 26.2646L61.8427 33.7688H55.1223L56.1395 26.2646ZM33.8688 26.2646L34.861 33.7688H28.1907L33.8688 26.2646ZM40.9894 41.2729H49.0189C49.4351 42.8775 50.371 44.299 51.6802 45.3157C52.9895 46.3324 54.5986 46.8869 56.2563 46.8927C57.2507 46.8949 58.2038 47.2909 58.9069 47.9941C59.6101 48.6973 60.0061 49.6504 60.0083 50.6448C60.0072 50.8908 60.0547 51.1345 60.1481 51.3621C60.2415 51.5897 60.3789 51.7966 60.5524 51.9709C60.726 52.1452 60.9322 52.2835 61.1594 52.3779C61.3865 52.4723 61.6301 52.5208 61.876 52.5208H69.3802C70.5398 52.5243 71.6699 52.8868 72.615 53.5587C73.5601 54.2306 74.2739 55.1788 74.6581 56.2729H15.3502C15.7344 55.1788 16.4482 54.2306 17.3933 53.5587C18.3384 52.8868 19.4685 52.5243 20.6281 52.5208H28.1323C28.6299 52.5208 29.107 52.3232 29.4589 51.9714C29.8107 51.6195 30.0083 51.1424 30.0083 50.6448C30.0105 49.6504 30.4066 48.6973 31.1097 47.9941C31.8129 47.2909 32.766 46.8949 33.7604 46.8927C35.4211 46.8831 37.0316 46.323 38.3398 45.3C39.648 44.277 40.5798 42.8489 40.9894 41.2396V41.2729ZM3.75208 13.1073C3.75429 11.6161 4.34823 10.1867 5.40347 9.13299C6.45871 8.07931 7.88898 7.48749 9.38021 7.48749H37.7293C33.5603 14.3163 33.9939 19.8694 33.4019 20.7198C22.0539 35.5614 21.9872 35.0195 22.6959 36.4452C23.4047 37.871 23.5881 37.4875 35.3613 37.4875C35.6365 39.5636 35.5614 40.756 37.0289 41.1479C36.7112 41.7411 36.2389 42.2373 35.6619 42.5838C35.085 42.9302 34.425 43.114 33.7521 43.1156C32.0901 43.1159 30.4753 43.6679 29.161 44.685C27.8466 45.7021 26.907 47.1267 26.4897 48.7354H20.6531C18.4951 48.7429 16.4054 49.4929 14.7352 50.8595C13.065 52.226 11.916 54.1258 11.4814 56.2396H3.75208V13.1073ZM54.3802 86.2396H35.6281V71.2312H54.3802V86.2396ZM86.2562 61.8594C86.254 63.3514 85.6604 64.7816 84.6054 65.8366C83.5504 66.8916 82.1201 67.4853 80.6281 67.4875H9.38021C7.88822 67.4853 6.45796 66.8916 5.40296 65.8366C4.34796 64.7816 3.75429 63.3514 3.75208 61.8594V59.9917H86.2979L86.2562 61.8594Z" fill="#F6C900"/>
<path d="M15.0001 61.8594C14.5025 61.8594 14.0253 62.057 13.6735 62.4089C13.3217 62.7607 13.124 63.2379 13.124 63.7354C13.124 64.233 13.3217 64.7102 13.6735 65.062C14.0253 65.4138 14.5025 65.6115 15.0001 65.6115C15.4976 65.6115 15.9748 65.4138 16.3266 65.062C16.6785 64.7102 16.8761 64.233 16.8761 63.7354C16.8761 63.2379 16.6785 62.7607 16.3266 62.4089C15.9748 62.057 15.4976 61.8594 15.0001 61.8594Z" fill="#F6C900"/>
<path d="M45.0002 26.2395C46.1137 26.2412 47.2026 25.9125 48.1292 25.2951C49.0559 24.6776 49.7786 23.7992 50.2058 22.771C50.6331 21.7427 50.7457 20.6108 50.5295 19.5185C50.3133 18.4262 49.7779 17.4226 48.9911 16.6347C48.2044 15.8467 47.2015 15.3099 46.1096 15.092C45.0176 14.8742 43.8855 14.9852 42.8566 15.4109C41.8277 15.8366 40.9483 16.558 40.3295 17.4837C39.7107 18.4094 39.3804 19.4979 39.3804 20.6114C39.3826 22.102 39.9751 23.5309 41.0283 24.5857C42.0815 25.6405 43.5096 26.2351 45.0002 26.2395ZM45.0002 18.7354C45.4977 18.7354 45.9749 18.933 46.3267 19.2848C46.6785 19.6367 46.8762 20.1138 46.8762 20.6114C46.8762 21.109 46.6785 21.5861 46.3267 21.938C45.9749 22.2898 45.4977 22.4874 45.0002 22.4874C44.5026 22.4874 44.0254 22.2898 43.6736 21.938C43.3218 21.5861 43.1241 21.109 43.1241 20.6114C43.1241 20.1138 43.3218 19.6367 43.6736 19.2848C44.0254 18.933 44.5026 18.7354 45.0002 18.7354Z" fill="#F6C900"/>
</g>
<defs>
<filter id="filter0_d" x="0" y="0" width="94.525" height="94.5" filterUnits="userSpaceOnUse" color-interpolation-filters="sRGB">
<feFlood flood-opacity="0" result="BackgroundImageFix"/>
<feColorMatrix in="SourceAlpha" type="matrix" values="0 0 0 0 0 0 0 0 0 0 0 0 0 0 0 0 0 0 127 0" result="hardAlpha"/>
<feOffset dx="4" dy="4"/>
<feGaussianBlur stdDeviation="0.25"/>
<feColorMatrix type="matrix" values="0 0 0 0 0 0 0 0 0 0 0 0 0 0 0 0 0 0 0.1 0"/>
<feBlend mode="normal" in2="BackgroundImageFix" result="effect1_dropShadow"/>
<feBlend mode="normal" in="SourceGraphic" in2="effect1_dropShadow" result="shape"/>
</filter>
</defs>
</svg>
